G04 EAGLE Gerber RS-274X export*
G75*
%MOMM*%
%FSLAX34Y34*%
%LPD*%
%INSolderpaste Top*%
%IPPOS*%
%AMOC8*
5,1,8,0,0,1.08239X$1,22.5*%
G01*
%ADD10R,1.930400X3.810000*%
%ADD11R,3.810000X1.930400*%
%ADD12R,1.500000X1.300000*%
%ADD13R,0.700000X1.300000*%
%ADD14R,1.100000X1.000000*%
%ADD15R,1.000000X1.100000*%
%ADD16R,0.800000X0.800000*%
%ADD17R,1.000000X1.400000*%


D10*
X145193Y560036D03*
X96171Y560036D03*
D11*
G36*
X305089Y460564D02*
X332029Y487504D01*
X345679Y473854D01*
X318739Y446914D01*
X305089Y460564D01*
G37*
G36*
X270425Y495228D02*
X297365Y522168D01*
X311015Y508518D01*
X284075Y481578D01*
X270425Y495228D01*
G37*
X387016Y271840D03*
X387016Y320862D03*
G36*
X286433Y111425D02*
X313373Y84485D01*
X299723Y70835D01*
X272783Y97775D01*
X286433Y111425D01*
G37*
G36*
X321097Y146088D02*
X348037Y119148D01*
X334387Y105498D01*
X307447Y132438D01*
X321097Y146088D01*
G37*
D10*
X98790Y30049D03*
X147812Y30049D03*
D11*
G36*
X-61527Y130430D02*
X-88467Y103490D01*
X-102117Y117140D01*
X-75177Y144080D01*
X-61527Y130430D01*
G37*
G36*
X-26863Y95766D02*
X-53803Y68826D01*
X-67453Y82476D01*
X-40513Y109416D01*
X-26863Y95766D01*
G37*
X-143059Y318193D03*
X-143059Y269171D03*
G36*
X-42501Y478585D02*
X-69441Y505525D01*
X-55791Y519175D01*
X-28851Y492235D01*
X-42501Y478585D01*
G37*
G36*
X-77165Y443921D02*
X-104105Y470861D01*
X-90455Y484511D01*
X-63515Y457571D01*
X-77165Y443921D01*
G37*
D12*
X37457Y383056D03*
X37457Y364056D03*
X-80420Y361060D03*
X-80420Y380060D03*
X-110270Y380770D03*
X-110270Y361770D03*
X-140380Y380670D03*
X-140380Y361670D03*
D13*
X144850Y374500D03*
X157550Y374500D03*
X132150Y374500D03*
X119450Y374500D03*
X144850Y429500D03*
X157550Y429500D03*
X132150Y429500D03*
X119450Y429500D03*
D14*
X178328Y57586D03*
X178328Y40586D03*
X242500Y58000D03*
X242500Y41000D03*
X144500Y469000D03*
X144500Y452000D03*
D15*
X119000Y328000D03*
X119000Y311000D03*
X112500Y452000D03*
X112500Y469000D03*
D16*
X200732Y41111D03*
X200732Y56111D03*
X222500Y41000D03*
X222500Y56000D03*
D17*
X-43000Y361000D03*
X-52500Y383000D03*
X-33500Y383000D03*
M02*
