G04 EAGLE Gerber RS-274X export*
G75*
%MOMM*%
%FSLAX34Y34*%
%LPD*%
%INSolderpaste Bottom*%
%IPPOS*%
%AMOC8*
5,1,8,0,0,1.08239X$1,22.5*%
G01*
%ADD10R,0.660400X2.032000*%
%ADD11R,1.500000X0.900000*%
%ADD12R,1.930400X3.810000*%
%ADD13R,3.810000X1.930400*%
%ADD14R,1.600000X1.300000*%
%ADD15R,1.300000X1.600000*%
%ADD16R,1.100000X1.000000*%


D10*
X77640Y383666D03*
X77640Y322198D03*
X90340Y383666D03*
X103040Y383666D03*
X90340Y322198D03*
X103040Y322198D03*
X115740Y383666D03*
X115740Y322198D03*
X128440Y383666D03*
X128440Y322198D03*
X141140Y383666D03*
X153840Y383666D03*
X141140Y322198D03*
X153840Y322198D03*
X166540Y383666D03*
X166540Y322198D03*
D11*
X97468Y465861D03*
X97468Y498861D03*
X146468Y465861D03*
X146468Y498861D03*
X97535Y84118D03*
X97535Y117118D03*
X146535Y84118D03*
X146535Y117118D03*
D12*
X145193Y560036D03*
X96171Y560036D03*
D13*
G36*
X305089Y460564D02*
X332029Y487504D01*
X345679Y473854D01*
X318739Y446914D01*
X305089Y460564D01*
G37*
G36*
X270425Y495228D02*
X297365Y522168D01*
X311015Y508518D01*
X284075Y481578D01*
X270425Y495228D01*
G37*
X387016Y271840D03*
X387016Y320862D03*
G36*
X286433Y111425D02*
X313373Y84485D01*
X299723Y70835D01*
X272783Y97775D01*
X286433Y111425D01*
G37*
G36*
X321097Y146088D02*
X348037Y119148D01*
X334387Y105498D01*
X307447Y132438D01*
X321097Y146088D01*
G37*
D12*
X98790Y30049D03*
X147812Y30049D03*
D13*
G36*
X-61527Y130430D02*
X-88467Y103490D01*
X-102117Y117140D01*
X-75177Y144080D01*
X-61527Y130430D01*
G37*
G36*
X-26863Y95766D02*
X-53803Y68826D01*
X-67453Y82476D01*
X-40513Y109416D01*
X-26863Y95766D01*
G37*
X-143059Y318193D03*
X-143059Y269171D03*
G36*
X-42501Y478585D02*
X-69441Y505525D01*
X-55791Y519175D01*
X-28851Y492235D01*
X-42501Y478585D01*
G37*
G36*
X-77165Y443921D02*
X-104105Y470861D01*
X-90455Y484511D01*
X-63515Y457571D01*
X-77165Y443921D01*
G37*
D14*
X121158Y550774D03*
X121158Y531774D03*
D15*
G36*
X289265Y478886D02*
X298458Y488079D01*
X309771Y476766D01*
X300578Y467573D01*
X289265Y478886D01*
G37*
G36*
X275830Y465451D02*
X285023Y474644D01*
X296336Y463331D01*
X287143Y454138D01*
X275830Y465451D01*
G37*
X376784Y295656D03*
X357784Y295656D03*
G36*
X303000Y124873D02*
X312193Y115680D01*
X300880Y104367D01*
X291687Y113560D01*
X303000Y124873D01*
G37*
G36*
X289565Y138308D02*
X298758Y129115D01*
X287445Y117802D01*
X278252Y126995D01*
X289565Y138308D01*
G37*
D14*
X122174Y38252D03*
X122174Y57252D03*
D15*
G36*
X-47395Y110438D02*
X-56588Y101245D01*
X-67901Y112558D01*
X-58708Y121751D01*
X-47395Y110438D01*
G37*
G36*
X-33960Y123873D02*
X-43153Y114680D01*
X-54466Y125993D01*
X-45273Y135186D01*
X-33960Y123873D01*
G37*
X-134722Y294640D03*
X-115722Y294640D03*
G36*
X-60858Y465808D02*
X-70051Y475001D01*
X-58738Y486314D01*
X-49545Y477121D01*
X-60858Y465808D01*
G37*
G36*
X-47423Y452373D02*
X-56616Y461566D01*
X-45303Y472879D01*
X-36110Y463686D01*
X-47423Y452373D01*
G37*
D16*
X97291Y444119D03*
X114291Y444119D03*
X113801Y148590D03*
X130801Y148590D03*
M02*
