G04 EAGLE Gerber RS-274X export*
G75*
%MOMM*%
%FSLAX34Y34*%
%LPD*%
%INSoldermask Bottom*%
%IPPOS*%
%AMOC8*
5,1,8,0,0,1.08239X$1,22.5*%
G01*
%ADD10C,1.727200*%
%ADD11R,0.863600X2.235200*%
%ADD12R,1.703200X1.103200*%
%ADD13R,2.133600X4.013200*%
%ADD14R,4.013200X2.133600*%
%ADD15R,1.803200X1.503200*%
%ADD16R,1.503200X1.803200*%
%ADD17C,1.511200*%
%ADD18R,2.743200X2.743200*%
%ADD19R,1.303200X1.203200*%
%ADD20C,1.853200*%
%ADD21C,1.879600*%
%ADD22C,1.117600*%


D10*
X-65989Y322686D02*
X-50749Y322686D01*
X-50749Y297286D02*
X-65989Y297286D01*
X-65989Y271886D02*
X-50749Y271886D01*
X296418Y269566D02*
X311658Y269566D01*
X311658Y294966D02*
X296418Y294966D01*
X296418Y320366D02*
X311658Y320366D01*
D11*
X77640Y383666D03*
X77640Y322198D03*
X90340Y383666D03*
X103040Y383666D03*
X90340Y322198D03*
X103040Y322198D03*
X115740Y383666D03*
X115740Y322198D03*
X128440Y383666D03*
X128440Y322198D03*
X141140Y383666D03*
X153840Y383666D03*
X141140Y322198D03*
X153840Y322198D03*
X166540Y383666D03*
X166540Y322198D03*
D10*
X83869Y222654D02*
X83869Y207414D01*
X109269Y207414D02*
X109269Y222654D01*
X134669Y222654D02*
X134669Y207414D01*
X160069Y207414D02*
X160069Y222654D01*
D12*
X97468Y465861D03*
X97468Y498861D03*
X146468Y465861D03*
X146468Y498861D03*
X97535Y84118D03*
X97535Y117118D03*
X146535Y84118D03*
X146535Y117118D03*
D10*
X-50673Y171953D02*
X-65913Y171953D01*
X-65913Y197353D02*
X-50673Y197353D01*
X-50673Y222753D02*
X-65913Y222753D01*
X296880Y171100D02*
X312120Y171100D01*
X312120Y196500D02*
X296880Y196500D01*
X296880Y221900D02*
X312120Y221900D01*
D13*
X145193Y560036D03*
X96171Y560036D03*
D14*
G36*
X303652Y460564D02*
X332029Y488941D01*
X347116Y473854D01*
X318739Y445477D01*
X303652Y460564D01*
G37*
G36*
X268988Y495228D02*
X297365Y523605D01*
X312452Y508518D01*
X284075Y480141D01*
X268988Y495228D01*
G37*
X387016Y271840D03*
X387016Y320862D03*
G36*
X286433Y112862D02*
X314810Y84485D01*
X299723Y69398D01*
X271346Y97775D01*
X286433Y112862D01*
G37*
G36*
X321097Y147525D02*
X349474Y119148D01*
X334387Y104061D01*
X306010Y132438D01*
X321097Y147525D01*
G37*
D13*
X98790Y30049D03*
X147812Y30049D03*
D14*
G36*
X-60090Y130430D02*
X-88467Y102053D01*
X-103554Y117140D01*
X-75177Y145517D01*
X-60090Y130430D01*
G37*
G36*
X-25426Y95766D02*
X-53803Y67389D01*
X-68890Y82476D01*
X-40513Y110853D01*
X-25426Y95766D01*
G37*
X-143059Y318193D03*
X-143059Y269171D03*
G36*
X-42501Y477148D02*
X-70878Y505525D01*
X-55791Y520612D01*
X-27414Y492235D01*
X-42501Y477148D01*
G37*
G36*
X-77165Y442484D02*
X-105542Y470861D01*
X-90455Y485948D01*
X-62078Y457571D01*
X-77165Y442484D01*
G37*
D15*
X121158Y550774D03*
X121158Y531774D03*
D16*
G36*
X287829Y478886D02*
X298458Y489515D01*
X311207Y476766D01*
X300578Y466137D01*
X287829Y478886D01*
G37*
G36*
X274394Y465451D02*
X285023Y476080D01*
X297772Y463331D01*
X287143Y452702D01*
X274394Y465451D01*
G37*
X376784Y295656D03*
X357784Y295656D03*
G36*
X303000Y126309D02*
X313629Y115680D01*
X300880Y102931D01*
X290251Y113560D01*
X303000Y126309D01*
G37*
G36*
X289565Y139744D02*
X300194Y129115D01*
X287445Y116366D01*
X276816Y126995D01*
X289565Y139744D01*
G37*
D15*
X122174Y38252D03*
X122174Y57252D03*
D16*
G36*
X-45959Y110438D02*
X-56588Y99809D01*
X-69337Y112558D01*
X-58708Y123187D01*
X-45959Y110438D01*
G37*
G36*
X-32524Y123873D02*
X-43153Y113244D01*
X-55902Y125993D01*
X-45273Y136622D01*
X-32524Y123873D01*
G37*
X-134722Y294640D03*
X-115722Y294640D03*
G36*
X-60858Y464372D02*
X-71487Y475001D01*
X-58738Y487750D01*
X-48109Y477121D01*
X-60858Y464372D01*
G37*
G36*
X-47423Y450937D02*
X-58052Y461566D01*
X-45303Y474315D01*
X-34674Y463686D01*
X-47423Y450937D01*
G37*
D17*
X966Y473201D02*
X14046Y473201D01*
X14046Y447801D02*
X966Y447801D01*
X966Y422401D02*
X14046Y422401D01*
X14046Y397001D02*
X966Y397001D01*
X966Y371601D02*
X14046Y371601D01*
X14046Y346201D02*
X966Y346201D01*
X966Y320801D02*
X14046Y320801D01*
X14046Y295401D02*
X966Y295401D01*
X966Y270001D02*
X14046Y270001D01*
X14046Y244601D02*
X966Y244601D01*
X966Y219201D02*
X14046Y219201D01*
X14046Y193801D02*
X966Y193801D01*
X966Y168401D02*
X14046Y168401D01*
X14046Y143001D02*
X966Y143001D01*
X966Y117601D02*
X14046Y117601D01*
X229566Y473201D02*
X242646Y473201D01*
X242646Y447801D02*
X229566Y447801D01*
X229566Y422401D02*
X242646Y422401D01*
X242646Y397001D02*
X229566Y397001D01*
X229566Y371601D02*
X242646Y371601D01*
X242646Y346201D02*
X229566Y346201D01*
X229566Y320801D02*
X242646Y320801D01*
X242646Y295401D02*
X229566Y295401D01*
X229566Y270001D02*
X242646Y270001D01*
X242646Y244601D02*
X229566Y244601D01*
X229566Y219201D02*
X242646Y219201D01*
X242646Y193801D02*
X229566Y193801D01*
X229566Y168401D02*
X242646Y168401D01*
X242646Y143001D02*
X229566Y143001D01*
X229566Y117601D02*
X242646Y117601D01*
D18*
X36740Y118157D03*
X36740Y288337D03*
X206920Y118157D03*
X206920Y288337D03*
D10*
X339838Y363019D02*
X333640Y376941D01*
X310436Y366610D02*
X316634Y352688D01*
D19*
X97291Y444119D03*
X114291Y444119D03*
X113801Y148590D03*
X130801Y148590D03*
D20*
X370247Y371368D02*
X385321Y378079D01*
X374989Y401283D02*
X359916Y394572D01*
X349585Y417776D02*
X364658Y424487D01*
D21*
X388115Y351519D03*
X346790Y444335D03*
D22*
X159000Y144000D03*
X125500Y181000D03*
X206500Y142000D03*
X245700Y79300D03*
X255500Y92000D03*
X59500Y152500D03*
X214500Y311000D03*
X269500Y430500D03*
X180500Y311000D03*
X-95500Y182500D03*
X-18000Y200000D03*
X-94000Y262500D03*
X-106500Y228000D03*
X-58100Y345900D03*
X-20200Y417100D03*
X-17000Y461000D03*
X323300Y307900D03*
X326000Y243400D03*
X276200Y243100D03*
X383300Y235400D03*
X313500Y400000D03*
X178000Y424000D03*
X169000Y448000D03*
X54500Y512000D03*
X225500Y529500D03*
X184000Y530000D03*
X2500Y522500D03*
X288000Y360000D03*
X225500Y499000D03*
X190500Y332500D03*
X-65000Y428000D03*
X122000Y267500D03*
X-37500Y150500D03*
X70000Y562000D03*
X-128100Y401100D03*
X349000Y163600D03*
X373000Y191200D03*
X211500Y422500D03*
X292000Y438500D03*
X169000Y470500D03*
X268200Y183000D03*
X58500Y381000D03*
X360600Y241400D03*
X91000Y132000D03*
X-135500Y207000D03*
X68000Y453000D03*
X184500Y398000D03*
X33500Y321000D03*
X267000Y296500D03*
X276000Y336500D03*
X179000Y169500D03*
X126000Y101000D03*
X59500Y78000D03*
X24500Y78000D03*
X-18500Y74500D03*
X355000Y341500D03*
X49200Y345700D03*
X173900Y22200D03*
X365000Y219000D03*
X64000Y290000D03*
X-90000Y197500D03*
X69000Y466500D03*
X107500Y346500D03*
X7500Y493500D03*
X44500Y462000D03*
X196500Y448000D03*
X196500Y416500D03*
X-21500Y238000D03*
X187500Y473000D03*
X-28500Y333500D03*
X202500Y463000D03*
X188500Y224500D03*
X186500Y201500D03*
X-109800Y340500D03*
X166500Y84000D03*
X103500Y513500D03*
X200000Y360500D03*
X287500Y385000D03*
X120500Y346500D03*
X157500Y346500D03*
X286500Y409500D03*
X187500Y373500D03*
M02*
