<svg version="1.1" xmlns="http://www.w3.org/2000/svg" xmlns:xlink="http://www.w3.org/1999/xlink" stroke-linecap="round" stroke-linejoin="round" stroke-width="0" fill-rule="evenodd" width="53.408mm" height="54.488mm" viewBox="-13804 1966 53408 54488" id="zL8sPpyibeRBwVfD2MsG"><defs><circle cx="0" cy="0" r="550" id="zL8sPpyibeRBwVfD2MsG_pad-2"/><circle cx="0" cy="0" r="508" id="zL8sPpyibeRBwVfD2MsG_pad-3"/><circle cx="0" cy="0" r="400" id="zL8sPpyibeRBwVfD2MsG_pad-4"/><circle cx="0" cy="0" r="350" id="zL8sPpyibeRBwVfD2MsG_pad-5"/><circle cx="0" cy="0" r="275" id="zL8sPpyibeRBwVfD2MsG_pad-6"/><circle cx="0" cy="0" r="254" id="zL8sPpyibeRBwVfD2MsG_pad-7"/></defs><g transform="translate(0,58420) scale(1,-1)" fill="currentColor" stroke="currentColor"><use xlink:href="#zL8sPpyibeRBwVfD2MsG_pad-2" x="34679" y="44434"/><use xlink:href="#zL8sPpyibeRBwVfD2MsG_pad-2" x="38811" y="35152"/><use xlink:href="#zL8sPpyibeRBwVfD2MsG_pad-2" x="35712" y="42113"/><use xlink:href="#zL8sPpyibeRBwVfD2MsG_pad-2" x="36745" y="39793"/><use xlink:href="#zL8sPpyibeRBwVfD2MsG_pad-2" x="37778" y="37472"/><use xlink:href="#zL8sPpyibeRBwVfD2MsG_pad-3" x="-5837" y="32269"/><use xlink:href="#zL8sPpyibeRBwVfD2MsG_pad-3" x="13467" y="21503"/><use xlink:href="#zL8sPpyibeRBwVfD2MsG_pad-3" x="16007" y="21503"/><use xlink:href="#zL8sPpyibeRBwVfD2MsG_pad-3" x="-5829" y="17195"/><use xlink:href="#zL8sPpyibeRBwVfD2MsG_pad-3" x="-5829" y="19735"/><use xlink:href="#zL8sPpyibeRBwVfD2MsG_pad-3" x="-5829" y="22275"/><use xlink:href="#zL8sPpyibeRBwVfD2MsG_pad-3" x="30450" y="17110"/><use xlink:href="#zL8sPpyibeRBwVfD2MsG_pad-3" x="30450" y="19650"/><use xlink:href="#zL8sPpyibeRBwVfD2MsG_pad-3" x="30450" y="22190"/><use xlink:href="#zL8sPpyibeRBwVfD2MsG_pad-3" x="-5837" y="29729"/><use xlink:href="#zL8sPpyibeRBwVfD2MsG_pad-3" x="-5837" y="27189"/><use xlink:href="#zL8sPpyibeRBwVfD2MsG_pad-3" x="30404" y="26957"/><use xlink:href="#zL8sPpyibeRBwVfD2MsG_pad-3" x="30404" y="29497"/><use xlink:href="#zL8sPpyibeRBwVfD2MsG_pad-3" x="30404" y="32037"/><use xlink:href="#zL8sPpyibeRBwVfD2MsG_pad-3" x="8387" y="21503"/><use xlink:href="#zL8sPpyibeRBwVfD2MsG_pad-3" x="10927" y="21503"/><use xlink:href="#zL8sPpyibeRBwVfD2MsG_pad-4" x="751" y="21920"/><use xlink:href="#zL8sPpyibeRBwVfD2MsG_pad-4" x="23611" y="14300"/><use xlink:href="#zL8sPpyibeRBwVfD2MsG_pad-4" x="751" y="24460"/><use xlink:href="#zL8sPpyibeRBwVfD2MsG_pad-4" x="751" y="27000"/><use xlink:href="#zL8sPpyibeRBwVfD2MsG_pad-4" x="751" y="29540"/><use xlink:href="#zL8sPpyibeRBwVfD2MsG_pad-4" x="751" y="32080"/><use xlink:href="#zL8sPpyibeRBwVfD2MsG_pad-4" x="751" y="34620"/><use xlink:href="#zL8sPpyibeRBwVfD2MsG_pad-4" x="751" y="37160"/><use xlink:href="#zL8sPpyibeRBwVfD2MsG_pad-4" x="751" y="39700"/><use xlink:href="#zL8sPpyibeRBwVfD2MsG_pad-4" x="751" y="42240"/><use xlink:href="#zL8sPpyibeRBwVfD2MsG_pad-4" x="751" y="44780"/><use xlink:href="#zL8sPpyibeRBwVfD2MsG_pad-4" x="751" y="47320"/><use xlink:href="#zL8sPpyibeRBwVfD2MsG_pad-4" x="751" y="16840"/><use xlink:href="#zL8sPpyibeRBwVfD2MsG_pad-4" x="23611" y="11760"/><use xlink:href="#zL8sPpyibeRBwVfD2MsG_pad-4" x="23611" y="16840"/><use xlink:href="#zL8sPpyibeRBwVfD2MsG_pad-4" x="23611" y="19380"/><use xlink:href="#zL8sPpyibeRBwVfD2MsG_pad-4" x="23611" y="21920"/><use xlink:href="#zL8sPpyibeRBwVfD2MsG_pad-4" x="23611" y="24460"/><use xlink:href="#zL8sPpyibeRBwVfD2MsG_pad-4" x="23611" y="27000"/><use xlink:href="#zL8sPpyibeRBwVfD2MsG_pad-4" x="23611" y="29540"/><use xlink:href="#zL8sPpyibeRBwVfD2MsG_pad-4" x="23611" y="32080"/><use xlink:href="#zL8sPpyibeRBwVfD2MsG_pad-4" x="23611" y="34620"/><use xlink:href="#zL8sPpyibeRBwVfD2MsG_pad-4" x="23611" y="37160"/><use xlink:href="#zL8sPpyibeRBwVfD2MsG_pad-4" x="23611" y="39700"/><use xlink:href="#zL8sPpyibeRBwVfD2MsG_pad-4" x="23611" y="42240"/><use xlink:href="#zL8sPpyibeRBwVfD2MsG_pad-4" x="23611" y="44780"/><use xlink:href="#zL8sPpyibeRBwVfD2MsG_pad-4" x="23611" y="47320"/><use xlink:href="#zL8sPpyibeRBwVfD2MsG_pad-4" x="751" y="11760"/><use xlink:href="#zL8sPpyibeRBwVfD2MsG_pad-4" x="751" y="14300"/><use xlink:href="#zL8sPpyibeRBwVfD2MsG_pad-4" x="751" y="19380"/><use xlink:href="#zL8sPpyibeRBwVfD2MsG_pad-5" x="34910" y="17660"/><use xlink:href="#zL8sPpyibeRBwVfD2MsG_pad-5" x="31033" y="35768"/><use xlink:href="#zL8sPpyibeRBwVfD2MsG_pad-5" x="32850" y="36604"/><use xlink:href="#zL8sPpyibeRBwVfD2MsG_pad-5" x="36910" y="17660"/><use xlink:href="#zL8sPpyibeRBwVfD2MsG_pad-6" x="3674" y="28834"/><use xlink:href="#zL8sPpyibeRBwVfD2MsG_pad-6" x="20692" y="11816"/><use xlink:href="#zL8sPpyibeRBwVfD2MsG_pad-6" x="20692" y="28834"/><use xlink:href="#zL8sPpyibeRBwVfD2MsG_pad-6" x="3674" y="11816"/><use xlink:href="#zL8sPpyibeRBwVfD2MsG_pad-7" x="20250" y="46300"/><use xlink:href="#zL8sPpyibeRBwVfD2MsG_pad-7" x="18850" y="22450"/><use xlink:href="#zL8sPpyibeRBwVfD2MsG_pad-7" x="18650" y="20150"/><use xlink:href="#zL8sPpyibeRBwVfD2MsG_pad-7" x="-11010" y="32010"/><use xlink:href="#zL8sPpyibeRBwVfD2MsG_pad-7" x="16650" y="8400"/><use xlink:href="#zL8sPpyibeRBwVfD2MsG_pad-7" x="11540" y="51830"/><use xlink:href="#zL8sPpyibeRBwVfD2MsG_pad-7" x="18260" y="34670"/><use xlink:href="#zL8sPpyibeRBwVfD2MsG_pad-7" x="12050" y="34650"/><use xlink:href="#zL8sPpyibeRBwVfD2MsG_pad-7" x="15750" y="34650"/><use xlink:href="#zL8sPpyibeRBwVfD2MsG_pad-7" x="33920" y="34018"/><use xlink:href="#zL8sPpyibeRBwVfD2MsG_pad-7" x="28650" y="40950"/><use xlink:href="#zL8sPpyibeRBwVfD2MsG_pad-7" x="18750" y="37350"/><use xlink:href="#zL8sPpyibeRBwVfD2MsG_pad-7" x="28680" y="39350"/><use xlink:href="#zL8sPpyibeRBwVfD2MsG_pad-7" x="-2850" y="33350"/><use xlink:href="#zL8sPpyibeRBwVfD2MsG_pad-7" x="18130" y="31580"/><use xlink:href="#zL8sPpyibeRBwVfD2MsG_pad-7" x="39350" y="24280"/><use xlink:href="#zL8sPpyibeRBwVfD2MsG_pad-7" x="17800" y="42400"/><use xlink:href="#zL8sPpyibeRBwVfD2MsG_pad-7" x="16900" y="44800"/><use xlink:href="#zL8sPpyibeRBwVfD2MsG_pad-7" x="5450" y="51200"/><use xlink:href="#zL8sPpyibeRBwVfD2MsG_pad-7" x="26780" y="47240"/><use xlink:href="#zL8sPpyibeRBwVfD2MsG_pad-7" x="25960" y="53160"/><use xlink:href="#zL8sPpyibeRBwVfD2MsG_pad-7" x="250" y="52250"/><use xlink:href="#zL8sPpyibeRBwVfD2MsG_pad-7" x="28700" y="36060"/><use xlink:href="#zL8sPpyibeRBwVfD2MsG_pad-7" x="22020" y="49880"/><use xlink:href="#zL8sPpyibeRBwVfD2MsG_pad-7" x="27620" y="24310"/><use xlink:href="#zL8sPpyibeRBwVfD2MsG_pad-7" x="-6500" y="42800"/><use xlink:href="#zL8sPpyibeRBwVfD2MsG_pad-7" x="12200" y="26750"/><use xlink:href="#zL8sPpyibeRBwVfD2MsG_pad-7" x="-1690" y="16810"/><use xlink:href="#zL8sPpyibeRBwVfD2MsG_pad-7" x="7000" y="56200"/><use xlink:href="#zL8sPpyibeRBwVfD2MsG_pad-7" x="-12810" y="40110"/><use xlink:href="#zL8sPpyibeRBwVfD2MsG_pad-7" x="34300" y="14850"/><use xlink:href="#zL8sPpyibeRBwVfD2MsG_pad-7" x="39340" y="20780"/><use xlink:href="#zL8sPpyibeRBwVfD2MsG_pad-7" x="21150" y="42250"/><use xlink:href="#zL8sPpyibeRBwVfD2MsG_pad-7" x="-9550" y="18250"/><use xlink:href="#zL8sPpyibeRBwVfD2MsG_pad-7" x="14290" y="18050"/><use xlink:href="#zL8sPpyibeRBwVfD2MsG_pad-7" x="20650" y="14200"/><use xlink:href="#zL8sPpyibeRBwVfD2MsG_pad-7" x="24570" y="7930"/><use xlink:href="#zL8sPpyibeRBwVfD2MsG_pad-7" x="25550" y="9200"/><use xlink:href="#zL8sPpyibeRBwVfD2MsG_pad-7" x="5950" y="15250"/><use xlink:href="#zL8sPpyibeRBwVfD2MsG_pad-7" x="20530" y="31630"/><use xlink:href="#zL8sPpyibeRBwVfD2MsG_pad-7" x="26950" y="43050"/><use xlink:href="#zL8sPpyibeRBwVfD2MsG_pad-7" x="17890" y="29630"/><use xlink:href="#zL8sPpyibeRBwVfD2MsG_pad-7" x="30820" y="43210"/><use xlink:href="#zL8sPpyibeRBwVfD2MsG_pad-7" x="-1800" y="20000"/><use xlink:href="#zL8sPpyibeRBwVfD2MsG_pad-7" x="-10840" y="28020"/><use xlink:href="#zL8sPpyibeRBwVfD2MsG_pad-7" x="-9980" y="23890"/><use xlink:href="#zL8sPpyibeRBwVfD2MsG_pad-7" x="-5810" y="34590"/><use xlink:href="#zL8sPpyibeRBwVfD2MsG_pad-7" x="-2020" y="41710"/><use xlink:href="#zL8sPpyibeRBwVfD2MsG_pad-7" x="-1700" y="46100"/><use xlink:href="#zL8sPpyibeRBwVfD2MsG_pad-7" x="32330" y="30790"/><use xlink:href="#zL8sPpyibeRBwVfD2MsG_pad-7" x="32600" y="24340"/><use xlink:href="#zL8sPpyibeRBwVfD2MsG_pad-7" x="6900" y="46650"/><use xlink:href="#zL8sPpyibeRBwVfD2MsG_pad-7" x="17390" y="2220"/><use xlink:href="#zL8sPpyibeRBwVfD2MsG_pad-7" x="13760" y="6080"/><use xlink:href="#zL8sPpyibeRBwVfD2MsG_pad-7" x="20220" y="37080"/><use xlink:href="#zL8sPpyibeRBwVfD2MsG_pad-7" x="30970" y="38270"/><use xlink:href="#zL8sPpyibeRBwVfD2MsG_pad-7" x="23840" y="2650"/><use xlink:href="#zL8sPpyibeRBwVfD2MsG_pad-7" x="36500" y="21900"/><use xlink:href="#zL8sPpyibeRBwVfD2MsG_pad-7" x="6400" y="29000"/><use xlink:href="#zL8sPpyibeRBwVfD2MsG_pad-7" x="-9000" y="19750"/><use xlink:href="#zL8sPpyibeRBwVfD2MsG_pad-7" x="4920" y="34570"/><use xlink:href="#zL8sPpyibeRBwVfD2MsG_pad-7" x="10750" y="34650"/><use xlink:href="#zL8sPpyibeRBwVfD2MsG_pad-7" x="2250" y="9430"/><use xlink:href="#zL8sPpyibeRBwVfD2MsG_pad-7" x="750" y="49350"/><use xlink:href="#zL8sPpyibeRBwVfD2MsG_pad-7" x="4450" y="46200"/><use xlink:href="#zL8sPpyibeRBwVfD2MsG_pad-7" x="19650" y="44800"/><use xlink:href="#zL8sPpyibeRBwVfD2MsG_pad-7" x="19650" y="41650"/><use xlink:href="#zL8sPpyibeRBwVfD2MsG_pad-7" x="-2150" y="23800"/><use xlink:href="#zL8sPpyibeRBwVfD2MsG_pad-7" x="18750" y="47300"/><use xlink:href="#zL8sPpyibeRBwVfD2MsG_pad-7" x="3350" y="32100"/><use xlink:href="#zL8sPpyibeRBwVfD2MsG_pad-7" x="17270" y="47030"/><use xlink:href="#zL8sPpyibeRBwVfD2MsG_pad-7" x="26820" y="18300"/><use xlink:href="#zL8sPpyibeRBwVfD2MsG_pad-7" x="2990" y="40990"/><use xlink:href="#zL8sPpyibeRBwVfD2MsG_pad-7" x="35140" y="22610"/><use xlink:href="#zL8sPpyibeRBwVfD2MsG_pad-7" x="9100" y="13200"/><use xlink:href="#zL8sPpyibeRBwVfD2MsG_pad-7" x="-13550" y="20700"/><use xlink:href="#zL8sPpyibeRBwVfD2MsG_pad-7" x="6800" y="45300"/><use xlink:href="#zL8sPpyibeRBwVfD2MsG_pad-7" x="18450" y="39800"/><use xlink:href="#zL8sPpyibeRBwVfD2MsG_pad-7" x="15900" y="14400"/><use xlink:href="#zL8sPpyibeRBwVfD2MsG_pad-7" x="26660" y="29630"/><use xlink:href="#zL8sPpyibeRBwVfD2MsG_pad-7" x="27600" y="33650"/><use xlink:href="#zL8sPpyibeRBwVfD2MsG_pad-7" x="17900" y="16950"/><use xlink:href="#zL8sPpyibeRBwVfD2MsG_pad-7" x="12600" y="10100"/><use xlink:href="#zL8sPpyibeRBwVfD2MsG_pad-7" x="5950" y="7800"/><use xlink:href="#zL8sPpyibeRBwVfD2MsG_pad-7" x="2450" y="7800"/><use xlink:href="#zL8sPpyibeRBwVfD2MsG_pad-7" x="-1850" y="7450"/><use xlink:href="#zL8sPpyibeRBwVfD2MsG_pad-7" x="35500" y="34150"/></g></svg>