<svg version="1.1" xmlns="http://www.w3.org/2000/svg" xmlns:xlink="http://www.w3.org/1999/xlink" stroke-linecap="round" stroke-linejoin="round" stroke-width="0" fill-rule="evenodd" width="56.445699999999995mm" height="56.2419mm" viewBox="-16150.7 1438.3 56445.7 56241.9" id="WBiqja34CfJVr7ZQUqZX"><defs><rect x="-431.8" y="-1117.6" width="863.6" height="2235.2" id="WBiqja34CfJVr7ZQUqZX_pad-11"/><rect x="-851.6" y="-551.6" width="1703.2" height="1103.2" id="WBiqja34CfJVr7ZQUqZX_pad-12"/><rect x="-1066.8" y="-2006.6" width="2133.6" height="4013.2" id="WBiqja34CfJVr7ZQUqZX_pad-13"/><rect x="-2006.6" y="-1066.8" width="4013.2" height="2133.6" id="WBiqja34CfJVr7ZQUqZX_pad-14"/><rect x="-901.6" y="-751.6" width="1803.2" height="1503.2" id="WBiqja34CfJVr7ZQUqZX_pad-15"/><rect x="-751.6" y="-901.6" width="1503.2" height="1803.2" id="WBiqja34CfJVr7ZQUqZX_pad-16"/><rect x="-1371.6" y="-1371.6" width="2743.2" height="2743.2" id="WBiqja34CfJVr7ZQUqZX_pad-18"/><circle cx="0" cy="0" r="901.6" id="WBiqja34CfJVr7ZQUqZX_pad-19"/><rect x="-651.6" y="-601.6" width="1303.2" height="1203.2" id="WBiqja34CfJVr7ZQUqZX_pad-20"/><circle cx="0" cy="0" r="939.8" id="WBiqja34CfJVr7ZQUqZX_pad-22"/><circle cx="0" cy="0" r="558.8" id="WBiqja34CfJVr7ZQUqZX_pad-23"/></defs><g transform="translate(0,59118.5) scale(1,-1)" fill="currentColor" stroke="currentColor"><path d="M -6598.9 32268.6 -5074.9 32268.6 M -5074.9 29728.6 -6598.9 29728.6 M -6598.9 27188.6 -5074.9 27188.6 M 29641.8 26956.6 31165.8 26956.6 M 31165.8 29496.6 29641.8 29496.6 M 29641.8 32036.6 31165.8 32036.6" fill="none" stroke-width="1727.2"/><use xlink:href="#WBiqja34CfJVr7ZQUqZX_pad-11" x="7764" y="38366.6"/><use xlink:href="#WBiqja34CfJVr7ZQUqZX_pad-11" x="7764" y="32219.8"/><use xlink:href="#WBiqja34CfJVr7ZQUqZX_pad-11" x="9034" y="38366.6"/><use xlink:href="#WBiqja34CfJVr7ZQUqZX_pad-11" x="10304" y="38366.6"/><use xlink:href="#WBiqja34CfJVr7ZQUqZX_pad-11" x="9034" y="32219.8"/><use xlink:href="#WBiqja34CfJVr7ZQUqZX_pad-11" x="10304" y="32219.8"/><use xlink:href="#WBiqja34CfJVr7ZQUqZX_pad-11" x="11574" y="38366.6"/><use xlink:href="#WBiqja34CfJVr7ZQUqZX_pad-11" x="11574" y="32219.8"/><use xlink:href="#WBiqja34CfJVr7ZQUqZX_pad-11" x="12844" y="38366.6"/><use xlink:href="#WBiqja34CfJVr7ZQUqZX_pad-11" x="12844" y="32219.8"/><use xlink:href="#WBiqja34CfJVr7ZQUqZX_pad-11" x="14114" y="38366.6"/><use xlink:href="#WBiqja34CfJVr7ZQUqZX_pad-11" x="15384" y="38366.6"/><use xlink:href="#WBiqja34CfJVr7ZQUqZX_pad-11" x="14114" y="32219.8"/><use xlink:href="#WBiqja34CfJVr7ZQUqZX_pad-11" x="15384" y="32219.8"/><use xlink:href="#WBiqja34CfJVr7ZQUqZX_pad-11" x="16654" y="38366.6"/><use xlink:href="#WBiqja34CfJVr7ZQUqZX_pad-11" x="16654" y="32219.8"/><path d="M 8386.9 22265.4 8386.9 20741.4 M 10926.9 20741.4 10926.9 22265.4 M 13466.9 22265.4 13466.9 20741.4 M 16006.9 20741.4 16006.9 22265.4" fill="none" stroke-width="1727.2"/><use xlink:href="#WBiqja34CfJVr7ZQUqZX_pad-12" x="9746.8" y="46586.1"/><use xlink:href="#WBiqja34CfJVr7ZQUqZX_pad-12" x="9746.8" y="49886.1"/><use xlink:href="#WBiqja34CfJVr7ZQUqZX_pad-12" x="14646.8" y="46586.1"/><use xlink:href="#WBiqja34CfJVr7ZQUqZX_pad-12" x="14646.8" y="49886.1"/><use xlink:href="#WBiqja34CfJVr7ZQUqZX_pad-12" x="9753.5" y="8411.8"/><use xlink:href="#WBiqja34CfJVr7ZQUqZX_pad-12" x="9753.5" y="11711.8"/><use xlink:href="#WBiqja34CfJVr7ZQUqZX_pad-12" x="14653.5" y="8411.8"/><use xlink:href="#WBiqja34CfJVr7ZQUqZX_pad-12" x="14653.5" y="11711.8"/><path d="M -5067.3 17195.3 -6591.3 17195.3 M -6591.3 19735.3 -5067.3 19735.3 M -5067.3 22275.3 -6591.3 22275.3 M 29688 17110 31212 17110 M 31212 19650 29688 19650 M 29688 22190 31212 22190" fill="none" stroke-width="1727.2"/><use xlink:href="#WBiqja34CfJVr7ZQUqZX_pad-13" x="9676.5" y="55673.6"/><use xlink:href="#WBiqja34CfJVr7ZQUqZX_pad-13" x="14578.7" y="55673.6"/><path d="M 26517.7 49305.9 29355.4 52143.6 30864.1 50634.9 28026.4 47797.2 26517.7 49305.9"/><path d="M 29984.1 45839.6 32821.8 48677.3 34330.5 47168.6 31492.8 44330.9 29984.1 45839.6"/><use xlink:href="#WBiqja34CfJVr7ZQUqZX_pad-14" x="38288.4" y="31846"/><use xlink:href="#WBiqja34CfJVr7ZQUqZX_pad-14" x="38288.4" y="26943.8"/><path d="M 31612.5 14899.8 34450.2 12062.1 32941.5 10553.4 30103.8 13391.1 31612.5 14899.8"/><path d="M 28146.2 11433.4 30983.9 8595.7 29475.2 7087 26637.5 9924.7 28146.2 11433.4"/><use xlink:href="#WBiqja34CfJVr7ZQUqZX_pad-13" x="14521.8" y="3444.9"/><use xlink:href="#WBiqja34CfJVr7ZQUqZX_pad-13" x="9619.6" y="3444.9"/><path d="M -2208.3 9777.9 -5046 6940.2 -6554.7 8448.9 -3717 11286.6 -2208.3 9777.9"/><path d="M -5674.7 13244.3 -8512.4 10406.6 -10021.1 11915.3 -7183.4 14753 -5674.7 13244.3"/><use xlink:href="#WBiqja34CfJVr7ZQUqZX_pad-14" x="-14144.1" y="27070.7"/><use xlink:href="#WBiqja34CfJVr7ZQUqZX_pad-14" x="-14144.1" y="31972.9"/><path d="M -7403.5 44233.4 -10241.2 47071.1 -8732.5 48579.8 -5894.8 45742.1 -7403.5 44233.4"/><path d="M -3937.1 47699.8 -6774.8 50537.5 -5266.1 52046.2 -2428.4 49208.5 -3937.1 47699.8"/><use xlink:href="#WBiqja34CfJVr7ZQUqZX_pad-15" x="17555.8" y="55647.4"/><use xlink:href="#WBiqja34CfJVr7ZQUqZX_pad-15" x="17555.8" y="53747.4"/><path d="M 28782.9 47888.6 29845.8 48951.5 31120.7 47676.6 30057.8 46613.7 28782.9 47888.6"/><path d="M 27439.4 46545.1 28502.3 47608 29777.2 46333.1 28714.3 45270.2 27439.4 46545.1"/><use xlink:href="#WBiqja34CfJVr7ZQUqZX_pad-16" x="37678.4" y="29565.6"/><use xlink:href="#WBiqja34CfJVr7ZQUqZX_pad-16" x="35778.4" y="29565.6"/><path d="M 30300 12630.9 31362.9 11568 30088 10293.1 29025.1 11356 30300 12630.9"/><path d="M 28956.5 13974.4 30019.4 12911.5 28744.5 11636.6 27681.6 12699.5 28956.5 13974.4"/><use xlink:href="#WBiqja34CfJVr7ZQUqZX_pad-15" x="12217.4" y="3825.2"/><use xlink:href="#WBiqja34CfJVr7ZQUqZX_pad-15" x="12217.4" y="5725.2"/><path d="M -4595.9 11043.8 -5658.8 9980.9 -6933.7 11255.8 -5870.8 12318.7 -4595.9 11043.8"/><path d="M -3252.4 12387.3 -4315.3 11324.4 -5590.2 12599.3 -4527.3 13662.2 -3252.4 12387.3"/><use xlink:href="#WBiqja34CfJVr7ZQUqZX_pad-16" x="-13472.2" y="29464"/><use xlink:href="#WBiqja34CfJVr7ZQUqZX_pad-16" x="-11572.2" y="29464"/><path d="M -6085.8 46437.2 -7148.7 47500.1 -5873.8 48775 -4810.9 47712.1 -6085.8 46437.2"/><path d="M -4742.3 45093.7 -5805.2 46156.6 -4530.3 47431.5 -3467.4 46368.6 -4742.3 45093.7"/><path d="M 96.6 47320.1 1404.6 47320.1 M 1404.6 44780.1 96.6 44780.1 M 96.6 42240.1 1404.6 42240.1 M 1404.6 39700.1 96.6 39700.1 M 96.6 37160.1 1404.6 37160.1 M 1404.6 34620.1 96.6 34620.1 M 96.6 32080.1 1404.6 32080.1 M 1404.6 29540.1 96.6 29540.1 M 96.6 27000.1 1404.6 27000.1 M 1404.6 24460.1 96.6 24460.1 M 96.6 21920.1 1404.6 21920.1 M 1404.6 19380.1 96.6 19380.1 M 96.6 16840.1 1404.6 16840.1 M 1404.6 14300.1 96.6 14300.1 M 96.6 11760.1 1404.6 11760.1 M 22956.6 47320.1 24264.6 47320.1 M 24264.6 44780.1 22956.6 44780.1 M 22956.6 42240.1 24264.6 42240.1 M 24264.6 39700.1 22956.6 39700.1 M 22956.6 37160.1 24264.6 37160.1 M 24264.6 34620.1 22956.6 34620.1 M 22956.6 32080.1 24264.6 32080.1 M 24264.6 29540.1 22956.6 29540.1 M 22956.6 27000.1 24264.6 27000.1 M 24264.6 24460.1 22956.6 24460.1 M 22956.6 21920.1 24264.6 21920.1 M 24264.6 19380.1 22956.6 19380.1 M 22956.6 16840.1 24264.6 16840.1 M 24264.6 14300.1 22956.6 14300.1 M 22956.6 11760.1 24264.6 11760.1" fill="none" stroke-width="1511.2"/><use xlink:href="#WBiqja34CfJVr7ZQUqZX_pad-18" x="3674" y="11815.7"/><use xlink:href="#WBiqja34CfJVr7ZQUqZX_pad-18" x="3674" y="28833.7"/><use xlink:href="#WBiqja34CfJVr7ZQUqZX_pad-18" x="20692" y="11815.7"/><use xlink:href="#WBiqja34CfJVr7ZQUqZX_pad-18" x="20692" y="28833.7"/><use xlink:href="#WBiqja34CfJVr7ZQUqZX_pad-19" x="31032.9" y="35768.4"/><use xlink:href="#WBiqja34CfJVr7ZQUqZX_pad-19" x="32849.9" y="36604.2"/><use xlink:href="#WBiqja34CfJVr7ZQUqZX_pad-20" x="9729.1" y="44411.9"/><use xlink:href="#WBiqja34CfJVr7ZQUqZX_pad-20" x="11429.1" y="44411.9"/><use xlink:href="#WBiqja34CfJVr7ZQUqZX_pad-20" x="11380.1" y="14859"/><use xlink:href="#WBiqja34CfJVr7ZQUqZX_pad-20" x="13080.1" y="14859"/><path d="M 37024.7 37136.8 38532.1 37807.9 M 37498.9 40128.3 35991.6 39457.2 M 34958.5 41777.6 36465.8 42448.7" fill="none" stroke-width="1853.2"/><use xlink:href="#WBiqja34CfJVr7ZQUqZX_pad-22" x="38811.5" y="35151.9"/><use xlink:href="#WBiqja34CfJVr7ZQUqZX_pad-22" x="34679" y="44433.5"/><use xlink:href="#WBiqja34CfJVr7ZQUqZX_pad-19" x="36910" y="17660"/><use xlink:href="#WBiqja34CfJVr7ZQUqZX_pad-19" x="34910" y="17660"/><use xlink:href="#WBiqja34CfJVr7ZQUqZX_pad-23" x="15900" y="14400"/><use xlink:href="#WBiqja34CfJVr7ZQUqZX_pad-23" x="14290" y="18050"/><use xlink:href="#WBiqja34CfJVr7ZQUqZX_pad-23" x="20650" y="14200"/><use xlink:href="#WBiqja34CfJVr7ZQUqZX_pad-23" x="24570" y="7930"/><use xlink:href="#WBiqja34CfJVr7ZQUqZX_pad-23" x="25550" y="9200"/><use xlink:href="#WBiqja34CfJVr7ZQUqZX_pad-23" x="5950" y="15250"/><use xlink:href="#WBiqja34CfJVr7ZQUqZX_pad-23" x="20530" y="31630"/><use xlink:href="#WBiqja34CfJVr7ZQUqZX_pad-23" x="26950" y="43050"/><use xlink:href="#WBiqja34CfJVr7ZQUqZX_pad-23" x="17890" y="29630"/><use xlink:href="#WBiqja34CfJVr7ZQUqZX_pad-23" x="-9550" y="18250"/><use xlink:href="#WBiqja34CfJVr7ZQUqZX_pad-23" x="-1800" y="20000"/><use xlink:href="#WBiqja34CfJVr7ZQUqZX_pad-23" x="-10840" y="28020"/><use xlink:href="#WBiqja34CfJVr7ZQUqZX_pad-23" x="-9980" y="23890"/><use xlink:href="#WBiqja34CfJVr7ZQUqZX_pad-23" x="-5810" y="34590"/><use xlink:href="#WBiqja34CfJVr7ZQUqZX_pad-23" x="-2020" y="41710"/><use xlink:href="#WBiqja34CfJVr7ZQUqZX_pad-23" x="-1700" y="46100"/><use xlink:href="#WBiqja34CfJVr7ZQUqZX_pad-23" x="32330" y="30790"/><use xlink:href="#WBiqja34CfJVr7ZQUqZX_pad-23" x="32600" y="24340"/><use xlink:href="#WBiqja34CfJVr7ZQUqZX_pad-23" x="27620" y="24310"/><use xlink:href="#WBiqja34CfJVr7ZQUqZX_pad-23" x="39350" y="24280"/><use xlink:href="#WBiqja34CfJVr7ZQUqZX_pad-23" x="17800" y="42400"/><use xlink:href="#WBiqja34CfJVr7ZQUqZX_pad-23" x="16900" y="44800"/><use xlink:href="#WBiqja34CfJVr7ZQUqZX_pad-23" x="5450" y="51200"/><use xlink:href="#WBiqja34CfJVr7ZQUqZX_pad-23" x="26780" y="47240"/><use xlink:href="#WBiqja34CfJVr7ZQUqZX_pad-23" x="25960" y="53160"/><use xlink:href="#WBiqja34CfJVr7ZQUqZX_pad-23" x="250" y="52250"/><use xlink:href="#WBiqja34CfJVr7ZQUqZX_pad-23" x="28700" y="36060"/><use xlink:href="#WBiqja34CfJVr7ZQUqZX_pad-23" x="22020" y="49880"/><use xlink:href="#WBiqja34CfJVr7ZQUqZX_pad-23" x="18130" y="31580"/><use xlink:href="#WBiqja34CfJVr7ZQUqZX_pad-23" x="-6500" y="42800"/><use xlink:href="#WBiqja34CfJVr7ZQUqZX_pad-23" x="12200" y="26750"/><use xlink:href="#WBiqja34CfJVr7ZQUqZX_pad-23" x="-1690" y="16810"/><use xlink:href="#WBiqja34CfJVr7ZQUqZX_pad-23" x="7000" y="56200"/><use xlink:href="#WBiqja34CfJVr7ZQUqZX_pad-23" x="-12810" y="40110"/><use xlink:href="#WBiqja34CfJVr7ZQUqZX_pad-23" x="34300" y="14850"/><use xlink:href="#WBiqja34CfJVr7ZQUqZX_pad-23" x="39340" y="20780"/><use xlink:href="#WBiqja34CfJVr7ZQUqZX_pad-23" x="21150" y="42250"/><use xlink:href="#WBiqja34CfJVr7ZQUqZX_pad-23" x="30820" y="43210"/><use xlink:href="#WBiqja34CfJVr7ZQUqZX_pad-23" x="17270" y="47030"/><use xlink:href="#WBiqja34CfJVr7ZQUqZX_pad-23" x="26820" y="18300"/><use xlink:href="#WBiqja34CfJVr7ZQUqZX_pad-23" x="2990" y="40990"/><use xlink:href="#WBiqja34CfJVr7ZQUqZX_pad-23" x="35140" y="22610"/><use xlink:href="#WBiqja34CfJVr7ZQUqZX_pad-23" x="9100" y="13200"/><use xlink:href="#WBiqja34CfJVr7ZQUqZX_pad-23" x="-13550" y="20700"/><use xlink:href="#WBiqja34CfJVr7ZQUqZX_pad-23" x="6800" y="45300"/><use xlink:href="#WBiqja34CfJVr7ZQUqZX_pad-23" x="18450" y="39800"/><use xlink:href="#WBiqja34CfJVr7ZQUqZX_pad-23" x="3350" y="32100"/><use xlink:href="#WBiqja34CfJVr7ZQUqZX_pad-23" x="26660" y="29630"/><use xlink:href="#WBiqja34CfJVr7ZQUqZX_pad-23" x="27600" y="33650"/><use xlink:href="#WBiqja34CfJVr7ZQUqZX_pad-23" x="17900" y="16950"/><use xlink:href="#WBiqja34CfJVr7ZQUqZX_pad-23" x="12600" y="10100"/><use xlink:href="#WBiqja34CfJVr7ZQUqZX_pad-23" x="5950" y="7800"/><use xlink:href="#WBiqja34CfJVr7ZQUqZX_pad-23" x="2450" y="7800"/><use xlink:href="#WBiqja34CfJVr7ZQUqZX_pad-23" x="-1850" y="7450"/><use xlink:href="#WBiqja34CfJVr7ZQUqZX_pad-23" x="35500" y="34150"/><use xlink:href="#WBiqja34CfJVr7ZQUqZX_pad-23" x="4920" y="34570"/><use xlink:href="#WBiqja34CfJVr7ZQUqZX_pad-23" x="17390" y="2220"/><use xlink:href="#WBiqja34CfJVr7ZQUqZX_pad-23" x="13760" y="6080"/><use xlink:href="#WBiqja34CfJVr7ZQUqZX_pad-23" x="20220" y="37080"/><use xlink:href="#WBiqja34CfJVr7ZQUqZX_pad-23" x="30970" y="38270"/><use xlink:href="#WBiqja34CfJVr7ZQUqZX_pad-23" x="23840" y="2650"/><use xlink:href="#WBiqja34CfJVr7ZQUqZX_pad-23" x="36500" y="21900"/><use xlink:href="#WBiqja34CfJVr7ZQUqZX_pad-23" x="6400" y="29000"/><use xlink:href="#WBiqja34CfJVr7ZQUqZX_pad-23" x="-9000" y="19750"/><use xlink:href="#WBiqja34CfJVr7ZQUqZX_pad-23" x="6900" y="46650"/><use xlink:href="#WBiqja34CfJVr7ZQUqZX_pad-23" x="10750" y="34650"/><use xlink:href="#WBiqja34CfJVr7ZQUqZX_pad-23" x="2250" y="9430"/><use xlink:href="#WBiqja34CfJVr7ZQUqZX_pad-23" x="750" y="49350"/><use xlink:href="#WBiqja34CfJVr7ZQUqZX_pad-23" x="4450" y="46200"/><use xlink:href="#WBiqja34CfJVr7ZQUqZX_pad-23" x="19650" y="44800"/><use xlink:href="#WBiqja34CfJVr7ZQUqZX_pad-23" x="19650" y="41650"/><use xlink:href="#WBiqja34CfJVr7ZQUqZX_pad-23" x="-2150" y="23800"/><use xlink:href="#WBiqja34CfJVr7ZQUqZX_pad-23" x="18750" y="47300"/><use xlink:href="#WBiqja34CfJVr7ZQUqZX_pad-23" x="-2850" y="33350"/><use xlink:href="#WBiqja34CfJVr7ZQUqZX_pad-23" x="20250" y="46300"/><use xlink:href="#WBiqja34CfJVr7ZQUqZX_pad-23" x="18850" y="22450"/><use xlink:href="#WBiqja34CfJVr7ZQUqZX_pad-23" x="18650" y="20150"/><use xlink:href="#WBiqja34CfJVr7ZQUqZX_pad-23" x="-11010" y="32010"/><use xlink:href="#WBiqja34CfJVr7ZQUqZX_pad-23" x="16650" y="8400"/><use xlink:href="#WBiqja34CfJVr7ZQUqZX_pad-23" x="11540" y="51830"/><use xlink:href="#WBiqja34CfJVr7ZQUqZX_pad-23" x="18260" y="34670"/><use xlink:href="#WBiqja34CfJVr7ZQUqZX_pad-23" x="12050" y="34650"/><use xlink:href="#WBiqja34CfJVr7ZQUqZX_pad-23" x="15750" y="34650"/><use xlink:href="#WBiqja34CfJVr7ZQUqZX_pad-23" x="33920" y="34018.4"/><use xlink:href="#WBiqja34CfJVr7ZQUqZX_pad-23" x="28650" y="40950"/><use xlink:href="#WBiqja34CfJVr7ZQUqZX_pad-23" x="18750" y="37350"/><use xlink:href="#WBiqja34CfJVr7ZQUqZX_pad-23" x="28680" y="39350"/></g></svg>