<svg version="1.1" xmlns="http://www.w3.org/2000/svg" xmlns:xlink="http://www.w3.org/1999/xlink" stroke-linecap="round" stroke-linejoin="round" stroke-width="0" fill-rule="evenodd" width="56.2425mm" height="56.0387mm" viewBox="-16049.1 1539.9 56242.5 56038.7" id="_IbO8UEgkWkNtZv8637w"><defs><rect x="-965.2" y="-1905" width="1930.4" height="3810" id="_IbO8UEgkWkNtZv8637w_pad-10"/><rect x="-1905" y="-965.2" width="3810" height="1930.4" id="_IbO8UEgkWkNtZv8637w_pad-11"/><rect x="-750" y="-650" width="1500" height="1300" id="_IbO8UEgkWkNtZv8637w_pad-12"/><rect x="-350" y="-650" width="700" height="1300" id="_IbO8UEgkWkNtZv8637w_pad-13"/><rect x="-550" y="-500" width="1100" height="1000" id="_IbO8UEgkWkNtZv8637w_pad-14"/><rect x="-500" y="-550" width="1000" height="1100" id="_IbO8UEgkWkNtZv8637w_pad-15"/><rect x="-600" y="-600" width="1200" height="1200" id="_IbO8UEgkWkNtZv8637w_pad-16"/><rect x="-500" y="-700" width="1000" height="1400" id="_IbO8UEgkWkNtZv8637w_pad-17"/></defs><g transform="translate(0,59118.5) scale(1,-1)" fill="currentColor" stroke="currentColor"><use xlink:href="#_IbO8UEgkWkNtZv8637w_pad-10" x="9676.5" y="55673.6"/><use xlink:href="#_IbO8UEgkWkNtZv8637w_pad-10" x="14578.7" y="55673.6"/><path d="M 26661.4 49305.9 29355.4 51999.9 30720.4 50634.9 28026.4 47940.9 26661.4 49305.9"/><path d="M 30127.8 45839.6 32821.8 48533.6 34186.8 47168.6 31492.8 44474.6 30127.8 45839.6"/><use xlink:href="#_IbO8UEgkWkNtZv8637w_pad-11" x="38288.4" y="31846"/><use xlink:href="#_IbO8UEgkWkNtZv8637w_pad-11" x="38288.4" y="26943.8"/><path d="M 31612.5 14756.1 34306.5 12062.1 32941.5 10697.1 30247.5 13391.1 31612.5 14756.1"/><path d="M 28146.2 11289.7 30840.2 8595.7 29475.2 7230.7 26781.2 9924.7 28146.2 11289.7"/><use xlink:href="#_IbO8UEgkWkNtZv8637w_pad-10" x="14521.8" y="3444.9"/><use xlink:href="#_IbO8UEgkWkNtZv8637w_pad-10" x="9619.6" y="3444.9"/><path d="M -2352 9777.9 -5046 7083.9 -6411 8448.9 -3717 11142.9 -2352 9777.9"/><path d="M -5818.4 13244.3 -8512.4 10550.3 -9877.4 11915.3 -7183.4 14609.3 -5818.4 13244.3"/><use xlink:href="#_IbO8UEgkWkNtZv8637w_pad-11" x="-14144.1" y="27070.7"/><use xlink:href="#_IbO8UEgkWkNtZv8637w_pad-11" x="-14144.1" y="31972.9"/><path d="M -7403.5 44377.1 -10097.5 47071.1 -8732.5 48436.1 -6038.5 45742.1 -7403.5 44377.1"/><path d="M -3937.1 47843.5 -6631.1 50537.5 -5266.1 51902.5 -2572.1 49208.5 -3937.1 47843.5"/><use xlink:href="#_IbO8UEgkWkNtZv8637w_pad-12" x="3745.7" y="38305.6"/><use xlink:href="#_IbO8UEgkWkNtZv8637w_pad-12" x="3745.7" y="36405.6"/><use xlink:href="#_IbO8UEgkWkNtZv8637w_pad-12" x="-8042" y="36106"/><use xlink:href="#_IbO8UEgkWkNtZv8637w_pad-12" x="-8042" y="38006"/><use xlink:href="#_IbO8UEgkWkNtZv8637w_pad-12" x="-11027" y="38077"/><use xlink:href="#_IbO8UEgkWkNtZv8637w_pad-12" x="-11027" y="36177"/><use xlink:href="#_IbO8UEgkWkNtZv8637w_pad-12" x="-14038" y="38067"/><use xlink:href="#_IbO8UEgkWkNtZv8637w_pad-12" x="-14038" y="36167"/><use xlink:href="#_IbO8UEgkWkNtZv8637w_pad-13" x="14485" y="37450"/><use xlink:href="#_IbO8UEgkWkNtZv8637w_pad-13" x="15755" y="37450"/><use xlink:href="#_IbO8UEgkWkNtZv8637w_pad-13" x="13215" y="37450"/><use xlink:href="#_IbO8UEgkWkNtZv8637w_pad-13" x="11945" y="37450"/><use xlink:href="#_IbO8UEgkWkNtZv8637w_pad-13" x="14485" y="42950"/><use xlink:href="#_IbO8UEgkWkNtZv8637w_pad-13" x="15755" y="42950"/><use xlink:href="#_IbO8UEgkWkNtZv8637w_pad-13" x="13215" y="42950"/><use xlink:href="#_IbO8UEgkWkNtZv8637w_pad-13" x="11945" y="42950"/><use xlink:href="#_IbO8UEgkWkNtZv8637w_pad-12" x="17392.8" y="6008.6"/><use xlink:href="#_IbO8UEgkWkNtZv8637w_pad-12" x="17392.8" y="4108.6"/><use xlink:href="#_IbO8UEgkWkNtZv8637w_pad-12" x="24990" y="6070"/><use xlink:href="#_IbO8UEgkWkNtZv8637w_pad-12" x="24990" y="4170"/><use xlink:href="#_IbO8UEgkWkNtZv8637w_pad-14" x="14450" y="46900"/><use xlink:href="#_IbO8UEgkWkNtZv8637w_pad-14" x="14450" y="45200"/><use xlink:href="#_IbO8UEgkWkNtZv8637w_pad-15" x="11900" y="32800"/><use xlink:href="#_IbO8UEgkWkNtZv8637w_pad-15" x="11900" y="31100"/><use xlink:href="#_IbO8UEgkWkNtZv8637w_pad-15" x="11250" y="45200"/><use xlink:href="#_IbO8UEgkWkNtZv8637w_pad-15" x="11250" y="46900"/><use xlink:href="#_IbO8UEgkWkNtZv8637w_pad-16" x="19591.1" y="3976.8"/><use xlink:href="#_IbO8UEgkWkNtZv8637w_pad-16" x="19591.1" y="6076.8"/><use xlink:href="#_IbO8UEgkWkNtZv8637w_pad-16" x="22430" y="3990"/><use xlink:href="#_IbO8UEgkWkNtZv8637w_pad-16" x="22430" y="6090"/><use xlink:href="#_IbO8UEgkWkNtZv8637w_pad-17" x="-4300" y="36100"/><use xlink:href="#_IbO8UEgkWkNtZv8637w_pad-17" x="-5250" y="38300"/><use xlink:href="#_IbO8UEgkWkNtZv8637w_pad-17" x="-3350" y="38300"/><use xlink:href="#_IbO8UEgkWkNtZv8637w_pad-12" x="20170" y="35180"/><use xlink:href="#_IbO8UEgkWkNtZv8637w_pad-12" x="20170" y="33280"/></g></svg>