<svg version="1.1" xmlns="http://www.w3.org/2000/svg" xmlns:xlink="http://www.w3.org/1999/xlink" stroke-linecap="round" stroke-linejoin="round" stroke-width="0" fill-rule="evenodd" width="56.445699999999995mm" height="56.2419mm" viewBox="-16150.7 1438.3 56445.7 56241.9" id="RcjEogwTq42eWgYRV80H"><defs><rect x="-1066.8" y="-2006.6" width="2133.6" height="4013.2" id="RcjEogwTq42eWgYRV80H_pad-11"/><rect x="-2006.6" y="-1066.8" width="4013.2" height="2133.6" id="RcjEogwTq42eWgYRV80H_pad-12"/><rect x="-1371.6" y="-1371.6" width="2743.2" height="2743.2" id="RcjEogwTq42eWgYRV80H_pad-14"/><circle cx="0" cy="0" r="901.6" id="RcjEogwTq42eWgYRV80H_pad-15"/><rect x="-851.6" y="-751.6" width="1703.2" height="1503.2" id="RcjEogwTq42eWgYRV80H_pad-16"/><rect x="-451.6" y="-751.6" width="903.2" height="1503.2" id="RcjEogwTq42eWgYRV80H_pad-17"/><rect x="-651.6" y="-601.6" width="1303.2" height="1203.2" id="RcjEogwTq42eWgYRV80H_pad-18"/><rect x="-601.6" y="-651.6" width="1203.2" height="1303.2" id="RcjEogwTq42eWgYRV80H_pad-19"/><rect x="-701.6" y="-701.6" width="1403.2" height="1403.2" id="RcjEogwTq42eWgYRV80H_pad-20"/><circle cx="0" cy="0" r="939.8" id="RcjEogwTq42eWgYRV80H_pad-22"/><rect x="-601.6" y="-801.6" width="1203.2" height="1603.2" id="RcjEogwTq42eWgYRV80H_pad-23"/><circle cx="0" cy="0" r="558.8" id="RcjEogwTq42eWgYRV80H_pad-24"/></defs><g transform="translate(0,59118.5) scale(1,-1)" fill="currentColor" stroke="currentColor"><path d="M -6598.9 32268.6 -5074.9 32268.6 M -5074.9 29728.6 -6598.9 29728.6 M -6598.9 27188.6 -5074.9 27188.6 M 29641.8 26956.6 31165.8 26956.6 M 31165.8 29496.6 29641.8 29496.6 M 29641.8 32036.6 31165.8 32036.6 M 8386.9 22265.4 8386.9 20741.4 M 10926.9 20741.4 10926.9 22265.4 M 13466.9 22265.4 13466.9 20741.4 M 16006.9 20741.4 16006.9 22265.4 M -5067.3 17195.3 -6591.3 17195.3 M -6591.3 19735.3 -5067.3 19735.3 M -5067.3 22275.3 -6591.3 22275.3 M 29688 17110 31212 17110 M 31212 19650 29688 19650 M 29688 22190 31212 22190" fill="none" stroke-width="1727.2"/><use xlink:href="#RcjEogwTq42eWgYRV80H_pad-11" x="9676.5" y="55673.6"/><use xlink:href="#RcjEogwTq42eWgYRV80H_pad-11" x="14578.7" y="55673.6"/><path d="M 26517.7 49305.9 29355.4 52143.6 30864.1 50634.9 28026.4 47797.2 26517.7 49305.9"/><path d="M 29984.1 45839.6 32821.8 48677.3 34330.5 47168.6 31492.8 44330.9 29984.1 45839.6"/><use xlink:href="#RcjEogwTq42eWgYRV80H_pad-12" x="38288.4" y="31846"/><use xlink:href="#RcjEogwTq42eWgYRV80H_pad-12" x="38288.4" y="26943.8"/><path d="M 31612.5 14899.8 34450.2 12062.1 32941.5 10553.4 30103.8 13391.1 31612.5 14899.8"/><path d="M 28146.2 11433.4 30983.9 8595.7 29475.2 7087 26637.5 9924.7 28146.2 11433.4"/><use xlink:href="#RcjEogwTq42eWgYRV80H_pad-11" x="14521.8" y="3444.9"/><use xlink:href="#RcjEogwTq42eWgYRV80H_pad-11" x="9619.6" y="3444.9"/><path d="M -2208.3 9777.9 -5046 6940.2 -6554.7 8448.9 -3717 11286.6 -2208.3 9777.9"/><path d="M -5674.7 13244.3 -8512.4 10406.6 -10021.1 11915.3 -7183.4 14753 -5674.7 13244.3"/><use xlink:href="#RcjEogwTq42eWgYRV80H_pad-12" x="-14144.1" y="27070.7"/><use xlink:href="#RcjEogwTq42eWgYRV80H_pad-12" x="-14144.1" y="31972.9"/><path d="M -7403.5 44233.4 -10241.2 47071.1 -8732.5 48579.8 -5894.8 45742.1 -7403.5 44233.4"/><path d="M -3937.1 47699.8 -6774.8 50537.5 -5266.1 52046.2 -2428.4 49208.5 -3937.1 47699.8"/><path d="M 96.6 47320.1 1404.6 47320.1 M 1404.6 44780.1 96.6 44780.1 M 96.6 42240.1 1404.6 42240.1 M 1404.6 39700.1 96.6 39700.1 M 96.6 37160.1 1404.6 37160.1 M 1404.6 34620.1 96.6 34620.1 M 96.6 32080.1 1404.6 32080.1 M 1404.6 29540.1 96.6 29540.1 M 96.6 27000.1 1404.6 27000.1 M 1404.6 24460.1 96.6 24460.1 M 96.6 21920.1 1404.6 21920.1 M 1404.6 19380.1 96.6 19380.1 M 96.6 16840.1 1404.6 16840.1 M 1404.6 14300.1 96.6 14300.1 M 96.6 11760.1 1404.6 11760.1 M 22956.6 47320.1 24264.6 47320.1 M 24264.6 44780.1 22956.6 44780.1 M 22956.6 42240.1 24264.6 42240.1 M 24264.6 39700.1 22956.6 39700.1 M 22956.6 37160.1 24264.6 37160.1 M 24264.6 34620.1 22956.6 34620.1 M 22956.6 32080.1 24264.6 32080.1 M 24264.6 29540.1 22956.6 29540.1 M 22956.6 27000.1 24264.6 27000.1 M 24264.6 24460.1 22956.6 24460.1 M 22956.6 21920.1 24264.6 21920.1 M 24264.6 19380.1 22956.6 19380.1 M 22956.6 16840.1 24264.6 16840.1 M 24264.6 14300.1 22956.6 14300.1 M 22956.6 11760.1 24264.6 11760.1" fill="none" stroke-width="1511.2"/><use xlink:href="#RcjEogwTq42eWgYRV80H_pad-14" x="3674" y="11815.7"/><use xlink:href="#RcjEogwTq42eWgYRV80H_pad-14" x="3674" y="28833.7"/><use xlink:href="#RcjEogwTq42eWgYRV80H_pad-14" x="20692" y="11815.7"/><use xlink:href="#RcjEogwTq42eWgYRV80H_pad-14" x="20692" y="28833.7"/><use xlink:href="#RcjEogwTq42eWgYRV80H_pad-15" x="31032.9" y="35768.4"/><use xlink:href="#RcjEogwTq42eWgYRV80H_pad-15" x="32849.9" y="36604.2"/><use xlink:href="#RcjEogwTq42eWgYRV80H_pad-16" x="3745.7" y="38305.6"/><use xlink:href="#RcjEogwTq42eWgYRV80H_pad-16" x="3745.7" y="36405.6"/><use xlink:href="#RcjEogwTq42eWgYRV80H_pad-16" x="-8042" y="36106"/><use xlink:href="#RcjEogwTq42eWgYRV80H_pad-16" x="-8042" y="38006"/><use xlink:href="#RcjEogwTq42eWgYRV80H_pad-16" x="-11027" y="38077"/><use xlink:href="#RcjEogwTq42eWgYRV80H_pad-16" x="-11027" y="36177"/><use xlink:href="#RcjEogwTq42eWgYRV80H_pad-16" x="-14038" y="38067"/><use xlink:href="#RcjEogwTq42eWgYRV80H_pad-16" x="-14038" y="36167"/><use xlink:href="#RcjEogwTq42eWgYRV80H_pad-17" x="14485" y="37450"/><use xlink:href="#RcjEogwTq42eWgYRV80H_pad-17" x="15755" y="37450"/><use xlink:href="#RcjEogwTq42eWgYRV80H_pad-17" x="13215" y="37450"/><use xlink:href="#RcjEogwTq42eWgYRV80H_pad-17" x="11945" y="37450"/><use xlink:href="#RcjEogwTq42eWgYRV80H_pad-17" x="14485" y="42950"/><use xlink:href="#RcjEogwTq42eWgYRV80H_pad-17" x="15755" y="42950"/><use xlink:href="#RcjEogwTq42eWgYRV80H_pad-17" x="13215" y="42950"/><use xlink:href="#RcjEogwTq42eWgYRV80H_pad-17" x="11945" y="42950"/><use xlink:href="#RcjEogwTq42eWgYRV80H_pad-16" x="17392.8" y="6008.6"/><use xlink:href="#RcjEogwTq42eWgYRV80H_pad-16" x="17392.8" y="4108.6"/><use xlink:href="#RcjEogwTq42eWgYRV80H_pad-16" x="24990" y="6070"/><use xlink:href="#RcjEogwTq42eWgYRV80H_pad-16" x="24990" y="4170"/><use xlink:href="#RcjEogwTq42eWgYRV80H_pad-18" x="14450" y="46900"/><use xlink:href="#RcjEogwTq42eWgYRV80H_pad-18" x="14450" y="45200"/><use xlink:href="#RcjEogwTq42eWgYRV80H_pad-19" x="11900" y="32800"/><use xlink:href="#RcjEogwTq42eWgYRV80H_pad-19" x="11900" y="31100"/><use xlink:href="#RcjEogwTq42eWgYRV80H_pad-19" x="11250" y="45200"/><use xlink:href="#RcjEogwTq42eWgYRV80H_pad-19" x="11250" y="46900"/><use xlink:href="#RcjEogwTq42eWgYRV80H_pad-20" x="19591.1" y="3976.8"/><use xlink:href="#RcjEogwTq42eWgYRV80H_pad-20" x="19591.1" y="6076.8"/><use xlink:href="#RcjEogwTq42eWgYRV80H_pad-20" x="22430" y="3990"/><use xlink:href="#RcjEogwTq42eWgYRV80H_pad-20" x="22430" y="6090"/><path d="M 37024.7 37136.8 38532.1 37807.9 M 37498.9 40128.3 35991.6 39457.2 M 34958.5 41777.6 36465.8 42448.7" fill="none" stroke-width="1853.2"/><use xlink:href="#RcjEogwTq42eWgYRV80H_pad-22" x="38811.5" y="35151.9"/><use xlink:href="#RcjEogwTq42eWgYRV80H_pad-22" x="34679" y="44433.5"/><use xlink:href="#RcjEogwTq42eWgYRV80H_pad-23" x="-4300" y="36100"/><use xlink:href="#RcjEogwTq42eWgYRV80H_pad-23" x="-5250" y="38300"/><use xlink:href="#RcjEogwTq42eWgYRV80H_pad-23" x="-3350" y="38300"/><use xlink:href="#RcjEogwTq42eWgYRV80H_pad-16" x="20170" y="35180"/><use xlink:href="#RcjEogwTq42eWgYRV80H_pad-16" x="20170" y="33280"/><use xlink:href="#RcjEogwTq42eWgYRV80H_pad-15" x="36910" y="17660"/><use xlink:href="#RcjEogwTq42eWgYRV80H_pad-15" x="34910" y="17660"/><use xlink:href="#RcjEogwTq42eWgYRV80H_pad-24" x="15900" y="14400"/><use xlink:href="#RcjEogwTq42eWgYRV80H_pad-24" x="14290" y="18050"/><use xlink:href="#RcjEogwTq42eWgYRV80H_pad-24" x="20650" y="14200"/><use xlink:href="#RcjEogwTq42eWgYRV80H_pad-24" x="24570" y="7930"/><use xlink:href="#RcjEogwTq42eWgYRV80H_pad-24" x="25550" y="9200"/><use xlink:href="#RcjEogwTq42eWgYRV80H_pad-24" x="5950" y="15250"/><use xlink:href="#RcjEogwTq42eWgYRV80H_pad-24" x="20530" y="31630"/><use xlink:href="#RcjEogwTq42eWgYRV80H_pad-24" x="26950" y="43050"/><use xlink:href="#RcjEogwTq42eWgYRV80H_pad-24" x="17890" y="29630"/><use xlink:href="#RcjEogwTq42eWgYRV80H_pad-24" x="-9550" y="18250"/><use xlink:href="#RcjEogwTq42eWgYRV80H_pad-24" x="-1800" y="20000"/><use xlink:href="#RcjEogwTq42eWgYRV80H_pad-24" x="-10840" y="28020"/><use xlink:href="#RcjEogwTq42eWgYRV80H_pad-24" x="-9980" y="23890"/><use xlink:href="#RcjEogwTq42eWgYRV80H_pad-24" x="-5810" y="34590"/><use xlink:href="#RcjEogwTq42eWgYRV80H_pad-24" x="-2020" y="41710"/><use xlink:href="#RcjEogwTq42eWgYRV80H_pad-24" x="-1700" y="46100"/><use xlink:href="#RcjEogwTq42eWgYRV80H_pad-24" x="32330" y="30790"/><use xlink:href="#RcjEogwTq42eWgYRV80H_pad-24" x="32600" y="24340"/><use xlink:href="#RcjEogwTq42eWgYRV80H_pad-24" x="27620" y="24310"/><use xlink:href="#RcjEogwTq42eWgYRV80H_pad-24" x="39350" y="24280"/><use xlink:href="#RcjEogwTq42eWgYRV80H_pad-24" x="17800" y="42400"/><use xlink:href="#RcjEogwTq42eWgYRV80H_pad-24" x="16900" y="44800"/><use xlink:href="#RcjEogwTq42eWgYRV80H_pad-24" x="5450" y="51200"/><use xlink:href="#RcjEogwTq42eWgYRV80H_pad-24" x="26780" y="47240"/><use xlink:href="#RcjEogwTq42eWgYRV80H_pad-24" x="25960" y="53160"/><use xlink:href="#RcjEogwTq42eWgYRV80H_pad-24" x="250" y="52250"/><use xlink:href="#RcjEogwTq42eWgYRV80H_pad-24" x="28700" y="36060"/><use xlink:href="#RcjEogwTq42eWgYRV80H_pad-24" x="22020" y="49880"/><use xlink:href="#RcjEogwTq42eWgYRV80H_pad-24" x="18130" y="31580"/><use xlink:href="#RcjEogwTq42eWgYRV80H_pad-24" x="-6500" y="42800"/><use xlink:href="#RcjEogwTq42eWgYRV80H_pad-24" x="12200" y="26750"/><use xlink:href="#RcjEogwTq42eWgYRV80H_pad-24" x="-1690" y="16810"/><use xlink:href="#RcjEogwTq42eWgYRV80H_pad-24" x="7000" y="56200"/><use xlink:href="#RcjEogwTq42eWgYRV80H_pad-24" x="-12810" y="40110"/><use xlink:href="#RcjEogwTq42eWgYRV80H_pad-24" x="34300" y="14850"/><use xlink:href="#RcjEogwTq42eWgYRV80H_pad-24" x="39340" y="20780"/><use xlink:href="#RcjEogwTq42eWgYRV80H_pad-24" x="21150" y="42250"/><use xlink:href="#RcjEogwTq42eWgYRV80H_pad-24" x="30820" y="43210"/><use xlink:href="#RcjEogwTq42eWgYRV80H_pad-24" x="17270" y="47030"/><use xlink:href="#RcjEogwTq42eWgYRV80H_pad-24" x="26820" y="18300"/><use xlink:href="#RcjEogwTq42eWgYRV80H_pad-24" x="2990" y="40990"/><use xlink:href="#RcjEogwTq42eWgYRV80H_pad-24" x="35140" y="22610"/><use xlink:href="#RcjEogwTq42eWgYRV80H_pad-24" x="9100" y="13200"/><use xlink:href="#RcjEogwTq42eWgYRV80H_pad-24" x="-13550" y="20700"/><use xlink:href="#RcjEogwTq42eWgYRV80H_pad-24" x="6800" y="45300"/><use xlink:href="#RcjEogwTq42eWgYRV80H_pad-24" x="18450" y="39800"/><use xlink:href="#RcjEogwTq42eWgYRV80H_pad-24" x="3350" y="32100"/><use xlink:href="#RcjEogwTq42eWgYRV80H_pad-24" x="26660" y="29630"/><use xlink:href="#RcjEogwTq42eWgYRV80H_pad-24" x="27600" y="33650"/><use xlink:href="#RcjEogwTq42eWgYRV80H_pad-24" x="17900" y="16950"/><use xlink:href="#RcjEogwTq42eWgYRV80H_pad-24" x="12600" y="10100"/><use xlink:href="#RcjEogwTq42eWgYRV80H_pad-24" x="5950" y="7800"/><use xlink:href="#RcjEogwTq42eWgYRV80H_pad-24" x="2450" y="7800"/><use xlink:href="#RcjEogwTq42eWgYRV80H_pad-24" x="-1850" y="7450"/><use xlink:href="#RcjEogwTq42eWgYRV80H_pad-24" x="35500" y="34150"/><use xlink:href="#RcjEogwTq42eWgYRV80H_pad-24" x="4920" y="34570"/><use xlink:href="#RcjEogwTq42eWgYRV80H_pad-24" x="17390" y="2220"/><use xlink:href="#RcjEogwTq42eWgYRV80H_pad-24" x="13760" y="6080"/><use xlink:href="#RcjEogwTq42eWgYRV80H_pad-24" x="20220" y="37080"/><use xlink:href="#RcjEogwTq42eWgYRV80H_pad-24" x="30970" y="38270"/><use xlink:href="#RcjEogwTq42eWgYRV80H_pad-24" x="23840" y="2650"/><use xlink:href="#RcjEogwTq42eWgYRV80H_pad-24" x="36500" y="21900"/><use xlink:href="#RcjEogwTq42eWgYRV80H_pad-24" x="6400" y="29000"/><use xlink:href="#RcjEogwTq42eWgYRV80H_pad-24" x="-9000" y="19750"/><use xlink:href="#RcjEogwTq42eWgYRV80H_pad-24" x="6900" y="46650"/><use xlink:href="#RcjEogwTq42eWgYRV80H_pad-24" x="10750" y="34650"/><use xlink:href="#RcjEogwTq42eWgYRV80H_pad-24" x="2250" y="9430"/><use xlink:href="#RcjEogwTq42eWgYRV80H_pad-24" x="750" y="49350"/><use xlink:href="#RcjEogwTq42eWgYRV80H_pad-24" x="4450" y="46200"/><use xlink:href="#RcjEogwTq42eWgYRV80H_pad-24" x="19650" y="44800"/><use xlink:href="#RcjEogwTq42eWgYRV80H_pad-24" x="19650" y="41650"/><use xlink:href="#RcjEogwTq42eWgYRV80H_pad-24" x="-2150" y="23800"/><use xlink:href="#RcjEogwTq42eWgYRV80H_pad-24" x="18750" y="47300"/><use xlink:href="#RcjEogwTq42eWgYRV80H_pad-24" x="-2850" y="33350"/><use xlink:href="#RcjEogwTq42eWgYRV80H_pad-24" x="20250" y="46300"/><use xlink:href="#RcjEogwTq42eWgYRV80H_pad-24" x="18850" y="22450"/><use xlink:href="#RcjEogwTq42eWgYRV80H_pad-24" x="18650" y="20150"/><use xlink:href="#RcjEogwTq42eWgYRV80H_pad-24" x="-11010" y="32010"/><use xlink:href="#RcjEogwTq42eWgYRV80H_pad-24" x="16650" y="8400"/><use xlink:href="#RcjEogwTq42eWgYRV80H_pad-24" x="11540" y="51830"/><use xlink:href="#RcjEogwTq42eWgYRV80H_pad-24" x="18260" y="34670"/><use xlink:href="#RcjEogwTq42eWgYRV80H_pad-24" x="12050" y="34650"/><use xlink:href="#RcjEogwTq42eWgYRV80H_pad-24" x="15750" y="34650"/><use xlink:href="#RcjEogwTq42eWgYRV80H_pad-24" x="33920" y="34018.4"/><use xlink:href="#RcjEogwTq42eWgYRV80H_pad-24" x="28650" y="40950"/><use xlink:href="#RcjEogwTq42eWgYRV80H_pad-24" x="18750" y="37350"/><use xlink:href="#RcjEogwTq42eWgYRV80H_pad-24" x="28680" y="39350"/></g></svg>