G75*
%MOIN*%
%OFA0B0*%
%FSLAX25Y25*%
%IPPOS*%
%LPD*%
%AMOC8*
5,1,8,0,0,1.08239X$1,22.5*
%
%ADD10R,0.07600X0.15000*%
%ADD11R,0.15000X0.07600*%
%ADD12R,0.02756X0.05118*%
%ADD13R,0.04331X0.03937*%
%ADD14R,0.03937X0.04331*%
%ADD15R,0.03150X0.03150*%
D10*
X0111947Y0016965D03*
X0131247Y0016965D03*
X0130216Y0225622D03*
X0110916Y0225622D03*
D11*
G36*
X0062477Y0042838D02*
X0051871Y0032232D01*
X0046497Y0037606D01*
X0057103Y0048212D01*
X0062477Y0042838D01*
G37*
G36*
X0048830Y0056485D02*
X0038224Y0045879D01*
X0032850Y0051253D01*
X0043456Y0061859D01*
X0048830Y0056485D01*
G37*
X0016731Y0111108D03*
X0016731Y0130408D03*
G36*
X0042673Y0179907D02*
X0032067Y0190513D01*
X0037441Y0195887D01*
X0048047Y0185281D01*
X0042673Y0179907D01*
G37*
G36*
X0056320Y0193555D02*
X0045714Y0204161D01*
X0051088Y0209535D01*
X0061694Y0198929D01*
X0056320Y0193555D01*
G37*
G36*
X0179520Y0200107D02*
X0190126Y0210713D01*
X0195500Y0205339D01*
X0184894Y0194733D01*
X0179520Y0200107D01*
G37*
G36*
X0193167Y0186460D02*
X0203773Y0197066D01*
X0209147Y0191692D01*
X0198541Y0181086D01*
X0193167Y0186460D01*
G37*
X0225422Y0131459D03*
X0225422Y0112159D03*
G36*
X0199469Y0062650D02*
X0210075Y0052044D01*
X0204701Y0046670D01*
X0194095Y0057276D01*
X0199469Y0062650D01*
G37*
G36*
X0185822Y0049003D02*
X0196428Y0038397D01*
X0191054Y0033023D01*
X0180448Y0043629D01*
X0185822Y0049003D01*
G37*
D12*
X0135081Y0152576D03*
X0130081Y0152576D03*
X0125081Y0152576D03*
X0120081Y0152576D03*
X0120081Y0174230D03*
X0125081Y0174230D03*
X0130081Y0174230D03*
X0135081Y0174230D03*
D13*
X0125022Y0183088D03*
X0125022Y0189781D03*
X0143261Y0027807D03*
X0143261Y0021114D03*
X0168526Y0021277D03*
X0168526Y0027970D03*
D14*
X0119904Y0127576D03*
X0119904Y0134269D03*
X0117345Y0183088D03*
X0117345Y0189781D03*
D15*
X0152082Y0027226D03*
X0152082Y0021320D03*
X0160652Y0021277D03*
X0160652Y0027182D03*
M02*
