G04 EAGLE Gerber RS-274X export*
G75*
%MOMM*%
%FSLAX34Y34*%
%LPD*%
%INSoldermask Top*%
%IPPOS*%
%AMOC8*
5,1,8,0,0,1.08239X$1,22.5*%
G01*
%ADD10C,1.727200*%
%ADD11R,2.133600X4.013200*%
%ADD12R,4.013200X2.133600*%
%ADD13C,1.511200*%
%ADD14C,1.981200*%
%ADD15C,1.803200*%
%ADD16R,1.703200X1.503200*%
%ADD17R,0.903200X1.503200*%
%ADD18R,1.303200X1.203200*%
%ADD19R,1.203200X1.303200*%
%ADD20R,1.403200X1.403200*%
%ADD21C,1.853200*%
%ADD22C,1.879600*%
%ADD23R,1.203200X1.603200*%
%ADD24C,1.117600*%


D10*
X-65989Y322686D02*
X-50749Y322686D01*
X-50749Y297286D02*
X-65989Y297286D01*
X-65989Y271886D02*
X-50749Y271886D01*
X296418Y269566D02*
X311658Y269566D01*
X311658Y294966D02*
X296418Y294966D01*
X296418Y320366D02*
X311658Y320366D01*
X83869Y222654D02*
X83869Y207414D01*
X109269Y207414D02*
X109269Y222654D01*
X134669Y222654D02*
X134669Y207414D01*
X160069Y207414D02*
X160069Y222654D01*
X-50673Y171953D02*
X-65913Y171953D01*
X-65913Y197353D02*
X-50673Y197353D01*
X-50673Y222753D02*
X-65913Y222753D01*
X296880Y171100D02*
X312120Y171100D01*
X312120Y196500D02*
X296880Y196500D01*
X296880Y221900D02*
X312120Y221900D01*
D11*
X96765Y556736D03*
X145787Y556736D03*
D12*
G36*
X265177Y493059D02*
X293554Y521436D01*
X308641Y506349D01*
X280264Y477972D01*
X265177Y493059D01*
G37*
G36*
X299841Y458396D02*
X328218Y486773D01*
X343305Y471686D01*
X314928Y443309D01*
X299841Y458396D01*
G37*
X382884Y318460D03*
X382884Y269438D03*
G36*
X316125Y148998D02*
X344502Y120621D01*
X329415Y105534D01*
X301038Y133911D01*
X316125Y148998D01*
G37*
G36*
X281462Y114334D02*
X309839Y85957D01*
X294752Y70870D01*
X266375Y99247D01*
X281462Y114334D01*
G37*
D11*
X145218Y34449D03*
X96196Y34449D03*
D12*
G36*
X-22083Y97779D02*
X-50460Y69402D01*
X-65547Y84489D01*
X-37170Y112866D01*
X-22083Y97779D01*
G37*
G36*
X-56747Y132443D02*
X-85124Y104066D01*
X-100211Y119153D01*
X-71834Y147530D01*
X-56747Y132443D01*
G37*
X-141441Y270707D03*
X-141441Y319729D03*
G36*
X-74035Y442334D02*
X-102412Y470711D01*
X-87325Y485798D01*
X-58948Y457421D01*
X-74035Y442334D01*
G37*
G36*
X-39371Y476998D02*
X-67748Y505375D01*
X-52661Y520462D01*
X-24284Y492085D01*
X-39371Y476998D01*
G37*
D13*
X966Y473201D02*
X14046Y473201D01*
X14046Y447801D02*
X966Y447801D01*
X966Y422401D02*
X14046Y422401D01*
X14046Y397001D02*
X966Y397001D01*
X966Y371601D02*
X14046Y371601D01*
X14046Y346201D02*
X966Y346201D01*
X966Y320801D02*
X14046Y320801D01*
X14046Y295401D02*
X966Y295401D01*
X966Y270001D02*
X14046Y270001D01*
X14046Y244601D02*
X966Y244601D01*
X966Y219201D02*
X14046Y219201D01*
X14046Y193801D02*
X966Y193801D01*
X966Y168401D02*
X14046Y168401D01*
X14046Y143001D02*
X966Y143001D01*
X966Y117601D02*
X14046Y117601D01*
X229566Y473201D02*
X242646Y473201D01*
X242646Y447801D02*
X229566Y447801D01*
X229566Y422401D02*
X242646Y422401D01*
X242646Y397001D02*
X229566Y397001D01*
X229566Y371601D02*
X242646Y371601D01*
X242646Y346201D02*
X229566Y346201D01*
X229566Y320801D02*
X242646Y320801D01*
X242646Y295401D02*
X229566Y295401D01*
X229566Y270001D02*
X242646Y270001D01*
X242646Y244601D02*
X229566Y244601D01*
X229566Y219201D02*
X242646Y219201D01*
X242646Y193801D02*
X229566Y193801D01*
X229566Y168401D02*
X242646Y168401D01*
X242646Y143001D02*
X229566Y143001D01*
X229566Y117601D02*
X242646Y117601D01*
D14*
X92683Y134953D02*
X74903Y134953D01*
X74903Y447063D02*
X92683Y447063D01*
X153645Y134953D02*
X171425Y134953D01*
X171425Y447063D02*
X153645Y447063D01*
D15*
X310329Y357684D03*
X328499Y366042D03*
D16*
X37457Y383056D03*
X37457Y364056D03*
X-80420Y361060D03*
X-80420Y380060D03*
X-110270Y380770D03*
X-110270Y361770D03*
X-140380Y380670D03*
X-140380Y361670D03*
D17*
X144850Y374500D03*
X157550Y374500D03*
X132150Y374500D03*
X119450Y374500D03*
X144850Y429500D03*
X157550Y429500D03*
X132150Y429500D03*
X119450Y429500D03*
D16*
X173928Y60086D03*
X173928Y41086D03*
X249900Y60700D03*
X249900Y41700D03*
D18*
X135600Y470300D03*
X135600Y453300D03*
D19*
X119000Y328000D03*
X119000Y311000D03*
X120600Y453200D03*
X120600Y470200D03*
D20*
X195911Y39768D03*
X195911Y60768D03*
X224300Y39900D03*
X224300Y60900D03*
D21*
X370247Y371368D02*
X385321Y378079D01*
X374989Y401283D02*
X359916Y394572D01*
X349585Y417776D02*
X364658Y424487D01*
D22*
X388115Y351519D03*
X346790Y444335D03*
D23*
X-43000Y361000D03*
X-52500Y383000D03*
X-33500Y383000D03*
D16*
X201700Y351800D03*
X201700Y332800D03*
D15*
X369100Y176600D03*
X349100Y176600D03*
D24*
X159800Y154700D03*
X146900Y183900D03*
X219100Y95000D03*
X245700Y79300D03*
X255500Y92000D03*
X76800Y158400D03*
X205300Y316300D03*
X269500Y430500D03*
X178900Y296300D03*
X-95500Y182500D03*
X-17300Y204600D03*
X-108400Y280200D03*
X-99800Y238900D03*
X-58100Y345900D03*
X-20200Y417100D03*
X-17000Y461000D03*
X323300Y307900D03*
X326000Y243400D03*
X276200Y243100D03*
X393500Y242800D03*
X179300Y414800D03*
X182200Y446900D03*
X54500Y512000D03*
X267800Y472400D03*
X259600Y531600D03*
X2500Y522500D03*
X287000Y360600D03*
X220200Y498800D03*
X181300Y315800D03*
X-65000Y428000D03*
X122000Y267500D03*
X-16900Y168100D03*
X70000Y562000D03*
X-128100Y401100D03*
X343000Y148500D03*
X393400Y207800D03*
X213400Y418000D03*
X308200Y432100D03*
X179100Y470600D03*
X268200Y183000D03*
X29900Y409900D03*
X351400Y226100D03*
X25900Y75100D03*
X-135500Y207000D03*
X58800Y484700D03*
X186000Y393100D03*
X33500Y321000D03*
X266600Y296300D03*
X276000Y336500D03*
X190900Y158700D03*
X126000Y101000D03*
X46000Y140100D03*
X126100Y143600D03*
X-18500Y74500D03*
X355000Y341500D03*
X49200Y345700D03*
X173900Y22200D03*
X137600Y60800D03*
X202200Y370800D03*
X309700Y382700D03*
X238400Y26500D03*
X365000Y219000D03*
X64000Y290000D03*
X-90000Y197500D03*
X44400Y497200D03*
X107500Y346500D03*
X22500Y94300D03*
X7500Y493500D03*
X43100Y454800D03*
X196500Y448000D03*
X196500Y416500D03*
X-21500Y238000D03*
X190500Y473300D03*
X-28500Y333500D03*
X202500Y463000D03*
X188500Y224500D03*
X186500Y201500D03*
X-110100Y320100D03*
X181600Y84200D03*
X115400Y518300D03*
X182600Y346700D03*
X120500Y346500D03*
X157500Y346500D03*
X339200Y340184D03*
X286500Y409500D03*
X187500Y373500D03*
X286800Y393500D03*
M02*
