M48
;GenerationSoftware,Autodesk,EAGLE,9.6.2*%
;CreationDate,2022-10-09T20:21:41Z*%
FMAT,2
ICI,OFF
METRIC,TZ,000.000
T6C0.508
T5C0.700
T4C0.800
T3C1.016
T2C1.100
%
G90
M71
T2
X34679Y44434
X38811Y35152
X35712Y42113
X36745Y39793
X37778Y37472
T3
X-5837Y32269
X30450Y22190
X30450Y19650
X30450Y17110
X-5829Y22275
X-5829Y19735
X-5829Y17195
X16007Y21313
X13467Y21313
X10927Y21313
X8387Y21313
X30404Y29497
X30404Y26957
X8379Y13495
X8379Y44706
X16254Y13495
X16254Y44706
X-5837Y27189
X-5837Y29729
X30404Y32037
T4
X751Y29540
X751Y32080
X751Y34620
X751Y37160
X751Y39700
X751Y42240
X751Y44780
X751Y47320
X751Y14300
X751Y24460
X23611Y11760
X23611Y14300
X23611Y16840
X23611Y19380
X23611Y21920
X23611Y24460
X23611Y27000
X23611Y29540
X23611Y32080
X23611Y34620
X23611Y37160
X23611Y39700
X23611Y42240
X23611Y44780
X23611Y47320
X751Y11760
X751Y16840
X751Y19380
X751Y21920
X751Y27000
T5
X34910Y17660
X31033Y35768
X32850Y36604
X36910Y17660
T6
X-280Y4180
X25900Y46050
X29720Y40180
X24190Y51320
X2010Y52620
X15590Y30620
X-10280Y43670
X-10010Y33960
X-11370Y16130
X-13150Y21600
X-2230Y24600
X6520Y30780
X6460Y16790
X-1740Y16150
X830Y9570
X21180Y30940
X21570Y6190
X26000Y6230
X35200Y34870
X32710Y33100
X27700Y28080
X34890Y22910
X37970Y20100
X26080Y20100
X18690Y28680
X12170Y25320
X17780Y19120
X10380Y17270
X12760Y13870
X20780Y13830
X3420Y26170
X21240Y35880
X29610Y38180
X5560Y50460
X20430Y44180
X19210Y44180
X17060Y7910
X10860Y36450
X-12660Y34660
X-1970Y45270
X-7407Y43047
X17230Y47000
X4420Y45120
X12860Y42610
X38040Y22110
X26890Y36010
X24500Y54560
X11360Y41650
X5850Y41550
X11960Y45930
X7440Y38640
X-5270Y14070
X17050Y55180
X-3040Y33470
X16560Y42710
X16950Y51530
X26360Y16860
X6300Y12000
X4570Y35740
M30