# Blender 3.4.1
# www.blender.org
mtllib arena.mtl
o arena
v 0.318500 -0.025000 0.030000
v 1.950000 -0.025000 0.030000
v 1.950000 -0.025000 0.300000
v 0.318500 -0.025000 0.300000
v 0.318500 0.025000 0.030000
v 0.318500 0.025000 0.300000
v 1.950000 0.025000 0.030000
v 1.950000 0.025000 0.300000
v 1.950000 -1.750000 0.030000
v 1.950000 -1.750000 0.300000
v -2.000000 1.800000 0.300000
v -1.993185 1.851764 0.300000
v -1.973205 1.900000 0.300000
v -1.941422 1.941422 0.300000
v -1.900000 1.973205 0.300000
v -1.851764 1.993185 0.300000
v -1.800000 2.000000 0.300000
v -1.800000 2.000000 -0.000000
v -1.851764 1.993185 -0.000000
v -1.900000 1.973205 -0.000000
v -1.941422 1.941422 -0.000000
v -1.973205 1.900000 -0.000000
v -1.993185 1.851764 -0.000000
v -2.000000 1.800000 -0.000000
v 1.800000 2.000000 0.300000
v 1.800000 2.000000 0.000000
v -1.750000 1.950000 0.300000
v 1.750000 1.950000 0.300000
v 1.801764 1.943185 0.300000
v 1.850000 1.923205 0.300000
v 1.891421 1.891421 0.300000
v 1.923205 1.850000 0.300000
v 1.943185 1.801764 0.300000
v 1.950000 1.750000 0.300000
v 1.943185 -1.801764 0.300000
v 1.923205 -1.850000 0.300000
v 1.891421 -1.891421 0.300000
v 1.850000 -1.923205 0.300000
v 1.801764 -1.943185 0.300000
v 1.750000 -1.950000 0.300000
v -1.750000 -1.950000 0.300000
v -1.801764 -1.943185 0.300000
v -1.850000 -1.923205 0.300000
v -1.891421 -1.891421 0.300000
v -1.923205 -1.850000 0.300000
v -1.943185 -1.801764 0.300000
v -1.950000 -1.750000 0.300000
v -1.950000 1.750000 0.300000
v -1.943185 1.801764 0.300000
v -1.923205 1.850000 0.300000
v -1.891421 1.891421 0.300000
v -1.850000 1.923205 0.300000
v -1.801764 1.943185 0.300000
v -2.000000 -1.800000 0.300000
v -1.993185 -1.851764 0.300000
v -1.973205 -1.900000 0.300000
v -1.941422 -1.941422 0.300000
v -1.900000 -1.973205 0.300000
v -1.851764 -1.993185 0.300000
v -1.800000 -2.000000 0.300000
v 1.800000 -2.000000 0.300000
v 1.851764 -1.993185 0.300000
v 1.900000 -1.973205 0.300000
v 1.941422 -1.941422 0.300000
v 1.973205 -1.900000 0.300000
v 1.993185 -1.851764 0.300000
v 2.000000 -1.800000 0.300000
v 2.000000 1.800000 0.300000
v 1.993185 1.851764 0.300000
v 1.973205 1.900000 0.300000
v 1.941422 1.941422 0.300000
v 1.900000 1.973205 0.300000
v 1.851764 1.993185 0.300000
v -2.000000 -1.800000 -0.000000
v -1.993185 -1.851764 -0.000000
v -1.973205 -1.900000 -0.000000
v -1.941422 -1.941422 -0.000000
v -1.900000 -1.973205 -0.000000
v -1.851764 -1.993185 -0.000000
v -1.800000 -2.000000 -0.000000
v 1.800000 -2.000000 0.000000
v 1.851764 -1.993185 0.000000
v 1.900000 -1.973205 0.000000
v 1.941422 -1.941422 0.000000
v 1.973205 -1.900000 0.000000
v 1.993185 -1.851764 0.000000
v 2.000000 -1.800000 0.000000
v 2.000000 1.800000 0.000000
v 1.993185 1.851764 0.000000
v 1.973205 1.900000 0.000000
v 1.941422 1.941422 0.000000
v 1.900000 1.973205 0.000000
v 1.851764 1.993185 0.000000
v -1.950000 1.750000 0.030000
v -1.943185 1.801764 0.030000
v -1.923205 1.850000 0.030000
v -1.891421 1.891421 0.030000
v -1.850000 1.923205 0.030000
v -1.801764 1.943185 0.030000
v -1.750000 1.950000 0.030000
v 1.750000 1.950000 0.030000
v -1.750000 -1.950000 0.030000
v -1.801764 -1.943185 0.030000
v -1.850000 -1.923205 0.030000
v -1.891421 -1.891421 0.030000
v -1.923205 -1.850000 0.030000
v -1.943185 -1.801764 0.030000
v -1.950000 -1.750000 0.030000
v 1.950000 1.750000 0.030000
v 1.943185 1.801764 0.030000
v 1.923205 1.850000 0.030000
v 1.891421 1.891421 0.030000
v 1.850000 1.923205 0.030000
v 1.801764 1.943185 0.030000
v 1.750000 -1.950000 0.030000
v 1.801764 -1.943185 0.030000
v 1.850000 -1.923205 0.030000
v 1.891421 -1.891421 0.030000
v 1.923205 -1.850000 0.030000
v 1.943185 -1.801764 0.030000
vn -0.0000 -1.0000 -0.0000
vn -1.0000 -0.0000 -0.0000
vn -0.0000 1.0000 -0.0000
vn -0.9659 0.2588 -0.0000
vn -0.8660 0.5000 -0.0000
vn -0.7071 0.7071 -0.0000
vn -0.5000 0.8660 -0.0000
vn -0.2588 0.9659 -0.0000
vn -0.0000 -0.0000 1.0000
vn -0.2588 -0.9659 -0.0000
vn -0.5000 -0.8660 -0.0000
vn -0.7071 -0.7071 -0.0000
vn -0.8660 -0.5000 -0.0000
vn -0.9659 -0.2588 -0.0000
vn 1.0000 -0.0000 -0.0000
vn 0.9659 -0.2588 -0.0000
vn 0.8660 -0.5000 -0.0000
vn 0.7071 -0.7071 -0.0000
vn 0.5000 -0.8660 -0.0000
vn 0.2588 -0.9659 -0.0000
vn 0.2588 0.9659 -0.0000
vn 0.5000 0.8660 -0.0000
vn 0.7071 0.7071 -0.0000
vn 0.8660 0.5000 -0.0000
vn 0.9659 0.2588 -0.0000
vn -0.0000 -0.0000 -1.0000
vt 0.818750 0.690430
vt 0.751249 0.754547
vt 0.703979 0.246826
vt 0.818750 0.487549
vt 0.751251 0.720825
vt 0.500000 0.246826
vt 0.852501 0.487549
vt 0.785002 0.720825
vt 0.006226 0.253174
vt 0.852501 0.690430
vt 0.751249 0.720795
vt 0.210205 0.253174
vt 0.757500 0.754547
vt 0.886261 0.690430
vt 0.703979 0.240601
vt 0.757500 0.720795
vt 0.852509 0.690430
vt 0.210205 0.246826
vt 0.886261 0.487549
vt 0.500000 0.240601
vt 0.785000 0.487499
vt 0.852509 0.487549
vt 0.006226 0.246826
vt 0.818750 0.487499
vt 0.500000 0.462524
vt 0.751251 0.505249
vt 0.006226 0.468750
vt 0.785002 0.505249
vt 0.500000 0.025024
vt 0.537500 0.955200
vt 0.537500 0.961670
vt 0.499146 0.018555
vt 0.537500 0.967773
vt 0.496704 0.012451
vt 0.537500 0.972900
vt 0.575012 0.970581
vt 0.492676 0.007324
vt 0.575012 0.965820
vt 0.487549 0.003296
vt 0.575012 0.959961
vt 0.481445 0.000854
vt 0.575012 0.953613
vt 0.474976 0.000000
vt 0.612518 0.953613
vt 0.474976 1.000000
vt 0.612518 0.959961
vt 0.481445 0.999146
vt 0.612518 0.965820
vt 0.487549 0.996704
vt 0.500000 0.972900
vt 0.612518 0.970581
vt 0.492676 0.992676
vt 0.500000 0.967773
vt 0.496704 0.987549
vt 0.500000 0.961670
vt 0.499146 0.981445
vt 0.500000 0.955200
vt 0.500000 0.974976
vt 0.025024 0.000000
vt 0.575012 0.505859
vt 0.612518 0.505859
vt 0.025024 1.000000
vt 0.468750 0.006226
vt 0.717501 0.939697
vt 0.031250 0.006226
vt 0.717501 0.504395
vt 0.024780 0.007080
vt 0.717501 0.498047
vt 0.018799 0.009644
vt 0.717501 0.492188
vt 0.013550 0.013550
vt 0.717501 0.487549
vt 0.818750 0.720802
vt 0.009644 0.018799
vt 0.818750 0.715624
vt 0.007080 0.024780
vt 0.818750 0.709595
vt 0.006226 0.031250
vt 0.818750 0.703125
vt 0.007080 0.475220
vt 0.785002 0.498779
vt 0.009644 0.481201
vt 0.785002 0.492676
vt 0.013550 0.486450
vt 0.785002 0.487549
vt 0.717499 0.487549
vt 0.018799 0.490356
vt 0.717499 0.492188
vt 0.024780 0.492920
vt 0.717499 0.498047
vt 0.031250 0.493774
vt 0.717499 0.504395
vt 0.468750 0.493774
vt 0.717499 0.939697
vt 0.475220 0.492920
vt 0.717499 0.946289
vt 0.481201 0.490356
vt 0.717499 0.952637
vt 0.486450 0.486450
vt 0.717499 0.958008
vt 0.683750 0.960449
vt 0.490356 0.481201
vt 0.683750 0.955200
vt 0.492920 0.475220
vt 0.683750 0.949219
vt 0.493774 0.468750
vt 0.683750 0.942749
vt 0.493774 0.031250
vt 0.683750 0.505249
vt 0.492920 0.024780
vt 0.683750 0.498779
vt 0.490356 0.018799
vt 0.683750 0.492676
vt 0.486450 0.013550
vt 0.683750 0.487549
vt 0.717501 0.958008
vt 0.481201 0.009644
vt 0.717501 0.952637
vt 0.475220 0.007080
vt 0.717501 0.946289
vt 0.500000 0.474976
vt 0.537500 0.505249
vt 0.499146 0.481445
vt 0.537500 0.498779
vt 0.496704 0.487549
vt 0.537500 0.492676
vt 0.492676 0.492676
vt 0.650000 0.970581
vt 0.537500 0.487549
vt 0.487549 0.496704
vt 0.650000 0.965820
vt 0.481445 0.499146
vt 0.650000 0.959961
vt 0.474976 0.500000
vt 0.650000 0.953613
vt 0.025024 0.500000
vt 0.650000 0.505859
vt 0.018555 0.499146
vt 0.650000 0.499390
vt 0.012451 0.496704
vt 0.650000 0.493042
vt 0.007324 0.492676
vt 0.575000 0.972900
vt 0.650000 0.487549
vt 0.003296 0.487549
vt 0.575000 0.967773
vt 0.000854 0.481445
vt 0.575000 0.961670
vt 0.000000 0.474976
vt 0.575000 0.955200
vt 0.000000 0.025024
vt 0.575000 0.505249
vt 0.000854 0.018555
vt 0.575000 0.498779
vt 0.003296 0.012451
vt 0.575000 0.492676
vt 0.007324 0.007324
vt 0.575000 0.487549
vt 0.012451 0.003296
vt 0.575012 0.493042
vt 0.018555 0.000854
vt 0.575012 0.499390
vt 0.500000 0.505249
vt 0.500000 0.525024
vt 0.500000 0.498779
vt 0.499146 0.518555
vt 0.500000 0.492676
vt 0.496704 0.512451
vt 0.612500 0.970581
vt 0.500000 0.487549
vt 0.492676 0.507324
vt 0.612500 0.965820
vt 0.487549 0.503296
vt 0.612500 0.959961
vt 0.481445 0.500854
vt 0.612500 0.953613
vt 0.474976 0.500000
vt 0.612500 0.505859
vt 0.025024 0.500000
vt 0.612500 0.499390
vt 0.018555 0.500854
vt 0.612500 0.493042
vt 0.012451 0.503296
vt 0.537500 0.972900
vt 0.612500 0.487549
vt 0.007324 0.507324
vt 0.537500 0.967773
vt 0.003296 0.512451
vt 0.537500 0.961670
vt 0.000854 0.518555
vt 0.537500 0.955200
vt 0.000000 0.525024
vt 0.537500 0.505249
vt 0.000000 0.974976
vt 0.537500 0.498779
vt 0.000854 0.981445
vt 0.537500 0.492676
vt 0.003296 0.987549
vt 0.612518 0.487549
vt 0.537500 0.487549
vt 0.007324 0.992676
vt 0.612518 0.493042
vt 0.012451 0.996704
vt 0.612518 0.499390
vt 0.018555 0.999146
vt 0.987549 0.025024
vt 0.650000 0.505249
vt 0.650000 0.498779
vt 0.986694 0.018555
vt 0.650000 0.492676
vt 0.984131 0.012451
vt 0.650000 0.487549
vt 0.683750 0.958008
vt 0.980225 0.007324
vt 0.683750 0.952637
vt 0.974976 0.003296
vt 0.683750 0.946289
vt 0.968994 0.000854
vt 0.683750 0.939697
vt 0.962524 0.000000
vt 0.525024 0.000000
vt 0.683750 0.504395
vt 0.962524 0.487549
vt 0.751251 0.939697
vt 0.751251 0.946289
vt 0.968994 0.486694
vt 0.751251 0.952637
vt 0.974976 0.484131
vt 0.751251 0.958008
vt 0.650000 0.960449
vt 0.980225 0.480225
vt 0.650000 0.955200
vt 0.984131 0.474976
vt 0.650000 0.949219
vt 0.986694 0.468994
vt 0.987549 0.462524
vt 0.650000 0.942749
vt 0.500000 0.025024
vt 0.785000 0.703125
vt 0.500854 0.018555
vt 0.785000 0.709595
vt 0.503296 0.012451
vt 0.785000 0.715624
vt 0.507324 0.007324
vt 0.683750 0.487549
vt 0.785000 0.720802
vt 0.512451 0.003296
vt 0.683750 0.492188
vt 0.518555 0.000854
vt 0.683750 0.498047
vt 0.525024 0.487549
vt 0.751251 0.504395
vt 0.518555 0.486694
vt 0.751251 0.498047
vt 0.512451 0.484131
vt 0.751251 0.492188
vt 0.507324 0.480225
vt 0.751251 0.487549
vt 0.503296 0.474976
vt 0.751251 0.492676
vt 0.500854 0.468994
vt 0.751251 0.498779
s 0
usemtl Steel_-_Satin
f 1/1/1 2/4/1 4/10/1
f 4/10/1 2/4/1 3/7/1
f 5/13/2 1/2/2 6/16/2
f 6/16/2 1/2/2 4/11/2
f 7/19/3 5/14/3 8/22/3
f 8/22/3 5/14/3 6/17/3
f 2/5/2 9/26/2 3/8/2
f 3/8/2 9/26/2 10/28/2
f 24/57/2 11/30/2 23/55/4
f 23/55/4 11/30/2 12/31/4
f 23/55/4 12/31/4 22/53/5
f 22/53/5 12/31/4 13/33/5
f 22/53/5 13/33/5 21/50/6
f 21/50/6 13/33/5 14/35/6
f 21/51/6 14/36/6 20/48/7
f 20/48/7 14/36/6 15/38/7
f 20/48/7 15/38/7 19/46/8
f 19/46/8 15/38/7 16/40/8
f 19/46/8 16/40/8 18/44/3
f 18/44/3 16/40/8 17/42/3
f 17/42/3 25/60/3 18/44/3
f 18/44/3 25/60/3 26/61/3
f 53/119/9 27/63/9 17/43/9
f 17/43/9 27/63/9 28/65/9
f 17/43/9 28/65/9 25/59/9
f 25/59/9 28/65/9 29/67/9
f 25/59/9 29/67/9 73/161/9
f 73/161/9 29/67/9 30/69/9
f 73/161/9 30/69/9 72/159/9
f 72/159/9 30/69/9 31/71/9
f 72/159/9 31/71/9 71/157/9
f 71/157/9 31/71/9 70/155/9
f 70/155/9 31/71/9 32/74/9
f 70/155/9 32/74/9 69/153/9
f 69/153/9 32/74/9 33/76/9
f 69/153/9 33/76/9 68/151/9
f 68/151/9 33/76/9 34/78/9
f 68/151/9 34/78/9 8/23/9
f 68/151/9 8/23/9 3/9/9
f 3/9/9 8/23/9 6/18/9
f 3/9/9 6/18/9 4/12/9
f 68/151/9 3/9/9 67/149/9
f 67/149/9 3/9/9 10/27/9
f 67/149/9 10/27/9 35/80/9
f 67/149/9 35/80/9 66/147/9
f 66/147/9 35/80/9 36/82/9
f 66/147/9 36/82/9 65/145/9
f 65/145/9 36/82/9 37/84/9
f 65/145/9 37/84/9 64/142/9
f 64/142/9 37/84/9 63/140/9
f 63/140/9 37/84/9 38/87/9
f 63/140/9 38/87/9 62/138/9
f 62/138/9 38/87/9 39/89/9
f 62/138/9 39/89/9 61/136/9
f 61/136/9 39/89/9 40/91/9
f 61/136/9 40/91/9 41/93/9
f 61/136/9 41/93/9 60/134/9
f 60/134/9 41/93/9 42/95/9
f 60/134/9 42/95/9 59/132/9
f 59/132/9 42/95/9 43/97/9
f 59/132/9 43/97/9 58/130/9
f 58/130/9 43/97/9 44/99/9
f 58/130/9 44/99/9 57/127/9
f 57/127/9 44/99/9 56/125/9
f 56/125/9 44/99/9 45/102/9
f 56/125/9 45/102/9 55/123/9
f 55/123/9 45/102/9 46/104/9
f 55/123/9 46/104/9 54/121/9
f 54/121/9 46/104/9 47/106/9
f 54/121/9 47/106/9 11/29/9
f 11/29/9 47/106/9 48/108/9
f 11/29/9 48/108/9 49/110/9
f 11/29/9 49/110/9 12/32/9
f 12/32/9 49/110/9 50/112/9
f 12/32/9 50/112/9 13/34/9
f 13/34/9 50/112/9 51/114/9
f 13/34/9 51/114/9 14/37/9
f 14/37/9 51/114/9 15/39/9
f 15/39/9 51/114/9 52/117/9
f 15/39/9 52/117/9 16/41/9
f 16/41/9 52/117/9 53/119/9
f 16/41/9 53/119/9 17/43/9
f 80/176/1 60/135/1 79/174/10
f 79/174/10 60/135/1 59/133/10
f 79/174/10 59/133/10 78/172/11
f 78/172/11 59/133/10 58/131/11
f 78/172/11 58/131/11 77/169/12
f 77/169/12 58/131/11 57/128/12
f 77/170/12 57/129/12 76/167/13
f 76/167/13 57/129/12 56/126/13
f 76/167/13 56/126/13 75/165/14
f 75/165/14 56/126/13 55/124/14
f 75/165/14 55/124/14 74/163/2
f 74/163/2 55/124/14 54/122/2
f 80/176/1 81/178/1 60/135/1
f 60/135/1 81/178/1 61/137/1
f 87/191/15 67/150/15 86/189/16
f 86/189/16 67/150/15 66/148/16
f 86/189/16 66/148/16 85/187/17
f 85/187/17 66/148/16 65/146/17
f 85/187/17 65/146/17 84/184/18
f 84/184/18 65/146/17 64/143/18
f 84/185/18 64/144/18 83/182/19
f 83/182/19 64/144/18 63/141/19
f 83/182/19 63/141/19 82/180/20
f 82/180/20 63/141/19 62/139/20
f 82/180/20 62/139/20 81/178/1
f 81/178/1 62/139/20 61/137/1
f 26/61/3 25/60/3 93/204/21
f 93/204/21 25/60/3 73/162/21
f 93/204/21 73/162/21 92/202/22
f 92/202/22 73/162/21 72/160/22
f 92/202/22 72/160/22 91/199/23
f 91/199/23 72/160/22 71/158/23
f 91/200/23 71/158/23 90/197/24
f 90/197/24 71/158/23 70/156/24
f 90/197/24 70/156/24 89/195/25
f 89/195/25 70/156/24 69/154/25
f 89/195/25 69/154/25 88/193/15
f 88/193/15 69/154/25 68/152/15
f 48/109/15 94/207/15 49/111/16
f 49/111/16 94/207/15 95/208/16
f 49/111/16 95/208/16 50/113/17
f 50/113/17 95/208/16 96/210/17
f 50/113/17 96/210/17 51/115/18
f 51/115/18 96/210/17 97/212/18
f 51/116/18 97/213/18 52/118/19
f 52/118/19 97/213/18 98/215/19
f 52/118/19 98/215/19 53/120/20
f 53/120/20 98/215/19 99/217/20
f 53/120/20 99/217/20 27/64/1
f 27/64/1 99/217/20 100/219/1
f 100/219/1 101/222/1 27/64/1
f 27/64/1 101/222/1 28/66/1
f 41/94/3 102/224/3 42/96/21
f 42/96/21 102/224/3 103/225/21
f 42/96/21 103/225/21 43/98/22
f 43/98/22 103/225/21 104/227/22
f 43/98/22 104/227/22 44/100/23
f 44/100/23 104/227/22 105/229/23
f 44/101/23 105/230/23 45/103/24
f 45/103/24 105/230/23 106/232/24
f 45/103/24 106/232/24 46/105/25
f 46/105/25 106/232/24 107/234/25
f 46/105/25 107/234/25 47/107/15
f 47/107/15 107/234/25 108/237/15
f 7/20/9 109/238/9 5/15/9
f 5/15/9 109/238/9 101/221/9
f 5/15/9 101/221/9 100/220/9
f 110/240/9 111/242/9 109/238/9
f 109/238/9 111/242/9 112/244/9
f 109/238/9 112/244/9 113/247/9
f 113/247/9 114/249/9 109/238/9
f 109/238/9 114/249/9 101/221/9
f 5/15/9 100/220/9 94/206/9
f 94/206/9 100/220/9 99/218/9
f 94/206/9 99/218/9 98/216/9
f 98/216/9 97/214/9 94/206/9
f 94/206/9 97/214/9 96/211/9
f 94/206/9 96/211/9 95/209/9
f 5/15/9 94/206/9 1/3/9
f 1/3/9 94/206/9 108/236/9
f 1/3/9 108/236/9 102/223/9
f 102/223/9 108/236/9 107/235/9
f 102/223/9 107/235/9 106/233/9
f 106/233/9 105/231/9 102/223/9
f 102/223/9 105/231/9 104/228/9
f 102/223/9 104/228/9 103/226/9
f 102/223/9 115/251/9 1/3/9
f 1/3/9 115/251/9 9/25/9
f 1/3/9 9/25/9 2/6/9
f 116/253/9 117/255/9 115/251/9
f 115/251/9 117/255/9 118/257/9
f 115/251/9 118/257/9 119/259/9
f 119/259/9 120/261/9 115/251/9
f 115/251/9 120/261/9 9/25/9
f 41/94/3 40/92/3 102/224/3
f 102/224/3 40/92/3 115/252/3
f 10/28/2 9/26/2 35/81/4
f 35/81/4 9/26/2 120/262/4
f 35/81/4 120/262/4 36/83/5
f 36/83/5 120/262/4 119/260/5
f 36/83/5 119/260/5 37/85/6
f 37/85/6 119/260/5 118/258/6
f 37/86/6 118/258/6 38/88/7
f 38/88/7 118/258/6 117/256/7
f 38/88/7 117/256/7 39/90/8
f 39/90/8 117/256/7 116/254/8
f 39/90/8 116/254/8 40/92/3
f 40/92/3 116/254/8 115/252/3
f 28/66/1 101/222/1 29/68/10
f 29/68/10 101/222/1 114/250/10
f 29/68/10 114/250/10 30/70/11
f 30/70/11 114/250/10 113/248/11
f 30/70/11 113/248/11 31/72/12
f 31/72/12 113/248/11 112/245/12
f 31/73/12 112/246/12 32/75/13
f 32/75/13 112/246/12 111/243/13
f 32/75/13 111/243/13 33/77/14
f 33/77/14 111/243/13 110/241/14
f 33/77/14 110/241/14 34/79/2
f 34/79/2 110/241/14 109/239/2
f 48/109/15 47/107/15 94/207/15
f 94/207/15 47/107/15 108/237/15
f 8/24/2 34/79/2 7/21/2
f 7/21/2 34/79/2 109/239/2
f 87/191/15 88/193/15 67/150/15
f 67/150/15 88/193/15 68/152/15
f 24/57/2 74/163/2 11/30/2
f 11/30/2 74/163/2 54/122/2
f 23/56/26 18/45/26 24/58/26
f 24/58/26 18/45/26 81/179/26
f 24/58/26 81/179/26 80/177/26
f 23/56/26 22/54/26 18/45/26
f 18/45/26 22/54/26 21/52/26
f 18/45/26 21/52/26 20/49/26
f 20/49/26 19/47/26 18/45/26
f 81/179/26 18/45/26 87/192/26
f 87/192/26 18/45/26 26/62/26
f 87/192/26 26/62/26 88/194/26
f 88/194/26 26/62/26 93/205/26
f 88/194/26 93/205/26 92/203/26
f 92/203/26 91/201/26 88/194/26
f 88/194/26 91/201/26 90/198/26
f 88/194/26 90/198/26 89/196/26
f 86/190/26 85/188/26 87/192/26
f 87/192/26 85/188/26 84/186/26
f 87/192/26 84/186/26 83/183/26
f 83/183/26 82/181/26 87/192/26
f 87/192/26 82/181/26 81/179/26
f 79/175/26 78/173/26 80/177/26
f 80/177/26 78/173/26 77/171/26
f 80/177/26 77/171/26 76/168/26
f 76/168/26 75/166/26 80/177/26
f 80/177/26 75/166/26 74/164/26
f 80/177/26 74/164/26 24/58/26
