G04 EAGLE Gerber RS-274X export*
G75*
%MOMM*%
%FSLAX34Y34*%
%LPD*%
%INSolderpaste Bottom*%
%IPPOS*%
%AMOC8*
5,1,8,0,0,1.08239X$1,22.5*%
G01*
%ADD10R,0.660400X2.032000*%
%ADD11R,1.500000X0.900000*%
%ADD12R,1.930400X3.810000*%
%ADD13R,3.810000X1.930400*%
%ADD14R,1.600000X1.300000*%
%ADD15R,1.300000X1.600000*%
%ADD16R,1.100000X1.000000*%


D10*
X77640Y383666D03*
X77640Y322198D03*
X90340Y383666D03*
X103040Y383666D03*
X90340Y322198D03*
X103040Y322198D03*
X115740Y383666D03*
X115740Y322198D03*
X128440Y383666D03*
X128440Y322198D03*
X141140Y383666D03*
X153840Y383666D03*
X141140Y322198D03*
X153840Y322198D03*
X166540Y383666D03*
X166540Y322198D03*
D11*
X97468Y465861D03*
X97468Y498861D03*
X146468Y465861D03*
X146468Y498861D03*
X97535Y84118D03*
X97535Y117118D03*
X146535Y84118D03*
X146535Y117118D03*
D12*
X96765Y556736D03*
X145787Y556736D03*
D13*
G36*
X266614Y493059D02*
X293554Y519999D01*
X307204Y506349D01*
X280264Y479409D01*
X266614Y493059D01*
G37*
G36*
X301278Y458396D02*
X328218Y485336D01*
X341868Y471686D01*
X314928Y444746D01*
X301278Y458396D01*
G37*
X382884Y318460D03*
X382884Y269438D03*
G36*
X316125Y147561D02*
X343065Y120621D01*
X329415Y106971D01*
X302475Y133911D01*
X316125Y147561D01*
G37*
G36*
X281462Y112897D02*
X308402Y85957D01*
X294752Y72307D01*
X267812Y99247D01*
X281462Y112897D01*
G37*
D12*
X145218Y34449D03*
X96196Y34449D03*
D13*
G36*
X-23520Y97779D02*
X-50460Y70839D01*
X-64110Y84489D01*
X-37170Y111429D01*
X-23520Y97779D01*
G37*
G36*
X-58184Y132443D02*
X-85124Y105503D01*
X-98774Y119153D01*
X-71834Y146093D01*
X-58184Y132443D01*
G37*
X-141441Y270707D03*
X-141441Y319729D03*
G36*
X-74035Y443771D02*
X-100975Y470711D01*
X-87325Y484361D01*
X-60385Y457421D01*
X-74035Y443771D01*
G37*
G36*
X-39371Y478435D02*
X-66311Y505375D01*
X-52661Y519025D01*
X-25721Y492085D01*
X-39371Y478435D01*
G37*
D14*
X175558Y556474D03*
X175558Y537474D03*
D15*
G36*
X289265Y478886D02*
X298458Y488079D01*
X309771Y476766D01*
X300578Y467573D01*
X289265Y478886D01*
G37*
G36*
X275830Y465451D02*
X285023Y474644D01*
X296336Y463331D01*
X287143Y454138D01*
X275830Y465451D01*
G37*
X376784Y295656D03*
X357784Y295656D03*
G36*
X303000Y124873D02*
X312193Y115680D01*
X300880Y104367D01*
X291687Y113560D01*
X303000Y124873D01*
G37*
G36*
X289565Y138308D02*
X298758Y129115D01*
X287445Y117802D01*
X278252Y126995D01*
X289565Y138308D01*
G37*
D14*
X122174Y38252D03*
X122174Y57252D03*
D15*
G36*
X-47395Y110438D02*
X-56588Y101245D01*
X-67901Y112558D01*
X-58708Y121751D01*
X-47395Y110438D01*
G37*
G36*
X-33960Y123873D02*
X-43153Y114680D01*
X-54466Y125993D01*
X-45273Y135186D01*
X-33960Y123873D01*
G37*
X-134722Y294640D03*
X-115722Y294640D03*
G36*
X-60858Y465808D02*
X-70051Y475001D01*
X-58738Y486314D01*
X-49545Y477121D01*
X-60858Y465808D01*
G37*
G36*
X-47423Y452373D02*
X-56616Y461566D01*
X-45303Y472879D01*
X-36110Y463686D01*
X-47423Y452373D01*
G37*
D16*
X97291Y444119D03*
X114291Y444119D03*
X113801Y148590D03*
X130801Y148590D03*
M02*
