M48
;GenerationSoftware,Autodesk,EAGLE,9.2.2*%
;CreationDate,2019-04-17T19:49:23Z*%
FMAT,2
ICI,OFF
METRIC,TZ,000.000
T6C0.508
T5C0.550
T4C0.800
T3C1.016
T2C1.100
%
G90
M71
T2
X34679Y44434
X38811Y35152
X35712Y42113
X36745Y39793
X37778Y37472
T3
X13467Y21503
X30450Y22190
X30450Y19650
X30450Y17110
X-5829Y22275
X-5829Y19735
X-5829Y17195
X16007Y21503
X10927Y21503
X30404Y32037
X31447Y36006
X33987Y36006
X-5837Y32269
X-5837Y29729
X-5837Y27189
X30404Y26957
X30404Y29497
X8387Y21503
T4
X751Y29540
X751Y47320
X751Y44780
X751Y42240
X751Y39700
X751Y37160
X751Y34620
X751Y32080
X751Y27000
X751Y21920
X23611Y11760
X23611Y14300
X23611Y16840
X23611Y19380
X23611Y21920
X23611Y24460
X23611Y27000
X23611Y29540
X23611Y32080
X23611Y34620
X23611Y39700
X23611Y42240
X23611Y44780
X23611Y47320
X751Y11760
X751Y14300
X751Y16840
X751Y19380
X751Y24460
X23611Y37160
T5
X20692Y11816
X20692Y28834
X3674Y28834
X3674Y11816
T6
X20250Y46300
X18750Y37350
X28650Y40950
X15750Y34650
X12050Y34650
X28750Y38500
X20000Y36050
X10350Y51350
X16650Y8400
X-10980Y34050
X18650Y20150
X18850Y22450
X250Y52250
X27620Y24310
X38330Y23540
X31350Y40000
X17800Y42400
X16900Y44800
X5450Y51200
X22550Y52950
X18400Y53000
X32600Y24340
X28800Y36000
X22550Y49900
X19050Y33250
X-6500Y42800
X12200Y26750
X-3750Y15050
X7000Y56200
X-12810Y40110
X-9550Y18250
X12550Y18100
X20650Y14200
X23700Y7600
X25550Y9200
X5950Y15250
X21450Y31100
X26950Y43050
X18050Y31100
X34900Y16360
X-1800Y20000
X-9400Y26250
X-10650Y22800
X-5810Y34590
X-2020Y41710
X-1700Y46100
X32330Y30790
X10750Y34650
X2450Y7800
X-1850Y7450
X35500Y34150
X4920Y34570
X36500Y21900
X6400Y29000
X-9000Y19750
X6900Y46650
X5950Y7800
X750Y49350
X4450Y46200
X19650Y44800
X19650Y41650
X-2150Y23800
X18750Y47300
X-2850Y33350
X-13550Y20700
X37300Y19120
X21150Y42250
X29200Y43850
X16900Y47050
X26820Y18300
X5850Y38100
X36060Y24140
X9100Y13200
X15900Y14400
X6800Y45300
X18450Y39800
X3350Y32100
X26700Y29650
X27600Y33650
X17900Y16950
X12600Y10100
M30