M48
;GenerationSoftware,Autodesk,EAGLE,9.6.2*%
;CreationDate,2023-03-06T00:36:21Z*%
FMAT,2
ICI,OFF
METRIC,TZ,000.000
T6C0.508
T5C0.700
T4C0.800
T3C1.016
T2C1.100
%
G90
M71
T2
X34679Y44434
X38811Y35152
X35712Y42113
X36745Y39793
X37778Y37472
T3
X10927Y21503
X30450Y22190
X30450Y19650
X30450Y17110
X-5829Y22275
X-5829Y19735
X-5829Y17195
X16007Y21503
X13467Y21503
X-5837Y32269
X8387Y21503
X30404Y32037
X30404Y29497
X-5837Y29729
X-5837Y27189
X30404Y26957
X16254Y44706
X16254Y13495
X8379Y44706
X8379Y13495
T4
X751Y32080
X23611Y24460
X751Y34620
X751Y37160
X751Y39700
X751Y42240
X751Y44780
X751Y47320
X23611Y19380
X23611Y16840
X23611Y14300
X23611Y11760
X751Y27000
X23611Y21920
X23611Y27000
X23611Y29540
X23611Y32080
X23611Y34620
X23611Y37160
X23611Y39700
X23611Y42240
X23611Y44780
X23611Y47320
X751Y11760
X751Y14300
X751Y16840
X751Y19380
X751Y21920
X751Y24460
X751Y29540
T5
X34910Y17660
X32850Y36604
X36910Y17660
X31033Y35768
T6
X20250Y46300
X18850Y22450
X18650Y20150
X-11010Y32010
X18160Y8420
X11540Y51830
X18260Y34670
X12050Y34650
X15750Y34650
X33920Y34018
X28650Y40950
X18750Y37350
X28680Y39350
X-2850Y33350
X18130Y31580
X39350Y24280
X17930Y41480
X18220Y44690
X5450Y51200
X26780Y47240
X25960Y53160
X250Y52250
X28700Y36060
X22020Y49880
X27620Y24310
X-6500Y42800
X12200Y26750
X-1690Y16810
X7000Y56200
X-12810Y40110
X34300Y14850
X39340Y20780
X21340Y41800
X-9550Y18250
X14690Y18390
X21910Y9500
X24570Y7930
X25550Y9200
X7680Y15840
X20530Y31630
X26950Y43050
X17890Y29630
X30820Y43210
X-1730Y20460
X-10840Y28020
X-9980Y23890
X-5810Y34590
X-2020Y41710
X-1700Y46100
X32330Y30790
X32600Y24340
X4440Y49720
X17390Y2220
X13760Y6080
X20220Y37080
X30970Y38270
X23840Y2650
X36500Y21900
X6400Y29000
X-9000Y19750
X4920Y34570
X10750Y34650
X2250Y9430
X750Y49350
X4310Y45480
X19650Y44800
X19650Y41650
X-2150Y23800
X19050Y47330
X3350Y32100
X17910Y47060
X26820Y18300
X2990Y40990
X35140Y22610
X2590Y7510
X-13550Y20700
X5880Y48470
X18600Y39310
X15980Y15470
X26660Y29630
X27600Y33650
X19090Y15870
X12600Y10100
X4600Y14010
X12610Y14360
X-1850Y7450
X35500Y34150
M30