# Blender v3.0.1 OBJ File: ''
# www.blender.org
mtllib flag.mtl
o obj_0
v -0.011011 -0.000393 -0.000287
v 0.008989 -0.000393 -0.000287
v -0.010522 -0.003483 -0.000287
v -0.010522 0.002697 -0.000287
v -0.009101 0.005485 -0.000287
v 0.008500 -0.003483 -0.000287
v 0.007079 -0.006271 -0.000287
v 0.004867 -0.008483 -0.000287
v 0.002079 -0.009904 -0.000287
v -0.001011 -0.010393 -0.000287
v -0.004101 -0.009904 -0.000287
v -0.006889 -0.008483 -0.000287
v -0.009101 -0.006271 -0.000287
v -0.006889 0.007697 -0.000287
v -0.004101 0.009118 -0.000287
v -0.001011 0.009607 -0.000287
v 0.002079 0.009118 -0.000287
v 0.004867 0.007697 -0.000287
v 0.007079 0.005485 -0.000287
v 0.008500 0.002697 -0.000287
v -0.001011 -0.004893 0.002713
v -0.002402 -0.004673 0.002713
v -0.001011 -0.010393 0.002713
v 0.002079 -0.009904 0.002713
v 0.000380 -0.004673 0.002713
v 0.004867 -0.008483 0.002713
v -0.004101 -0.009904 0.002713
v -0.006889 -0.008483 0.002713
v 0.003269 0.000998 0.002713
v 0.003489 -0.000393 0.002713
v 0.008989 -0.000393 0.002713
v 0.008500 0.002697 0.002713
v 0.007079 0.005485 0.002713
v -0.009101 0.005485 0.002713
v -0.004652 0.002252 0.002713
v -0.006889 0.007697 0.002713
v -0.001011 0.009607 0.002713
v -0.004101 0.009118 0.002713
v -0.002402 0.003887 0.002713
v -0.001011 0.004107 0.002713
v 0.000380 0.003887 0.002713
v -0.009101 -0.006271 0.002713
v -0.005291 -0.001784 0.002713
v -0.010522 -0.003483 0.002713
v -0.011011 -0.000393 0.002713
v 0.002079 0.009118 0.002713
v -0.003656 0.003248 0.002713
v -0.005291 0.000998 0.002713
v -0.010522 0.002697 0.002713
v -0.005511 -0.000393 0.002713
v -0.004652 -0.003038 0.002713
v -0.003656 -0.004034 0.002713
v 0.001634 -0.004034 0.002713
v 0.003269 -0.001784 0.002713
v 0.004867 0.007697 0.002713
v 0.001634 0.003248 0.002713
v 0.002630 0.002252 0.002713
v 0.007079 -0.006271 0.002713
v 0.002630 -0.003038 0.002713
v 0.008500 -0.003483 0.002713
v 0.000238 0.003909 0.060445
v -0.001011 0.004107 0.060540
v -0.000935 0.076108 0.095146
v -0.001087 0.076108 0.095146
v -0.002259 0.003909 0.060445
v -0.004652 -0.003038 0.117713
v 0.001634 -0.004034 0.117713
v -0.005291 -0.001784 0.117713
v -0.003656 -0.004034 0.117713
v -0.002402 -0.004673 0.117713
v -0.001011 -0.004893 0.117713
v 0.000380 -0.004673 0.117713
v -0.005511 -0.000393 0.117713
v -0.005291 0.000998 0.117713
v 0.000380 0.003887 0.117713
v 0.001634 0.003248 0.117713
v 0.002630 0.002252 0.117713
v 0.002630 -0.003038 0.117713
v 0.003269 -0.001784 0.117713
v 0.003489 -0.000393 0.117713
v 0.003269 0.000998 0.117713
v 0.000238 0.003909 0.115688
v -0.004652 0.002252 0.117713
v -0.002402 0.003887 0.117713
v -0.003656 0.003248 0.117713
v -0.002259 0.003909 0.115688
v -0.001011 0.004107 0.117713
v -0.001011 0.004107 0.115632
vn -0.7391 0.0000 -0.6735
vn 0.7391 0.0000 -0.6735
vn -0.7030 -0.2284 -0.6735
vn -0.7030 0.2284 -0.6735
vn -0.5979 0.4345 -0.6735
vn 0.7030 -0.2284 -0.6735
vn 0.5979 -0.4345 -0.6735
vn 0.4345 -0.5979 -0.6735
vn 0.2284 -0.7030 -0.6735
vn 0.0000 -0.7391 -0.6735
vn -0.2284 -0.7030 -0.6735
vn -0.4345 -0.5979 -0.6735
vn -0.5979 -0.4345 -0.6735
vn -0.4345 0.5979 -0.6735
vn -0.2284 0.7030 -0.6735
vn 0.0000 0.7391 -0.6735
vn 0.2284 0.7030 -0.6735
vn 0.4345 0.5979 -0.6735
vn 0.5979 0.4345 -0.6735
vn 0.7030 0.2284 -0.6735
vn 0.0000 -0.6681 0.7440
vn -0.2064 -0.6354 0.7441
vn 0.0000 -0.7391 0.6735
vn 0.2284 -0.7030 0.6735
vn 0.2064 -0.6354 0.7441
vn 0.4345 -0.5979 0.6735
vn -0.2284 -0.7030 0.6735
vn -0.4345 -0.5979 0.6735
vn 0.6354 0.2064 0.7441
vn 0.6681 0.0000 0.7440
vn 0.7391 0.0000 0.6735
vn 0.7030 0.2284 0.6735
vn 0.5979 0.4345 0.6735
vn -0.5979 0.4345 0.6735
vn -0.5405 0.3927 0.7440
vn -0.4345 0.5979 0.6735
vn 0.0000 0.7391 0.6735
vn -0.2284 0.7030 0.6735
vn -0.2064 0.6354 0.7441
vn 0.0000 0.6681 0.7440
vn 0.2064 0.6354 0.7441
vn -0.5979 -0.4345 0.6735
vn -0.6354 -0.2064 0.7441
vn -0.7030 -0.2284 0.6735
vn -0.7391 0.0000 0.6735
vn 0.2284 0.7030 0.6735
vn -0.3927 0.5405 0.7440
vn -0.6354 0.2064 0.7441
vn -0.7030 0.2284 0.6735
vn -0.6681 0.0000 0.7440
vn -0.5405 -0.3927 0.7440
vn -0.3927 -0.5405 0.7440
vn 0.3927 -0.5405 0.7440
vn 0.6354 -0.2064 0.7441
vn 0.4345 0.5979 0.6735
vn 0.3927 0.5405 0.7440
vn 0.5405 0.3927 0.7440
vn 0.5979 -0.4345 0.6735
vn 0.5405 -0.3927 0.7440
vn 0.7030 -0.2284 0.6735
vn 0.3225 0.9218 -0.2149
vn 0.0000 0.8177 -0.5757
vn 0.5377 0.8401 0.0718
vn -0.5377 0.8401 0.0718
vn -0.3225 0.9218 -0.2149
vn -0.5980 -0.4345 0.6735
vn 0.4345 -0.5980 0.6735
vn -0.7030 -0.2283 0.6735
vn -0.4345 -0.5980 0.6735
vn -0.2283 -0.7030 0.6735
vn 0.0000 -0.7391 0.6736
vn 0.2283 -0.7030 0.6735
vn -0.7391 0.0000 0.6736
vn -0.7030 0.2283 0.6735
vn 0.2283 0.7030 0.6735
vn 0.4345 0.5980 0.6735
vn 0.5980 0.4345 0.6735
vn 0.5980 -0.4345 0.6735
vn 0.7030 -0.2283 0.6735
vn 0.7391 0.0000 0.6736
vn 0.7030 0.2283 0.6735
vn 0.3602 0.9023 0.2369
vn -0.5980 0.4345 0.6735
vn -0.2283 0.7030 0.6735
vn -0.4345 0.5980 0.6735
vn -0.3602 0.9023 0.2369
vn 0.0000 0.7391 0.6736
vn 0.0000 0.7652 0.6438
usemtl color_2829873
s 1
f 1//1 2//2 3//3
f 4//4 2//2 1//1
f 5//5 2//2 4//4
f 2//2 6//6 7//7
f 2//2 7//7 8//8
f 2//2 8//8 9//9
f 2//2 9//9 10//10
f 2//2 10//10 11//11
f 2//2 11//11 12//12
f 2//2 12//12 13//13
f 13//13 3//3 2//2
f 2//2 5//5 14//14
f 2//2 14//14 15//15
f 2//2 15//15 16//16
f 2//2 16//16 17//17
f 2//2 17//17 18//18
f 2//2 18//18 19//19
f 2//2 19//19 20//20
f 21//21 22//22 23//23
f 24//24 25//25 23//23
f 26//26 25//25 24//24
f 27//27 23//23 22//22
f 27//27 22//22 28//28
f 29//29 30//30 31//31
f 31//31 32//32 29//29
f 33//33 29//29 32//32
f 34//34 35//35 36//36
f 37//37 38//38 39//39
f 40//40 41//41 37//37
f 42//42 43//43 44//44
f 44//44 43//43 45//45
f 37//37 41//41 46//46
f 47//47 39//39 36//36
f 40//40 37//37 39//39
f 38//38 36//36 39//39
f 45//45 48//48 49//49
f 47//47 36//36 35//35
f 49//49 48//48 34//34
f 35//35 34//34 48//48
f 48//48 45//45 50//50
f 50//50 45//45 43//43
f 42//42 28//28 51//51
f 43//43 42//42 51//51
f 51//51 28//28 52//52
f 52//52 28//28 22//22
f 21//21 23//23 25//25
f 53//53 25//25 26//26
f 30//30 54//54 31//31
f 55//55 56//56 33//33
f 29//29 33//33 57//57
f 57//57 33//33 56//56
f 46//46 41//41 55//55
f 56//56 55//55 41//41
f 26//26 58//58 53//53
f 53//53 58//58 59//59
f 60//60 54//54 58//58
f 59//59 58//58 54//54
f 54//54 60//60 31//31
f 5//5 4//4 49//49
f 5//5 49//49 34//34
f 4//4 1//1 45//45
f 4//4 45//45 49//49
f 1//1 3//3 44//44
f 1//1 44//44 45//45
f 3//3 13//13 42//42
f 3//3 42//42 44//44
f 13//13 28//28 42//42
f 31//31 2//2 20//20
f 31//31 20//20 32//32
f 20//20 19//19 33//33
f 20//20 33//33 32//32
f 19//19 18//18 55//55
f 19//19 55//55 33//33
f 46//46 55//55 17//17
f 18//18 17//17 55//55
f 17//17 16//16 37//37
f 17//17 37//37 46//46
f 15//15 38//38 37//37
f 15//15 37//37 16//16
f 14//14 36//36 38//38
f 14//14 38//38 15//15
f 34//34 36//36 14//14
f 34//34 14//14 5//5
f 13//13 12//12 28//28
f 12//12 11//11 27//27
f 12//12 27//27 28//28
f 11//11 10//10 23//23
f 11//11 23//23 27//27
f 23//23 10//10 9//9
f 23//23 9//9 24//24
f 9//9 8//8 26//26
f 9//9 26//26 24//24
f 8//8 7//7 58//58
f 8//8 58//58 26//26
f 58//58 7//7 60//60
f 6//6 60//60 7//7
f 2//2 31//31 60//60
f 2//2 60//60 6//6
usemtl color_15277357
f 61//61 62//62 63//63
f 64//64 63//63 62//62
f 64//64 62//62 65//65
f 66//66 67//67 68//68
f 69//69 67//67 66//66
f 70//70 67//67 69//69
f 71//71 67//67 70//70
f 72//72 67//67 71//71
f 73//73 68//68 67//67
f 73//73 67//67 74//74
f 75//75 67//67 76//76
f 76//76 67//67 77//77
f 77//77 67//67 78//78
f 77//77 78//78 79//79
f 77//77 79//79 80//80
f 77//77 80//80 81//81
f 63//63 82//82 61//61
f 29//29 81//81 80//80
f 67//67 53//53 59//59
f 76//76 77//77 56//56
f 39//39 65//65 40//40
f 76//76 56//56 41//41
f 79//79 59//59 54//54
f 50//50 43//43 68//68
f 43//43 51//51 68//68
f 62//62 61//61 40//40
f 52//52 70//70 69//69
f 51//51 66//66 68//68
f 69//69 66//66 52//52
f 30//30 29//29 80//80
f 25//25 53//53 67//67
f 54//54 30//30 79//79
f 80//80 79//79 30//30
f 22//22 21//21 70//70
f 71//71 25//25 72//72
f 74//74 48//48 73//73
f 50//50 73//73 48//48
f 50//50 68//68 73//73
f 57//57 77//77 29//29
f 66//66 51//51 52//52
f 52//52 22//22 70//70
f 71//71 70//70 21//21
f 59//59 79//79 78//78
f 74//74 67//67 83//83
f 84//84 85//85 67//67
f 85//85 83//83 67//67
f 25//25 67//67 72//72
f 81//81 29//29 77//77
f 57//57 56//56 77//77
f 59//59 78//78 67//67
f 41//41 75//75 76//76
f 41//41 61//61 75//75
f 82//82 75//75 61//61
f 71//71 21//21 25//25
f 35//35 48//48 83//83
f 39//39 47//47 84//84
f 85//85 47//47 83//83
f 62//62 40//40 65//65
f 39//39 84//84 65//65
f 86//86 65//65 84//84
f 85//85 84//84 47//47
f 83//83 47//47 35//35
f 74//74 83//83 48//48
f 86//86 64//64 65//65
f 87//87 84//84 67//67
f 87//87 67//67 75//75
f 82//82 88//88 87//87
f 82//82 87//87 75//75
f 84//84 87//87 86//86
f 88//88 86//86 87//87
f 63//63 64//64 88//88
f 88//88 82//82 63//63
f 86//86 88//88 64//64
f 41//41 40//40 61//61
