G04 EAGLE Gerber RS-274X export*
G75*
%MOMM*%
%FSLAX34Y34*%
%LPD*%
%INSoldermask Bottom*%
%IPPOS*%
%AMOC8*
5,1,8,0,0,1.08239X$1,22.5*%
G01*
%ADD10C,1.727200*%
%ADD11R,0.863600X2.235200*%
%ADD12R,1.703200X1.103200*%
%ADD13R,2.133600X4.013200*%
%ADD14R,4.013200X2.133600*%
%ADD15R,1.803200X1.503200*%
%ADD16R,1.503200X1.803200*%
%ADD17C,1.511200*%
%ADD18R,2.743200X2.743200*%
%ADD19C,1.803200*%
%ADD20R,1.303200X1.203200*%
%ADD21C,1.853200*%
%ADD22C,1.879600*%
%ADD23C,1.117600*%


D10*
X-65989Y322686D02*
X-50749Y322686D01*
X-50749Y297286D02*
X-65989Y297286D01*
X-65989Y271886D02*
X-50749Y271886D01*
X296418Y269566D02*
X311658Y269566D01*
X311658Y294966D02*
X296418Y294966D01*
X296418Y320366D02*
X311658Y320366D01*
D11*
X77640Y383666D03*
X77640Y322198D03*
X90340Y383666D03*
X103040Y383666D03*
X90340Y322198D03*
X103040Y322198D03*
X115740Y383666D03*
X115740Y322198D03*
X128440Y383666D03*
X128440Y322198D03*
X141140Y383666D03*
X153840Y383666D03*
X141140Y322198D03*
X153840Y322198D03*
X166540Y383666D03*
X166540Y322198D03*
D10*
X83869Y222654D02*
X83869Y207414D01*
X109269Y207414D02*
X109269Y222654D01*
X134669Y222654D02*
X134669Y207414D01*
X160069Y207414D02*
X160069Y222654D01*
D12*
X97468Y465861D03*
X97468Y498861D03*
X146468Y465861D03*
X146468Y498861D03*
X97535Y84118D03*
X97535Y117118D03*
X146535Y84118D03*
X146535Y117118D03*
D10*
X-50673Y171953D02*
X-65913Y171953D01*
X-65913Y197353D02*
X-50673Y197353D01*
X-50673Y222753D02*
X-65913Y222753D01*
X296880Y171100D02*
X312120Y171100D01*
X312120Y196500D02*
X296880Y196500D01*
X296880Y221900D02*
X312120Y221900D01*
D13*
X96765Y556736D03*
X145787Y556736D03*
D14*
G36*
X265177Y493059D02*
X293554Y521436D01*
X308641Y506349D01*
X280264Y477972D01*
X265177Y493059D01*
G37*
G36*
X299841Y458396D02*
X328218Y486773D01*
X343305Y471686D01*
X314928Y443309D01*
X299841Y458396D01*
G37*
X382884Y318460D03*
X382884Y269438D03*
G36*
X316125Y148998D02*
X344502Y120621D01*
X329415Y105534D01*
X301038Y133911D01*
X316125Y148998D01*
G37*
G36*
X281462Y114334D02*
X309839Y85957D01*
X294752Y70870D01*
X266375Y99247D01*
X281462Y114334D01*
G37*
D13*
X145218Y34449D03*
X96196Y34449D03*
D14*
G36*
X-22083Y97779D02*
X-50460Y69402D01*
X-65547Y84489D01*
X-37170Y112866D01*
X-22083Y97779D01*
G37*
G36*
X-56747Y132443D02*
X-85124Y104066D01*
X-100211Y119153D01*
X-71834Y147530D01*
X-56747Y132443D01*
G37*
X-141441Y270707D03*
X-141441Y319729D03*
G36*
X-74035Y442334D02*
X-102412Y470711D01*
X-87325Y485798D01*
X-58948Y457421D01*
X-74035Y442334D01*
G37*
G36*
X-39371Y476998D02*
X-67748Y505375D01*
X-52661Y520462D01*
X-24284Y492085D01*
X-39371Y476998D01*
G37*
D15*
X175558Y556474D03*
X175558Y537474D03*
D16*
G36*
X287829Y478886D02*
X298458Y489515D01*
X311207Y476766D01*
X300578Y466137D01*
X287829Y478886D01*
G37*
G36*
X274394Y465451D02*
X285023Y476080D01*
X297772Y463331D01*
X287143Y452702D01*
X274394Y465451D01*
G37*
X376784Y295656D03*
X357784Y295656D03*
G36*
X303000Y126309D02*
X313629Y115680D01*
X300880Y102931D01*
X290251Y113560D01*
X303000Y126309D01*
G37*
G36*
X289565Y139744D02*
X300194Y129115D01*
X287445Y116366D01*
X276816Y126995D01*
X289565Y139744D01*
G37*
D15*
X122174Y38252D03*
X122174Y57252D03*
D16*
G36*
X-45959Y110438D02*
X-56588Y99809D01*
X-69337Y112558D01*
X-58708Y123187D01*
X-45959Y110438D01*
G37*
G36*
X-32524Y123873D02*
X-43153Y113244D01*
X-55902Y125993D01*
X-45273Y136622D01*
X-32524Y123873D01*
G37*
X-134722Y294640D03*
X-115722Y294640D03*
G36*
X-60858Y464372D02*
X-71487Y475001D01*
X-58738Y487750D01*
X-48109Y477121D01*
X-60858Y464372D01*
G37*
G36*
X-47423Y450937D02*
X-58052Y461566D01*
X-45303Y474315D01*
X-34674Y463686D01*
X-47423Y450937D01*
G37*
D17*
X966Y473201D02*
X14046Y473201D01*
X14046Y447801D02*
X966Y447801D01*
X966Y422401D02*
X14046Y422401D01*
X14046Y397001D02*
X966Y397001D01*
X966Y371601D02*
X14046Y371601D01*
X14046Y346201D02*
X966Y346201D01*
X966Y320801D02*
X14046Y320801D01*
X14046Y295401D02*
X966Y295401D01*
X966Y270001D02*
X14046Y270001D01*
X14046Y244601D02*
X966Y244601D01*
X966Y219201D02*
X14046Y219201D01*
X14046Y193801D02*
X966Y193801D01*
X966Y168401D02*
X14046Y168401D01*
X14046Y143001D02*
X966Y143001D01*
X966Y117601D02*
X14046Y117601D01*
X229566Y473201D02*
X242646Y473201D01*
X242646Y447801D02*
X229566Y447801D01*
X229566Y422401D02*
X242646Y422401D01*
X242646Y397001D02*
X229566Y397001D01*
X229566Y371601D02*
X242646Y371601D01*
X242646Y346201D02*
X229566Y346201D01*
X229566Y320801D02*
X242646Y320801D01*
X242646Y295401D02*
X229566Y295401D01*
X229566Y270001D02*
X242646Y270001D01*
X242646Y244601D02*
X229566Y244601D01*
X229566Y219201D02*
X242646Y219201D01*
X242646Y193801D02*
X229566Y193801D01*
X229566Y168401D02*
X242646Y168401D01*
X242646Y143001D02*
X229566Y143001D01*
X229566Y117601D02*
X242646Y117601D01*
D18*
X36740Y118157D03*
X36740Y288337D03*
X206920Y118157D03*
X206920Y288337D03*
D19*
X329643Y359146D03*
X311386Y350980D03*
D20*
X97291Y444119D03*
X114291Y444119D03*
X113801Y148590D03*
X130801Y148590D03*
D21*
X370247Y371368D02*
X385321Y378079D01*
X374989Y401283D02*
X359916Y394572D01*
X349585Y417776D02*
X364658Y424487D01*
D22*
X388115Y351519D03*
X346790Y444335D03*
D19*
X362429Y167729D03*
X376571Y181871D03*
D23*
X159000Y144000D03*
X125500Y181000D03*
X206500Y142000D03*
X245700Y79300D03*
X255500Y92000D03*
X59500Y152500D03*
X214500Y311000D03*
X269500Y430500D03*
X178900Y296300D03*
X-95500Y182500D03*
X-18000Y200000D03*
X-101500Y294600D03*
X-99800Y238900D03*
X-58100Y345900D03*
X-20200Y417100D03*
X-17000Y461000D03*
X323300Y307900D03*
X326000Y243400D03*
X276200Y243100D03*
X383300Y235400D03*
X178000Y424000D03*
X169000Y448000D03*
X54500Y512000D03*
X267800Y472400D03*
X246200Y536100D03*
X2500Y522500D03*
X287000Y360600D03*
X220200Y498800D03*
X178700Y318500D03*
X-65000Y428000D03*
X122000Y267500D03*
X-28900Y162100D03*
X70000Y562000D03*
X-128100Y401100D03*
X334800Y143200D03*
X393400Y207800D03*
X211500Y422500D03*
X308200Y432100D03*
X169000Y470500D03*
X268200Y183000D03*
X58500Y381000D03*
X360600Y241400D03*
X91000Y132000D03*
X-135500Y207000D03*
X68000Y453000D03*
X184500Y398000D03*
X33500Y321000D03*
X267000Y296500D03*
X276000Y336500D03*
X179000Y169500D03*
X126000Y101000D03*
X59500Y78000D03*
X24500Y78000D03*
X-18500Y74500D03*
X355000Y341500D03*
X49200Y345700D03*
X173900Y22200D03*
X137600Y60800D03*
X202200Y370800D03*
X365000Y219000D03*
X64000Y290000D03*
X-90000Y197500D03*
X69000Y466500D03*
X107500Y346500D03*
X22500Y94300D03*
X7500Y493500D03*
X44500Y462000D03*
X196500Y448000D03*
X196500Y416500D03*
X-21500Y238000D03*
X187500Y473000D03*
X-28500Y333500D03*
X202500Y463000D03*
X188500Y224500D03*
X186500Y201500D03*
X-110100Y320100D03*
X166500Y84000D03*
X119600Y518000D03*
X182600Y346700D03*
X120500Y346500D03*
X157500Y346500D03*
X314467Y378467D03*
X339200Y340184D03*
X286500Y409500D03*
X187500Y373500D03*
X286800Y393500D03*
M02*
