G04 EAGLE Gerber RS-274X export*
G75*
%MOMM*%
%FSLAX34Y34*%
%LPD*%
%INTop Copper*%
%IPPOS*%
%AMOC8*
5,1,8,0,0,1.08239X$1,22.5*%
G01*
%ADD10R,2.540000X1.270000*%
%ADD11R,1.270000X2.540000*%
%ADD12C,0.304800*%

G36*
X180145Y10160D02*
X180145Y10160D01*
X180144Y10160D01*
X180145Y10160D01*
X180145Y159260D01*
X180140Y159265D01*
X180140Y159264D01*
X180140Y159265D01*
X31022Y159265D01*
X31021Y159264D01*
X31019Y159264D01*
X31019Y159262D01*
X31018Y159260D01*
X31019Y159259D01*
X31019Y159256D01*
X31745Y158530D01*
X31745Y153924D01*
X31750Y153919D01*
X31750Y153920D01*
X31750Y153919D01*
X80421Y153919D01*
X128934Y105407D01*
X128936Y105407D01*
X128937Y105406D01*
X128937Y105405D01*
X145830Y105405D01*
X147315Y103920D01*
X147315Y89120D01*
X145829Y87634D01*
X145828Y87627D01*
X145829Y87627D01*
X145829Y87626D01*
X147315Y86140D01*
X147315Y71340D01*
X145830Y69855D01*
X136144Y69855D01*
X136139Y69850D01*
X136139Y18639D01*
X128681Y11181D01*
X56739Y11181D01*
X46741Y21179D01*
X46741Y61817D01*
X46739Y61818D01*
X46739Y61820D01*
X31086Y77473D01*
X31084Y77474D01*
X31083Y77475D01*
X10160Y77475D01*
X10155Y77470D01*
X10156Y77470D01*
X10155Y77470D01*
X10155Y69850D01*
X10160Y69845D01*
X10160Y69846D01*
X10160Y69845D01*
X36610Y69845D01*
X38095Y68360D01*
X38095Y53560D01*
X36610Y52075D01*
X26924Y52075D01*
X26919Y52070D01*
X26920Y52070D01*
X26919Y52070D01*
X26919Y40640D01*
X26924Y40635D01*
X26924Y40636D01*
X26924Y40635D01*
X30260Y40635D01*
X31745Y39150D01*
X31745Y11650D01*
X30259Y10164D01*
X30259Y10162D01*
X30258Y10161D01*
X30259Y10159D01*
X30259Y10157D01*
X30261Y10157D01*
X30262Y10155D01*
X180140Y10155D01*
X180145Y10160D01*
G37*
G36*
X125318Y19301D02*
X125318Y19301D01*
X125320Y19301D01*
X128019Y22000D01*
X128020Y22002D01*
X128021Y22003D01*
X128021Y69850D01*
X128016Y69855D01*
X128016Y69854D01*
X128016Y69855D01*
X118330Y69855D01*
X116845Y71340D01*
X116845Y86140D01*
X118331Y87626D01*
X118332Y87633D01*
X118331Y87633D01*
X118331Y87634D01*
X116845Y89120D01*
X116845Y92456D01*
X116840Y92461D01*
X116840Y92460D01*
X116840Y92461D01*
X113443Y92461D01*
X113442Y92459D01*
X113440Y92459D01*
X97787Y76806D01*
X97786Y76804D01*
X97785Y76803D01*
X97785Y64990D01*
X96300Y63505D01*
X81500Y63505D01*
X80015Y64990D01*
X80015Y92490D01*
X81500Y93975D01*
X96300Y93975D01*
X97785Y92490D01*
X97785Y88298D01*
X97786Y88296D01*
X97786Y88295D01*
X97788Y88295D01*
X97790Y88293D01*
X97791Y88294D01*
X97792Y88294D01*
X97794Y88294D01*
X110079Y100579D01*
X116840Y100579D01*
X116845Y100584D01*
X116844Y100584D01*
X116845Y100584D01*
X116845Y103920D01*
X117889Y104964D01*
X117889Y104970D01*
X117889Y104971D01*
X77060Y145799D01*
X77058Y145800D01*
X77057Y145801D01*
X31750Y145801D01*
X31745Y145796D01*
X31746Y145796D01*
X31745Y145796D01*
X31745Y131030D01*
X30260Y129545D01*
X15460Y129545D01*
X13975Y131030D01*
X13975Y158530D01*
X14701Y159256D01*
X14701Y159258D01*
X14702Y159259D01*
X14701Y159261D01*
X14701Y159263D01*
X14699Y159263D01*
X14698Y159265D01*
X10160Y159265D01*
X10155Y159260D01*
X10156Y159260D01*
X10155Y159260D01*
X10155Y120650D01*
X10160Y120645D01*
X10160Y120646D01*
X10160Y120645D01*
X36610Y120645D01*
X38095Y119160D01*
X38095Y115824D01*
X38100Y115819D01*
X38100Y115820D01*
X38100Y115819D01*
X47401Y115819D01*
X69244Y93977D01*
X69246Y93976D01*
X69247Y93975D01*
X75980Y93975D01*
X77465Y92490D01*
X77465Y64990D01*
X75980Y63505D01*
X61180Y63505D01*
X59695Y64990D01*
X59695Y92043D01*
X59693Y92044D01*
X59693Y92046D01*
X44040Y107699D01*
X44038Y107700D01*
X44037Y107701D01*
X38100Y107701D01*
X38095Y107696D01*
X38096Y107696D01*
X38095Y107696D01*
X38095Y104360D01*
X36610Y102875D01*
X10160Y102875D01*
X10155Y102870D01*
X10156Y102870D01*
X10155Y102870D01*
X10155Y95250D01*
X10160Y95245D01*
X10160Y95246D01*
X10160Y95245D01*
X36610Y95245D01*
X38095Y93760D01*
X38095Y81947D01*
X38097Y81946D01*
X38097Y81944D01*
X54859Y65181D01*
X54859Y24543D01*
X54861Y24542D01*
X54861Y24540D01*
X60100Y19301D01*
X60102Y19300D01*
X60103Y19299D01*
X125317Y19299D01*
X125318Y19301D01*
G37*
G36*
X15459Y10156D02*
X15459Y10156D01*
X15461Y10156D01*
X15461Y10158D01*
X15462Y10160D01*
X15461Y10161D01*
X15461Y10164D01*
X13975Y11650D01*
X13975Y39150D01*
X15460Y40635D01*
X18796Y40635D01*
X18801Y40640D01*
X18800Y40640D01*
X18801Y40640D01*
X18801Y52070D01*
X18796Y52075D01*
X18796Y52074D01*
X18796Y52075D01*
X10160Y52075D01*
X10155Y52070D01*
X10156Y52070D01*
X10155Y52070D01*
X10155Y10160D01*
X10160Y10155D01*
X10160Y10156D01*
X10160Y10155D01*
X15458Y10155D01*
X15459Y10156D01*
G37*
D10*
X22860Y111760D03*
X22860Y86360D03*
X22860Y60960D03*
D11*
X68580Y78740D03*
D10*
X132080Y96520D03*
X132080Y78740D03*
D11*
X88900Y78740D03*
X22860Y144780D03*
X22860Y25400D03*
D12*
X132080Y20320D02*
X132080Y78740D01*
X132080Y20320D02*
X127000Y15240D01*
X58420Y15240D01*
X50800Y22860D01*
X50800Y63500D02*
X33020Y81280D01*
X50800Y63500D02*
X50800Y22860D01*
X45720Y111760D02*
X22860Y111760D01*
X45720Y111760D02*
X68580Y88900D01*
X78740Y149860D02*
X132080Y96520D01*
X78740Y149860D02*
X27940Y149860D01*
X111760Y96520D02*
X132080Y96520D01*
X111760Y96520D02*
X93980Y78740D01*
X22860Y60960D02*
X22860Y30480D01*
M02*
