<svg version="1.1" xmlns="http://www.w3.org/2000/svg" xmlns:xlink="http://www.w3.org/1999/xlink" stroke-linecap="round" stroke-linejoin="round" stroke-width="0" fill-rule="evenodd" width="52.765mm" height="51.508mm" viewBox="-13404 3926 52765 51508" id="qQ9cqFDs7U29iBkmMu5f"><defs><circle cx="0" cy="0" r="550" id="qQ9cqFDs7U29iBkmMu5f_pad-2"/><circle cx="0" cy="0" r="508" id="qQ9cqFDs7U29iBkmMu5f_pad-3"/><circle cx="0" cy="0" r="400" id="qQ9cqFDs7U29iBkmMu5f_pad-4"/><circle cx="0" cy="0" r="350" id="qQ9cqFDs7U29iBkmMu5f_pad-5"/><circle cx="0" cy="0" r="254" id="qQ9cqFDs7U29iBkmMu5f_pad-6"/></defs><g transform="translate(0,59360) scale(1,-1)" fill="currentColor" stroke="currentColor"><use xlink:href="#qQ9cqFDs7U29iBkmMu5f_pad-2" x="34679" y="44434"/><use xlink:href="#qQ9cqFDs7U29iBkmMu5f_pad-2" x="38811" y="35152"/><use xlink:href="#qQ9cqFDs7U29iBkmMu5f_pad-2" x="35712" y="42113"/><use xlink:href="#qQ9cqFDs7U29iBkmMu5f_pad-2" x="36745" y="39793"/><use xlink:href="#qQ9cqFDs7U29iBkmMu5f_pad-2" x="37778" y="37472"/><use xlink:href="#qQ9cqFDs7U29iBkmMu5f_pad-3" x="-5837" y="32269"/><use xlink:href="#qQ9cqFDs7U29iBkmMu5f_pad-3" x="30450" y="22190"/><use xlink:href="#qQ9cqFDs7U29iBkmMu5f_pad-3" x="30450" y="19650"/><use xlink:href="#qQ9cqFDs7U29iBkmMu5f_pad-3" x="30450" y="17110"/><use xlink:href="#qQ9cqFDs7U29iBkmMu5f_pad-3" x="-5829" y="22275"/><use xlink:href="#qQ9cqFDs7U29iBkmMu5f_pad-3" x="-5829" y="19735"/><use xlink:href="#qQ9cqFDs7U29iBkmMu5f_pad-3" x="-5829" y="17195"/><use xlink:href="#qQ9cqFDs7U29iBkmMu5f_pad-3" x="16007" y="21313"/><use xlink:href="#qQ9cqFDs7U29iBkmMu5f_pad-3" x="13467" y="21313"/><use xlink:href="#qQ9cqFDs7U29iBkmMu5f_pad-3" x="10927" y="21313"/><use xlink:href="#qQ9cqFDs7U29iBkmMu5f_pad-3" x="8387" y="21313"/><use xlink:href="#qQ9cqFDs7U29iBkmMu5f_pad-3" x="30404" y="29497"/><use xlink:href="#qQ9cqFDs7U29iBkmMu5f_pad-3" x="30404" y="26957"/><use xlink:href="#qQ9cqFDs7U29iBkmMu5f_pad-3" x="8379" y="13495"/><use xlink:href="#qQ9cqFDs7U29iBkmMu5f_pad-3" x="8379" y="44706"/><use xlink:href="#qQ9cqFDs7U29iBkmMu5f_pad-3" x="16254" y="13495"/><use xlink:href="#qQ9cqFDs7U29iBkmMu5f_pad-3" x="16254" y="44706"/><use xlink:href="#qQ9cqFDs7U29iBkmMu5f_pad-3" x="-5837" y="27189"/><use xlink:href="#qQ9cqFDs7U29iBkmMu5f_pad-3" x="-5837" y="29729"/><use xlink:href="#qQ9cqFDs7U29iBkmMu5f_pad-3" x="30404" y="32037"/><use xlink:href="#qQ9cqFDs7U29iBkmMu5f_pad-4" x="751" y="29540"/><use xlink:href="#qQ9cqFDs7U29iBkmMu5f_pad-4" x="751" y="32080"/><use xlink:href="#qQ9cqFDs7U29iBkmMu5f_pad-4" x="751" y="34620"/><use xlink:href="#qQ9cqFDs7U29iBkmMu5f_pad-4" x="751" y="37160"/><use xlink:href="#qQ9cqFDs7U29iBkmMu5f_pad-4" x="751" y="39700"/><use xlink:href="#qQ9cqFDs7U29iBkmMu5f_pad-4" x="751" y="42240"/><use xlink:href="#qQ9cqFDs7U29iBkmMu5f_pad-4" x="751" y="44780"/><use xlink:href="#qQ9cqFDs7U29iBkmMu5f_pad-4" x="751" y="47320"/><use xlink:href="#qQ9cqFDs7U29iBkmMu5f_pad-4" x="751" y="14300"/><use xlink:href="#qQ9cqFDs7U29iBkmMu5f_pad-4" x="751" y="24460"/><use xlink:href="#qQ9cqFDs7U29iBkmMu5f_pad-4" x="23611" y="11760"/><use xlink:href="#qQ9cqFDs7U29iBkmMu5f_pad-4" x="23611" y="14300"/><use xlink:href="#qQ9cqFDs7U29iBkmMu5f_pad-4" x="23611" y="16840"/><use xlink:href="#qQ9cqFDs7U29iBkmMu5f_pad-4" x="23611" y="19380"/><use xlink:href="#qQ9cqFDs7U29iBkmMu5f_pad-4" x="23611" y="21920"/><use xlink:href="#qQ9cqFDs7U29iBkmMu5f_pad-4" x="23611" y="24460"/><use xlink:href="#qQ9cqFDs7U29iBkmMu5f_pad-4" x="23611" y="27000"/><use xlink:href="#qQ9cqFDs7U29iBkmMu5f_pad-4" x="23611" y="29540"/><use xlink:href="#qQ9cqFDs7U29iBkmMu5f_pad-4" x="23611" y="32080"/><use xlink:href="#qQ9cqFDs7U29iBkmMu5f_pad-4" x="23611" y="34620"/><use xlink:href="#qQ9cqFDs7U29iBkmMu5f_pad-4" x="23611" y="37160"/><use xlink:href="#qQ9cqFDs7U29iBkmMu5f_pad-4" x="23611" y="39700"/><use xlink:href="#qQ9cqFDs7U29iBkmMu5f_pad-4" x="23611" y="42240"/><use xlink:href="#qQ9cqFDs7U29iBkmMu5f_pad-4" x="23611" y="44780"/><use xlink:href="#qQ9cqFDs7U29iBkmMu5f_pad-4" x="23611" y="47320"/><use xlink:href="#qQ9cqFDs7U29iBkmMu5f_pad-4" x="751" y="11760"/><use xlink:href="#qQ9cqFDs7U29iBkmMu5f_pad-4" x="751" y="16840"/><use xlink:href="#qQ9cqFDs7U29iBkmMu5f_pad-4" x="751" y="19380"/><use xlink:href="#qQ9cqFDs7U29iBkmMu5f_pad-4" x="751" y="21920"/><use xlink:href="#qQ9cqFDs7U29iBkmMu5f_pad-4" x="751" y="27000"/><use xlink:href="#qQ9cqFDs7U29iBkmMu5f_pad-5" x="34910" y="17660"/><use xlink:href="#qQ9cqFDs7U29iBkmMu5f_pad-5" x="31033" y="35768"/><use xlink:href="#qQ9cqFDs7U29iBkmMu5f_pad-5" x="32850" y="36604"/><use xlink:href="#qQ9cqFDs7U29iBkmMu5f_pad-5" x="36910" y="17660"/><use xlink:href="#qQ9cqFDs7U29iBkmMu5f_pad-6" x="-280" y="4180"/><use xlink:href="#qQ9cqFDs7U29iBkmMu5f_pad-6" x="25900" y="46050"/><use xlink:href="#qQ9cqFDs7U29iBkmMu5f_pad-6" x="29720" y="40180"/><use xlink:href="#qQ9cqFDs7U29iBkmMu5f_pad-6" x="24190" y="51320"/><use xlink:href="#qQ9cqFDs7U29iBkmMu5f_pad-6" x="2010" y="52620"/><use xlink:href="#qQ9cqFDs7U29iBkmMu5f_pad-6" x="15590" y="30620"/><use xlink:href="#qQ9cqFDs7U29iBkmMu5f_pad-6" x="-10280" y="43670"/><use xlink:href="#qQ9cqFDs7U29iBkmMu5f_pad-6" x="-10010" y="33960"/><use xlink:href="#qQ9cqFDs7U29iBkmMu5f_pad-6" x="-11370" y="16130"/><use xlink:href="#qQ9cqFDs7U29iBkmMu5f_pad-6" x="-13150" y="21600"/><use xlink:href="#qQ9cqFDs7U29iBkmMu5f_pad-6" x="-2230" y="24600"/><use xlink:href="#qQ9cqFDs7U29iBkmMu5f_pad-6" x="6520" y="30780"/><use xlink:href="#qQ9cqFDs7U29iBkmMu5f_pad-6" x="6460" y="16790"/><use xlink:href="#qQ9cqFDs7U29iBkmMu5f_pad-6" x="-1740" y="16150"/><use xlink:href="#qQ9cqFDs7U29iBkmMu5f_pad-6" x="830" y="9570"/><use xlink:href="#qQ9cqFDs7U29iBkmMu5f_pad-6" x="21180" y="30940"/><use xlink:href="#qQ9cqFDs7U29iBkmMu5f_pad-6" x="21570" y="6190"/><use xlink:href="#qQ9cqFDs7U29iBkmMu5f_pad-6" x="26000" y="6230"/><use xlink:href="#qQ9cqFDs7U29iBkmMu5f_pad-6" x="35200" y="34870"/><use xlink:href="#qQ9cqFDs7U29iBkmMu5f_pad-6" x="32710" y="33100"/><use xlink:href="#qQ9cqFDs7U29iBkmMu5f_pad-6" x="27700" y="28080"/><use xlink:href="#qQ9cqFDs7U29iBkmMu5f_pad-6" x="34890" y="22910"/><use xlink:href="#qQ9cqFDs7U29iBkmMu5f_pad-6" x="37970" y="20100"/><use xlink:href="#qQ9cqFDs7U29iBkmMu5f_pad-6" x="26080" y="20100"/><use xlink:href="#qQ9cqFDs7U29iBkmMu5f_pad-6" x="18690" y="28680"/><use xlink:href="#qQ9cqFDs7U29iBkmMu5f_pad-6" x="12170" y="25320"/><use xlink:href="#qQ9cqFDs7U29iBkmMu5f_pad-6" x="17780" y="19120"/><use xlink:href="#qQ9cqFDs7U29iBkmMu5f_pad-6" x="10380" y="17270"/><use xlink:href="#qQ9cqFDs7U29iBkmMu5f_pad-6" x="12760" y="13870"/><use xlink:href="#qQ9cqFDs7U29iBkmMu5f_pad-6" x="20780" y="13830"/><use xlink:href="#qQ9cqFDs7U29iBkmMu5f_pad-6" x="3420" y="26170"/><use xlink:href="#qQ9cqFDs7U29iBkmMu5f_pad-6" x="21240" y="35880"/><use xlink:href="#qQ9cqFDs7U29iBkmMu5f_pad-6" x="29610" y="38180"/><use xlink:href="#qQ9cqFDs7U29iBkmMu5f_pad-6" x="5560" y="50460"/><use xlink:href="#qQ9cqFDs7U29iBkmMu5f_pad-6" x="20430" y="44180"/><use xlink:href="#qQ9cqFDs7U29iBkmMu5f_pad-6" x="19210" y="44180"/><use xlink:href="#qQ9cqFDs7U29iBkmMu5f_pad-6" x="17060" y="7910"/><use xlink:href="#qQ9cqFDs7U29iBkmMu5f_pad-6" x="10860" y="36450"/><use xlink:href="#qQ9cqFDs7U29iBkmMu5f_pad-6" x="-12660" y="34660"/><use xlink:href="#qQ9cqFDs7U29iBkmMu5f_pad-6" x="-1970" y="45270"/><use xlink:href="#qQ9cqFDs7U29iBkmMu5f_pad-6" x="-7407" y="43047"/><use xlink:href="#qQ9cqFDs7U29iBkmMu5f_pad-6" x="17230" y="47000"/><use xlink:href="#qQ9cqFDs7U29iBkmMu5f_pad-6" x="4420" y="45120"/><use xlink:href="#qQ9cqFDs7U29iBkmMu5f_pad-6" x="12860" y="42610"/><use xlink:href="#qQ9cqFDs7U29iBkmMu5f_pad-6" x="38040" y="22110"/><use xlink:href="#qQ9cqFDs7U29iBkmMu5f_pad-6" x="26890" y="36010"/><use xlink:href="#qQ9cqFDs7U29iBkmMu5f_pad-6" x="24500" y="54560"/><use xlink:href="#qQ9cqFDs7U29iBkmMu5f_pad-6" x="11360" y="41650"/><use xlink:href="#qQ9cqFDs7U29iBkmMu5f_pad-6" x="5850" y="41550"/><use xlink:href="#qQ9cqFDs7U29iBkmMu5f_pad-6" x="11960" y="45930"/><use xlink:href="#qQ9cqFDs7U29iBkmMu5f_pad-6" x="7440" y="38640"/><use xlink:href="#qQ9cqFDs7U29iBkmMu5f_pad-6" x="-5270" y="14070"/><use xlink:href="#qQ9cqFDs7U29iBkmMu5f_pad-6" x="17050" y="55180"/><use xlink:href="#qQ9cqFDs7U29iBkmMu5f_pad-6" x="-3040" y="33470"/><use xlink:href="#qQ9cqFDs7U29iBkmMu5f_pad-6" x="16560" y="42710"/><use xlink:href="#qQ9cqFDs7U29iBkmMu5f_pad-6" x="16950" y="51530"/><use xlink:href="#qQ9cqFDs7U29iBkmMu5f_pad-6" x="26360" y="16860"/><use xlink:href="#qQ9cqFDs7U29iBkmMu5f_pad-6" x="6300" y="12000"/><use xlink:href="#qQ9cqFDs7U29iBkmMu5f_pad-6" x="4570" y="35740"/></g></svg>