<svg version="1.1" xmlns="http://www.w3.org/2000/svg" xmlns:xlink="http://www.w3.org/1999/xlink" stroke-linecap="round" stroke-linejoin="round" stroke-width="0" fill-rule="evenodd" width="56.445699999999995mm" height="56.2419mm" viewBox="-16150.7 1438.3 56445.7 56241.9" id="FCRiazAJ0X2QOS3oHRiv"><defs><rect x="-1066.8" y="-2006.6" width="2133.6" height="4013.2" id="FCRiazAJ0X2QOS3oHRiv_pad-11"/><rect x="-2006.6" y="-1066.8" width="4013.2" height="2133.6" id="FCRiazAJ0X2QOS3oHRiv_pad-12"/><circle cx="0" cy="0" r="901.6" id="FCRiazAJ0X2QOS3oHRiv_pad-15"/><rect x="-751.6" y="-851.6" width="1503.2" height="1703.2" id="FCRiazAJ0X2QOS3oHRiv_pad-16"/><rect x="-851.6" y="-751.6" width="1703.2" height="1503.2" id="FCRiazAJ0X2QOS3oHRiv_pad-17"/><rect x="-751.6" y="-451.6" width="1503.2" height="903.2" id="FCRiazAJ0X2QOS3oHRiv_pad-18"/><rect x="-601.6" y="-651.6" width="1203.2" height="1303.2" id="FCRiazAJ0X2QOS3oHRiv_pad-19"/><rect x="-651.6" y="-601.6" width="1303.2" height="1203.2" id="FCRiazAJ0X2QOS3oHRiv_pad-20"/><circle cx="0" cy="0" r="939.8" id="FCRiazAJ0X2QOS3oHRiv_pad-22"/><rect x="-601.6" y="-801.6" width="1203.2" height="1603.2" id="FCRiazAJ0X2QOS3oHRiv_pad-23"/><circle cx="0" cy="0" r="558.8" id="FCRiazAJ0X2QOS3oHRiv_pad-24"/></defs><g transform="translate(0,59118.5) scale(1,-1)" fill="currentColor" stroke="currentColor"><path d="M -6598.9 32268.6 -5074.9 32268.6 M -5074.9 29728.6 -6598.9 29728.6 M -6598.9 27188.6 -5074.9 27188.6 M 29641.8 26956.6 31165.8 26956.6 M 31165.8 29496.6 29641.8 29496.6 M 29641.8 32036.6 31165.8 32036.6 M 8386.9 22075.4 8386.9 20551.4 M 10926.9 20551.4 10926.9 22075.4 M 13466.9 22075.4 13466.9 20551.4 M 16006.9 20551.4 16006.9 22075.4 M -5067.3 17195.3 -6591.3 17195.3 M -6591.3 19735.3 -5067.3 19735.3 M -5067.3 22275.3 -6591.3 22275.3 M 29688 17110 31212 17110 M 31212 19650 29688 19650 M 29688 22190 31212 22190" fill="none" stroke-width="1727.2"/><use xlink:href="#FCRiazAJ0X2QOS3oHRiv_pad-11" x="9676.5" y="55673.6"/><use xlink:href="#FCRiazAJ0X2QOS3oHRiv_pad-11" x="14578.7" y="55673.6"/><path d="M 26517.7 49305.9 29355.4 52143.6 30864.1 50634.9 28026.4 47797.2 26517.7 49305.9"/><path d="M 29984.1 45839.6 32821.8 48677.3 34330.5 47168.6 31492.8 44330.9 29984.1 45839.6"/><use xlink:href="#FCRiazAJ0X2QOS3oHRiv_pad-12" x="38288.4" y="31846"/><use xlink:href="#FCRiazAJ0X2QOS3oHRiv_pad-12" x="38288.4" y="26943.8"/><path d="M 31612.5 14899.8 34450.2 12062.1 32941.5 10553.4 30103.8 13391.1 31612.5 14899.8"/><path d="M 28146.2 11433.4 30983.9 8595.7 29475.2 7087 26637.5 9924.7 28146.2 11433.4"/><use xlink:href="#FCRiazAJ0X2QOS3oHRiv_pad-11" x="14521.8" y="3444.9"/><use xlink:href="#FCRiazAJ0X2QOS3oHRiv_pad-11" x="9619.6" y="3444.9"/><path d="M -2208.3 9777.9 -5046 6940.2 -6554.7 8448.9 -3717 11286.6 -2208.3 9777.9"/><path d="M -5674.7 13244.3 -8512.4 10406.6 -10021.1 11915.3 -7183.4 14753 -5674.7 13244.3"/><use xlink:href="#FCRiazAJ0X2QOS3oHRiv_pad-12" x="-14144.1" y="27070.7"/><use xlink:href="#FCRiazAJ0X2QOS3oHRiv_pad-12" x="-14144.1" y="31972.9"/><path d="M -7403.5 44233.4 -10241.2 47071.1 -8732.5 48579.8 -5894.8 45742.1 -7403.5 44233.4"/><path d="M -3937.1 47699.8 -6774.8 50537.5 -5266.1 52046.2 -2428.4 49208.5 -3937.1 47699.8"/><path d="M 96.6 47320.1 1404.6 47320.1 M 1404.6 44780.1 96.6 44780.1 M 96.6 42240.1 1404.6 42240.1 M 1404.6 39700.1 96.6 39700.1 M 96.6 37160.1 1404.6 37160.1 M 1404.6 34620.1 96.6 34620.1 M 96.6 32080.1 1404.6 32080.1 M 1404.6 29540.1 96.6 29540.1 M 96.6 27000.1 1404.6 27000.1 M 1404.6 24460.1 96.6 24460.1 M 96.6 21920.1 1404.6 21920.1 M 1404.6 19380.1 96.6 19380.1 M 96.6 16840.1 1404.6 16840.1 M 1404.6 14300.1 96.6 14300.1 M 96.6 11760.1 1404.6 11760.1 M 22956.6 47320.1 24264.6 47320.1 M 24264.6 44780.1 22956.6 44780.1 M 22956.6 42240.1 24264.6 42240.1 M 24264.6 39700.1 22956.6 39700.1 M 22956.6 37160.1 24264.6 37160.1 M 24264.6 34620.1 22956.6 34620.1 M 22956.6 32080.1 24264.6 32080.1 M 24264.6 29540.1 22956.6 29540.1 M 22956.6 27000.1 24264.6 27000.1 M 24264.6 24460.1 22956.6 24460.1 M 22956.6 21920.1 24264.6 21920.1 M 24264.6 19380.1 22956.6 19380.1 M 22956.6 16840.1 24264.6 16840.1 M 24264.6 14300.1 22956.6 14300.1 M 22956.6 11760.1 24264.6 11760.1" fill="none" stroke-width="1511.2"/><path d="M 9268.3 13495.3 7490.3 13495.3 M 7490.3 44706.3 9268.3 44706.3 M 15364.5 13495.3 17142.5 13495.3 M 17142.5 44706.3 15364.5 44706.3" fill="none" stroke-width="1981.2"/><use xlink:href="#FCRiazAJ0X2QOS3oHRiv_pad-15" x="31032.9" y="35768.4"/><use xlink:href="#FCRiazAJ0X2QOS3oHRiv_pad-15" x="32849.9" y="36604.2"/><use xlink:href="#FCRiazAJ0X2QOS3oHRiv_pad-16" x="-3474.4" y="40754.3"/><use xlink:href="#FCRiazAJ0X2QOS3oHRiv_pad-16" x="-5374.4" y="40754.3"/><use xlink:href="#FCRiazAJ0X2QOS3oHRiv_pad-17" x="-8042" y="36106"/><use xlink:href="#FCRiazAJ0X2QOS3oHRiv_pad-17" x="-8042" y="38006"/><use xlink:href="#FCRiazAJ0X2QOS3oHRiv_pad-17" x="-11027" y="38077"/><use xlink:href="#FCRiazAJ0X2QOS3oHRiv_pad-17" x="-11027" y="36177"/><use xlink:href="#FCRiazAJ0X2QOS3oHRiv_pad-17" x="-14038" y="38067"/><use xlink:href="#FCRiazAJ0X2QOS3oHRiv_pad-17" x="-14038" y="36167"/><use xlink:href="#FCRiazAJ0X2QOS3oHRiv_pad-18" x="14390" y="39905"/><use xlink:href="#FCRiazAJ0X2QOS3oHRiv_pad-18" x="14390" y="41175"/><use xlink:href="#FCRiazAJ0X2QOS3oHRiv_pad-18" x="14390" y="38635"/><use xlink:href="#FCRiazAJ0X2QOS3oHRiv_pad-18" x="14390" y="37365"/><use xlink:href="#FCRiazAJ0X2QOS3oHRiv_pad-18" x="8890" y="39905"/><use xlink:href="#FCRiazAJ0X2QOS3oHRiv_pad-18" x="8890" y="41175"/><use xlink:href="#FCRiazAJ0X2QOS3oHRiv_pad-18" x="8890" y="38635"/><use xlink:href="#FCRiazAJ0X2QOS3oHRiv_pad-18" x="8890" y="37365"/><use xlink:href="#FCRiazAJ0X2QOS3oHRiv_pad-16" x="16991.4" y="38572.8"/><use xlink:href="#FCRiazAJ0X2QOS3oHRiv_pad-16" x="18891.4" y="38572.8"/><use xlink:href="#FCRiazAJ0X2QOS3oHRiv_pad-16" x="16970" y="41130"/><use xlink:href="#FCRiazAJ0X2QOS3oHRiv_pad-16" x="18870" y="41130"/><use xlink:href="#FCRiazAJ0X2QOS3oHRiv_pad-19" x="5047" y="39952"/><use xlink:href="#FCRiazAJ0X2QOS3oHRiv_pad-19" x="6747" y="39952"/><use xlink:href="#FCRiazAJ0X2QOS3oHRiv_pad-20" x="16891" y="36550"/><use xlink:href="#FCRiazAJ0X2QOS3oHRiv_pad-20" x="18591" y="36550"/><use xlink:href="#FCRiazAJ0X2QOS3oHRiv_pad-20" x="3360" y="33680"/><use xlink:href="#FCRiazAJ0X2QOS3oHRiv_pad-20" x="5060" y="33680"/><path d="M 37024.7 37136.8 38532.1 37807.9 M 37498.9 40128.3 35991.6 39457.2 M 34958.5 41777.6 36465.8 42448.7" fill="none" stroke-width="1853.2"/><use xlink:href="#FCRiazAJ0X2QOS3oHRiv_pad-22" x="38811.5" y="35151.9"/><use xlink:href="#FCRiazAJ0X2QOS3oHRiv_pad-22" x="34679" y="44433.5"/><use xlink:href="#FCRiazAJ0X2QOS3oHRiv_pad-23" x="-4670" y="36080"/><use xlink:href="#FCRiazAJ0X2QOS3oHRiv_pad-23" x="-5620" y="38280"/><use xlink:href="#FCRiazAJ0X2QOS3oHRiv_pad-23" x="-3720" y="38280"/><use xlink:href="#FCRiazAJ0X2QOS3oHRiv_pad-16" x="18900" y="34476"/><use xlink:href="#FCRiazAJ0X2QOS3oHRiv_pad-16" x="17000" y="34476"/><use xlink:href="#FCRiazAJ0X2QOS3oHRiv_pad-15" x="36910" y="17660"/><use xlink:href="#FCRiazAJ0X2QOS3oHRiv_pad-15" x="34910" y="17660"/><use xlink:href="#FCRiazAJ0X2QOS3oHRiv_pad-24" x="20780" y="13830"/><use xlink:href="#FCRiazAJ0X2QOS3oHRiv_pad-24" x="12760" y="13870"/><use xlink:href="#FCRiazAJ0X2QOS3oHRiv_pad-24" x="10380" y="17270"/><use xlink:href="#FCRiazAJ0X2QOS3oHRiv_pad-24" x="17780" y="19120"/><use xlink:href="#FCRiazAJ0X2QOS3oHRiv_pad-24" x="12170" y="25320"/><use xlink:href="#FCRiazAJ0X2QOS3oHRiv_pad-24" x="18690" y="28680"/><use xlink:href="#FCRiazAJ0X2QOS3oHRiv_pad-24" x="26080" y="20100"/><use xlink:href="#FCRiazAJ0X2QOS3oHRiv_pad-24" x="37970" y="20100"/><use xlink:href="#FCRiazAJ0X2QOS3oHRiv_pad-24" x="34890" y="22910"/><use xlink:href="#FCRiazAJ0X2QOS3oHRiv_pad-24" x="27700" y="28080"/><use xlink:href="#FCRiazAJ0X2QOS3oHRiv_pad-24" x="32710" y="33100"/><use xlink:href="#FCRiazAJ0X2QOS3oHRiv_pad-24" x="35200" y="34870"/><use xlink:href="#FCRiazAJ0X2QOS3oHRiv_pad-24" x="26000" y="6230"/><use xlink:href="#FCRiazAJ0X2QOS3oHRiv_pad-24" x="21570" y="6190"/><use xlink:href="#FCRiazAJ0X2QOS3oHRiv_pad-24" x="-280" y="4180"/><use xlink:href="#FCRiazAJ0X2QOS3oHRiv_pad-24" x="830" y="9570"/><use xlink:href="#FCRiazAJ0X2QOS3oHRiv_pad-24" x="-1740" y="16150"/><use xlink:href="#FCRiazAJ0X2QOS3oHRiv_pad-24" x="6460" y="16790"/><use xlink:href="#FCRiazAJ0X2QOS3oHRiv_pad-24" x="6520" y="30780"/><use xlink:href="#FCRiazAJ0X2QOS3oHRiv_pad-24" x="-2230" y="24600"/><use xlink:href="#FCRiazAJ0X2QOS3oHRiv_pad-24" x="-13150" y="21600"/><use xlink:href="#FCRiazAJ0X2QOS3oHRiv_pad-24" x="-11370" y="16130"/><use xlink:href="#FCRiazAJ0X2QOS3oHRiv_pad-24" x="-10010" y="33960"/><use xlink:href="#FCRiazAJ0X2QOS3oHRiv_pad-24" x="-10280" y="43670"/><use xlink:href="#FCRiazAJ0X2QOS3oHRiv_pad-24" x="15590" y="30620"/><use xlink:href="#FCRiazAJ0X2QOS3oHRiv_pad-24" x="2010" y="52620"/><use xlink:href="#FCRiazAJ0X2QOS3oHRiv_pad-24" x="24190" y="51320"/><use xlink:href="#FCRiazAJ0X2QOS3oHRiv_pad-24" x="29720" y="40180"/><use xlink:href="#FCRiazAJ0X2QOS3oHRiv_pad-24" x="25900" y="46050"/><use xlink:href="#FCRiazAJ0X2QOS3oHRiv_pad-24" x="21180" y="30940"/><use xlink:href="#FCRiazAJ0X2QOS3oHRiv_pad-24" x="4570" y="35740"/><use xlink:href="#FCRiazAJ0X2QOS3oHRiv_pad-24" x="6300" y="12000"/><use xlink:href="#FCRiazAJ0X2QOS3oHRiv_pad-24" x="26360" y="16860"/><use xlink:href="#FCRiazAJ0X2QOS3oHRiv_pad-24" x="16950" y="51530"/><use xlink:href="#FCRiazAJ0X2QOS3oHRiv_pad-24" x="16560" y="42710"/><use xlink:href="#FCRiazAJ0X2QOS3oHRiv_pad-24" x="-3040" y="33470"/><use xlink:href="#FCRiazAJ0X2QOS3oHRiv_pad-24" x="17050" y="55180"/><use xlink:href="#FCRiazAJ0X2QOS3oHRiv_pad-24" x="-5270" y="14070"/><use xlink:href="#FCRiazAJ0X2QOS3oHRiv_pad-24" x="7440" y="38640"/><use xlink:href="#FCRiazAJ0X2QOS3oHRiv_pad-24" x="11960" y="45930"/><use xlink:href="#FCRiazAJ0X2QOS3oHRiv_pad-24" x="5850" y="41550"/><use xlink:href="#FCRiazAJ0X2QOS3oHRiv_pad-24" x="11360" y="41650"/><use xlink:href="#FCRiazAJ0X2QOS3oHRiv_pad-24" x="24500" y="54560"/><use xlink:href="#FCRiazAJ0X2QOS3oHRiv_pad-24" x="3420" y="26170"/><use xlink:href="#FCRiazAJ0X2QOS3oHRiv_pad-24" x="38040" y="22110"/><use xlink:href="#FCRiazAJ0X2QOS3oHRiv_pad-24" x="12860" y="42610"/><use xlink:href="#FCRiazAJ0X2QOS3oHRiv_pad-24" x="4420" y="45120"/><use xlink:href="#FCRiazAJ0X2QOS3oHRiv_pad-24" x="17230" y="47000"/><use xlink:href="#FCRiazAJ0X2QOS3oHRiv_pad-24" x="-7407" y="43047"/><use xlink:href="#FCRiazAJ0X2QOS3oHRiv_pad-24" x="-1970" y="45270"/><use xlink:href="#FCRiazAJ0X2QOS3oHRiv_pad-24" x="-12660" y="34660"/><use xlink:href="#FCRiazAJ0X2QOS3oHRiv_pad-24" x="10860" y="36450"/><use xlink:href="#FCRiazAJ0X2QOS3oHRiv_pad-24" x="17060" y="7910"/><use xlink:href="#FCRiazAJ0X2QOS3oHRiv_pad-24" x="19210" y="44180"/><use xlink:href="#FCRiazAJ0X2QOS3oHRiv_pad-24" x="20430" y="44180"/><use xlink:href="#FCRiazAJ0X2QOS3oHRiv_pad-24" x="5560" y="50460"/><use xlink:href="#FCRiazAJ0X2QOS3oHRiv_pad-24" x="29610" y="38180"/><use xlink:href="#FCRiazAJ0X2QOS3oHRiv_pad-24" x="21240" y="35880"/><use xlink:href="#FCRiazAJ0X2QOS3oHRiv_pad-24" x="26890" y="36010"/></g></svg>