<svg version="1.1" xmlns="http://www.w3.org/2000/svg" xmlns:xlink="http://www.w3.org/1999/xlink" stroke-linecap="round" stroke-linejoin="round" stroke-width="0" fill-rule="evenodd" width="56.445699999999995mm" height="56.2419mm" viewBox="-16150.7 1438.3 56445.7 56241.9" id="w8be4KQbYUZCMDF17ktx"><defs><rect x="-431.8" y="-1117.6" width="863.6" height="2235.2" id="w8be4KQbYUZCMDF17ktx_pad-11"/><rect x="-851.6" y="-551.6" width="1703.2" height="1103.2" id="w8be4KQbYUZCMDF17ktx_pad-12"/><rect x="-1066.8" y="-2006.6" width="2133.6" height="4013.2" id="w8be4KQbYUZCMDF17ktx_pad-13"/><rect x="-2006.6" y="-1066.8" width="4013.2" height="2133.6" id="w8be4KQbYUZCMDF17ktx_pad-14"/><rect x="-901.6" y="-751.6" width="1803.2" height="1503.2" id="w8be4KQbYUZCMDF17ktx_pad-15"/><rect x="-751.6" y="-901.6" width="1503.2" height="1803.2" id="w8be4KQbYUZCMDF17ktx_pad-16"/><circle cx="0" cy="0" r="901.6" id="w8be4KQbYUZCMDF17ktx_pad-19"/><rect x="-601.6" y="-651.6" width="1203.2" height="1303.2" id="w8be4KQbYUZCMDF17ktx_pad-20"/><rect x="-701.6" y="-701.6" width="1403.2" height="1403.2" id="w8be4KQbYUZCMDF17ktx_pad-21"/><circle cx="0" cy="0" r="939.8" id="w8be4KQbYUZCMDF17ktx_pad-23"/><circle cx="0" cy="0" r="558.8" id="w8be4KQbYUZCMDF17ktx_pad-24"/></defs><g transform="translate(0,59118.5) scale(1,-1)" fill="currentColor" stroke="currentColor"><path d="M -6598.9 32268.6 -5074.9 32268.6 M -5074.9 29728.6 -6598.9 29728.6 M -6598.9 27188.6 -5074.9 27188.6 M 29641.8 26956.6 31165.8 26956.6 M 31165.8 29496.6 29641.8 29496.6 M 29641.8 32036.6 31165.8 32036.6" fill="none" stroke-width="1727.2"/><use xlink:href="#w8be4KQbYUZCMDF17ktx_pad-11" x="7754" y="33876.6"/><use xlink:href="#w8be4KQbYUZCMDF17ktx_pad-11" x="7754" y="27729.8"/><use xlink:href="#w8be4KQbYUZCMDF17ktx_pad-11" x="9024" y="33876.6"/><use xlink:href="#w8be4KQbYUZCMDF17ktx_pad-11" x="10294" y="33876.6"/><use xlink:href="#w8be4KQbYUZCMDF17ktx_pad-11" x="9024" y="27729.8"/><use xlink:href="#w8be4KQbYUZCMDF17ktx_pad-11" x="10294" y="27729.8"/><use xlink:href="#w8be4KQbYUZCMDF17ktx_pad-11" x="11564" y="33876.6"/><use xlink:href="#w8be4KQbYUZCMDF17ktx_pad-11" x="11564" y="27729.8"/><use xlink:href="#w8be4KQbYUZCMDF17ktx_pad-11" x="12834" y="33876.6"/><use xlink:href="#w8be4KQbYUZCMDF17ktx_pad-11" x="12834" y="27729.8"/><use xlink:href="#w8be4KQbYUZCMDF17ktx_pad-11" x="14104" y="33876.6"/><use xlink:href="#w8be4KQbYUZCMDF17ktx_pad-11" x="15374" y="33876.6"/><use xlink:href="#w8be4KQbYUZCMDF17ktx_pad-11" x="14104" y="27729.8"/><use xlink:href="#w8be4KQbYUZCMDF17ktx_pad-11" x="15374" y="27729.8"/><use xlink:href="#w8be4KQbYUZCMDF17ktx_pad-11" x="16644" y="33876.6"/><use xlink:href="#w8be4KQbYUZCMDF17ktx_pad-11" x="16644" y="27729.8"/><path d="M 8386.9 22075.4 8386.9 20551.4 M 10926.9 20551.4 10926.9 22075.4 M 13466.9 22075.4 13466.9 20551.4 M 16006.9 20551.4 16006.9 22075.4" fill="none" stroke-width="1727.2"/><use xlink:href="#w8be4KQbYUZCMDF17ktx_pad-12" x="9746.8" y="46991"/><use xlink:href="#w8be4KQbYUZCMDF17ktx_pad-12" x="9746.8" y="50291"/><use xlink:href="#w8be4KQbYUZCMDF17ktx_pad-12" x="14646.8" y="46991"/><use xlink:href="#w8be4KQbYUZCMDF17ktx_pad-12" x="14646.8" y="50291"/><use xlink:href="#w8be4KQbYUZCMDF17ktx_pad-12" x="9753.5" y="8002"/><use xlink:href="#w8be4KQbYUZCMDF17ktx_pad-12" x="9753.5" y="11302"/><use xlink:href="#w8be4KQbYUZCMDF17ktx_pad-12" x="14653.5" y="8002"/><use xlink:href="#w8be4KQbYUZCMDF17ktx_pad-12" x="14653.5" y="11302"/><path d="M -5067.3 17195.3 -6591.3 17195.3 M -6591.3 19735.3 -5067.3 19735.3 M -5067.3 22275.3 -6591.3 22275.3 M 29688 17110 31212 17110 M 31212 19650 29688 19650 M 29688 22190 31212 22190" fill="none" stroke-width="1727.2"/><use xlink:href="#w8be4KQbYUZCMDF17ktx_pad-13" x="9676.5" y="55673.6"/><use xlink:href="#w8be4KQbYUZCMDF17ktx_pad-13" x="14578.7" y="55673.6"/><path d="M 26517.7 49305.9 29355.4 52143.6 30864.1 50634.9 28026.4 47797.2 26517.7 49305.9"/><path d="M 29984.1 45839.6 32821.8 48677.3 34330.5 47168.6 31492.8 44330.9 29984.1 45839.6"/><use xlink:href="#w8be4KQbYUZCMDF17ktx_pad-14" x="38288.4" y="31846"/><use xlink:href="#w8be4KQbYUZCMDF17ktx_pad-14" x="38288.4" y="26943.8"/><path d="M 31612.5 14899.8 34450.2 12062.1 32941.5 10553.4 30103.8 13391.1 31612.5 14899.8"/><path d="M 28146.2 11433.4 30983.9 8595.7 29475.2 7087 26637.5 9924.7 28146.2 11433.4"/><use xlink:href="#w8be4KQbYUZCMDF17ktx_pad-13" x="14521.8" y="3444.9"/><use xlink:href="#w8be4KQbYUZCMDF17ktx_pad-13" x="9619.6" y="3444.9"/><path d="M -2208.3 9777.9 -5046 6940.2 -6554.7 8448.9 -3717 11286.6 -2208.3 9777.9"/><path d="M -5674.7 13244.3 -8512.4 10406.6 -10021.1 11915.3 -7183.4 14753 -5674.7 13244.3"/><use xlink:href="#w8be4KQbYUZCMDF17ktx_pad-14" x="-14144.1" y="27070.7"/><use xlink:href="#w8be4KQbYUZCMDF17ktx_pad-14" x="-14144.1" y="31972.9"/><path d="M -7403.5 44233.4 -10241.2 47071.1 -8732.5 48579.8 -5894.8 45742.1 -7403.5 44233.4"/><path d="M -3937.1 47699.8 -6774.8 50537.5 -5266.1 52046.2 -2428.4 49208.5 -3937.1 47699.8"/><use xlink:href="#w8be4KQbYUZCMDF17ktx_pad-15" x="12156.8" y="55670.4"/><use xlink:href="#w8be4KQbYUZCMDF17ktx_pad-15" x="12156.8" y="53770.4"/><path d="M 28782.9 47888.6 29845.8 48951.5 31120.7 47676.6 30057.8 46613.7 28782.9 47888.6"/><path d="M 27439.4 46545.1 28502.3 47608 29777.2 46333.1 28714.3 45270.2 27439.4 46545.1"/><use xlink:href="#w8be4KQbYUZCMDF17ktx_pad-16" x="37678.4" y="29565.6"/><use xlink:href="#w8be4KQbYUZCMDF17ktx_pad-16" x="35778.4" y="29565.6"/><path d="M 30300 12630.9 31362.9 11568 30088 10293.1 29025.1 11356 30300 12630.9"/><path d="M 28956.5 13974.4 30019.4 12911.5 28744.5 11636.6 27681.6 12699.5 28956.5 13974.4"/><use xlink:href="#w8be4KQbYUZCMDF17ktx_pad-15" x="12217.4" y="3825.2"/><use xlink:href="#w8be4KQbYUZCMDF17ktx_pad-15" x="12217.4" y="5725.2"/><path d="M -4595.9 11043.8 -5658.8 9980.9 -6933.7 11255.8 -5870.8 12318.7 -4595.9 11043.8"/><path d="M -3252.4 12387.3 -4315.3 11324.4 -5590.2 12599.3 -4527.3 13662.2 -3252.4 12387.3"/><use xlink:href="#w8be4KQbYUZCMDF17ktx_pad-16" x="-13472.2" y="29464"/><use xlink:href="#w8be4KQbYUZCMDF17ktx_pad-16" x="-11572.2" y="29464"/><path d="M -6085.8 46437.2 -7148.7 47500.1 -5873.8 48775 -4810.9 47712.1 -6085.8 46437.2"/><path d="M -4742.3 45093.7 -5805.2 46156.6 -4530.3 47431.5 -3467.4 46368.6 -4742.3 45093.7"/><path d="M 96.6 47320.1 1404.6 47320.1 M 1404.6 44780.1 96.6 44780.1 M 96.6 42240.1 1404.6 42240.1 M 1404.6 39700.1 96.6 39700.1 M 96.6 37160.1 1404.6 37160.1 M 1404.6 34620.1 96.6 34620.1 M 96.6 32080.1 1404.6 32080.1 M 1404.6 29540.1 96.6 29540.1 M 96.6 27000.1 1404.6 27000.1 M 1404.6 24460.1 96.6 24460.1 M 96.6 21920.1 1404.6 21920.1 M 1404.6 19380.1 96.6 19380.1 M 96.6 16840.1 1404.6 16840.1 M 1404.6 14300.1 96.6 14300.1 M 96.6 11760.1 1404.6 11760.1 M 22956.6 47320.1 24264.6 47320.1 M 24264.6 44780.1 22956.6 44780.1 M 22956.6 42240.1 24264.6 42240.1 M 24264.6 39700.1 22956.6 39700.1 M 22956.6 37160.1 24264.6 37160.1 M 24264.6 34620.1 22956.6 34620.1 M 22956.6 32080.1 24264.6 32080.1 M 24264.6 29540.1 22956.6 29540.1 M 22956.6 27000.1 24264.6 27000.1 M 24264.6 24460.1 22956.6 24460.1 M 22956.6 21920.1 24264.6 21920.1 M 24264.6 19380.1 22956.6 19380.1 M 22956.6 16840.1 24264.6 16840.1 M 24264.6 14300.1 22956.6 14300.1 M 22956.6 11760.1 24264.6 11760.1" fill="none" stroke-width="1511.2"/><path d="M 9268.3 13495.3 7490.3 13495.3 M 7490.3 44706.3 9268.3 44706.3 M 15364.5 13495.3 17142.5 13495.3 M 17142.5 44706.3 15364.5 44706.3" fill="none" stroke-width="1981.2"/><use xlink:href="#w8be4KQbYUZCMDF17ktx_pad-19" x="31032.9" y="35768.4"/><use xlink:href="#w8be4KQbYUZCMDF17ktx_pad-19" x="32849.9" y="36604.2"/><use xlink:href="#w8be4KQbYUZCMDF17ktx_pad-20" x="7398.1" y="47809.1"/><use xlink:href="#w8be4KQbYUZCMDF17ktx_pad-20" x="7398.1" y="49509.1"/><use xlink:href="#w8be4KQbYUZCMDF17ktx_pad-20" x="7051" y="8060.1"/><use xlink:href="#w8be4KQbYUZCMDF17ktx_pad-20" x="7051" y="9760.1"/><use xlink:href="#w8be4KQbYUZCMDF17ktx_pad-21" x="21901.1" y="52456.8"/><use xlink:href="#w8be4KQbYUZCMDF17ktx_pad-21" x="21901.1" y="54556.8"/><use xlink:href="#w8be4KQbYUZCMDF17ktx_pad-21" x="19200" y="52430"/><use xlink:href="#w8be4KQbYUZCMDF17ktx_pad-21" x="19200" y="54530"/><path d="M 37024.7 37136.8 38532.1 37807.9 M 37498.9 40128.3 35991.6 39457.2 M 34958.5 41777.6 36465.8 42448.7" fill="none" stroke-width="1853.2"/><use xlink:href="#w8be4KQbYUZCMDF17ktx_pad-23" x="38811.5" y="35151.9"/><use xlink:href="#w8be4KQbYUZCMDF17ktx_pad-23" x="34679" y="44433.5"/><use xlink:href="#w8be4KQbYUZCMDF17ktx_pad-19" x="36910" y="17660"/><use xlink:href="#w8be4KQbYUZCMDF17ktx_pad-19" x="34910" y="17660"/><use xlink:href="#w8be4KQbYUZCMDF17ktx_pad-24" x="20780" y="13830"/><use xlink:href="#w8be4KQbYUZCMDF17ktx_pad-24" x="12760" y="13870"/><use xlink:href="#w8be4KQbYUZCMDF17ktx_pad-24" x="10380" y="17270"/><use xlink:href="#w8be4KQbYUZCMDF17ktx_pad-24" x="17780" y="19120"/><use xlink:href="#w8be4KQbYUZCMDF17ktx_pad-24" x="12170" y="25320"/><use xlink:href="#w8be4KQbYUZCMDF17ktx_pad-24" x="18690" y="28680"/><use xlink:href="#w8be4KQbYUZCMDF17ktx_pad-24" x="26080" y="20100"/><use xlink:href="#w8be4KQbYUZCMDF17ktx_pad-24" x="37970" y="20100"/><use xlink:href="#w8be4KQbYUZCMDF17ktx_pad-24" x="34890" y="22910"/><use xlink:href="#w8be4KQbYUZCMDF17ktx_pad-24" x="27700" y="28080"/><use xlink:href="#w8be4KQbYUZCMDF17ktx_pad-24" x="32710" y="33100"/><use xlink:href="#w8be4KQbYUZCMDF17ktx_pad-24" x="35200" y="34870"/><use xlink:href="#w8be4KQbYUZCMDF17ktx_pad-24" x="26000" y="6230"/><use xlink:href="#w8be4KQbYUZCMDF17ktx_pad-24" x="21570" y="6190"/><use xlink:href="#w8be4KQbYUZCMDF17ktx_pad-24" x="-280" y="4180"/><use xlink:href="#w8be4KQbYUZCMDF17ktx_pad-24" x="830" y="9570"/><use xlink:href="#w8be4KQbYUZCMDF17ktx_pad-24" x="-1740" y="16150"/><use xlink:href="#w8be4KQbYUZCMDF17ktx_pad-24" x="6460" y="16790"/><use xlink:href="#w8be4KQbYUZCMDF17ktx_pad-24" x="6520" y="30780"/><use xlink:href="#w8be4KQbYUZCMDF17ktx_pad-24" x="-2230" y="24600"/><use xlink:href="#w8be4KQbYUZCMDF17ktx_pad-24" x="-13150" y="21600"/><use xlink:href="#w8be4KQbYUZCMDF17ktx_pad-24" x="-11370" y="16130"/><use xlink:href="#w8be4KQbYUZCMDF17ktx_pad-24" x="-10010" y="33960"/><use xlink:href="#w8be4KQbYUZCMDF17ktx_pad-24" x="-10280" y="43670"/><use xlink:href="#w8be4KQbYUZCMDF17ktx_pad-24" x="15590" y="30620"/><use xlink:href="#w8be4KQbYUZCMDF17ktx_pad-24" x="2010" y="52620"/><use xlink:href="#w8be4KQbYUZCMDF17ktx_pad-24" x="24190" y="51320"/><use xlink:href="#w8be4KQbYUZCMDF17ktx_pad-24" x="29720" y="40180"/><use xlink:href="#w8be4KQbYUZCMDF17ktx_pad-24" x="25900" y="46050"/><use xlink:href="#w8be4KQbYUZCMDF17ktx_pad-24" x="21180" y="30940"/><use xlink:href="#w8be4KQbYUZCMDF17ktx_pad-24" x="4570" y="35740"/><use xlink:href="#w8be4KQbYUZCMDF17ktx_pad-24" x="6300" y="12000"/><use xlink:href="#w8be4KQbYUZCMDF17ktx_pad-24" x="26360" y="16860"/><use xlink:href="#w8be4KQbYUZCMDF17ktx_pad-24" x="16950" y="51530"/><use xlink:href="#w8be4KQbYUZCMDF17ktx_pad-24" x="16560" y="42710"/><use xlink:href="#w8be4KQbYUZCMDF17ktx_pad-24" x="-3040" y="33470"/><use xlink:href="#w8be4KQbYUZCMDF17ktx_pad-24" x="17050" y="55180"/><use xlink:href="#w8be4KQbYUZCMDF17ktx_pad-24" x="-5270" y="14070"/><use xlink:href="#w8be4KQbYUZCMDF17ktx_pad-24" x="7440" y="38640"/><use xlink:href="#w8be4KQbYUZCMDF17ktx_pad-24" x="11960" y="45930"/><use xlink:href="#w8be4KQbYUZCMDF17ktx_pad-24" x="5850" y="41550"/><use xlink:href="#w8be4KQbYUZCMDF17ktx_pad-24" x="11360" y="41650"/><use xlink:href="#w8be4KQbYUZCMDF17ktx_pad-24" x="24500" y="54560"/><use xlink:href="#w8be4KQbYUZCMDF17ktx_pad-24" x="3420" y="26170"/><use xlink:href="#w8be4KQbYUZCMDF17ktx_pad-24" x="38040" y="22110"/><use xlink:href="#w8be4KQbYUZCMDF17ktx_pad-24" x="12860" y="42610"/><use xlink:href="#w8be4KQbYUZCMDF17ktx_pad-24" x="4420" y="45120"/><use xlink:href="#w8be4KQbYUZCMDF17ktx_pad-24" x="17230" y="47000"/><use xlink:href="#w8be4KQbYUZCMDF17ktx_pad-24" x="-7407" y="43047"/><use xlink:href="#w8be4KQbYUZCMDF17ktx_pad-24" x="-1970" y="45270"/><use xlink:href="#w8be4KQbYUZCMDF17ktx_pad-24" x="-12660" y="34660"/><use xlink:href="#w8be4KQbYUZCMDF17ktx_pad-24" x="10860" y="36450"/><use xlink:href="#w8be4KQbYUZCMDF17ktx_pad-24" x="17060" y="7910"/><use xlink:href="#w8be4KQbYUZCMDF17ktx_pad-24" x="19210" y="44180"/><use xlink:href="#w8be4KQbYUZCMDF17ktx_pad-24" x="20430" y="44180"/><use xlink:href="#w8be4KQbYUZCMDF17ktx_pad-24" x="5560" y="50460"/><use xlink:href="#w8be4KQbYUZCMDF17ktx_pad-24" x="29610" y="38180"/><use xlink:href="#w8be4KQbYUZCMDF17ktx_pad-24" x="21240" y="35880"/><use xlink:href="#w8be4KQbYUZCMDF17ktx_pad-24" x="26890" y="36010"/></g></svg>