<svg version="1.1" xmlns="http://www.w3.org/2000/svg" xmlns:xlink="http://www.w3.org/1999/xlink" stroke-linecap="round" stroke-linejoin="round" stroke-width="0" fill-rule="evenodd" width="56.2425mm" height="56.0387mm" viewBox="-16049.1 1539.9 56242.5 56038.7" id="mDPACtyWrPbcLIz6wDQK"><defs><rect x="-330.2" y="-1016" width="660.4" height="2032" id="mDPACtyWrPbcLIz6wDQK_pad-10"/><rect x="-750" y="-450" width="1500" height="900" id="mDPACtyWrPbcLIz6wDQK_pad-11"/><rect x="-965.2" y="-1905" width="1930.4" height="3810" id="mDPACtyWrPbcLIz6wDQK_pad-12"/><rect x="-1905" y="-965.2" width="3810" height="1930.4" id="mDPACtyWrPbcLIz6wDQK_pad-13"/><rect x="-800" y="-650" width="1600" height="1300" id="mDPACtyWrPbcLIz6wDQK_pad-14"/><rect x="-650" y="-800" width="1300" height="1600" id="mDPACtyWrPbcLIz6wDQK_pad-15"/><rect x="-500" y="-550" width="1000" height="1100" id="mDPACtyWrPbcLIz6wDQK_pad-16"/><rect x="-600" y="-600" width="1200" height="1200" id="mDPACtyWrPbcLIz6wDQK_pad-17"/></defs><g transform="translate(0,59118.5) scale(1,-1)" fill="currentColor" stroke="currentColor"><use xlink:href="#mDPACtyWrPbcLIz6wDQK_pad-10" x="7754" y="33876.6"/><use xlink:href="#mDPACtyWrPbcLIz6wDQK_pad-10" x="7754" y="27729.8"/><use xlink:href="#mDPACtyWrPbcLIz6wDQK_pad-10" x="9024" y="33876.6"/><use xlink:href="#mDPACtyWrPbcLIz6wDQK_pad-10" x="10294" y="33876.6"/><use xlink:href="#mDPACtyWrPbcLIz6wDQK_pad-10" x="9024" y="27729.8"/><use xlink:href="#mDPACtyWrPbcLIz6wDQK_pad-10" x="10294" y="27729.8"/><use xlink:href="#mDPACtyWrPbcLIz6wDQK_pad-10" x="11564" y="33876.6"/><use xlink:href="#mDPACtyWrPbcLIz6wDQK_pad-10" x="11564" y="27729.8"/><use xlink:href="#mDPACtyWrPbcLIz6wDQK_pad-10" x="12834" y="33876.6"/><use xlink:href="#mDPACtyWrPbcLIz6wDQK_pad-10" x="12834" y="27729.8"/><use xlink:href="#mDPACtyWrPbcLIz6wDQK_pad-10" x="14104" y="33876.6"/><use xlink:href="#mDPACtyWrPbcLIz6wDQK_pad-10" x="15374" y="33876.6"/><use xlink:href="#mDPACtyWrPbcLIz6wDQK_pad-10" x="14104" y="27729.8"/><use xlink:href="#mDPACtyWrPbcLIz6wDQK_pad-10" x="15374" y="27729.8"/><use xlink:href="#mDPACtyWrPbcLIz6wDQK_pad-10" x="16644" y="33876.6"/><use xlink:href="#mDPACtyWrPbcLIz6wDQK_pad-10" x="16644" y="27729.8"/><use xlink:href="#mDPACtyWrPbcLIz6wDQK_pad-11" x="9746.8" y="46991"/><use xlink:href="#mDPACtyWrPbcLIz6wDQK_pad-11" x="9746.8" y="50291"/><use xlink:href="#mDPACtyWrPbcLIz6wDQK_pad-11" x="14646.8" y="46991"/><use xlink:href="#mDPACtyWrPbcLIz6wDQK_pad-11" x="14646.8" y="50291"/><use xlink:href="#mDPACtyWrPbcLIz6wDQK_pad-11" x="9753.5" y="8002"/><use xlink:href="#mDPACtyWrPbcLIz6wDQK_pad-11" x="9753.5" y="11302"/><use xlink:href="#mDPACtyWrPbcLIz6wDQK_pad-11" x="14653.5" y="8002"/><use xlink:href="#mDPACtyWrPbcLIz6wDQK_pad-11" x="14653.5" y="11302"/><use xlink:href="#mDPACtyWrPbcLIz6wDQK_pad-12" x="9676.5" y="55673.6"/><use xlink:href="#mDPACtyWrPbcLIz6wDQK_pad-12" x="14578.7" y="55673.6"/><path d="M 26661.4 49305.9 29355.4 51999.9 30720.4 50634.9 28026.4 47940.9 26661.4 49305.9"/><path d="M 30127.8 45839.6 32821.8 48533.6 34186.8 47168.6 31492.8 44474.6 30127.8 45839.6"/><use xlink:href="#mDPACtyWrPbcLIz6wDQK_pad-13" x="38288.4" y="31846"/><use xlink:href="#mDPACtyWrPbcLIz6wDQK_pad-13" x="38288.4" y="26943.8"/><path d="M 31612.5 14756.1 34306.5 12062.1 32941.5 10697.1 30247.5 13391.1 31612.5 14756.1"/><path d="M 28146.2 11289.7 30840.2 8595.7 29475.2 7230.7 26781.2 9924.7 28146.2 11289.7"/><use xlink:href="#mDPACtyWrPbcLIz6wDQK_pad-12" x="14521.8" y="3444.9"/><use xlink:href="#mDPACtyWrPbcLIz6wDQK_pad-12" x="9619.6" y="3444.9"/><path d="M -2352 9777.9 -5046 7083.9 -6411 8448.9 -3717 11142.9 -2352 9777.9"/><path d="M -5818.4 13244.3 -8512.4 10550.3 -9877.4 11915.3 -7183.4 14609.3 -5818.4 13244.3"/><use xlink:href="#mDPACtyWrPbcLIz6wDQK_pad-13" x="-14144.1" y="27070.7"/><use xlink:href="#mDPACtyWrPbcLIz6wDQK_pad-13" x="-14144.1" y="31972.9"/><path d="M -7403.5 44377.1 -10097.5 47071.1 -8732.5 48436.1 -6038.5 45742.1 -7403.5 44377.1"/><path d="M -3937.1 47843.5 -6631.1 50537.5 -5266.1 51902.5 -2572.1 49208.5 -3937.1 47843.5"/><use xlink:href="#mDPACtyWrPbcLIz6wDQK_pad-14" x="12156.8" y="55670.4"/><use xlink:href="#mDPACtyWrPbcLIz6wDQK_pad-14" x="12156.8" y="53770.4"/><path d="M 28926.5 47888.6 29845.8 48807.9 30977.1 47676.6 30057.8 46757.3 28926.5 47888.6"/><path d="M 27583 46545.1 28502.3 47464.4 29633.6 46333.1 28714.3 45413.8 27583 46545.1"/><use xlink:href="#mDPACtyWrPbcLIz6wDQK_pad-15" x="37678.4" y="29565.6"/><use xlink:href="#mDPACtyWrPbcLIz6wDQK_pad-15" x="35778.4" y="29565.6"/><path d="M 30300 12487.3 31219.3 11568 30088 10436.7 29168.7 11356 30300 12487.3"/><path d="M 28956.5 13830.8 29875.8 12911.5 28744.5 11780.2 27825.2 12699.5 28956.5 13830.8"/><use xlink:href="#mDPACtyWrPbcLIz6wDQK_pad-14" x="12217.4" y="3825.2"/><use xlink:href="#mDPACtyWrPbcLIz6wDQK_pad-14" x="12217.4" y="5725.2"/><path d="M -4739.5 11043.8 -5658.8 10124.5 -6790.1 11255.8 -5870.8 12175.1 -4739.5 11043.8"/><path d="M -3396 12387.3 -4315.3 11468 -5446.6 12599.3 -4527.3 13518.6 -3396 12387.3"/><use xlink:href="#mDPACtyWrPbcLIz6wDQK_pad-15" x="-13472.2" y="29464"/><use xlink:href="#mDPACtyWrPbcLIz6wDQK_pad-15" x="-11572.2" y="29464"/><path d="M -6085.8 46580.8 -7005.1 47500.1 -5873.8 48631.4 -4954.5 47712.1 -6085.8 46580.8"/><path d="M -4742.3 45237.3 -5661.6 46156.6 -4530.3 47287.9 -3611 46368.6 -4742.3 45237.3"/><use xlink:href="#mDPACtyWrPbcLIz6wDQK_pad-16" x="7398.1" y="47809.1"/><use xlink:href="#mDPACtyWrPbcLIz6wDQK_pad-16" x="7398.1" y="49509.1"/><use xlink:href="#mDPACtyWrPbcLIz6wDQK_pad-16" x="7051" y="8060.1"/><use xlink:href="#mDPACtyWrPbcLIz6wDQK_pad-16" x="7051" y="9760.1"/><use xlink:href="#mDPACtyWrPbcLIz6wDQK_pad-17" x="21901.1" y="52456.8"/><use xlink:href="#mDPACtyWrPbcLIz6wDQK_pad-17" x="21901.1" y="54556.8"/><use xlink:href="#mDPACtyWrPbcLIz6wDQK_pad-17" x="19200" y="52430"/><use xlink:href="#mDPACtyWrPbcLIz6wDQK_pad-17" x="19200" y="54530"/></g></svg>