<svg version="1.1" xmlns="http://www.w3.org/2000/svg" xmlns:xlink="http://www.w3.org/1999/xlink" stroke-linecap="round" stroke-linejoin="round" stroke-width="0" fill-rule="evenodd" width="56.2425mm" height="56.0387mm" viewBox="-16049.1 1539.9 56242.5 56038.7" id="kzldelVPP6050txtTS99"><defs><rect x="-965.2" y="-1905" width="1930.4" height="3810" id="kzldelVPP6050txtTS99_pad-10"/><rect x="-1905" y="-965.2" width="3810" height="1930.4" id="kzldelVPP6050txtTS99_pad-11"/><rect x="-650" y="-750" width="1300" height="1500" id="kzldelVPP6050txtTS99_pad-12"/><rect x="-750" y="-650" width="1500" height="1300" id="kzldelVPP6050txtTS99_pad-13"/><rect x="-650" y="-350" width="1300" height="700" id="kzldelVPP6050txtTS99_pad-14"/><rect x="-500" y="-550" width="1000" height="1100" id="kzldelVPP6050txtTS99_pad-15"/><rect x="-550" y="-500" width="1100" height="1000" id="kzldelVPP6050txtTS99_pad-16"/><rect x="-500" y="-700" width="1000" height="1400" id="kzldelVPP6050txtTS99_pad-17"/></defs><g transform="translate(0,59118.5) scale(1,-1)" fill="currentColor" stroke="currentColor"><use xlink:href="#kzldelVPP6050txtTS99_pad-10" x="9676.5" y="55673.6"/><use xlink:href="#kzldelVPP6050txtTS99_pad-10" x="14578.7" y="55673.6"/><path d="M 26661.4 49305.9 29355.4 51999.9 30720.4 50634.9 28026.4 47940.9 26661.4 49305.9"/><path d="M 30127.8 45839.6 32821.8 48533.6 34186.8 47168.6 31492.8 44474.6 30127.8 45839.6"/><use xlink:href="#kzldelVPP6050txtTS99_pad-11" x="38288.4" y="31846"/><use xlink:href="#kzldelVPP6050txtTS99_pad-11" x="38288.4" y="26943.8"/><path d="M 31612.5 14756.1 34306.5 12062.1 32941.5 10697.1 30247.5 13391.1 31612.5 14756.1"/><path d="M 28146.2 11289.7 30840.2 8595.7 29475.2 7230.7 26781.2 9924.7 28146.2 11289.7"/><use xlink:href="#kzldelVPP6050txtTS99_pad-10" x="14521.8" y="3444.9"/><use xlink:href="#kzldelVPP6050txtTS99_pad-10" x="9619.6" y="3444.9"/><path d="M -2352 9777.9 -5046 7083.9 -6411 8448.9 -3717 11142.9 -2352 9777.9"/><path d="M -5818.4 13244.3 -8512.4 10550.3 -9877.4 11915.3 -7183.4 14609.3 -5818.4 13244.3"/><use xlink:href="#kzldelVPP6050txtTS99_pad-11" x="-14144.1" y="27070.7"/><use xlink:href="#kzldelVPP6050txtTS99_pad-11" x="-14144.1" y="31972.9"/><path d="M -7403.5 44377.1 -10097.5 47071.1 -8732.5 48436.1 -6038.5 45742.1 -7403.5 44377.1"/><path d="M -3937.1 47843.5 -6631.1 50537.5 -5266.1 51902.5 -2572.1 49208.5 -3937.1 47843.5"/><use xlink:href="#kzldelVPP6050txtTS99_pad-12" x="-3474.4" y="40754.3"/><use xlink:href="#kzldelVPP6050txtTS99_pad-12" x="-5374.4" y="40754.3"/><use xlink:href="#kzldelVPP6050txtTS99_pad-13" x="-8042" y="36106"/><use xlink:href="#kzldelVPP6050txtTS99_pad-13" x="-8042" y="38006"/><use xlink:href="#kzldelVPP6050txtTS99_pad-13" x="-11027" y="38077"/><use xlink:href="#kzldelVPP6050txtTS99_pad-13" x="-11027" y="36177"/><use xlink:href="#kzldelVPP6050txtTS99_pad-13" x="-14038" y="38067"/><use xlink:href="#kzldelVPP6050txtTS99_pad-13" x="-14038" y="36167"/><use xlink:href="#kzldelVPP6050txtTS99_pad-14" x="14390" y="39905"/><use xlink:href="#kzldelVPP6050txtTS99_pad-14" x="14390" y="41175"/><use xlink:href="#kzldelVPP6050txtTS99_pad-14" x="14390" y="38635"/><use xlink:href="#kzldelVPP6050txtTS99_pad-14" x="14390" y="37365"/><use xlink:href="#kzldelVPP6050txtTS99_pad-14" x="8890" y="39905"/><use xlink:href="#kzldelVPP6050txtTS99_pad-14" x="8890" y="41175"/><use xlink:href="#kzldelVPP6050txtTS99_pad-14" x="8890" y="38635"/><use xlink:href="#kzldelVPP6050txtTS99_pad-14" x="8890" y="37365"/><use xlink:href="#kzldelVPP6050txtTS99_pad-12" x="16991.4" y="38572.8"/><use xlink:href="#kzldelVPP6050txtTS99_pad-12" x="18891.4" y="38572.8"/><use xlink:href="#kzldelVPP6050txtTS99_pad-12" x="16970" y="41130"/><use xlink:href="#kzldelVPP6050txtTS99_pad-12" x="18870" y="41130"/><use xlink:href="#kzldelVPP6050txtTS99_pad-15" x="5047" y="39952"/><use xlink:href="#kzldelVPP6050txtTS99_pad-15" x="6747" y="39952"/><use xlink:href="#kzldelVPP6050txtTS99_pad-16" x="16891" y="36550"/><use xlink:href="#kzldelVPP6050txtTS99_pad-16" x="18591" y="36550"/><use xlink:href="#kzldelVPP6050txtTS99_pad-16" x="3360" y="33680"/><use xlink:href="#kzldelVPP6050txtTS99_pad-16" x="5060" y="33680"/><use xlink:href="#kzldelVPP6050txtTS99_pad-17" x="-4670" y="36080"/><use xlink:href="#kzldelVPP6050txtTS99_pad-17" x="-5620" y="38280"/><use xlink:href="#kzldelVPP6050txtTS99_pad-17" x="-3720" y="38280"/><use xlink:href="#kzldelVPP6050txtTS99_pad-12" x="18900" y="34476"/><use xlink:href="#kzldelVPP6050txtTS99_pad-12" x="17000" y="34476"/></g></svg>