%
M48
M72
T01C0.01378
T02C0.02000
T03C0.02165
T04C0.03150
T05C0.03200
T06C0.04000
T07C0.04331
%
T01
X67030Y35056
X82778Y35253
X95967Y35647
X122935Y44899
T02
X108880Y57104
X96478Y65174
X122463Y76395
X135652Y61828
X143526Y71867
X146478Y84466
X147266Y93521
X158486Y88009
X177974Y85844
X202974Y107497
X213604Y97852
X216754Y91356
X227384Y97655
X213604Y79348
X208683Y64584
X173644Y41356
X166360Y35056
X142345Y38206
X154352Y61041
X121085Y109466
X98250Y119308
X86242Y131513
X87620Y142930
X95888Y152773
X115376Y141552
X120100Y146671
X135061Y141159
X140376Y140765
X149628Y140568
X155140Y146671
X146478Y154348
X150415Y169111
X156321Y171867
X150415Y181513
X152778Y187419
X146872Y191356
X139589Y190371
X139589Y181513
X143132Y172064
X161833Y201592
X160258Y213796
X145494Y213796
X113801Y207300
X96675Y205529
X100219Y188796
X99825Y183482
X90573Y187025
X76006Y199426
X66360Y189190
X63998Y170686
X40770Y150411
X57699Y143915
X60061Y131513
X64589Y105726
X66951Y82104
X56911Y65765
X38211Y83285
X39392Y91946
X33880Y102773
X15573Y100214
X21282Y85253
X15179Y155922
X74037Y213009
X100612Y226395
X183093Y178167
X195100Y163600
X185652Y152773
X186439Y146671
X182896Y137615
X182108Y116356
X154746Y131119
X146872Y131316
X206911Y155135
X213211Y128560
T03
X154518Y118654
X154518Y51654
X87518Y51654
X87518Y118654
T04
X76008Y121435
X76008Y131435
X76008Y141435
X76008Y151435
X76008Y161435
X76008Y171435
X76008Y181435
X76008Y191435
X76008Y111435
X76008Y101435
X76008Y91435
X76008Y81435
X76008Y71435
X76008Y61435
X76008Y51435
X166008Y51435
X166008Y61435
X166008Y71435
X166008Y81435
X166008Y91435
X166008Y101435
X166008Y111435
X166008Y121435
X166008Y131435
X166008Y141435
X166008Y151435
X166008Y161435
X166008Y171435
X166008Y181435
X166008Y191435
T05
X54869Y170482
X54869Y160482
X54869Y150482
X35447Y156645
X35447Y166645
X35447Y176645
T06
X50073Y132177
X50073Y122177
X50073Y112177
X50103Y102085
X50103Y92085
X50103Y82085
X106073Y89794
X116073Y89794
X126073Y89794
X136073Y89794
X192803Y91235
X192803Y81235
X192803Y101235
X192753Y111263
X192753Y121263
X192753Y131263
X196859Y146889
X206859Y146889
T07
X221787Y152664
X225854Y143528
X217720Y161799
X213652Y170935
X209585Y180070
M30
