G75*
%MOIN*%
%OFA0B0*%
%FSLAX25Y25*%
%IPPOS*%
%LPD*%
%AMOC8*
5,1,8,0,0,1.08239X$1,22.5*
%
%ADD10C,0.00000*%
%ADD11C,0.05200*%
%ADD12C,0.06000*%
%ADD13R,0.07600X0.15000*%
%ADD14R,0.15000X0.07600*%
%ADD15C,0.05150*%
%ADD16R,0.10000X0.10000*%
%ADD17R,0.02756X0.05118*%
%ADD18R,0.13386X0.09449*%
%ADD19R,0.04331X0.03937*%
%ADD20R,0.03937X0.04331*%
%ADD21R,0.03150X0.03150*%
%ADD22C,0.06496*%
%ADD23C,0.06600*%
%ADD24C,0.01969*%
%ADD25C,0.03600*%
%ADD26C,0.02978*%
%ADD27C,0.02000*%
%ADD28C,0.05906*%
%ADD29C,0.03937*%
%ADD30C,0.03200*%
%ADD31C,0.04000*%
D10*
X0070888Y0001000D02*
X0171110Y0001003D01*
X0241379Y0071312D01*
X0241338Y0171967D01*
X0171827Y0241384D01*
X0071219Y0241324D01*
X0001000Y0171033D01*
X0001013Y0070898D01*
X0070888Y0001000D01*
D11*
X0057469Y0150482D02*
X0052269Y0150482D01*
X0052269Y0160482D02*
X0057469Y0160482D01*
X0057469Y0170482D02*
X0052269Y0170482D01*
X0038047Y0166645D02*
X0032847Y0166645D01*
X0032847Y0176645D02*
X0038047Y0176645D01*
X0038047Y0156645D02*
X0032847Y0156645D01*
D12*
X0047073Y0132177D02*
X0053073Y0132177D01*
X0053073Y0122177D02*
X0047073Y0122177D01*
X0047073Y0112177D02*
X0053073Y0112177D01*
X0053103Y0102085D02*
X0047103Y0102085D01*
X0047103Y0092085D02*
X0053103Y0092085D01*
X0053103Y0082085D02*
X0047103Y0082085D01*
X0106073Y0086794D02*
X0106073Y0092794D01*
X0116073Y0092794D02*
X0116073Y0086794D01*
X0126073Y0086794D02*
X0126073Y0092794D01*
X0136073Y0092794D02*
X0136073Y0086794D01*
X0189803Y0091235D02*
X0195803Y0091235D01*
X0195803Y0081235D02*
X0189803Y0081235D01*
X0189803Y0101235D02*
X0195803Y0101235D01*
X0195753Y0111263D02*
X0189753Y0111263D01*
X0189753Y0121263D02*
X0195753Y0121263D01*
X0195753Y0131263D02*
X0189753Y0131263D01*
X0196859Y0143889D02*
X0196859Y0149889D01*
X0206859Y0149889D02*
X0206859Y0143889D01*
D13*
X0130216Y0225622D03*
X0110916Y0225622D03*
X0111947Y0016965D03*
X0131247Y0016965D03*
D14*
G36*
X0185822Y0049003D02*
X0196428Y0038397D01*
X0191054Y0033023D01*
X0180448Y0043629D01*
X0185822Y0049003D01*
G37*
G36*
X0199469Y0062650D02*
X0210075Y0052044D01*
X0204701Y0046670D01*
X0194095Y0057276D01*
X0199469Y0062650D01*
G37*
X0225422Y0112159D03*
X0225422Y0131459D03*
G36*
X0193167Y0186460D02*
X0203773Y0197066D01*
X0209147Y0191692D01*
X0198541Y0181086D01*
X0193167Y0186460D01*
G37*
G36*
X0179520Y0200107D02*
X0190126Y0210713D01*
X0195500Y0205339D01*
X0184894Y0194733D01*
X0179520Y0200107D01*
G37*
G36*
X0056320Y0193555D02*
X0045714Y0204161D01*
X0051088Y0209535D01*
X0061694Y0198929D01*
X0056320Y0193555D01*
G37*
G36*
X0042673Y0179907D02*
X0032067Y0190513D01*
X0037441Y0195887D01*
X0048047Y0185281D01*
X0042673Y0179907D01*
G37*
X0016731Y0130408D03*
X0016731Y0111108D03*
G36*
X0048830Y0056485D02*
X0038224Y0045879D01*
X0032850Y0051253D01*
X0043456Y0061859D01*
X0048830Y0056485D01*
G37*
G36*
X0062477Y0042838D02*
X0051871Y0032232D01*
X0046497Y0037606D01*
X0057103Y0048212D01*
X0062477Y0042838D01*
G37*
D15*
X0073433Y0051435D02*
X0078583Y0051435D01*
X0078583Y0061435D02*
X0073433Y0061435D01*
X0073433Y0071435D02*
X0078583Y0071435D01*
X0078583Y0081435D02*
X0073433Y0081435D01*
X0073433Y0091435D02*
X0078583Y0091435D01*
X0078583Y0101435D02*
X0073433Y0101435D01*
X0073433Y0111435D02*
X0078583Y0111435D01*
X0078583Y0121435D02*
X0073433Y0121435D01*
X0073433Y0131435D02*
X0078583Y0131435D01*
X0078583Y0141435D02*
X0073433Y0141435D01*
X0073433Y0151435D02*
X0078583Y0151435D01*
X0078583Y0161435D02*
X0073433Y0161435D01*
X0073433Y0171435D02*
X0078583Y0171435D01*
X0078583Y0181435D02*
X0073433Y0181435D01*
X0073433Y0191435D02*
X0078583Y0191435D01*
X0163433Y0191435D02*
X0168583Y0191435D01*
X0168583Y0181435D02*
X0163433Y0181435D01*
X0163433Y0171435D02*
X0168583Y0171435D01*
X0168583Y0161435D02*
X0163433Y0161435D01*
X0163433Y0151435D02*
X0168583Y0151435D01*
X0168583Y0141435D02*
X0163433Y0141435D01*
X0163433Y0131435D02*
X0168583Y0131435D01*
X0168583Y0121435D02*
X0163433Y0121435D01*
X0163433Y0111435D02*
X0168583Y0111435D01*
X0168583Y0101435D02*
X0163433Y0101435D01*
X0163433Y0091435D02*
X0168583Y0091435D01*
X0168583Y0081435D02*
X0163433Y0081435D01*
X0163433Y0071435D02*
X0168583Y0071435D01*
X0168583Y0061435D02*
X0163433Y0061435D01*
X0163433Y0051435D02*
X0168583Y0051435D01*
D16*
X0154518Y0051654D03*
X0154518Y0118654D03*
X0087518Y0118654D03*
X0087518Y0051654D03*
D17*
X0120081Y0152576D03*
X0125081Y0152576D03*
X0130081Y0152576D03*
X0135081Y0152576D03*
X0135081Y0174230D03*
X0130081Y0174230D03*
X0125081Y0174230D03*
X0120081Y0174230D03*
D18*
X0127581Y0163403D03*
D19*
X0125022Y0183088D03*
X0125022Y0189781D03*
X0143261Y0027807D03*
X0143261Y0021114D03*
X0168526Y0021277D03*
X0168526Y0027970D03*
D20*
X0119904Y0127576D03*
X0119904Y0134269D03*
X0117345Y0183088D03*
X0117345Y0189781D03*
D21*
X0152082Y0027226D03*
X0152082Y0021320D03*
X0160652Y0021277D03*
X0160652Y0027182D03*
D22*
X0218820Y0151343D02*
X0224754Y0153985D01*
X0220687Y0163120D02*
X0214752Y0160478D01*
X0210685Y0169614D02*
X0216619Y0172256D01*
D23*
X0209585Y0180070D03*
X0225854Y0143528D03*
D24*
X0048876Y0042508D02*
X0043363Y0042508D01*
X0045330Y0040541D02*
X0046909Y0040541D01*
X0046120Y0039752D02*
X0040370Y0045502D01*
X0050614Y0055746D01*
X0050614Y0057225D01*
X0044195Y0063644D01*
X0042717Y0063644D01*
X0032472Y0053399D01*
X0011330Y0074542D01*
X0011330Y0089301D01*
X0036968Y0089301D01*
X0037361Y0088908D01*
X0038679Y0088362D01*
X0040105Y0088362D01*
X0041422Y0088908D01*
X0042430Y0089916D01*
X0042627Y0090390D01*
X0043047Y0089375D01*
X0044393Y0088029D01*
X0046152Y0087301D01*
X0054055Y0087301D01*
X0055813Y0088029D01*
X0057159Y0089375D01*
X0057887Y0091133D01*
X0057887Y0093037D01*
X0057159Y0094795D01*
X0055813Y0096141D01*
X0054055Y0096869D01*
X0046152Y0096869D01*
X0044393Y0096141D01*
X0043047Y0094795D01*
X0042569Y0093641D01*
X0042430Y0093976D01*
X0041422Y0094985D01*
X0040105Y0095530D01*
X0038679Y0095530D01*
X0037361Y0094985D01*
X0037246Y0094869D01*
X0011330Y0094869D01*
X0011330Y0105524D01*
X0024970Y0105524D01*
X0026015Y0106569D01*
X0026015Y0115647D01*
X0024970Y0116692D01*
X0011330Y0116692D01*
X0011330Y0124824D01*
X0024970Y0124824D01*
X0026015Y0125869D01*
X0026015Y0134947D01*
X0024970Y0135992D01*
X0011330Y0135992D01*
X0011330Y0168012D01*
X0031688Y0188370D01*
X0039106Y0180951D01*
X0038919Y0181029D01*
X0031974Y0181029D01*
X0030363Y0180361D01*
X0029130Y0179128D01*
X0028462Y0177517D01*
X0028462Y0175772D01*
X0029130Y0174161D01*
X0030363Y0172928D01*
X0031974Y0172260D01*
X0038919Y0172260D01*
X0040530Y0172928D01*
X0041763Y0174161D01*
X0042431Y0175772D01*
X0042431Y0177517D01*
X0042180Y0178123D01*
X0043413Y0178123D01*
X0049832Y0184542D01*
X0049832Y0186020D01*
X0039585Y0196267D01*
X0045335Y0202017D01*
X0055582Y0191770D01*
X0057060Y0191770D01*
X0063479Y0198189D01*
X0063479Y0199667D01*
X0053232Y0209914D01*
X0067269Y0223951D01*
X0075015Y0231697D01*
X0080308Y0231697D01*
X0080308Y0205369D01*
X0080732Y0204345D01*
X0081515Y0203562D01*
X0096634Y0188443D01*
X0096634Y0188084D01*
X0097180Y0186766D01*
X0098188Y0185758D01*
X0099506Y0185212D01*
X0100932Y0185212D01*
X0101232Y0185337D01*
X0101232Y0149603D01*
X0097344Y0145715D01*
X0089905Y0145715D01*
X0089650Y0145969D01*
X0088333Y0146515D01*
X0086907Y0146515D01*
X0085590Y0145969D01*
X0084582Y0144961D01*
X0084036Y0143643D01*
X0084036Y0142217D01*
X0084582Y0140900D01*
X0085590Y0139892D01*
X0086907Y0139346D01*
X0088333Y0139346D01*
X0089650Y0139892D01*
X0089905Y0140146D01*
X0098127Y0140146D01*
X0097200Y0139219D01*
X0082383Y0139219D01*
X0082942Y0140568D01*
X0082942Y0142302D01*
X0082278Y0143904D01*
X0081052Y0145130D01*
X0079450Y0145794D01*
X0072566Y0145794D01*
X0070964Y0145130D01*
X0069738Y0143904D01*
X0069074Y0142302D01*
X0069074Y0140568D01*
X0069633Y0139219D01*
X0064429Y0139219D01*
X0063406Y0138795D01*
X0062623Y0138012D01*
X0059708Y0135097D01*
X0059348Y0135097D01*
X0058031Y0134552D01*
X0057651Y0134172D01*
X0057336Y0134789D01*
X0056875Y0135424D01*
X0056320Y0135979D01*
X0055686Y0136440D01*
X0054987Y0136796D01*
X0054240Y0137039D01*
X0053466Y0137161D01*
X0050089Y0137161D01*
X0050089Y0132193D01*
X0050058Y0132193D01*
X0050058Y0137161D01*
X0046681Y0137161D01*
X0045906Y0137039D01*
X0045160Y0136796D01*
X0044461Y0136440D01*
X0043826Y0135979D01*
X0043272Y0135424D01*
X0042810Y0134789D01*
X0042454Y0134090D01*
X0042212Y0133344D01*
X0042089Y0132569D01*
X0042089Y0132193D01*
X0050057Y0132193D01*
X0050057Y0132161D01*
X0042089Y0132161D01*
X0042089Y0131785D01*
X0042212Y0131010D01*
X0042454Y0130264D01*
X0042810Y0129565D01*
X0043272Y0128930D01*
X0043826Y0128375D01*
X0044461Y0127914D01*
X0045160Y0127558D01*
X0045906Y0127315D01*
X0046681Y0127193D01*
X0050058Y0127193D01*
X0050058Y0132161D01*
X0050089Y0132161D01*
X0050089Y0127193D01*
X0053466Y0127193D01*
X0054240Y0127315D01*
X0054987Y0127558D01*
X0055686Y0127914D01*
X0056320Y0128375D01*
X0056875Y0128930D01*
X0057170Y0129336D01*
X0058031Y0128474D01*
X0059348Y0127929D01*
X0060774Y0127929D01*
X0062091Y0128474D01*
X0063100Y0129483D01*
X0063645Y0130800D01*
X0063645Y0131160D01*
X0066136Y0133651D01*
X0069633Y0133651D01*
X0069074Y0132302D01*
X0069074Y0130568D01*
X0069633Y0129219D01*
X0069149Y0129219D01*
X0068126Y0128795D01*
X0067343Y0128012D01*
X0062143Y0122812D01*
X0061719Y0121789D01*
X0061719Y0107925D01*
X0061550Y0107756D01*
X0061004Y0106439D01*
X0061004Y0105013D01*
X0061550Y0103695D01*
X0062558Y0102687D01*
X0063876Y0102141D01*
X0065302Y0102141D01*
X0066619Y0102687D01*
X0067627Y0103695D01*
X0068173Y0105013D01*
X0068173Y0106439D01*
X0067627Y0107756D01*
X0067287Y0108096D01*
X0067287Y0120082D01*
X0069074Y0121869D01*
X0069074Y0120568D01*
X0069738Y0118966D01*
X0070964Y0117739D01*
X0072566Y0117076D01*
X0079450Y0117076D01*
X0080733Y0117607D01*
X0080733Y0115262D01*
X0079450Y0115794D01*
X0072566Y0115794D01*
X0070964Y0115130D01*
X0069738Y0113904D01*
X0069074Y0112302D01*
X0069074Y0110568D01*
X0069738Y0108966D01*
X0070964Y0107739D01*
X0072566Y0107076D01*
X0079450Y0107076D01*
X0081052Y0107739D01*
X0082278Y0108966D01*
X0082942Y0110568D01*
X0082942Y0111869D01*
X0093257Y0111869D01*
X0094302Y0112915D01*
X0094302Y0123651D01*
X0094874Y0123651D01*
X0095897Y0124075D01*
X0096681Y0124858D01*
X0112047Y0140224D01*
X0112337Y0139522D01*
X0112592Y0139268D01*
X0112592Y0137588D01*
X0097897Y0122893D01*
X0097537Y0122893D01*
X0096220Y0122347D01*
X0095211Y0121339D01*
X0094666Y0120021D01*
X0094666Y0118595D01*
X0095211Y0117278D01*
X0095419Y0117071D01*
X0095419Y0112788D01*
X0085876Y0103245D01*
X0085093Y0102462D01*
X0084669Y0101439D01*
X0084669Y0058438D01*
X0082034Y0058438D01*
X0082060Y0058465D01*
X0082482Y0059045D01*
X0082808Y0059685D01*
X0083030Y0060367D01*
X0083142Y0061076D01*
X0083142Y0061435D01*
X0083142Y0061794D01*
X0083030Y0062502D01*
X0082808Y0063185D01*
X0082482Y0063824D01*
X0082060Y0064405D01*
X0081553Y0064912D01*
X0080972Y0065334D01*
X0080333Y0065660D01*
X0079651Y0065882D01*
X0078942Y0065994D01*
X0076008Y0065994D01*
X0073075Y0065994D01*
X0072366Y0065882D01*
X0071683Y0065660D01*
X0071044Y0065334D01*
X0070463Y0064912D01*
X0069956Y0064405D01*
X0069534Y0063824D01*
X0069208Y0063185D01*
X0068987Y0062502D01*
X0068874Y0061794D01*
X0068874Y0061435D01*
X0076008Y0061435D01*
X0076008Y0061435D01*
X0076008Y0065994D01*
X0076008Y0061435D01*
X0076008Y0061435D01*
X0068874Y0061435D01*
X0068874Y0061076D01*
X0068987Y0060367D01*
X0069208Y0059685D01*
X0069534Y0059045D01*
X0069956Y0058465D01*
X0070463Y0057957D01*
X0071044Y0057536D01*
X0071683Y0057210D01*
X0072366Y0056988D01*
X0073075Y0056876D01*
X0076008Y0056876D01*
X0076008Y0061435D01*
X0076008Y0061435D01*
X0083142Y0061435D01*
X0076008Y0061435D01*
X0076008Y0061435D01*
X0076008Y0056876D01*
X0078942Y0056876D01*
X0079651Y0056988D01*
X0080333Y0057210D01*
X0080776Y0057436D01*
X0080733Y0057393D01*
X0080733Y0055262D01*
X0079450Y0055794D01*
X0072566Y0055794D01*
X0070964Y0055130D01*
X0069738Y0053904D01*
X0069074Y0052302D01*
X0069074Y0050568D01*
X0069738Y0048966D01*
X0070964Y0047739D01*
X0072566Y0047076D01*
X0073224Y0047076D01*
X0073224Y0033343D01*
X0062876Y0022996D01*
X0054017Y0031855D01*
X0064261Y0042099D01*
X0064261Y0043577D01*
X0057842Y0049997D01*
X0056364Y0049997D01*
X0046120Y0039752D01*
X0050843Y0044475D02*
X0041396Y0044475D01*
X0041310Y0046442D02*
X0052810Y0046442D01*
X0054777Y0048409D02*
X0043277Y0048409D01*
X0045244Y0050376D02*
X0069154Y0050376D01*
X0069092Y0052343D02*
X0047211Y0052343D01*
X0049178Y0054310D02*
X0070144Y0054310D01*
X0070176Y0058244D02*
X0049594Y0058244D01*
X0050614Y0056277D02*
X0080733Y0056277D01*
X0082979Y0060212D02*
X0084669Y0060212D01*
X0084669Y0062179D02*
X0083081Y0062179D01*
X0082249Y0064146D02*
X0084669Y0064146D01*
X0084669Y0066113D02*
X0019759Y0066113D01*
X0017792Y0068080D02*
X0070624Y0068080D01*
X0070964Y0067739D02*
X0069738Y0068966D01*
X0069074Y0070568D01*
X0069074Y0072302D01*
X0069738Y0073904D01*
X0070964Y0075130D01*
X0072566Y0075794D01*
X0079450Y0075794D01*
X0081052Y0075130D01*
X0082278Y0073904D01*
X0082942Y0072302D01*
X0082942Y0070568D01*
X0082278Y0068966D01*
X0081052Y0067739D01*
X0079450Y0067076D01*
X0072566Y0067076D01*
X0070964Y0067739D01*
X0069290Y0070047D02*
X0015825Y0070047D01*
X0013858Y0072014D02*
X0069074Y0072014D01*
X0069815Y0073981D02*
X0011891Y0073981D01*
X0011330Y0075948D02*
X0084669Y0075948D01*
X0084669Y0077915D02*
X0081227Y0077915D01*
X0081052Y0077739D02*
X0082278Y0078966D01*
X0082942Y0080568D01*
X0082942Y0082302D01*
X0082278Y0083904D01*
X0081052Y0085130D01*
X0079450Y0085794D01*
X0072566Y0085794D01*
X0070964Y0085130D01*
X0069738Y0083904D01*
X0069074Y0082302D01*
X0069074Y0080568D01*
X0069738Y0078966D01*
X0070964Y0077739D01*
X0072566Y0077076D01*
X0079450Y0077076D01*
X0081052Y0077739D01*
X0082658Y0079882D02*
X0084669Y0079882D01*
X0084669Y0081849D02*
X0082942Y0081849D01*
X0082315Y0083816D02*
X0084669Y0083816D01*
X0084669Y0085783D02*
X0079477Y0085783D01*
X0079450Y0087076D02*
X0081052Y0087739D01*
X0082278Y0088966D01*
X0082942Y0090568D01*
X0082942Y0092302D01*
X0082278Y0093904D01*
X0081052Y0095130D01*
X0079450Y0095794D01*
X0072566Y0095794D01*
X0070964Y0095130D01*
X0069738Y0093904D01*
X0069074Y0092302D01*
X0069074Y0090568D01*
X0069738Y0088966D01*
X0070964Y0087739D01*
X0072566Y0087076D01*
X0079450Y0087076D01*
X0081063Y0087750D02*
X0084669Y0087750D01*
X0084669Y0089717D02*
X0082590Y0089717D01*
X0082942Y0091684D02*
X0084669Y0091684D01*
X0084669Y0093651D02*
X0082383Y0093651D01*
X0084669Y0095618D02*
X0079875Y0095618D01*
X0079651Y0096988D02*
X0080333Y0097210D01*
X0080972Y0097536D01*
X0081553Y0097957D01*
X0082060Y0098465D01*
X0082482Y0099045D01*
X0082808Y0099685D01*
X0083030Y0100367D01*
X0083142Y0101076D01*
X0083142Y0101435D01*
X0083142Y0101794D01*
X0083030Y0102502D01*
X0082808Y0103185D01*
X0082482Y0103824D01*
X0082060Y0104405D01*
X0081553Y0104912D01*
X0080972Y0105334D01*
X0080333Y0105660D01*
X0079651Y0105882D01*
X0078942Y0105994D01*
X0076008Y0105994D01*
X0073075Y0105994D01*
X0072366Y0105882D01*
X0071683Y0105660D01*
X0071044Y0105334D01*
X0070463Y0104912D01*
X0069956Y0104405D01*
X0069534Y0103824D01*
X0069208Y0103185D01*
X0068987Y0102502D01*
X0068874Y0101794D01*
X0068874Y0101435D01*
X0076008Y0101435D01*
X0076008Y0101435D01*
X0076008Y0105994D01*
X0076008Y0101435D01*
X0076008Y0101435D01*
X0068874Y0101435D01*
X0068874Y0101076D01*
X0068987Y0100367D01*
X0069208Y0099685D01*
X0069534Y0099045D01*
X0069956Y0098465D01*
X0070463Y0097957D01*
X0071044Y0097536D01*
X0071683Y0097210D01*
X0072366Y0096988D01*
X0073075Y0096876D01*
X0076008Y0096876D01*
X0076008Y0101435D01*
X0076008Y0101435D01*
X0083142Y0101435D01*
X0076008Y0101435D01*
X0076008Y0101435D01*
X0076008Y0096876D01*
X0078942Y0096876D01*
X0079651Y0096988D01*
X0081040Y0097585D02*
X0084669Y0097585D01*
X0084669Y0099552D02*
X0082740Y0099552D01*
X0083142Y0101519D02*
X0084702Y0101519D01*
X0086116Y0103486D02*
X0082655Y0103486D01*
X0080739Y0105453D02*
X0088084Y0105453D01*
X0090051Y0107420D02*
X0080281Y0107420D01*
X0082453Y0109387D02*
X0092018Y0109387D01*
X0093985Y0111354D02*
X0082942Y0111354D01*
X0080733Y0115288D02*
X0080672Y0115288D01*
X0080733Y0117255D02*
X0079883Y0117255D01*
X0072134Y0117255D02*
X0067287Y0117255D01*
X0067287Y0119222D02*
X0069632Y0119222D01*
X0069074Y0121189D02*
X0068395Y0121189D01*
X0064454Y0125123D02*
X0056893Y0125123D01*
X0057129Y0124887D02*
X0055783Y0126233D01*
X0054025Y0126961D01*
X0046122Y0126961D01*
X0044363Y0126233D01*
X0043017Y0124887D01*
X0042289Y0123129D01*
X0042289Y0121225D01*
X0043017Y0119467D01*
X0044363Y0118121D01*
X0046122Y0117393D01*
X0054025Y0117393D01*
X0055783Y0118121D01*
X0057129Y0119467D01*
X0057858Y0121225D01*
X0057858Y0123129D01*
X0057129Y0124887D01*
X0057846Y0123156D02*
X0062487Y0123156D01*
X0061719Y0121189D02*
X0057842Y0121189D01*
X0056884Y0119222D02*
X0061719Y0119222D01*
X0061719Y0117255D02*
X0011330Y0117255D01*
X0011330Y0119222D02*
X0043262Y0119222D01*
X0042304Y0121189D02*
X0011330Y0121189D01*
X0011330Y0123156D02*
X0042300Y0123156D01*
X0043253Y0125123D02*
X0025269Y0125123D01*
X0026015Y0127090D02*
X0066421Y0127090D01*
X0068758Y0129057D02*
X0062674Y0129057D01*
X0063645Y0131024D02*
X0069074Y0131024D01*
X0069360Y0132991D02*
X0065477Y0132991D01*
X0061536Y0136925D02*
X0054590Y0136925D01*
X0050089Y0136925D02*
X0050058Y0136925D01*
X0050058Y0134958D02*
X0050089Y0134958D01*
X0050058Y0132991D02*
X0050089Y0132991D01*
X0050058Y0131024D02*
X0050089Y0131024D01*
X0050058Y0129057D02*
X0050089Y0129057D01*
X0056967Y0129057D02*
X0057448Y0129057D01*
X0057214Y0134958D02*
X0059012Y0134958D01*
X0063639Y0138892D02*
X0011330Y0138892D01*
X0011330Y0136925D02*
X0045557Y0136925D01*
X0042933Y0134958D02*
X0026004Y0134958D01*
X0026015Y0132991D02*
X0042156Y0132991D01*
X0042210Y0131024D02*
X0026015Y0131024D01*
X0026015Y0129057D02*
X0043179Y0129057D01*
X0046122Y0116961D02*
X0044363Y0116233D01*
X0043017Y0114887D01*
X0042289Y0113129D01*
X0042289Y0111225D01*
X0043017Y0109467D01*
X0044363Y0108121D01*
X0046122Y0107393D01*
X0054025Y0107393D01*
X0055783Y0108121D01*
X0057129Y0109467D01*
X0057858Y0111225D01*
X0057858Y0113129D01*
X0057129Y0114887D01*
X0055783Y0116233D01*
X0054025Y0116961D01*
X0046122Y0116961D01*
X0043418Y0115288D02*
X0026015Y0115288D01*
X0026015Y0113321D02*
X0042369Y0113321D01*
X0042289Y0111354D02*
X0026015Y0111354D01*
X0026015Y0109387D02*
X0043097Y0109387D01*
X0044393Y0106141D02*
X0046152Y0106869D01*
X0054055Y0106869D01*
X0055813Y0106141D01*
X0057159Y0104795D01*
X0057887Y0103037D01*
X0057887Y0101133D01*
X0057159Y0099375D01*
X0055813Y0098029D01*
X0054055Y0097301D01*
X0046152Y0097301D01*
X0044393Y0098029D01*
X0043047Y0099375D01*
X0042319Y0101133D01*
X0042319Y0103037D01*
X0043047Y0104795D01*
X0044393Y0106141D01*
X0043705Y0105453D02*
X0011330Y0105453D01*
X0011330Y0103486D02*
X0042505Y0103486D01*
X0042319Y0101519D02*
X0011330Y0101519D01*
X0011330Y0099552D02*
X0042974Y0099552D01*
X0045466Y0097585D02*
X0011330Y0097585D01*
X0011330Y0095618D02*
X0043870Y0095618D01*
X0042573Y0093651D02*
X0042565Y0093651D01*
X0042231Y0089717D02*
X0042906Y0089717D01*
X0045068Y0087750D02*
X0011330Y0087750D01*
X0011330Y0085783D02*
X0043752Y0085783D01*
X0043856Y0085887D02*
X0043301Y0085332D01*
X0042840Y0084697D01*
X0042484Y0083998D01*
X0042242Y0083252D01*
X0042119Y0082477D01*
X0042119Y0082101D01*
X0050087Y0082101D01*
X0050087Y0082069D01*
X0042119Y0082069D01*
X0042119Y0081693D01*
X0042242Y0080918D01*
X0042484Y0080172D01*
X0042840Y0079473D01*
X0043301Y0078838D01*
X0043856Y0078283D01*
X0044491Y0077822D01*
X0045190Y0077466D01*
X0045936Y0077224D01*
X0046711Y0077101D01*
X0050087Y0077101D01*
X0050087Y0082069D01*
X0050119Y0082069D01*
X0050119Y0077101D01*
X0053495Y0077101D01*
X0054270Y0077224D01*
X0055017Y0077466D01*
X0055716Y0077822D01*
X0056350Y0078283D01*
X0056905Y0078838D01*
X0057366Y0079473D01*
X0057722Y0080172D01*
X0057965Y0080918D01*
X0058087Y0081693D01*
X0058087Y0082069D01*
X0050119Y0082069D01*
X0050119Y0082101D01*
X0050087Y0082101D01*
X0050087Y0087069D01*
X0046711Y0087069D01*
X0045936Y0086947D01*
X0045190Y0086704D01*
X0044491Y0086348D01*
X0043856Y0085887D01*
X0042425Y0083816D02*
X0011330Y0083816D01*
X0011330Y0081849D02*
X0042119Y0081849D01*
X0042632Y0079882D02*
X0011330Y0079882D01*
X0011330Y0077915D02*
X0044364Y0077915D01*
X0050087Y0077915D02*
X0050119Y0077915D01*
X0050087Y0079882D02*
X0050119Y0079882D01*
X0050087Y0081849D02*
X0050119Y0081849D01*
X0050119Y0082101D02*
X0058087Y0082101D01*
X0058087Y0082477D01*
X0057965Y0083252D01*
X0057722Y0083998D01*
X0057366Y0084697D01*
X0056905Y0085332D01*
X0056350Y0085887D01*
X0055716Y0086348D01*
X0055017Y0086704D01*
X0054270Y0086947D01*
X0053495Y0087069D01*
X0050119Y0087069D01*
X0050119Y0082101D01*
X0050087Y0083816D02*
X0050119Y0083816D01*
X0050087Y0085783D02*
X0050119Y0085783D01*
X0055139Y0087750D02*
X0070954Y0087750D01*
X0069427Y0089717D02*
X0057301Y0089717D01*
X0057887Y0091684D02*
X0069074Y0091684D01*
X0069633Y0093651D02*
X0057633Y0093651D01*
X0056336Y0095618D02*
X0072141Y0095618D01*
X0070976Y0097585D02*
X0054740Y0097585D01*
X0057232Y0099552D02*
X0069276Y0099552D01*
X0068874Y0101519D02*
X0057887Y0101519D01*
X0057701Y0103486D02*
X0061760Y0103486D01*
X0061004Y0105453D02*
X0056501Y0105453D01*
X0054090Y0107420D02*
X0061411Y0107420D01*
X0061719Y0109387D02*
X0057049Y0109387D01*
X0057858Y0111354D02*
X0061719Y0111354D01*
X0061719Y0113321D02*
X0057778Y0113321D01*
X0056728Y0115288D02*
X0061719Y0115288D01*
X0067287Y0115288D02*
X0071345Y0115288D01*
X0069496Y0113321D02*
X0067287Y0113321D01*
X0067287Y0111354D02*
X0069074Y0111354D01*
X0069563Y0109387D02*
X0067287Y0109387D01*
X0067766Y0107420D02*
X0071736Y0107420D01*
X0071277Y0105453D02*
X0068173Y0105453D01*
X0067418Y0103486D02*
X0069362Y0103486D01*
X0076008Y0103486D02*
X0076008Y0103486D01*
X0076008Y0105453D02*
X0076008Y0105453D01*
X0076008Y0101519D02*
X0076008Y0101519D01*
X0076008Y0099552D02*
X0076008Y0099552D01*
X0076008Y0097585D02*
X0076008Y0097585D01*
X0072539Y0085783D02*
X0056454Y0085783D01*
X0057782Y0083816D02*
X0069701Y0083816D01*
X0069074Y0081849D02*
X0058087Y0081849D01*
X0057574Y0079882D02*
X0069359Y0079882D01*
X0070789Y0077915D02*
X0055843Y0077915D01*
X0069768Y0064146D02*
X0021726Y0064146D01*
X0023693Y0062179D02*
X0041252Y0062179D01*
X0039285Y0060212D02*
X0025660Y0060212D01*
X0027627Y0058244D02*
X0037318Y0058244D01*
X0035351Y0056277D02*
X0029594Y0056277D01*
X0031561Y0054310D02*
X0033384Y0054310D01*
X0045660Y0062179D02*
X0068935Y0062179D01*
X0069037Y0060212D02*
X0047627Y0060212D01*
X0059429Y0048409D02*
X0070294Y0048409D01*
X0073224Y0046442D02*
X0061396Y0046442D01*
X0063363Y0044475D02*
X0073224Y0044475D01*
X0073224Y0042508D02*
X0064261Y0042508D01*
X0062704Y0040541D02*
X0073224Y0040541D01*
X0073224Y0038574D02*
X0060737Y0038574D01*
X0058770Y0036607D02*
X0073224Y0036607D01*
X0073224Y0034640D02*
X0056803Y0034640D01*
X0054836Y0032673D02*
X0072554Y0032673D01*
X0070587Y0030706D02*
X0055165Y0030706D01*
X0057132Y0028739D02*
X0068620Y0028739D01*
X0066653Y0026772D02*
X0059099Y0026772D01*
X0061066Y0024805D02*
X0064686Y0024805D01*
X0068627Y0020871D02*
X0106363Y0020871D01*
X0106363Y0018904D02*
X0066967Y0018904D01*
X0066814Y0019058D02*
X0078369Y0030613D01*
X0078792Y0031636D01*
X0078792Y0047076D01*
X0079450Y0047076D01*
X0080733Y0047607D01*
X0080733Y0045915D01*
X0081779Y0044869D01*
X0093257Y0044869D01*
X0094302Y0045915D01*
X0094302Y0048869D01*
X0097376Y0048869D01*
X0098399Y0049293D01*
X0117756Y0068651D01*
X0132657Y0068651D01*
X0133680Y0069075D01*
X0137780Y0073175D01*
X0138564Y0073958D01*
X0138987Y0074981D01*
X0138987Y0082943D01*
X0140128Y0084084D01*
X0140857Y0085842D01*
X0140857Y0086308D01*
X0140968Y0086038D01*
X0142894Y0084113D01*
X0142894Y0083753D01*
X0143440Y0082435D01*
X0144448Y0081427D01*
X0145765Y0080882D01*
X0147191Y0080882D01*
X0148222Y0081308D01*
X0148222Y0070855D01*
X0128760Y0051393D01*
X0127976Y0050610D01*
X0127552Y0049587D01*
X0127552Y0031713D01*
X0127976Y0030690D01*
X0132416Y0026249D01*
X0126708Y0026249D01*
X0125663Y0025204D01*
X0125663Y0010856D01*
X0117531Y0010856D01*
X0117531Y0025204D01*
X0116486Y0026249D01*
X0107408Y0026249D01*
X0106363Y0025204D01*
X0106363Y0010856D01*
X0075015Y0010856D01*
X0066814Y0019058D01*
X0068934Y0016937D02*
X0106363Y0016937D01*
X0106363Y0014970D02*
X0070902Y0014970D01*
X0072869Y0013003D02*
X0106363Y0013003D01*
X0106363Y0011036D02*
X0074836Y0011036D01*
X0070594Y0022838D02*
X0106363Y0022838D01*
X0106363Y0024805D02*
X0072561Y0024805D01*
X0074528Y0026772D02*
X0131894Y0026772D01*
X0129927Y0028739D02*
X0076495Y0028739D01*
X0078407Y0030706D02*
X0127969Y0030706D01*
X0127552Y0032673D02*
X0078792Y0032673D01*
X0078792Y0034640D02*
X0127552Y0034640D01*
X0127552Y0036607D02*
X0078792Y0036607D01*
X0078792Y0038574D02*
X0127552Y0038574D01*
X0127552Y0040541D02*
X0078792Y0040541D01*
X0078792Y0042508D02*
X0127552Y0042508D01*
X0127552Y0044475D02*
X0078792Y0044475D01*
X0078792Y0046442D02*
X0080733Y0046442D01*
X0076008Y0058244D02*
X0076008Y0058244D01*
X0076008Y0060212D02*
X0076008Y0060212D01*
X0076008Y0062179D02*
X0076008Y0062179D01*
X0076008Y0064146D02*
X0076008Y0064146D01*
X0081392Y0068080D02*
X0084669Y0068080D01*
X0084669Y0070047D02*
X0082726Y0070047D01*
X0082942Y0072014D02*
X0084669Y0072014D01*
X0084669Y0073981D02*
X0082202Y0073981D01*
X0090237Y0073981D02*
X0115473Y0073981D01*
X0115026Y0073795D02*
X0114243Y0073012D01*
X0095669Y0054438D01*
X0094302Y0054438D01*
X0094302Y0057393D01*
X0093257Y0058438D01*
X0090237Y0058438D01*
X0090237Y0099732D01*
X0099780Y0109275D01*
X0099780Y0109275D01*
X0100564Y0110058D01*
X0100987Y0111081D01*
X0100987Y0116977D01*
X0101289Y0117278D01*
X0101834Y0118595D01*
X0101834Y0118955D01*
X0116151Y0133272D01*
X0116151Y0131365D01*
X0116451Y0131064D01*
X0116347Y0130960D01*
X0116086Y0130507D01*
X0115951Y0130003D01*
X0115951Y0127576D01*
X0115951Y0125149D01*
X0116086Y0124645D01*
X0116347Y0124192D01*
X0116717Y0123823D01*
X0117169Y0123562D01*
X0117674Y0123426D01*
X0119904Y0123426D01*
X0122133Y0123426D01*
X0122638Y0123562D01*
X0123090Y0123823D01*
X0123460Y0124192D01*
X0123721Y0124645D01*
X0123783Y0124877D01*
X0140150Y0108510D01*
X0114625Y0108510D01*
X0113602Y0108086D01*
X0112819Y0107303D01*
X0103712Y0098196D01*
X0103288Y0097173D01*
X0103288Y0096776D01*
X0102017Y0095504D01*
X0101288Y0093746D01*
X0101288Y0085842D01*
X0102017Y0084084D01*
X0103362Y0082738D01*
X0105121Y0082010D01*
X0107024Y0082010D01*
X0108783Y0082738D01*
X0110128Y0084084D01*
X0110857Y0085842D01*
X0110857Y0093746D01*
X0110128Y0095504D01*
X0109512Y0096121D01*
X0116332Y0102941D01*
X0118300Y0102941D01*
X0117740Y0102382D01*
X0113712Y0098354D01*
X0113288Y0097330D01*
X0113288Y0096776D01*
X0112017Y0095504D01*
X0111288Y0093746D01*
X0111288Y0085842D01*
X0112017Y0084084D01*
X0113362Y0082738D01*
X0115121Y0082010D01*
X0117024Y0082010D01*
X0118783Y0082738D01*
X0120128Y0084084D01*
X0120857Y0085842D01*
X0120857Y0093746D01*
X0120128Y0095504D01*
X0119433Y0096199D01*
X0121254Y0098020D01*
X0136664Y0098020D01*
X0137163Y0097521D01*
X0137024Y0097578D01*
X0135121Y0097578D01*
X0133362Y0096850D01*
X0132017Y0095504D01*
X0131288Y0093746D01*
X0131288Y0085842D01*
X0132017Y0084084D01*
X0133362Y0082738D01*
X0133419Y0082715D01*
X0133419Y0076688D01*
X0130950Y0074219D01*
X0116049Y0074219D01*
X0115026Y0073795D01*
X0113244Y0072014D02*
X0090237Y0072014D01*
X0090237Y0070047D02*
X0111277Y0070047D01*
X0109310Y0068080D02*
X0090237Y0068080D01*
X0090237Y0066113D02*
X0107343Y0066113D01*
X0105376Y0064146D02*
X0090237Y0064146D01*
X0090237Y0062179D02*
X0103409Y0062179D01*
X0101442Y0060212D02*
X0090237Y0060212D01*
X0093450Y0058244D02*
X0099475Y0058244D01*
X0097508Y0056277D02*
X0094302Y0056277D01*
X0099482Y0050376D02*
X0127880Y0050376D01*
X0127552Y0048409D02*
X0094302Y0048409D01*
X0094302Y0046442D02*
X0127552Y0046442D01*
X0129710Y0052343D02*
X0101449Y0052343D01*
X0103416Y0054310D02*
X0131677Y0054310D01*
X0133644Y0056277D02*
X0105383Y0056277D01*
X0107350Y0058244D02*
X0135611Y0058244D01*
X0137578Y0060212D02*
X0109317Y0060212D01*
X0111284Y0062179D02*
X0139545Y0062179D01*
X0141512Y0064146D02*
X0113251Y0064146D01*
X0115218Y0066113D02*
X0143479Y0066113D01*
X0145446Y0068080D02*
X0117185Y0068080D01*
X0124159Y0082175D02*
X0124905Y0081932D01*
X0125680Y0081810D01*
X0126057Y0081810D01*
X0126057Y0089778D01*
X0126088Y0089778D01*
X0126088Y0081810D01*
X0126465Y0081810D01*
X0127240Y0081932D01*
X0127986Y0082175D01*
X0128685Y0082531D01*
X0129320Y0082992D01*
X0129874Y0083547D01*
X0130335Y0084182D01*
X0130692Y0084881D01*
X0130934Y0085627D01*
X0131057Y0086402D01*
X0131057Y0089778D01*
X0126088Y0089778D01*
X0126088Y0089810D01*
X0126057Y0089810D01*
X0126057Y0097778D01*
X0125680Y0097778D01*
X0124905Y0097655D01*
X0124159Y0097413D01*
X0123460Y0097057D01*
X0122826Y0096596D01*
X0122271Y0096041D01*
X0121810Y0095406D01*
X0121453Y0094707D01*
X0121211Y0093961D01*
X0121088Y0093186D01*
X0121088Y0089810D01*
X0126057Y0089810D01*
X0126057Y0089778D01*
X0121088Y0089778D01*
X0121088Y0086402D01*
X0121211Y0085627D01*
X0121453Y0084881D01*
X0121810Y0084182D01*
X0122271Y0083547D01*
X0122826Y0082992D01*
X0123460Y0082531D01*
X0124159Y0082175D01*
X0125434Y0081849D02*
X0090237Y0081849D01*
X0090237Y0083816D02*
X0102285Y0083816D01*
X0101313Y0085783D02*
X0090237Y0085783D01*
X0090237Y0087750D02*
X0101288Y0087750D01*
X0101288Y0089717D02*
X0090237Y0089717D01*
X0090237Y0091684D02*
X0101288Y0091684D01*
X0101288Y0093651D02*
X0090237Y0093651D01*
X0090237Y0095618D02*
X0102130Y0095618D01*
X0103459Y0097585D02*
X0090237Y0097585D01*
X0090237Y0099552D02*
X0105068Y0099552D01*
X0107035Y0101519D02*
X0092024Y0101519D01*
X0093991Y0103486D02*
X0109002Y0103486D01*
X0110969Y0105453D02*
X0095959Y0105453D01*
X0097926Y0107420D02*
X0112936Y0107420D01*
X0114910Y0101519D02*
X0116877Y0101519D01*
X0114910Y0099552D02*
X0112943Y0099552D01*
X0113394Y0097585D02*
X0110976Y0097585D01*
X0110015Y0095618D02*
X0112130Y0095618D01*
X0111288Y0093651D02*
X0110857Y0093651D01*
X0110857Y0091684D02*
X0111288Y0091684D01*
X0111288Y0089717D02*
X0110857Y0089717D01*
X0110857Y0087750D02*
X0111288Y0087750D01*
X0111313Y0085783D02*
X0110832Y0085783D01*
X0109860Y0083816D02*
X0112285Y0083816D01*
X0119860Y0083816D02*
X0122075Y0083816D01*
X0121186Y0085783D02*
X0120832Y0085783D01*
X0120857Y0087750D02*
X0121088Y0087750D01*
X0121088Y0089717D02*
X0120857Y0089717D01*
X0120857Y0091684D02*
X0121088Y0091684D01*
X0121162Y0093651D02*
X0120857Y0093651D01*
X0120015Y0095618D02*
X0121963Y0095618D01*
X0120818Y0097585D02*
X0124688Y0097585D01*
X0126057Y0097585D02*
X0126088Y0097585D01*
X0126088Y0097778D02*
X0126088Y0089810D01*
X0131057Y0089810D01*
X0131057Y0093186D01*
X0130934Y0093961D01*
X0130692Y0094707D01*
X0130335Y0095406D01*
X0129874Y0096041D01*
X0129320Y0096596D01*
X0128685Y0097057D01*
X0127986Y0097413D01*
X0127240Y0097655D01*
X0126465Y0097778D01*
X0126088Y0097778D01*
X0127457Y0097585D02*
X0137099Y0097585D01*
X0132130Y0095618D02*
X0130182Y0095618D01*
X0130983Y0093651D02*
X0131288Y0093651D01*
X0131288Y0091684D02*
X0131057Y0091684D01*
X0131057Y0089717D02*
X0131288Y0089717D01*
X0131288Y0087750D02*
X0131057Y0087750D01*
X0130959Y0085783D02*
X0131313Y0085783D01*
X0132285Y0083816D02*
X0130070Y0083816D01*
X0133419Y0081849D02*
X0126711Y0081849D01*
X0126088Y0081849D02*
X0126057Y0081849D01*
X0126057Y0083816D02*
X0126088Y0083816D01*
X0126057Y0085783D02*
X0126088Y0085783D01*
X0126057Y0087750D02*
X0126088Y0087750D01*
X0126057Y0089717D02*
X0126088Y0089717D01*
X0126057Y0091684D02*
X0126088Y0091684D01*
X0126057Y0093651D02*
X0126088Y0093651D01*
X0126057Y0095618D02*
X0126088Y0095618D01*
X0140832Y0085783D02*
X0141224Y0085783D01*
X0139860Y0083816D02*
X0142894Y0083816D01*
X0144027Y0081849D02*
X0138987Y0081849D01*
X0138987Y0079882D02*
X0148222Y0079882D01*
X0148222Y0077915D02*
X0138987Y0077915D01*
X0138987Y0075948D02*
X0148222Y0075948D01*
X0148222Y0073981D02*
X0138573Y0073981D01*
X0136619Y0072014D02*
X0148222Y0072014D01*
X0147413Y0070047D02*
X0134652Y0070047D01*
X0132678Y0075948D02*
X0090237Y0075948D01*
X0090237Y0077915D02*
X0133419Y0077915D01*
X0133419Y0079882D02*
X0090237Y0079882D01*
X0099893Y0109387D02*
X0139273Y0109387D01*
X0137306Y0111354D02*
X0100987Y0111354D01*
X0100987Y0113321D02*
X0135339Y0113321D01*
X0133372Y0115288D02*
X0100987Y0115288D01*
X0101266Y0117255D02*
X0131405Y0117255D01*
X0129438Y0119222D02*
X0102101Y0119222D01*
X0104068Y0121189D02*
X0127471Y0121189D01*
X0125504Y0123156D02*
X0106035Y0123156D01*
X0108002Y0125123D02*
X0115958Y0125123D01*
X0115951Y0127090D02*
X0109969Y0127090D01*
X0111936Y0129057D02*
X0115951Y0129057D01*
X0115951Y0127576D02*
X0119903Y0127576D01*
X0115951Y0127576D01*
X0116412Y0131024D02*
X0113903Y0131024D01*
X0115870Y0132991D02*
X0116151Y0132991D01*
X0111929Y0136925D02*
X0108748Y0136925D01*
X0109962Y0134958D02*
X0106781Y0134958D01*
X0107995Y0132991D02*
X0104814Y0132991D01*
X0106028Y0131024D02*
X0102847Y0131024D01*
X0104061Y0129057D02*
X0100880Y0129057D01*
X0102094Y0127090D02*
X0098913Y0127090D01*
X0100127Y0125123D02*
X0096946Y0125123D01*
X0098160Y0123156D02*
X0094302Y0123156D01*
X0094302Y0121189D02*
X0095150Y0121189D01*
X0094666Y0119222D02*
X0094302Y0119222D01*
X0094302Y0117255D02*
X0095235Y0117255D01*
X0095419Y0115288D02*
X0094302Y0115288D01*
X0094302Y0113321D02*
X0095419Y0113321D01*
X0093167Y0129219D02*
X0082383Y0129219D01*
X0082942Y0130568D01*
X0082942Y0132302D01*
X0082383Y0133651D01*
X0097598Y0133651D01*
X0093167Y0129219D01*
X0094972Y0131024D02*
X0082942Y0131024D01*
X0082657Y0132991D02*
X0096939Y0132991D01*
X0084622Y0140859D02*
X0082942Y0140859D01*
X0082725Y0142826D02*
X0084036Y0142826D01*
X0084512Y0144793D02*
X0081389Y0144793D01*
X0081052Y0147739D02*
X0082278Y0148966D01*
X0082942Y0150568D01*
X0082942Y0152302D01*
X0082278Y0153904D01*
X0081052Y0155130D01*
X0079450Y0155794D01*
X0072566Y0155794D01*
X0070964Y0155130D01*
X0069738Y0153904D01*
X0069074Y0152302D01*
X0069074Y0150568D01*
X0069738Y0148966D01*
X0070964Y0147739D01*
X0072566Y0147076D01*
X0079450Y0147076D01*
X0081052Y0147739D01*
X0082040Y0148727D02*
X0100357Y0148727D01*
X0101232Y0150694D02*
X0082942Y0150694D01*
X0082793Y0152661D02*
X0101232Y0152661D01*
X0101232Y0154628D02*
X0081554Y0154628D01*
X0081052Y0157739D02*
X0079450Y0157076D01*
X0072566Y0157076D01*
X0070964Y0157739D01*
X0069738Y0158966D01*
X0069074Y0160568D01*
X0069074Y0162302D01*
X0069738Y0163904D01*
X0070964Y0165130D01*
X0072566Y0165794D01*
X0079450Y0165794D01*
X0081052Y0165130D01*
X0082278Y0163904D01*
X0082942Y0162302D01*
X0082942Y0160568D01*
X0082278Y0158966D01*
X0081052Y0157739D01*
X0081875Y0158562D02*
X0101232Y0158562D01*
X0101232Y0156595D02*
X0059542Y0156595D01*
X0059952Y0156765D02*
X0058341Y0156098D01*
X0051396Y0156098D01*
X0049785Y0156765D01*
X0048552Y0157998D01*
X0047884Y0159610D01*
X0047884Y0161354D01*
X0048552Y0162965D01*
X0049785Y0164199D01*
X0051396Y0164866D01*
X0058341Y0164866D01*
X0059952Y0164199D01*
X0061185Y0162965D01*
X0061853Y0161354D01*
X0061853Y0159610D01*
X0061185Y0157998D01*
X0059952Y0156765D01*
X0061419Y0158562D02*
X0070141Y0158562D01*
X0069090Y0160529D02*
X0061853Y0160529D01*
X0061380Y0162496D02*
X0069155Y0162496D01*
X0070297Y0164463D02*
X0059313Y0164463D01*
X0058341Y0166098D02*
X0059952Y0166765D01*
X0061185Y0167998D01*
X0061853Y0169610D01*
X0061853Y0171354D01*
X0061185Y0172965D01*
X0059952Y0174199D01*
X0058341Y0174866D01*
X0051396Y0174866D01*
X0049785Y0174199D01*
X0048552Y0172965D01*
X0047884Y0171354D01*
X0047884Y0169610D01*
X0048552Y0167998D01*
X0049785Y0166765D01*
X0051396Y0166098D01*
X0058341Y0166098D01*
X0059144Y0166430D02*
X0101232Y0166430D01*
X0101232Y0164463D02*
X0081719Y0164463D01*
X0082862Y0162496D02*
X0101232Y0162496D01*
X0101232Y0160529D02*
X0082926Y0160529D01*
X0079450Y0167076D02*
X0081052Y0167739D01*
X0082278Y0168966D01*
X0082942Y0170568D01*
X0082942Y0172302D01*
X0082278Y0173904D01*
X0081052Y0175130D01*
X0079450Y0175794D01*
X0072566Y0175794D01*
X0070964Y0175130D01*
X0069738Y0173904D01*
X0069074Y0172302D01*
X0069074Y0170568D01*
X0069738Y0168966D01*
X0070964Y0167739D01*
X0072566Y0167076D01*
X0079450Y0167076D01*
X0081710Y0168397D02*
X0101232Y0168397D01*
X0101232Y0170364D02*
X0082858Y0170364D01*
X0082930Y0172331D02*
X0101232Y0172331D01*
X0101232Y0174298D02*
X0081884Y0174298D01*
X0081052Y0177739D02*
X0082278Y0178966D01*
X0082942Y0180568D01*
X0082942Y0182302D01*
X0082278Y0183904D01*
X0081052Y0185130D01*
X0079450Y0185794D01*
X0072566Y0185794D01*
X0070964Y0185130D01*
X0069738Y0183904D01*
X0069074Y0182302D01*
X0069074Y0180568D01*
X0069738Y0178966D01*
X0070964Y0177739D01*
X0072566Y0177076D01*
X0079450Y0177076D01*
X0081052Y0177739D01*
X0081545Y0178232D02*
X0101232Y0178232D01*
X0101232Y0176265D02*
X0042431Y0176265D01*
X0041820Y0174298D02*
X0050026Y0174298D01*
X0048289Y0172331D02*
X0039090Y0172331D01*
X0038919Y0171029D02*
X0031974Y0171029D01*
X0030363Y0170361D01*
X0029130Y0169128D01*
X0028462Y0167517D01*
X0028462Y0165772D01*
X0029130Y0164161D01*
X0030363Y0162928D01*
X0031974Y0162260D01*
X0038919Y0162260D01*
X0040530Y0162928D01*
X0041763Y0164161D01*
X0042431Y0165772D01*
X0042431Y0167517D01*
X0041763Y0169128D01*
X0040530Y0170361D01*
X0038919Y0171029D01*
X0040523Y0170364D02*
X0047884Y0170364D01*
X0048387Y0168397D02*
X0042066Y0168397D01*
X0042431Y0166430D02*
X0050593Y0166430D01*
X0050424Y0164463D02*
X0041889Y0164463D01*
X0039488Y0162496D02*
X0048357Y0162496D01*
X0047884Y0160529D02*
X0040499Y0160529D01*
X0040449Y0160565D02*
X0039806Y0160893D01*
X0039120Y0161116D01*
X0038407Y0161229D01*
X0035447Y0161229D01*
X0035447Y0156645D01*
X0035446Y0156645D01*
X0035446Y0161229D01*
X0032486Y0161229D01*
X0031773Y0161116D01*
X0031087Y0160893D01*
X0030444Y0160565D01*
X0029860Y0160141D01*
X0029350Y0159631D01*
X0028926Y0159047D01*
X0028598Y0158404D01*
X0028375Y0157718D01*
X0028262Y0157005D01*
X0028262Y0156645D01*
X0035446Y0156645D01*
X0035446Y0156644D01*
X0035447Y0156644D01*
X0035447Y0156645D01*
X0042631Y0156645D01*
X0042631Y0157005D01*
X0042518Y0157718D01*
X0042295Y0158404D01*
X0041967Y0159047D01*
X0041543Y0159631D01*
X0041033Y0160141D01*
X0040449Y0160565D01*
X0042214Y0158562D02*
X0048318Y0158562D01*
X0050195Y0156595D02*
X0042631Y0156595D01*
X0042631Y0156644D02*
X0035447Y0156644D01*
X0035447Y0152060D01*
X0038407Y0152060D01*
X0039120Y0152173D01*
X0039806Y0152396D01*
X0040449Y0152724D01*
X0041033Y0153148D01*
X0041543Y0153658D01*
X0041967Y0154242D01*
X0042295Y0154885D01*
X0042518Y0155571D01*
X0042631Y0156284D01*
X0042631Y0156644D01*
X0042164Y0154628D02*
X0050822Y0154628D01*
X0051396Y0154866D02*
X0049785Y0154199D01*
X0048552Y0152965D01*
X0047884Y0151354D01*
X0047884Y0149610D01*
X0048552Y0147998D01*
X0049785Y0146765D01*
X0051396Y0146098D01*
X0058341Y0146098D01*
X0059952Y0146765D01*
X0061185Y0147998D01*
X0061853Y0149610D01*
X0061853Y0151354D01*
X0061185Y0152965D01*
X0059952Y0154199D01*
X0058341Y0154866D01*
X0051396Y0154866D01*
X0048426Y0152661D02*
X0040327Y0152661D01*
X0035447Y0152661D02*
X0035446Y0152661D01*
X0035446Y0152060D02*
X0035446Y0156644D01*
X0028262Y0156644D01*
X0028262Y0156284D01*
X0028375Y0155571D01*
X0028598Y0154885D01*
X0028926Y0154242D01*
X0029350Y0153658D01*
X0029860Y0153148D01*
X0030444Y0152724D01*
X0031087Y0152396D01*
X0031773Y0152173D01*
X0032486Y0152060D01*
X0035446Y0152060D01*
X0035446Y0154628D02*
X0035447Y0154628D01*
X0035446Y0156595D02*
X0035447Y0156595D01*
X0035446Y0158562D02*
X0035447Y0158562D01*
X0035446Y0160529D02*
X0035447Y0160529D01*
X0031405Y0162496D02*
X0011330Y0162496D01*
X0011330Y0160529D02*
X0030394Y0160529D01*
X0028679Y0158562D02*
X0011330Y0158562D01*
X0011330Y0156595D02*
X0028262Y0156595D01*
X0028729Y0154628D02*
X0011330Y0154628D01*
X0011330Y0152661D02*
X0030567Y0152661D01*
X0029005Y0164463D02*
X0011330Y0164463D01*
X0011330Y0166430D02*
X0028462Y0166430D01*
X0028827Y0168397D02*
X0011715Y0168397D01*
X0013682Y0170364D02*
X0030370Y0170364D01*
X0031803Y0172331D02*
X0015649Y0172331D01*
X0017616Y0174298D02*
X0029073Y0174298D01*
X0028462Y0176265D02*
X0019583Y0176265D01*
X0021550Y0178232D02*
X0028759Y0178232D01*
X0030201Y0180199D02*
X0023518Y0180199D01*
X0025485Y0182166D02*
X0037891Y0182166D01*
X0035924Y0184133D02*
X0027452Y0184133D01*
X0029419Y0186100D02*
X0033957Y0186100D01*
X0031990Y0188067D02*
X0031386Y0188067D01*
X0039916Y0195936D02*
X0051416Y0195936D01*
X0049449Y0197903D02*
X0041221Y0197903D01*
X0043188Y0199870D02*
X0047482Y0199870D01*
X0045515Y0201837D02*
X0045155Y0201837D01*
X0041883Y0193969D02*
X0053383Y0193969D01*
X0055350Y0192002D02*
X0043850Y0192002D01*
X0045817Y0190035D02*
X0069295Y0190035D01*
X0069074Y0190568D02*
X0069738Y0188966D01*
X0070964Y0187739D01*
X0072566Y0187076D01*
X0079450Y0187076D01*
X0081052Y0187739D01*
X0082278Y0188966D01*
X0082942Y0190568D01*
X0082942Y0190718D01*
X0086989Y0186672D01*
X0086989Y0186312D01*
X0087534Y0184995D01*
X0088543Y0183986D01*
X0089860Y0183441D01*
X0091286Y0183441D01*
X0092603Y0183986D01*
X0093611Y0184995D01*
X0094157Y0186312D01*
X0094157Y0187738D01*
X0093611Y0189055D01*
X0092603Y0190063D01*
X0091286Y0190609D01*
X0090926Y0190609D01*
X0080532Y0201004D01*
X0079748Y0201787D01*
X0078725Y0202211D01*
X0078291Y0202211D01*
X0078036Y0202465D01*
X0076719Y0203011D01*
X0075293Y0203011D01*
X0073976Y0202465D01*
X0072967Y0201457D01*
X0072422Y0200139D01*
X0072422Y0198713D01*
X0072967Y0197396D01*
X0073976Y0196388D01*
X0075293Y0195842D01*
X0076719Y0195842D01*
X0077496Y0196164D01*
X0077866Y0195794D01*
X0072566Y0195794D01*
X0070964Y0195130D01*
X0069738Y0193904D01*
X0069074Y0192302D01*
X0069074Y0190568D01*
X0069074Y0192002D02*
X0057291Y0192002D01*
X0059258Y0193969D02*
X0069802Y0193969D01*
X0072758Y0197903D02*
X0063192Y0197903D01*
X0063277Y0199870D02*
X0072422Y0199870D01*
X0073347Y0201837D02*
X0061310Y0201837D01*
X0059343Y0203804D02*
X0081274Y0203804D01*
X0080308Y0205771D02*
X0057376Y0205771D01*
X0055409Y0207738D02*
X0080308Y0207738D01*
X0080308Y0209705D02*
X0053442Y0209705D01*
X0054990Y0211672D02*
X0080308Y0211672D01*
X0080308Y0213639D02*
X0056957Y0213639D01*
X0058924Y0215606D02*
X0080308Y0215606D01*
X0080308Y0217573D02*
X0060891Y0217573D01*
X0062858Y0219540D02*
X0080308Y0219540D01*
X0080308Y0221507D02*
X0064825Y0221507D01*
X0066792Y0223474D02*
X0080308Y0223474D01*
X0080308Y0225441D02*
X0068759Y0225441D01*
X0070726Y0227408D02*
X0080308Y0227408D01*
X0080308Y0229375D02*
X0072693Y0229375D01*
X0074660Y0231342D02*
X0080308Y0231342D01*
X0085877Y0231342D02*
X0105332Y0231342D01*
X0105332Y0231697D02*
X0105332Y0217383D01*
X0106377Y0216337D01*
X0115455Y0216337D01*
X0116500Y0217383D01*
X0116500Y0231697D01*
X0124632Y0231697D01*
X0124632Y0217383D01*
X0125677Y0216337D01*
X0134755Y0216337D01*
X0135800Y0217383D01*
X0135800Y0231697D01*
X0166400Y0231697D01*
X0187494Y0210604D01*
X0177735Y0200846D01*
X0177735Y0199368D01*
X0184155Y0192948D01*
X0185633Y0192948D01*
X0195391Y0202707D01*
X0201141Y0196957D01*
X0191383Y0187199D01*
X0191383Y0185720D01*
X0197802Y0179301D01*
X0199280Y0179301D01*
X0209038Y0189060D01*
X0231505Y0166593D01*
X0231505Y0137043D01*
X0217183Y0137043D01*
X0216137Y0135998D01*
X0216137Y0126919D01*
X0217183Y0125874D01*
X0231505Y0125874D01*
X0231505Y0117743D01*
X0217183Y0117743D01*
X0216137Y0116698D01*
X0216137Y0107619D01*
X0217183Y0106574D01*
X0231505Y0106574D01*
X0231505Y0094140D01*
X0219039Y0094140D01*
X0218784Y0094394D01*
X0217467Y0094940D01*
X0216041Y0094940D01*
X0214724Y0094394D01*
X0213715Y0093386D01*
X0213170Y0092069D01*
X0213170Y0090643D01*
X0213715Y0089325D01*
X0214724Y0088317D01*
X0216041Y0087771D01*
X0217467Y0087771D01*
X0218784Y0088317D01*
X0219039Y0088571D01*
X0231505Y0088571D01*
X0231505Y0075861D01*
X0210143Y0054499D01*
X0200208Y0064435D01*
X0198730Y0064435D01*
X0192311Y0058015D01*
X0192311Y0056537D01*
X0202246Y0046602D01*
X0196496Y0040852D01*
X0186561Y0050787D01*
X0185083Y0050787D01*
X0178664Y0044368D01*
X0178664Y0042890D01*
X0188599Y0032955D01*
X0166500Y0010856D01*
X0136831Y0010856D01*
X0136831Y0025022D01*
X0139388Y0025022D01*
X0139951Y0024460D01*
X0139312Y0023821D01*
X0139312Y0018406D01*
X0140357Y0017361D01*
X0146166Y0017361D01*
X0147134Y0018329D01*
X0149400Y0018329D01*
X0149768Y0017961D01*
X0154395Y0017961D01*
X0155441Y0019007D01*
X0155441Y0023634D01*
X0154802Y0024273D01*
X0154970Y0024442D01*
X0157719Y0024442D01*
X0157931Y0024230D01*
X0157293Y0023591D01*
X0157293Y0018963D01*
X0158338Y0017918D01*
X0162966Y0017918D01*
X0163540Y0018493D01*
X0164653Y0018493D01*
X0165621Y0017524D01*
X0171430Y0017524D01*
X0172475Y0018569D01*
X0172475Y0023984D01*
X0171836Y0024623D01*
X0172475Y0025262D01*
X0172475Y0030677D01*
X0171430Y0031722D01*
X0168710Y0031722D01*
X0166616Y0033817D01*
X0165593Y0034241D01*
X0165591Y0034241D01*
X0165304Y0034359D01*
X0136940Y0034359D01*
X0136664Y0034635D01*
X0136664Y0046654D01*
X0139482Y0049472D01*
X0140266Y0050256D01*
X0140297Y0050331D01*
X0157050Y0067084D01*
X0157474Y0068107D01*
X0157474Y0102990D01*
X0157050Y0104013D01*
X0156267Y0104796D01*
X0149393Y0111669D01*
X0154518Y0111669D01*
X0159074Y0111669D01*
X0159074Y0110568D01*
X0159738Y0108966D01*
X0160964Y0107739D01*
X0162566Y0107076D01*
X0169450Y0107076D01*
X0171052Y0107739D01*
X0172278Y0108966D01*
X0172942Y0110568D01*
X0172942Y0112302D01*
X0172278Y0113904D01*
X0171052Y0115130D01*
X0169450Y0115794D01*
X0162566Y0115794D01*
X0161502Y0115353D01*
X0161502Y0117517D01*
X0162566Y0117076D01*
X0169450Y0117076D01*
X0171052Y0117739D01*
X0172278Y0118966D01*
X0172942Y0120568D01*
X0172942Y0122302D01*
X0172278Y0123904D01*
X0171052Y0125130D01*
X0169450Y0125794D01*
X0162566Y0125794D01*
X0160964Y0125130D01*
X0160906Y0125072D01*
X0160736Y0125242D01*
X0160284Y0125503D01*
X0159779Y0125638D01*
X0154518Y0125638D01*
X0154518Y0118654D01*
X0154518Y0118654D01*
X0154518Y0125638D01*
X0149256Y0125638D01*
X0148752Y0125503D01*
X0148299Y0125242D01*
X0147930Y0124872D01*
X0147669Y0124420D01*
X0147533Y0123915D01*
X0147533Y0118654D01*
X0154518Y0118654D01*
X0154518Y0111669D01*
X0154518Y0118654D01*
X0154518Y0118654D01*
X0154518Y0118654D01*
X0147533Y0118654D01*
X0147533Y0113529D01*
X0132865Y0128198D01*
X0132865Y0138286D01*
X0133031Y0138120D01*
X0134348Y0137574D01*
X0135774Y0137574D01*
X0137091Y0138120D01*
X0138100Y0139128D01*
X0138645Y0140446D01*
X0138645Y0141872D01*
X0138100Y0143189D01*
X0137845Y0143443D01*
X0137845Y0148880D01*
X0138243Y0149278D01*
X0138243Y0155874D01*
X0137198Y0156919D01*
X0135038Y0156919D01*
X0136058Y0157939D01*
X0136058Y0168866D01*
X0135238Y0169686D01*
X0136720Y0169686D01*
X0137225Y0169821D01*
X0137677Y0170083D01*
X0138047Y0170452D01*
X0138308Y0170905D01*
X0138443Y0171409D01*
X0138443Y0174229D01*
X0135081Y0174229D01*
X0135081Y0174230D01*
X0135081Y0174230D01*
X0135081Y0178773D01*
X0136720Y0178773D01*
X0137225Y0178638D01*
X0137677Y0178376D01*
X0138047Y0178007D01*
X0138308Y0177555D01*
X0138443Y0177050D01*
X0138443Y0174230D01*
X0135081Y0174230D01*
X0135081Y0178773D01*
X0133442Y0178773D01*
X0132937Y0178638D01*
X0132860Y0178594D01*
X0132441Y0179606D01*
X0131658Y0180389D01*
X0131658Y0180389D01*
X0128971Y0183076D01*
X0128971Y0185795D01*
X0128474Y0186293D01*
X0128775Y0186594D01*
X0129036Y0187046D01*
X0129171Y0187551D01*
X0129171Y0189781D01*
X0129171Y0192010D01*
X0129116Y0192217D01*
X0142074Y0192217D01*
X0143288Y0191002D01*
X0143288Y0190643D01*
X0143834Y0189325D01*
X0144842Y0188317D01*
X0146159Y0187771D01*
X0147585Y0187771D01*
X0148902Y0188317D01*
X0149530Y0188945D01*
X0149193Y0188131D01*
X0149193Y0186706D01*
X0149739Y0185388D01*
X0150030Y0185097D01*
X0149702Y0185097D01*
X0148385Y0184552D01*
X0147377Y0183543D01*
X0146831Y0182226D01*
X0146831Y0180800D01*
X0147377Y0179483D01*
X0147631Y0179228D01*
X0147631Y0171396D01*
X0147377Y0171142D01*
X0146831Y0169824D01*
X0146831Y0168398D01*
X0147377Y0167081D01*
X0148385Y0166073D01*
X0149702Y0165527D01*
X0151128Y0165527D01*
X0152446Y0166073D01*
X0153454Y0167081D01*
X0154000Y0168398D01*
X0154000Y0169824D01*
X0153454Y0171142D01*
X0153200Y0171396D01*
X0153200Y0178729D01*
X0154572Y0178729D01*
X0155595Y0179153D01*
X0158938Y0182496D01*
X0159362Y0183519D01*
X0159362Y0189874D01*
X0159738Y0188966D01*
X0160964Y0187739D01*
X0162566Y0187076D01*
X0169450Y0187076D01*
X0171052Y0187739D01*
X0171269Y0187956D01*
X0171269Y0184913D01*
X0171052Y0185130D01*
X0169450Y0185794D01*
X0162566Y0185794D01*
X0160964Y0185130D01*
X0159738Y0183904D01*
X0159074Y0182302D01*
X0159074Y0180568D01*
X0159738Y0178966D01*
X0160964Y0177739D01*
X0162566Y0177076D01*
X0169450Y0177076D01*
X0171052Y0177739D01*
X0171269Y0177956D01*
X0171269Y0174913D01*
X0171052Y0175130D01*
X0169450Y0175794D01*
X0162566Y0175794D01*
X0160964Y0175130D01*
X0159738Y0173904D01*
X0159074Y0172302D01*
X0159074Y0170568D01*
X0159738Y0168966D01*
X0160964Y0167739D01*
X0162566Y0167076D01*
X0169450Y0167076D01*
X0171052Y0167739D01*
X0172278Y0168966D01*
X0172606Y0169755D01*
X0187592Y0154769D01*
X0187592Y0150073D01*
X0187152Y0150255D01*
X0185726Y0150255D01*
X0184409Y0149709D01*
X0184154Y0149455D01*
X0172481Y0149455D01*
X0172942Y0150568D01*
X0172942Y0152302D01*
X0172278Y0153904D01*
X0171052Y0155130D01*
X0169450Y0155794D01*
X0162566Y0155794D01*
X0160964Y0155130D01*
X0159738Y0153904D01*
X0159074Y0152302D01*
X0159074Y0150568D01*
X0159535Y0149455D01*
X0157424Y0149455D01*
X0157170Y0149709D01*
X0155853Y0150255D01*
X0154427Y0150255D01*
X0153110Y0149709D01*
X0152101Y0148701D01*
X0151556Y0147383D01*
X0151556Y0145958D01*
X0152101Y0144640D01*
X0153110Y0143632D01*
X0154427Y0143086D01*
X0155853Y0143086D01*
X0157170Y0143632D01*
X0157424Y0143886D01*
X0159731Y0143886D01*
X0159074Y0142302D01*
X0159074Y0140568D01*
X0159738Y0138966D01*
X0160964Y0137739D01*
X0162566Y0137076D01*
X0169450Y0137076D01*
X0171052Y0137739D01*
X0172278Y0138966D01*
X0172942Y0140568D01*
X0172942Y0142302D01*
X0172286Y0143886D01*
X0184154Y0143886D01*
X0184409Y0143632D01*
X0185726Y0143086D01*
X0187152Y0143086D01*
X0187592Y0143268D01*
X0187592Y0141849D01*
X0188016Y0140826D01*
X0188799Y0140043D01*
X0192113Y0136729D01*
X0193136Y0136305D01*
X0198576Y0136305D01*
X0205693Y0129187D01*
X0205693Y0085294D01*
X0200702Y0080302D01*
X0200787Y0080843D01*
X0200787Y0081219D01*
X0192819Y0081219D01*
X0192819Y0076251D01*
X0196195Y0076251D01*
X0196736Y0076336D01*
X0172872Y0052472D01*
X0172278Y0053904D01*
X0171052Y0055130D01*
X0169450Y0055794D01*
X0162566Y0055794D01*
X0161502Y0055353D01*
X0161502Y0056915D01*
X0161382Y0057363D01*
X0161683Y0057210D01*
X0162366Y0056988D01*
X0163075Y0056876D01*
X0166008Y0056876D01*
X0166008Y0061435D01*
X0166008Y0061435D01*
X0158874Y0061435D01*
X0158874Y0061794D01*
X0158987Y0062502D01*
X0159208Y0063185D01*
X0159534Y0063824D01*
X0159956Y0064405D01*
X0160463Y0064912D01*
X0161044Y0065334D01*
X0161683Y0065660D01*
X0162366Y0065882D01*
X0163075Y0065994D01*
X0166008Y0065994D01*
X0166008Y0061435D01*
X0166008Y0061435D01*
X0158874Y0061435D01*
X0158874Y0061076D01*
X0158987Y0060367D01*
X0159208Y0059685D01*
X0159534Y0059045D01*
X0159842Y0058621D01*
X0159779Y0058638D01*
X0154518Y0058638D01*
X0154518Y0051654D01*
X0154518Y0051654D01*
X0154518Y0058638D01*
X0149256Y0058638D01*
X0148752Y0058503D01*
X0148299Y0058242D01*
X0147930Y0057872D01*
X0147669Y0057420D01*
X0147533Y0056915D01*
X0147533Y0051654D01*
X0154518Y0051654D01*
X0154518Y0044669D01*
X0159779Y0044669D01*
X0160284Y0044805D01*
X0160736Y0045066D01*
X0161105Y0045435D01*
X0161367Y0045888D01*
X0161502Y0046392D01*
X0161502Y0047517D01*
X0162566Y0047076D01*
X0167475Y0047076D01*
X0161390Y0040990D01*
X0144629Y0040990D01*
X0144375Y0041245D01*
X0143058Y0041790D01*
X0141632Y0041790D01*
X0140314Y0041245D01*
X0139306Y0040236D01*
X0138760Y0038919D01*
X0138760Y0037493D01*
X0139306Y0036176D01*
X0140314Y0035167D01*
X0141632Y0034622D01*
X0143058Y0034622D01*
X0144375Y0035167D01*
X0144629Y0035422D01*
X0163097Y0035422D01*
X0164120Y0035846D01*
X0164903Y0036629D01*
X0210055Y0081780D01*
X0210838Y0082564D01*
X0211262Y0083587D01*
X0211262Y0117750D01*
X0211271Y0117770D01*
X0211271Y0118878D01*
X0211262Y0118899D01*
X0211262Y0130894D01*
X0210838Y0131918D01*
X0201306Y0141450D01*
X0201068Y0141548D01*
X0201643Y0142938D01*
X0201643Y0150841D01*
X0200915Y0152599D01*
X0199569Y0153945D01*
X0197811Y0154674D01*
X0195907Y0154674D01*
X0194149Y0153945D01*
X0193160Y0152957D01*
X0193160Y0156476D01*
X0192736Y0157500D01*
X0191953Y0158283D01*
X0176837Y0173399D01*
X0176837Y0198961D01*
X0176414Y0199984D01*
X0166737Y0209661D01*
X0165713Y0210085D01*
X0116086Y0210085D01*
X0115832Y0210339D01*
X0114514Y0210885D01*
X0113088Y0210885D01*
X0111771Y0210339D01*
X0110763Y0209331D01*
X0110217Y0208013D01*
X0110217Y0206587D01*
X0110490Y0205929D01*
X0109619Y0205929D01*
X0108596Y0205505D01*
X0107813Y0204722D01*
X0101656Y0198566D01*
X0101232Y0197542D01*
X0101232Y0192256D01*
X0100932Y0192381D01*
X0100572Y0192381D01*
X0085877Y0207076D01*
X0085877Y0231697D01*
X0105332Y0231697D01*
X0105332Y0229375D02*
X0085877Y0229375D01*
X0085877Y0227408D02*
X0105332Y0227408D01*
X0105332Y0225441D02*
X0085877Y0225441D01*
X0085877Y0223474D02*
X0105332Y0223474D01*
X0105332Y0221507D02*
X0085877Y0221507D01*
X0085877Y0219540D02*
X0105332Y0219540D01*
X0105332Y0217573D02*
X0085877Y0217573D01*
X0085877Y0215606D02*
X0182492Y0215606D01*
X0180525Y0217573D02*
X0135800Y0217573D01*
X0135800Y0219540D02*
X0178558Y0219540D01*
X0176591Y0221507D02*
X0135800Y0221507D01*
X0135800Y0223474D02*
X0174624Y0223474D01*
X0172657Y0225441D02*
X0135800Y0225441D01*
X0135800Y0227408D02*
X0170690Y0227408D01*
X0168723Y0229375D02*
X0135800Y0229375D01*
X0135800Y0231342D02*
X0166756Y0231342D01*
X0184459Y0213639D02*
X0085877Y0213639D01*
X0085877Y0211672D02*
X0186426Y0211672D01*
X0186594Y0209705D02*
X0166631Y0209705D01*
X0168660Y0207738D02*
X0184627Y0207738D01*
X0182660Y0205771D02*
X0170627Y0205771D01*
X0172594Y0203804D02*
X0180693Y0203804D01*
X0178726Y0201837D02*
X0174561Y0201837D01*
X0176461Y0199870D02*
X0177735Y0199870D01*
X0176837Y0197903D02*
X0179200Y0197903D01*
X0181167Y0195936D02*
X0176837Y0195936D01*
X0176837Y0193969D02*
X0183134Y0193969D01*
X0186653Y0193969D02*
X0198152Y0193969D01*
X0196185Y0192002D02*
X0176837Y0192002D01*
X0176837Y0190035D02*
X0194218Y0190035D01*
X0192251Y0188067D02*
X0176837Y0188067D01*
X0176837Y0186100D02*
X0191383Y0186100D01*
X0192969Y0184133D02*
X0176837Y0184133D01*
X0176837Y0182166D02*
X0194937Y0182166D01*
X0196904Y0180199D02*
X0176837Y0180199D01*
X0176837Y0178232D02*
X0204843Y0178232D01*
X0204501Y0179059D02*
X0205275Y0177190D01*
X0206705Y0175760D01*
X0208574Y0174986D01*
X0209887Y0174986D01*
X0208181Y0174226D01*
X0207490Y0173778D01*
X0206878Y0173226D01*
X0206360Y0172586D01*
X0205948Y0171873D01*
X0205653Y0171104D01*
X0205481Y0170299D01*
X0205438Y0169476D01*
X0205524Y0168657D01*
X0205738Y0167862D01*
X0205865Y0167575D01*
X0213522Y0170985D01*
X0213602Y0170805D01*
X0205945Y0167396D01*
X0206073Y0167109D01*
X0206521Y0166419D01*
X0207072Y0165807D01*
X0207712Y0165288D01*
X0208426Y0164876D01*
X0209194Y0164581D01*
X0210000Y0164410D01*
X0210822Y0164367D01*
X0211581Y0164447D01*
X0210413Y0163216D01*
X0210013Y0162174D01*
X0206558Y0158719D01*
X0206199Y0158719D01*
X0204881Y0158174D01*
X0203873Y0157165D01*
X0203327Y0155848D01*
X0203327Y0154422D01*
X0203708Y0153504D01*
X0202803Y0152599D01*
X0202075Y0150841D01*
X0202075Y0142938D01*
X0202803Y0141179D01*
X0204149Y0139834D01*
X0205907Y0139105D01*
X0207811Y0139105D01*
X0209569Y0139834D01*
X0210915Y0141179D01*
X0211643Y0142938D01*
X0211643Y0150841D01*
X0210915Y0152599D01*
X0210085Y0153430D01*
X0210496Y0154422D01*
X0210496Y0154782D01*
X0211932Y0156218D01*
X0212014Y0156139D01*
X0213883Y0155421D01*
X0215800Y0155472D01*
X0214480Y0154081D01*
X0213763Y0152212D01*
X0213815Y0150210D01*
X0214630Y0148382D01*
X0216082Y0147003D01*
X0217951Y0146286D01*
X0219952Y0146338D01*
X0222696Y0147560D01*
X0221544Y0146408D01*
X0220770Y0144540D01*
X0220770Y0142517D01*
X0221544Y0140648D01*
X0222974Y0139218D01*
X0224843Y0138444D01*
X0226866Y0138444D01*
X0228734Y0139218D01*
X0230165Y0140648D01*
X0230939Y0142517D01*
X0230939Y0144540D01*
X0230165Y0146408D01*
X0228734Y0147839D01*
X0226866Y0148613D01*
X0225060Y0148613D01*
X0227715Y0149795D01*
X0229094Y0151247D01*
X0229811Y0153116D01*
X0229759Y0155117D01*
X0228944Y0156946D01*
X0227492Y0158324D01*
X0225623Y0159042D01*
X0223706Y0158991D01*
X0225026Y0160382D01*
X0225744Y0162251D01*
X0225691Y0164253D01*
X0224877Y0166082D01*
X0223425Y0167460D01*
X0221556Y0168177D01*
X0219860Y0168133D01*
X0220427Y0168643D01*
X0220945Y0169283D01*
X0221357Y0169996D01*
X0221652Y0170765D01*
X0221823Y0171571D01*
X0221866Y0172393D01*
X0221780Y0173212D01*
X0221567Y0174008D01*
X0221439Y0174294D01*
X0213782Y0170885D01*
X0213702Y0171065D01*
X0221359Y0174474D01*
X0221232Y0174760D01*
X0220783Y0175451D01*
X0220232Y0176063D01*
X0219592Y0176581D01*
X0218879Y0176993D01*
X0218110Y0177288D01*
X0217305Y0177459D01*
X0216482Y0177502D01*
X0215663Y0177416D01*
X0214868Y0177203D01*
X0213138Y0176433D01*
X0213895Y0177190D01*
X0214669Y0179059D01*
X0214669Y0181082D01*
X0213895Y0182950D01*
X0212465Y0184380D01*
X0210596Y0185154D01*
X0208574Y0185154D01*
X0206705Y0184380D01*
X0205275Y0182950D01*
X0204501Y0181082D01*
X0204501Y0179059D01*
X0204501Y0180199D02*
X0200178Y0180199D01*
X0202145Y0182166D02*
X0204950Y0182166D01*
X0204112Y0184133D02*
X0206458Y0184133D01*
X0206079Y0186100D02*
X0211997Y0186100D01*
X0212712Y0184133D02*
X0213964Y0184133D01*
X0214220Y0182166D02*
X0215931Y0182166D01*
X0214669Y0180199D02*
X0217898Y0180199D01*
X0219865Y0178232D02*
X0214327Y0178232D01*
X0219982Y0176265D02*
X0221832Y0176265D01*
X0220965Y0174298D02*
X0223799Y0174298D01*
X0221863Y0172331D02*
X0225766Y0172331D01*
X0227733Y0170364D02*
X0221498Y0170364D01*
X0220154Y0168397D02*
X0229700Y0168397D01*
X0231505Y0166430D02*
X0224510Y0166430D01*
X0225597Y0164463D02*
X0231505Y0164463D01*
X0231505Y0162496D02*
X0225737Y0162496D01*
X0225083Y0160529D02*
X0231505Y0160529D01*
X0231505Y0158562D02*
X0226872Y0158562D01*
X0229101Y0156595D02*
X0231505Y0156595D01*
X0231505Y0154628D02*
X0229771Y0154628D01*
X0229636Y0152661D02*
X0231505Y0152661D01*
X0231505Y0150694D02*
X0228569Y0150694D01*
X0231505Y0148727D02*
X0225317Y0148727D01*
X0221896Y0146760D02*
X0220899Y0146760D01*
X0220875Y0144793D02*
X0211643Y0144793D01*
X0211643Y0146760D02*
X0216716Y0146760D01*
X0214476Y0148727D02*
X0211643Y0148727D01*
X0211643Y0150694D02*
X0213803Y0150694D01*
X0213936Y0152661D02*
X0210853Y0152661D01*
X0210496Y0154628D02*
X0215000Y0154628D01*
X0208368Y0160529D02*
X0189707Y0160529D01*
X0191674Y0158562D02*
X0205819Y0158562D01*
X0203637Y0156595D02*
X0193111Y0156595D01*
X0193160Y0154628D02*
X0195798Y0154628D01*
X0197920Y0154628D02*
X0203327Y0154628D01*
X0202865Y0152661D02*
X0200853Y0152661D01*
X0201643Y0150694D02*
X0202075Y0150694D01*
X0202075Y0148727D02*
X0201643Y0148727D01*
X0201643Y0146760D02*
X0202075Y0146760D01*
X0202075Y0144793D02*
X0201643Y0144793D01*
X0201597Y0142826D02*
X0202121Y0142826D01*
X0201897Y0140859D02*
X0203123Y0140859D01*
X0203864Y0138892D02*
X0223762Y0138892D01*
X0221457Y0140859D02*
X0210595Y0140859D01*
X0211597Y0142826D02*
X0220770Y0142826D01*
X0217065Y0136925D02*
X0205831Y0136925D01*
X0207798Y0134958D02*
X0216137Y0134958D01*
X0216137Y0132991D02*
X0209765Y0132991D01*
X0211208Y0131024D02*
X0216137Y0131024D01*
X0216137Y0129057D02*
X0211262Y0129057D01*
X0211262Y0127090D02*
X0216137Y0127090D01*
X0211262Y0125123D02*
X0231505Y0125123D01*
X0231505Y0123156D02*
X0211262Y0123156D01*
X0211262Y0121189D02*
X0231505Y0121189D01*
X0231505Y0119222D02*
X0211262Y0119222D01*
X0211262Y0117255D02*
X0216695Y0117255D01*
X0216137Y0115288D02*
X0211262Y0115288D01*
X0211262Y0113321D02*
X0216137Y0113321D01*
X0216137Y0111354D02*
X0211262Y0111354D01*
X0211262Y0109387D02*
X0216137Y0109387D01*
X0216337Y0107420D02*
X0211262Y0107420D01*
X0211262Y0105453D02*
X0231505Y0105453D01*
X0231505Y0103486D02*
X0211262Y0103486D01*
X0211262Y0101519D02*
X0231505Y0101519D01*
X0231505Y0099552D02*
X0211262Y0099552D01*
X0211262Y0097585D02*
X0231505Y0097585D01*
X0231505Y0095618D02*
X0211262Y0095618D01*
X0211262Y0093651D02*
X0213980Y0093651D01*
X0213170Y0091684D02*
X0211262Y0091684D01*
X0211262Y0089717D02*
X0213553Y0089717D01*
X0211262Y0087750D02*
X0231505Y0087750D01*
X0231505Y0085783D02*
X0211262Y0085783D01*
X0211262Y0083816D02*
X0231505Y0083816D01*
X0231505Y0081849D02*
X0210123Y0081849D01*
X0208156Y0079882D02*
X0231505Y0079882D01*
X0231505Y0077915D02*
X0206189Y0077915D01*
X0204222Y0075948D02*
X0231505Y0075948D01*
X0229625Y0073981D02*
X0202255Y0073981D01*
X0200288Y0072014D02*
X0227658Y0072014D01*
X0225691Y0070047D02*
X0198321Y0070047D01*
X0196354Y0068080D02*
X0223724Y0068080D01*
X0221757Y0066113D02*
X0194387Y0066113D01*
X0192420Y0064146D02*
X0198441Y0064146D01*
X0200497Y0064146D02*
X0219790Y0064146D01*
X0217823Y0062179D02*
X0202464Y0062179D01*
X0204431Y0060212D02*
X0215856Y0060212D01*
X0213889Y0058244D02*
X0206398Y0058244D01*
X0208365Y0056277D02*
X0211922Y0056277D01*
X0202087Y0046442D02*
X0190906Y0046442D01*
X0192873Y0044475D02*
X0200120Y0044475D01*
X0198152Y0042508D02*
X0194840Y0042508D01*
X0200439Y0048409D02*
X0188939Y0048409D01*
X0186972Y0050376D02*
X0198472Y0050376D01*
X0196505Y0052343D02*
X0180618Y0052343D01*
X0178651Y0050376D02*
X0184672Y0050376D01*
X0182705Y0048409D02*
X0176684Y0048409D01*
X0174717Y0046442D02*
X0180738Y0046442D01*
X0178771Y0044475D02*
X0172750Y0044475D01*
X0170783Y0042508D02*
X0179045Y0042508D01*
X0181012Y0040541D02*
X0168816Y0040541D01*
X0166849Y0038574D02*
X0182979Y0038574D01*
X0184946Y0036607D02*
X0164882Y0036607D01*
X0167760Y0032673D02*
X0188317Y0032673D01*
X0186913Y0034640D02*
X0143102Y0034640D01*
X0141587Y0034640D02*
X0136664Y0034640D01*
X0136664Y0036607D02*
X0139127Y0036607D01*
X0138760Y0038574D02*
X0136664Y0038574D01*
X0136664Y0040541D02*
X0139611Y0040541D01*
X0136664Y0042508D02*
X0162908Y0042508D01*
X0164875Y0044475D02*
X0136664Y0044475D01*
X0136664Y0046442D02*
X0147533Y0046442D01*
X0147533Y0046392D02*
X0147669Y0045888D01*
X0147930Y0045435D01*
X0148299Y0045066D01*
X0148752Y0044805D01*
X0149256Y0044669D01*
X0154518Y0044669D01*
X0154518Y0051654D01*
X0154518Y0051654D01*
X0154518Y0051654D01*
X0147533Y0051654D01*
X0147533Y0046392D01*
X0147533Y0048409D02*
X0138419Y0048409D01*
X0140342Y0050376D02*
X0147533Y0050376D01*
X0147533Y0052343D02*
X0142309Y0052343D01*
X0144276Y0054310D02*
X0147533Y0054310D01*
X0147533Y0056277D02*
X0146243Y0056277D01*
X0148210Y0058244D02*
X0148304Y0058244D01*
X0150177Y0060212D02*
X0159037Y0060212D01*
X0158935Y0062179D02*
X0152144Y0062179D01*
X0154111Y0064146D02*
X0159768Y0064146D01*
X0160964Y0067739D02*
X0162566Y0067076D01*
X0169450Y0067076D01*
X0171052Y0067739D01*
X0172278Y0068966D01*
X0172942Y0070568D01*
X0172942Y0072302D01*
X0172278Y0073904D01*
X0171052Y0075130D01*
X0169450Y0075794D01*
X0162566Y0075794D01*
X0160964Y0075130D01*
X0159738Y0073904D01*
X0159074Y0072302D01*
X0159074Y0070568D01*
X0159738Y0068966D01*
X0160964Y0067739D01*
X0160624Y0068080D02*
X0157462Y0068080D01*
X0157474Y0070047D02*
X0159290Y0070047D01*
X0159074Y0072014D02*
X0157474Y0072014D01*
X0157474Y0073981D02*
X0159815Y0073981D01*
X0157474Y0075948D02*
X0196347Y0075948D01*
X0194380Y0073981D02*
X0172202Y0073981D01*
X0172942Y0072014D02*
X0192413Y0072014D01*
X0190446Y0070047D02*
X0172726Y0070047D01*
X0171392Y0068080D02*
X0188479Y0068080D01*
X0186512Y0066113D02*
X0156078Y0066113D01*
X0154518Y0058244D02*
X0154518Y0058244D01*
X0154518Y0056277D02*
X0154518Y0056277D01*
X0154518Y0054310D02*
X0154518Y0054310D01*
X0154518Y0052343D02*
X0154518Y0052343D01*
X0154518Y0050376D02*
X0154518Y0050376D01*
X0154518Y0048409D02*
X0154518Y0048409D01*
X0154518Y0046442D02*
X0154518Y0046442D01*
X0161502Y0046442D02*
X0166842Y0046442D01*
X0171872Y0054310D02*
X0174710Y0054310D01*
X0176677Y0056277D02*
X0161502Y0056277D01*
X0166008Y0056876D02*
X0168942Y0056876D01*
X0169651Y0056988D01*
X0170333Y0057210D01*
X0170972Y0057536D01*
X0171553Y0057957D01*
X0172060Y0058465D01*
X0172482Y0059045D01*
X0172808Y0059685D01*
X0173030Y0060367D01*
X0173142Y0061076D01*
X0173142Y0061435D01*
X0173142Y0061794D01*
X0173030Y0062502D01*
X0172808Y0063185D01*
X0172482Y0063824D01*
X0172060Y0064405D01*
X0171553Y0064912D01*
X0170972Y0065334D01*
X0170333Y0065660D01*
X0169651Y0065882D01*
X0168942Y0065994D01*
X0166008Y0065994D01*
X0166008Y0061435D01*
X0166008Y0061435D01*
X0173142Y0061435D01*
X0166008Y0061435D01*
X0166008Y0061435D01*
X0166008Y0056876D01*
X0166008Y0058244D02*
X0166008Y0058244D01*
X0166008Y0060212D02*
X0166008Y0060212D01*
X0166008Y0062179D02*
X0166008Y0062179D01*
X0166008Y0064146D02*
X0166008Y0064146D01*
X0172249Y0064146D02*
X0184545Y0064146D01*
X0182578Y0062179D02*
X0173081Y0062179D01*
X0172979Y0060212D02*
X0180611Y0060212D01*
X0178644Y0058244D02*
X0171840Y0058244D01*
X0182585Y0054310D02*
X0194538Y0054310D01*
X0192571Y0056277D02*
X0184552Y0056277D01*
X0186519Y0058244D02*
X0192540Y0058244D01*
X0194507Y0060212D02*
X0188486Y0060212D01*
X0190453Y0062179D02*
X0196474Y0062179D01*
X0192787Y0076251D02*
X0189411Y0076251D01*
X0188636Y0076374D01*
X0187890Y0076616D01*
X0187191Y0076972D01*
X0186556Y0077433D01*
X0186001Y0077988D01*
X0185540Y0078623D01*
X0185184Y0079322D01*
X0184942Y0080068D01*
X0184819Y0080843D01*
X0184819Y0081219D01*
X0192787Y0081219D01*
X0192787Y0081251D01*
X0184819Y0081251D01*
X0184819Y0081627D01*
X0184942Y0082402D01*
X0185184Y0083148D01*
X0185540Y0083847D01*
X0186001Y0084482D01*
X0186556Y0085037D01*
X0187191Y0085498D01*
X0187890Y0085854D01*
X0188636Y0086097D01*
X0189411Y0086219D01*
X0192787Y0086219D01*
X0192787Y0081251D01*
X0192819Y0081251D01*
X0192819Y0086219D01*
X0196195Y0086219D01*
X0196970Y0086097D01*
X0197717Y0085854D01*
X0198416Y0085498D01*
X0199050Y0085037D01*
X0199605Y0084482D01*
X0200066Y0083847D01*
X0200422Y0083148D01*
X0200665Y0082402D01*
X0200787Y0081627D01*
X0200787Y0081251D01*
X0192819Y0081251D01*
X0192819Y0081219D01*
X0192787Y0081219D01*
X0192787Y0076251D01*
X0192787Y0077915D02*
X0192819Y0077915D01*
X0192787Y0079882D02*
X0192819Y0079882D01*
X0192787Y0081849D02*
X0192819Y0081849D01*
X0192787Y0083816D02*
X0192819Y0083816D01*
X0192787Y0085783D02*
X0192819Y0085783D01*
X0196755Y0086451D02*
X0188852Y0086451D01*
X0187093Y0087179D01*
X0185747Y0088525D01*
X0185019Y0090283D01*
X0185019Y0092187D01*
X0185747Y0093945D01*
X0187093Y0095291D01*
X0188852Y0096019D01*
X0196755Y0096019D01*
X0198513Y0095291D01*
X0199859Y0093945D01*
X0200587Y0092187D01*
X0200587Y0090283D01*
X0199859Y0088525D01*
X0198513Y0087179D01*
X0196755Y0086451D01*
X0197857Y0085783D02*
X0205693Y0085783D01*
X0205693Y0087750D02*
X0199084Y0087750D01*
X0200353Y0089717D02*
X0205693Y0089717D01*
X0205693Y0091684D02*
X0200587Y0091684D01*
X0199981Y0093651D02*
X0205693Y0093651D01*
X0205693Y0095618D02*
X0197724Y0095618D01*
X0196755Y0096451D02*
X0198513Y0097179D01*
X0199859Y0098525D01*
X0200587Y0100283D01*
X0200587Y0102187D01*
X0199859Y0103945D01*
X0198513Y0105291D01*
X0196755Y0106019D01*
X0188852Y0106019D01*
X0187093Y0105291D01*
X0185747Y0103945D01*
X0185019Y0102187D01*
X0185019Y0100283D01*
X0185747Y0098525D01*
X0187093Y0097179D01*
X0188852Y0096451D01*
X0196755Y0096451D01*
X0198919Y0097585D02*
X0205693Y0097585D01*
X0205693Y0099552D02*
X0200284Y0099552D01*
X0200587Y0101519D02*
X0205693Y0101519D01*
X0205693Y0103486D02*
X0200049Y0103486D01*
X0198122Y0105453D02*
X0205693Y0105453D01*
X0205693Y0107420D02*
X0198943Y0107420D01*
X0199000Y0107462D02*
X0199555Y0108016D01*
X0200016Y0108651D01*
X0200372Y0109350D01*
X0200615Y0110096D01*
X0200737Y0110871D01*
X0200737Y0111248D01*
X0192769Y0111248D01*
X0192769Y0111279D01*
X0200737Y0111279D01*
X0200737Y0111656D01*
X0200615Y0112430D01*
X0200372Y0113177D01*
X0200016Y0113876D01*
X0199555Y0114510D01*
X0199000Y0115065D01*
X0198365Y0115526D01*
X0197666Y0115882D01*
X0196920Y0116125D01*
X0196145Y0116248D01*
X0192769Y0116248D01*
X0192769Y0111279D01*
X0192737Y0111279D01*
X0192737Y0111248D01*
X0184769Y0111248D01*
X0184769Y0110871D01*
X0184892Y0110096D01*
X0185134Y0109350D01*
X0185490Y0108651D01*
X0185951Y0108016D01*
X0186506Y0107462D01*
X0187141Y0107000D01*
X0187840Y0106644D01*
X0188586Y0106402D01*
X0189361Y0106279D01*
X0192737Y0106279D01*
X0192737Y0111247D01*
X0192769Y0111247D01*
X0192769Y0106279D01*
X0196145Y0106279D01*
X0196920Y0106402D01*
X0197666Y0106644D01*
X0198365Y0107000D01*
X0199000Y0107462D01*
X0200384Y0109387D02*
X0205693Y0109387D01*
X0205693Y0111354D02*
X0200737Y0111354D01*
X0200299Y0113321D02*
X0205693Y0113321D01*
X0205693Y0115288D02*
X0198693Y0115288D01*
X0198463Y0117207D02*
X0199809Y0118553D01*
X0200537Y0120312D01*
X0200537Y0122215D01*
X0199809Y0123973D01*
X0198463Y0125319D01*
X0196705Y0126048D01*
X0188801Y0126048D01*
X0187043Y0125319D01*
X0185697Y0123973D01*
X0184969Y0122215D01*
X0184969Y0120312D01*
X0185697Y0118553D01*
X0187043Y0117207D01*
X0188801Y0116479D01*
X0196705Y0116479D01*
X0198463Y0117207D01*
X0198511Y0117255D02*
X0205693Y0117255D01*
X0205693Y0119222D02*
X0200086Y0119222D01*
X0200537Y0121189D02*
X0205693Y0121189D01*
X0205693Y0123156D02*
X0200148Y0123156D01*
X0198659Y0125123D02*
X0205693Y0125123D01*
X0205693Y0127090D02*
X0198180Y0127090D01*
X0198463Y0127207D02*
X0199809Y0128553D01*
X0200537Y0130312D01*
X0200537Y0132215D01*
X0199809Y0133973D01*
X0198463Y0135319D01*
X0196705Y0136048D01*
X0188801Y0136048D01*
X0187043Y0135319D01*
X0185697Y0133973D01*
X0184969Y0132215D01*
X0184969Y0130312D01*
X0185697Y0128553D01*
X0187043Y0127207D01*
X0188801Y0126479D01*
X0196705Y0126479D01*
X0198463Y0127207D01*
X0200018Y0129057D02*
X0205693Y0129057D01*
X0203857Y0131024D02*
X0200537Y0131024D01*
X0200216Y0132991D02*
X0201890Y0132991D01*
X0199923Y0134958D02*
X0198824Y0134958D01*
X0191917Y0136925D02*
X0132865Y0136925D01*
X0132865Y0134958D02*
X0160526Y0134958D01*
X0160463Y0134912D02*
X0159956Y0134405D01*
X0159534Y0133824D01*
X0159208Y0133185D01*
X0158987Y0132502D01*
X0158874Y0131794D01*
X0158874Y0131435D01*
X0166008Y0131435D01*
X0166008Y0131435D01*
X0166008Y0135994D01*
X0163075Y0135994D01*
X0162366Y0135882D01*
X0161683Y0135660D01*
X0161044Y0135334D01*
X0160463Y0134912D01*
X0159145Y0132991D02*
X0132865Y0132991D01*
X0132865Y0131024D02*
X0158883Y0131024D01*
X0158874Y0131076D02*
X0158987Y0130367D01*
X0159208Y0129685D01*
X0159534Y0129045D01*
X0159956Y0128465D01*
X0160463Y0127957D01*
X0161044Y0127536D01*
X0161683Y0127210D01*
X0162366Y0126988D01*
X0163075Y0126876D01*
X0166008Y0126876D01*
X0166008Y0131435D01*
X0166008Y0131435D01*
X0158874Y0131435D01*
X0158874Y0131076D01*
X0159528Y0129057D02*
X0132865Y0129057D01*
X0133973Y0127090D02*
X0162052Y0127090D01*
X0160957Y0125123D02*
X0160855Y0125123D01*
X0166008Y0126876D02*
X0168942Y0126876D01*
X0169651Y0126988D01*
X0170333Y0127210D01*
X0170972Y0127536D01*
X0171553Y0127957D01*
X0172060Y0128465D01*
X0172482Y0129045D01*
X0172808Y0129685D01*
X0173030Y0130367D01*
X0173142Y0131076D01*
X0173142Y0131435D01*
X0173142Y0131794D01*
X0173030Y0132502D01*
X0172808Y0133185D01*
X0172482Y0133824D01*
X0172060Y0134405D01*
X0171553Y0134912D01*
X0170972Y0135334D01*
X0170333Y0135660D01*
X0169651Y0135882D01*
X0168942Y0135994D01*
X0166008Y0135994D01*
X0166008Y0131435D01*
X0166008Y0131435D01*
X0173142Y0131435D01*
X0166008Y0131435D01*
X0166008Y0131435D01*
X0166008Y0126876D01*
X0166008Y0127090D02*
X0166008Y0127090D01*
X0166008Y0129057D02*
X0166008Y0129057D01*
X0166008Y0131024D02*
X0166008Y0131024D01*
X0166008Y0132991D02*
X0166008Y0132991D01*
X0166008Y0134958D02*
X0166008Y0134958D01*
X0159811Y0138892D02*
X0137863Y0138892D01*
X0138645Y0140859D02*
X0159074Y0140859D01*
X0159291Y0142826D02*
X0138250Y0142826D01*
X0137845Y0144793D02*
X0152038Y0144793D01*
X0151556Y0146760D02*
X0137845Y0146760D01*
X0137845Y0148727D02*
X0152128Y0148727D01*
X0159074Y0150694D02*
X0138243Y0150694D01*
X0138243Y0152661D02*
X0159223Y0152661D01*
X0160462Y0154628D02*
X0138243Y0154628D01*
X0137522Y0156595D02*
X0185766Y0156595D01*
X0187592Y0154628D02*
X0171554Y0154628D01*
X0172793Y0152661D02*
X0187592Y0152661D01*
X0187592Y0150694D02*
X0172942Y0150694D01*
X0169450Y0157076D02*
X0171052Y0157739D01*
X0172278Y0158966D01*
X0172942Y0160568D01*
X0172942Y0162302D01*
X0172278Y0163904D01*
X0171052Y0165130D01*
X0169450Y0165794D01*
X0162566Y0165794D01*
X0160964Y0165130D01*
X0159738Y0163904D01*
X0159074Y0162302D01*
X0159074Y0160568D01*
X0159738Y0158966D01*
X0160964Y0157739D01*
X0162566Y0157076D01*
X0169450Y0157076D01*
X0171875Y0158562D02*
X0183799Y0158562D01*
X0181832Y0160529D02*
X0172926Y0160529D01*
X0172862Y0162496D02*
X0179865Y0162496D01*
X0177898Y0164463D02*
X0171719Y0164463D01*
X0175931Y0166430D02*
X0152803Y0166430D01*
X0153999Y0168397D02*
X0160306Y0168397D01*
X0159159Y0170364D02*
X0153776Y0170364D01*
X0153200Y0172331D02*
X0159087Y0172331D01*
X0160132Y0174298D02*
X0153200Y0174298D01*
X0153200Y0176265D02*
X0171269Y0176265D01*
X0176837Y0176265D02*
X0206199Y0176265D01*
X0208343Y0174298D02*
X0176837Y0174298D01*
X0177905Y0172331D02*
X0206212Y0172331D01*
X0205495Y0170364D02*
X0179872Y0170364D01*
X0181839Y0168397D02*
X0205594Y0168397D01*
X0207711Y0168397D02*
X0208195Y0168397D01*
X0206514Y0166430D02*
X0183806Y0166430D01*
X0185773Y0164463D02*
X0209750Y0164463D01*
X0210137Y0162496D02*
X0187740Y0162496D01*
X0191953Y0158283D02*
X0191953Y0158283D01*
X0187592Y0142826D02*
X0172725Y0142826D01*
X0172942Y0140859D02*
X0188002Y0140859D01*
X0189950Y0138892D02*
X0172205Y0138892D01*
X0171490Y0134958D02*
X0186682Y0134958D01*
X0185290Y0132991D02*
X0172871Y0132991D01*
X0173134Y0131024D02*
X0184969Y0131024D01*
X0185488Y0129057D02*
X0172488Y0129057D01*
X0169964Y0127090D02*
X0187326Y0127090D01*
X0186847Y0125123D02*
X0171059Y0125123D01*
X0172588Y0123156D02*
X0185359Y0123156D01*
X0184969Y0121189D02*
X0172942Y0121189D01*
X0172385Y0119222D02*
X0185420Y0119222D01*
X0186995Y0117255D02*
X0169883Y0117255D01*
X0170672Y0115288D02*
X0186813Y0115288D01*
X0186506Y0115065D02*
X0185951Y0114510D01*
X0185490Y0113876D01*
X0185134Y0113177D01*
X0184892Y0112430D01*
X0184769Y0111656D01*
X0184769Y0111279D01*
X0192737Y0111279D01*
X0192737Y0116248D01*
X0189361Y0116248D01*
X0188586Y0116125D01*
X0187840Y0115882D01*
X0187141Y0115526D01*
X0186506Y0115065D01*
X0185208Y0113321D02*
X0172520Y0113321D01*
X0172942Y0111354D02*
X0184769Y0111354D01*
X0185122Y0109387D02*
X0172453Y0109387D01*
X0170281Y0107420D02*
X0186563Y0107420D01*
X0187484Y0105453D02*
X0170273Y0105453D01*
X0171052Y0105130D02*
X0169450Y0105794D01*
X0162566Y0105794D01*
X0160964Y0105130D01*
X0159738Y0103904D01*
X0159074Y0102302D01*
X0159074Y0100568D01*
X0159738Y0098966D01*
X0160964Y0097739D01*
X0162566Y0097076D01*
X0169450Y0097076D01*
X0171052Y0097739D01*
X0172278Y0098966D01*
X0172942Y0100568D01*
X0172942Y0102302D01*
X0172278Y0103904D01*
X0171052Y0105130D01*
X0172452Y0103486D02*
X0185557Y0103486D01*
X0185019Y0101519D02*
X0172942Y0101519D01*
X0172521Y0099552D02*
X0185322Y0099552D01*
X0186688Y0097585D02*
X0170679Y0097585D01*
X0169875Y0095618D02*
X0187882Y0095618D01*
X0185625Y0093651D02*
X0172383Y0093651D01*
X0172278Y0093904D02*
X0171052Y0095130D01*
X0169450Y0095794D01*
X0162566Y0095794D01*
X0160964Y0095130D01*
X0159738Y0093904D01*
X0159074Y0092302D01*
X0159074Y0090568D01*
X0159738Y0088966D01*
X0160964Y0087739D01*
X0162566Y0087076D01*
X0169450Y0087076D01*
X0171052Y0087739D01*
X0172278Y0088966D01*
X0172942Y0090568D01*
X0172942Y0092302D01*
X0172278Y0093904D01*
X0172942Y0091684D02*
X0185019Y0091684D01*
X0185254Y0089717D02*
X0172590Y0089717D01*
X0171063Y0087750D02*
X0186523Y0087750D01*
X0187750Y0085783D02*
X0169477Y0085783D01*
X0169450Y0085794D02*
X0171052Y0085130D01*
X0172278Y0083904D01*
X0172942Y0082302D01*
X0172942Y0080568D01*
X0172278Y0078966D01*
X0171052Y0077739D01*
X0169450Y0077076D01*
X0162566Y0077076D01*
X0160964Y0077739D01*
X0159738Y0078966D01*
X0159074Y0080568D01*
X0159074Y0082302D01*
X0159738Y0083904D01*
X0160964Y0085130D01*
X0162566Y0085794D01*
X0169450Y0085794D01*
X0172315Y0083816D02*
X0185524Y0083816D01*
X0184854Y0081849D02*
X0172942Y0081849D01*
X0172658Y0079882D02*
X0185002Y0079882D01*
X0186075Y0077915D02*
X0171227Y0077915D01*
X0162539Y0085783D02*
X0157474Y0085783D01*
X0157474Y0087750D02*
X0160954Y0087750D01*
X0159427Y0089717D02*
X0157474Y0089717D01*
X0157474Y0091684D02*
X0159074Y0091684D01*
X0159633Y0093651D02*
X0157474Y0093651D01*
X0157474Y0095618D02*
X0162141Y0095618D01*
X0161337Y0097585D02*
X0157474Y0097585D01*
X0157474Y0099552D02*
X0159495Y0099552D01*
X0159074Y0101519D02*
X0157474Y0101519D01*
X0157268Y0103486D02*
X0159565Y0103486D01*
X0161743Y0105453D02*
X0155610Y0105453D01*
X0153643Y0107420D02*
X0161736Y0107420D01*
X0159563Y0109387D02*
X0151676Y0109387D01*
X0149709Y0111354D02*
X0159074Y0111354D01*
X0154518Y0113321D02*
X0154518Y0113321D01*
X0154518Y0115288D02*
X0154518Y0115288D01*
X0154518Y0117255D02*
X0154518Y0117255D01*
X0154518Y0119222D02*
X0154518Y0119222D01*
X0154518Y0121189D02*
X0154518Y0121189D01*
X0154518Y0123156D02*
X0154518Y0123156D01*
X0154518Y0125123D02*
X0154518Y0125123D01*
X0148181Y0125123D02*
X0135940Y0125123D01*
X0137907Y0123156D02*
X0147533Y0123156D01*
X0147533Y0121189D02*
X0139874Y0121189D01*
X0141841Y0119222D02*
X0147533Y0119222D01*
X0147533Y0117255D02*
X0143808Y0117255D01*
X0145775Y0115288D02*
X0147533Y0115288D01*
X0161502Y0117255D02*
X0162134Y0117255D01*
X0192737Y0115288D02*
X0192769Y0115288D01*
X0192737Y0113321D02*
X0192769Y0113321D01*
X0192737Y0111354D02*
X0192769Y0111354D01*
X0192737Y0109387D02*
X0192769Y0109387D01*
X0192737Y0107420D02*
X0192769Y0107420D01*
X0200082Y0083816D02*
X0204215Y0083816D01*
X0202248Y0081849D02*
X0200752Y0081849D01*
X0160789Y0077915D02*
X0157474Y0077915D01*
X0157474Y0079882D02*
X0159359Y0079882D01*
X0159074Y0081849D02*
X0157474Y0081849D01*
X0157474Y0083816D02*
X0159701Y0083816D01*
X0119904Y0123426D02*
X0119904Y0127576D01*
X0119904Y0127576D01*
X0119904Y0123426D01*
X0119904Y0125123D02*
X0119904Y0125123D01*
X0119904Y0127090D02*
X0119904Y0127090D01*
X0119903Y0127576D02*
X0119903Y0127576D01*
X0112592Y0138892D02*
X0110715Y0138892D01*
X0098390Y0146760D02*
X0059940Y0146760D01*
X0061487Y0148727D02*
X0069976Y0148727D01*
X0069074Y0150694D02*
X0061853Y0150694D01*
X0061311Y0152661D02*
X0069223Y0152661D01*
X0070462Y0154628D02*
X0058915Y0154628D01*
X0049797Y0146760D02*
X0011330Y0146760D01*
X0011330Y0144793D02*
X0070627Y0144793D01*
X0069291Y0142826D02*
X0011330Y0142826D01*
X0011330Y0140859D02*
X0069074Y0140859D01*
X0048250Y0148727D02*
X0011330Y0148727D01*
X0011330Y0150694D02*
X0047884Y0150694D01*
X0061351Y0168397D02*
X0070306Y0168397D01*
X0069159Y0170364D02*
X0061853Y0170364D01*
X0061448Y0172331D02*
X0069087Y0172331D01*
X0070132Y0174298D02*
X0059711Y0174298D01*
X0069227Y0180199D02*
X0045489Y0180199D01*
X0043522Y0178232D02*
X0070471Y0178232D01*
X0069074Y0182166D02*
X0047456Y0182166D01*
X0049423Y0184133D02*
X0069967Y0184133D01*
X0070636Y0188067D02*
X0047784Y0188067D01*
X0049751Y0186100D02*
X0087076Y0186100D01*
X0088395Y0184133D02*
X0082049Y0184133D01*
X0082942Y0182166D02*
X0101232Y0182166D01*
X0101232Y0180199D02*
X0082789Y0180199D01*
X0081380Y0188067D02*
X0085593Y0188067D01*
X0083626Y0190035D02*
X0082721Y0190035D01*
X0087567Y0193969D02*
X0091109Y0193969D01*
X0089534Y0192002D02*
X0093076Y0192002D01*
X0092632Y0190035D02*
X0095043Y0190035D01*
X0094021Y0188067D02*
X0096641Y0188067D01*
X0097846Y0186100D02*
X0094070Y0186100D01*
X0092750Y0184133D02*
X0101232Y0184133D01*
X0101232Y0193969D02*
X0098984Y0193969D01*
X0097017Y0195936D02*
X0101232Y0195936D01*
X0101382Y0197903D02*
X0095050Y0197903D01*
X0093083Y0199870D02*
X0102960Y0199870D01*
X0104927Y0201837D02*
X0091116Y0201837D01*
X0089149Y0203804D02*
X0106894Y0203804D01*
X0109236Y0205771D02*
X0087182Y0205771D01*
X0085877Y0207738D02*
X0110217Y0207738D01*
X0111137Y0209705D02*
X0085877Y0209705D01*
X0083241Y0201837D02*
X0079628Y0201837D01*
X0081666Y0199870D02*
X0085208Y0199870D01*
X0083633Y0197903D02*
X0087175Y0197903D01*
X0085600Y0195936D02*
X0089142Y0195936D01*
X0077725Y0195936D02*
X0076944Y0195936D01*
X0075068Y0195936D02*
X0061225Y0195936D01*
X0116500Y0217573D02*
X0124632Y0217573D01*
X0124632Y0219540D02*
X0116500Y0219540D01*
X0116500Y0221507D02*
X0124632Y0221507D01*
X0124632Y0223474D02*
X0116500Y0223474D01*
X0116500Y0225441D02*
X0124632Y0225441D01*
X0124632Y0227408D02*
X0116500Y0227408D01*
X0116500Y0229375D02*
X0124632Y0229375D01*
X0124632Y0231342D02*
X0116500Y0231342D01*
X0152601Y0204516D02*
X0164006Y0204516D01*
X0171269Y0197253D01*
X0171269Y0194913D01*
X0171052Y0195130D01*
X0169450Y0195794D01*
X0162566Y0195794D01*
X0160964Y0195130D01*
X0159738Y0193904D01*
X0159362Y0192996D01*
X0159362Y0197156D01*
X0158938Y0198179D01*
X0158155Y0198962D01*
X0152601Y0204516D01*
X0153314Y0203804D02*
X0164719Y0203804D01*
X0166686Y0201837D02*
X0155281Y0201837D01*
X0157248Y0199870D02*
X0168653Y0199870D01*
X0170620Y0197903D02*
X0159053Y0197903D01*
X0159362Y0195936D02*
X0171269Y0195936D01*
X0171269Y0186100D02*
X0159362Y0186100D01*
X0159362Y0184133D02*
X0159967Y0184133D01*
X0159074Y0182166D02*
X0158609Y0182166D01*
X0159227Y0180199D02*
X0156642Y0180199D01*
X0153200Y0178232D02*
X0160471Y0178232D01*
X0160636Y0188067D02*
X0159362Y0188067D01*
X0159362Y0193969D02*
X0159802Y0193969D01*
X0149193Y0188067D02*
X0148300Y0188067D01*
X0149444Y0186100D02*
X0128666Y0186100D01*
X0128971Y0184133D02*
X0147967Y0184133D01*
X0146831Y0182166D02*
X0129881Y0182166D01*
X0131848Y0180199D02*
X0147080Y0180199D01*
X0147631Y0178232D02*
X0137821Y0178232D01*
X0138443Y0176265D02*
X0147631Y0176265D01*
X0147631Y0174298D02*
X0138443Y0174298D01*
X0138443Y0172331D02*
X0147631Y0172331D01*
X0147055Y0170364D02*
X0137959Y0170364D01*
X0136058Y0168397D02*
X0146832Y0168397D01*
X0148028Y0166430D02*
X0136058Y0166430D01*
X0136058Y0164463D02*
X0160297Y0164463D01*
X0159155Y0162496D02*
X0136058Y0162496D01*
X0136058Y0160529D02*
X0159090Y0160529D01*
X0160141Y0158562D02*
X0136058Y0158562D01*
X0135081Y0174298D02*
X0135081Y0174298D01*
X0135081Y0176265D02*
X0135081Y0176265D01*
X0135081Y0178232D02*
X0135081Y0178232D01*
X0125399Y0178773D02*
X0125081Y0178773D01*
X0125081Y0174230D01*
X0125081Y0174230D01*
X0125081Y0178773D01*
X0123442Y0178773D01*
X0122937Y0178638D01*
X0122865Y0178596D01*
X0122865Y0179335D01*
X0124837Y0179335D01*
X0125399Y0178773D01*
X0125081Y0178232D02*
X0125081Y0178232D01*
X0125081Y0176265D02*
X0125081Y0176265D01*
X0125081Y0174298D02*
X0125081Y0174298D01*
X0129171Y0188067D02*
X0145444Y0188067D01*
X0143540Y0190035D02*
X0129171Y0190035D01*
X0129171Y0189781D02*
X0125022Y0189781D01*
X0125022Y0189781D01*
X0129171Y0189781D01*
X0129171Y0192002D02*
X0142289Y0192002D01*
X0125022Y0189781D02*
X0125022Y0189781D01*
X0121297Y0189781D01*
X0117345Y0189781D01*
X0117345Y0189781D01*
X0125022Y0189781D01*
X0171710Y0168397D02*
X0173964Y0168397D01*
X0188620Y0195936D02*
X0200120Y0195936D01*
X0200195Y0197903D02*
X0190587Y0197903D01*
X0192554Y0199870D02*
X0198228Y0199870D01*
X0196261Y0201837D02*
X0194521Y0201837D01*
X0208046Y0188067D02*
X0210030Y0188067D01*
X0216547Y0172331D02*
X0217031Y0172331D01*
X0212613Y0170364D02*
X0212129Y0170364D01*
X0229813Y0146760D02*
X0231505Y0146760D01*
X0231505Y0144793D02*
X0230834Y0144793D01*
X0230939Y0142826D02*
X0231505Y0142826D01*
X0231505Y0140859D02*
X0230252Y0140859D01*
X0231505Y0138892D02*
X0227947Y0138892D01*
X0186350Y0030706D02*
X0172446Y0030706D01*
X0172475Y0028739D02*
X0184383Y0028739D01*
X0182416Y0026772D02*
X0172475Y0026772D01*
X0172018Y0024805D02*
X0180449Y0024805D01*
X0178482Y0022838D02*
X0172475Y0022838D01*
X0172475Y0020871D02*
X0176515Y0020871D01*
X0174548Y0018904D02*
X0172475Y0018904D01*
X0172581Y0016937D02*
X0136831Y0016937D01*
X0136831Y0014970D02*
X0170614Y0014970D01*
X0168647Y0013003D02*
X0136831Y0013003D01*
X0136831Y0011036D02*
X0166680Y0011036D01*
X0157351Y0018904D02*
X0155338Y0018904D01*
X0155441Y0020871D02*
X0157293Y0020871D01*
X0157293Y0022838D02*
X0155441Y0022838D01*
X0139606Y0024805D02*
X0136831Y0024805D01*
X0136831Y0022838D02*
X0139312Y0022838D01*
X0139312Y0020871D02*
X0136831Y0020871D01*
X0136831Y0018904D02*
X0139312Y0018904D01*
X0125663Y0018904D02*
X0117531Y0018904D01*
X0117531Y0016937D02*
X0125663Y0016937D01*
X0125663Y0014970D02*
X0117531Y0014970D01*
X0117531Y0013003D02*
X0125663Y0013003D01*
X0125663Y0011036D02*
X0117531Y0011036D01*
X0117531Y0020871D02*
X0125663Y0020871D01*
X0125663Y0022838D02*
X0117531Y0022838D01*
X0117531Y0024805D02*
X0125663Y0024805D01*
X0046056Y0107420D02*
X0026015Y0107420D01*
D25*
X0033880Y0102773D03*
X0039392Y0091946D03*
X0038211Y0083285D03*
X0021282Y0085253D03*
X0015573Y0100214D03*
X0056911Y0065765D03*
X0066951Y0082104D03*
X0064589Y0105726D03*
X0060061Y0131513D03*
X0057699Y0143915D03*
X0040770Y0150411D03*
X0063998Y0170686D03*
X0066360Y0189190D03*
X0076006Y0199426D03*
X0074037Y0213009D03*
X0096675Y0205529D03*
X0100219Y0188796D03*
X0099825Y0183482D03*
X0090573Y0187025D03*
X0113801Y0207300D03*
X0100612Y0226395D03*
X0139589Y0190371D03*
X0146872Y0191356D03*
X0152778Y0187419D03*
X0150415Y0181513D03*
X0139589Y0181513D03*
X0143132Y0172064D03*
X0150415Y0169111D03*
X0156321Y0171867D03*
X0146478Y0154348D03*
X0155140Y0146671D03*
X0149628Y0140568D03*
X0146872Y0131316D03*
X0154746Y0131119D03*
X0140376Y0140765D03*
X0135061Y0141159D03*
X0120100Y0146671D03*
X0115376Y0141552D03*
X0095888Y0152773D03*
X0087620Y0142930D03*
X0086242Y0131513D03*
X0098250Y0119308D03*
X0121085Y0109466D03*
X0147266Y0093521D03*
X0146478Y0084466D03*
X0158486Y0088009D03*
X0143526Y0071867D03*
X0135652Y0061828D03*
X0122463Y0076395D03*
X0108880Y0057104D03*
X0096478Y0065174D03*
X0142345Y0038206D03*
X0166360Y0035056D03*
X0173644Y0041356D03*
X0154352Y0061041D03*
X0177974Y0085844D03*
X0202974Y0107497D03*
X0213604Y0097852D03*
X0216754Y0091356D03*
X0227384Y0097655D03*
X0213604Y0079348D03*
X0208683Y0064584D03*
X0182108Y0116356D03*
X0182896Y0137615D03*
X0186439Y0146671D03*
X0185652Y0152773D03*
X0195100Y0163600D03*
X0206911Y0155135D03*
X0183093Y0178167D03*
X0161833Y0201592D03*
X0160258Y0213796D03*
X0145494Y0213796D03*
X0213211Y0128560D03*
X0015179Y0155922D03*
D26*
X0122935Y0044899D03*
X0095967Y0035647D03*
X0082778Y0035253D03*
X0067030Y0035056D03*
D27*
X0076008Y0032190D02*
X0061495Y0017677D01*
X0076008Y0032190D02*
X0076008Y0051435D01*
X0087453Y0051718D02*
X0087453Y0100885D01*
X0098203Y0111635D01*
X0098203Y0119261D01*
X0098250Y0119308D01*
X0115376Y0136434D01*
X0115376Y0141552D01*
X0115376Y0169525D01*
X0120081Y0174230D01*
X0120081Y0180352D01*
X0117345Y0183088D01*
X0125022Y0183088D02*
X0130081Y0178029D01*
X0130081Y0174230D01*
X0120081Y0174230D02*
X0120081Y0173029D01*
X0111314Y0191619D02*
X0111314Y0143429D01*
X0094320Y0126435D01*
X0069703Y0126435D01*
X0064503Y0121235D01*
X0064503Y0105811D01*
X0064589Y0105726D01*
X0064589Y0106119D01*
X0060061Y0131513D02*
X0064983Y0136435D01*
X0098353Y0136435D01*
X0107567Y0145649D01*
X0107567Y0194176D01*
X0112270Y0198879D01*
X0146563Y0198879D01*
X0152703Y0192739D01*
X0152703Y0187493D01*
X0152778Y0187419D01*
X0156578Y0184073D02*
X0154018Y0181513D01*
X0150415Y0181513D01*
X0150415Y0169111D01*
X0156578Y0184073D02*
X0156578Y0196602D01*
X0150035Y0203145D01*
X0110173Y0203145D01*
X0104017Y0196989D01*
X0104017Y0148450D01*
X0098497Y0142930D01*
X0087620Y0142930D01*
X0120100Y0146671D02*
X0120100Y0134466D01*
X0119904Y0134269D01*
X0125081Y0127517D02*
X0151006Y0101592D01*
X0151006Y0069702D01*
X0130337Y0049033D01*
X0130337Y0032267D01*
X0134797Y0027807D01*
X0143261Y0027807D01*
X0143261Y0021114D02*
X0151875Y0021114D01*
X0152082Y0021320D01*
X0152082Y0027226D02*
X0160608Y0027226D01*
X0160652Y0027182D01*
X0164869Y0031456D02*
X0164750Y0031575D01*
X0135786Y0031575D01*
X0133880Y0033482D01*
X0133880Y0047807D01*
X0137905Y0051833D01*
X0137861Y0051833D01*
X0154689Y0068661D01*
X0154689Y0102436D01*
X0130081Y0127045D01*
X0130081Y0152576D01*
X0135061Y0152556D02*
X0135081Y0152576D01*
X0135061Y0152556D02*
X0135061Y0141159D01*
X0125081Y0152576D02*
X0125081Y0127517D01*
X0120100Y0146671D02*
X0120100Y0152556D01*
X0120081Y0152576D01*
X0155140Y0146671D02*
X0186439Y0146671D01*
X0190376Y0142403D02*
X0190376Y0155922D01*
X0174053Y0172245D01*
X0174053Y0198407D01*
X0165160Y0207300D01*
X0113801Y0207300D01*
X0114696Y0195001D02*
X0143227Y0195001D01*
X0146872Y0191356D01*
X0114696Y0195001D02*
X0111314Y0191619D01*
X0100219Y0188796D02*
X0083093Y0205922D01*
X0083093Y0236434D01*
X0095503Y0236434D02*
X0095703Y0236234D01*
X0063654Y0226635D02*
X0063254Y0226635D01*
X0076006Y0199426D02*
X0078171Y0199426D01*
X0090573Y0187025D01*
X0034130Y0193825D02*
X0034130Y0194558D01*
X0016731Y0130408D02*
X0016458Y0130135D01*
X0016731Y0111108D02*
X0016058Y0110435D01*
X0006460Y0092085D02*
X0039253Y0092085D01*
X0039392Y0091946D01*
X0087518Y0051654D02*
X0096822Y0051654D01*
X0116603Y0071435D01*
X0132103Y0071435D01*
X0136203Y0075535D01*
X0136203Y0089663D01*
X0143329Y0087615D02*
X0143329Y0095293D01*
X0137817Y0100804D01*
X0120100Y0100804D01*
X0116073Y0096776D01*
X0116073Y0089794D01*
X0106073Y0089794D02*
X0106073Y0096619D01*
X0115179Y0105726D01*
X0141557Y0105726D01*
X0147266Y0100017D01*
X0147266Y0093521D01*
X0143329Y0087615D02*
X0146478Y0084466D01*
X0142345Y0038206D02*
X0162543Y0038206D01*
X0208478Y0084141D01*
X0208478Y0118315D01*
X0208478Y0130341D01*
X0199729Y0139089D01*
X0193690Y0139089D01*
X0190376Y0142403D01*
X0206911Y0155135D02*
X0213576Y0161799D01*
X0217720Y0161799D01*
X0236192Y0151235D02*
X0236242Y0151185D01*
X0225898Y0131935D02*
X0225422Y0131459D01*
X0208486Y0118324D02*
X0208478Y0118315D01*
X0225422Y0112159D02*
X0225698Y0112435D01*
X0216754Y0091356D02*
X0235872Y0091356D01*
X0168526Y0027970D02*
X0165039Y0031456D01*
X0164869Y0031456D01*
X0167331Y0027970D02*
X0168526Y0027970D01*
X0169313Y0021277D02*
X0160652Y0021277D01*
X0131247Y0016965D02*
X0131219Y0016993D01*
X0111974Y0016993D02*
X0111947Y0016965D01*
X0111947Y0011329D02*
X0111253Y0010635D01*
X0054488Y0039370D02*
X0054487Y0040222D01*
D28*
X0046645Y0032527D02*
X0061495Y0017677D01*
X0073053Y0006119D01*
X0112053Y0006119D01*
X0131403Y0006119D01*
X0169116Y0006119D01*
X0196093Y0033096D01*
X0209793Y0046796D01*
X0236242Y0073245D01*
X0236242Y0090985D01*
X0236242Y0111535D01*
X0236242Y0131285D01*
X0236242Y0151185D01*
X0236242Y0169308D01*
X0208834Y0196716D01*
X0195634Y0209916D01*
X0169116Y0236434D01*
X0130653Y0236434D01*
X0111653Y0236434D01*
X0095503Y0236434D01*
X0083093Y0236434D01*
X0073053Y0236434D01*
X0063254Y0226635D01*
X0045804Y0209185D01*
X0032504Y0195885D01*
X0005927Y0169308D01*
X0005927Y0091552D01*
X0005927Y0073245D01*
X0032595Y0046577D01*
X0046645Y0032527D01*
D29*
X0046792Y0032527D01*
X0054487Y0040222D01*
X0040840Y0053869D02*
X0033548Y0046577D01*
X0032595Y0046577D01*
X0016731Y0111108D02*
X0006258Y0111108D01*
X0006231Y0111135D01*
X0006215Y0129935D02*
X0006215Y0130223D01*
X0006400Y0130408D01*
X0016731Y0130408D01*
X0040057Y0187897D02*
X0032504Y0195451D01*
X0032504Y0195885D01*
X0045804Y0209185D02*
X0046064Y0209185D01*
X0053704Y0201545D01*
X0110916Y0225622D02*
X0110916Y0235697D01*
X0111653Y0236434D01*
X0130653Y0236434D02*
X0130653Y0226059D01*
X0130216Y0225622D01*
X0187510Y0202723D02*
X0194703Y0209916D01*
X0195634Y0209916D01*
X0208797Y0196716D02*
X0208834Y0196716D01*
X0208797Y0196716D02*
X0201157Y0189076D01*
X0225422Y0131459D02*
X0236069Y0131459D01*
X0236242Y0131285D01*
X0235597Y0131490D02*
X0235597Y0132135D01*
X0235597Y0131490D02*
X0235566Y0131459D01*
X0225422Y0131459D01*
X0225598Y0112335D02*
X0225422Y0112159D01*
X0235619Y0112159D01*
X0236242Y0111535D01*
X0202085Y0054660D02*
X0209793Y0046953D01*
X0209793Y0046796D01*
X0196093Y0033358D02*
X0196093Y0033096D01*
X0196093Y0033358D02*
X0188438Y0041013D01*
X0131403Y0016809D02*
X0131403Y0006119D01*
X0131403Y0016809D02*
X0131247Y0016965D01*
X0111947Y0016965D02*
X0111947Y0006226D01*
X0112053Y0006119D01*
X0111653Y0016672D02*
X0111947Y0016965D01*
D30*
X0087553Y0051618D02*
X0087518Y0051654D01*
X0087453Y0051718D01*
X0136073Y0089794D02*
X0136203Y0089663D01*
X0236042Y0090785D02*
X0236242Y0090985D01*
D31*
X0235872Y0091356D01*
X0006460Y0092085D02*
X0005927Y0091552D01*
M02*
