G75*
%MOIN*%
%OFA0B0*%
%FSLAX25Y25*%
%IPPOS*%
%LPD*%
%AMOC8*
5,1,8,0,0,1.08239X$1,22.5*
%
%ADD10C,0.00600*%
%ADD11C,0.00200*%
%ADD12C,0.00500*%
D10*
X0101073Y0087294D02*
X0103573Y0084794D01*
X0108573Y0084794D01*
X0111073Y0087294D01*
X0113573Y0084794D01*
X0118573Y0084794D01*
X0121073Y0087294D01*
X0121073Y0092294D01*
X0118573Y0094794D01*
X0113573Y0094794D01*
X0111073Y0092294D01*
X0108573Y0094794D01*
X0103573Y0094794D01*
X0101073Y0092294D01*
X0101073Y0087294D01*
X0111073Y0087294D02*
X0111073Y0092294D01*
X0121073Y0092294D02*
X0123573Y0094794D01*
X0128573Y0094794D01*
X0131073Y0092294D01*
X0133573Y0094794D01*
X0138573Y0094794D01*
X0141073Y0092294D01*
X0141073Y0087294D01*
X0138573Y0084794D01*
X0133573Y0084794D01*
X0131073Y0087294D01*
X0131073Y0092294D01*
X0131073Y0087294D02*
X0128573Y0084794D01*
X0123573Y0084794D01*
X0121073Y0087294D01*
X0102620Y0136385D02*
X0139620Y0136385D01*
X0139696Y0136387D01*
X0139772Y0136393D01*
X0139847Y0136402D01*
X0139922Y0136416D01*
X0139996Y0136433D01*
X0140069Y0136454D01*
X0140141Y0136478D01*
X0140212Y0136507D01*
X0140281Y0136538D01*
X0140348Y0136573D01*
X0140413Y0136612D01*
X0140477Y0136654D01*
X0140538Y0136699D01*
X0140597Y0136747D01*
X0140653Y0136798D01*
X0140707Y0136852D01*
X0140758Y0136908D01*
X0140806Y0136967D01*
X0140851Y0137028D01*
X0140893Y0137092D01*
X0140932Y0137157D01*
X0140967Y0137224D01*
X0140998Y0137293D01*
X0141027Y0137364D01*
X0141051Y0137436D01*
X0141072Y0137509D01*
X0141089Y0137583D01*
X0141103Y0137658D01*
X0141112Y0137733D01*
X0141118Y0137809D01*
X0141120Y0137885D01*
X0141120Y0150285D01*
X0141118Y0150361D01*
X0141112Y0150437D01*
X0141103Y0150512D01*
X0141089Y0150587D01*
X0141072Y0150661D01*
X0141051Y0150734D01*
X0141027Y0150806D01*
X0140998Y0150877D01*
X0140967Y0150946D01*
X0140932Y0151013D01*
X0140893Y0151078D01*
X0140851Y0151142D01*
X0140806Y0151203D01*
X0140758Y0151262D01*
X0140707Y0151318D01*
X0140653Y0151372D01*
X0140597Y0151423D01*
X0140538Y0151471D01*
X0140477Y0151516D01*
X0140413Y0151558D01*
X0140348Y0151597D01*
X0140281Y0151632D01*
X0140212Y0151663D01*
X0140141Y0151692D01*
X0140069Y0151716D01*
X0139996Y0151737D01*
X0139922Y0151754D01*
X0139847Y0151768D01*
X0139772Y0151777D01*
X0139696Y0151783D01*
X0139620Y0151785D01*
X0102620Y0151785D01*
X0102544Y0151783D01*
X0102468Y0151777D01*
X0102393Y0151768D01*
X0102318Y0151754D01*
X0102244Y0151737D01*
X0102171Y0151716D01*
X0102099Y0151692D01*
X0102028Y0151663D01*
X0101959Y0151632D01*
X0101892Y0151597D01*
X0101827Y0151558D01*
X0101763Y0151516D01*
X0101702Y0151471D01*
X0101643Y0151423D01*
X0101587Y0151372D01*
X0101533Y0151318D01*
X0101482Y0151262D01*
X0101434Y0151203D01*
X0101389Y0151142D01*
X0101347Y0151078D01*
X0101308Y0151013D01*
X0101273Y0150946D01*
X0101242Y0150877D01*
X0101213Y0150806D01*
X0101189Y0150734D01*
X0101168Y0150661D01*
X0101151Y0150587D01*
X0101137Y0150512D01*
X0101128Y0150437D01*
X0101122Y0150361D01*
X0101120Y0150285D01*
X0101120Y0146085D01*
X0101120Y0142085D01*
X0101120Y0137885D01*
X0101122Y0137809D01*
X0101128Y0137733D01*
X0101137Y0137658D01*
X0101151Y0137583D01*
X0101168Y0137509D01*
X0101189Y0137436D01*
X0101213Y0137364D01*
X0101242Y0137293D01*
X0101273Y0137224D01*
X0101308Y0137157D01*
X0101347Y0137092D01*
X0101389Y0137028D01*
X0101434Y0136967D01*
X0101482Y0136908D01*
X0101533Y0136852D01*
X0101587Y0136798D01*
X0101643Y0136747D01*
X0101702Y0136699D01*
X0101763Y0136654D01*
X0101827Y0136612D01*
X0101892Y0136573D01*
X0101959Y0136538D01*
X0102028Y0136507D01*
X0102099Y0136478D01*
X0102171Y0136454D01*
X0102244Y0136433D01*
X0102318Y0136416D01*
X0102393Y0136402D01*
X0102468Y0136393D01*
X0102544Y0136387D01*
X0102620Y0136385D01*
X0101120Y0142085D02*
X0101208Y0142087D01*
X0101297Y0142093D01*
X0101385Y0142103D01*
X0101472Y0142116D01*
X0101559Y0142134D01*
X0101645Y0142155D01*
X0101730Y0142180D01*
X0101813Y0142209D01*
X0101896Y0142242D01*
X0101976Y0142278D01*
X0102055Y0142317D01*
X0102133Y0142360D01*
X0102208Y0142407D01*
X0102281Y0142457D01*
X0102352Y0142510D01*
X0102421Y0142566D01*
X0102487Y0142625D01*
X0102550Y0142687D01*
X0102610Y0142751D01*
X0102668Y0142818D01*
X0102722Y0142888D01*
X0102774Y0142960D01*
X0102822Y0143034D01*
X0102867Y0143111D01*
X0102908Y0143189D01*
X0102946Y0143269D01*
X0102980Y0143350D01*
X0103011Y0143433D01*
X0103038Y0143518D01*
X0103061Y0143603D01*
X0103080Y0143689D01*
X0103096Y0143777D01*
X0103108Y0143864D01*
X0103116Y0143952D01*
X0103120Y0144041D01*
X0103120Y0144129D01*
X0103116Y0144218D01*
X0103108Y0144306D01*
X0103096Y0144393D01*
X0103080Y0144481D01*
X0103061Y0144567D01*
X0103038Y0144652D01*
X0103011Y0144737D01*
X0102980Y0144820D01*
X0102946Y0144901D01*
X0102908Y0144981D01*
X0102867Y0145059D01*
X0102822Y0145136D01*
X0102774Y0145210D01*
X0102722Y0145282D01*
X0102668Y0145352D01*
X0102610Y0145419D01*
X0102550Y0145483D01*
X0102487Y0145545D01*
X0102421Y0145604D01*
X0102352Y0145660D01*
X0102281Y0145713D01*
X0102208Y0145763D01*
X0102133Y0145810D01*
X0102055Y0145853D01*
X0101976Y0145892D01*
X0101896Y0145928D01*
X0101813Y0145961D01*
X0101730Y0145990D01*
X0101645Y0146015D01*
X0101559Y0146036D01*
X0101472Y0146054D01*
X0101385Y0146067D01*
X0101297Y0146077D01*
X0101208Y0146083D01*
X0101120Y0146085D01*
D11*
X0101120Y0150385D02*
X0141120Y0150385D01*
X0191311Y0181891D02*
X0192741Y0184421D01*
X0193841Y0183321D01*
X0193621Y0183101D01*
X0195110Y0182051D02*
X0195660Y0181501D01*
X0193680Y0179521D01*
X0194560Y0180401D02*
X0194010Y0180951D01*
X0193972Y0180992D01*
X0193937Y0181035D01*
X0193906Y0181080D01*
X0193877Y0181128D01*
X0193852Y0181178D01*
X0193831Y0181229D01*
X0193814Y0181282D01*
X0193800Y0181336D01*
X0193790Y0181390D01*
X0193784Y0181445D01*
X0193782Y0181501D01*
X0193784Y0181557D01*
X0193790Y0181612D01*
X0193800Y0181666D01*
X0193814Y0181720D01*
X0193831Y0181773D01*
X0193852Y0181824D01*
X0193877Y0181874D01*
X0193906Y0181922D01*
X0193937Y0181967D01*
X0193972Y0182010D01*
X0194010Y0182051D01*
X0194051Y0182089D01*
X0194094Y0182124D01*
X0194139Y0182155D01*
X0194187Y0182184D01*
X0194237Y0182209D01*
X0194288Y0182230D01*
X0194341Y0182247D01*
X0194395Y0182261D01*
X0194449Y0182271D01*
X0194504Y0182277D01*
X0194560Y0182279D01*
X0194616Y0182277D01*
X0194671Y0182271D01*
X0194725Y0182261D01*
X0194779Y0182247D01*
X0194832Y0182230D01*
X0194883Y0182209D01*
X0194933Y0182184D01*
X0194981Y0182155D01*
X0195026Y0182124D01*
X0195069Y0182089D01*
X0195110Y0182051D01*
X0132323Y0213806D02*
X0132323Y0216606D01*
X0131545Y0216606D01*
X0131489Y0216604D01*
X0131434Y0216598D01*
X0131380Y0216588D01*
X0131326Y0216574D01*
X0131273Y0216557D01*
X0131222Y0216536D01*
X0131172Y0216511D01*
X0131124Y0216482D01*
X0131079Y0216451D01*
X0131036Y0216416D01*
X0130995Y0216378D01*
X0130957Y0216337D01*
X0130922Y0216294D01*
X0130891Y0216249D01*
X0130862Y0216201D01*
X0130837Y0216151D01*
X0130816Y0216100D01*
X0130799Y0216047D01*
X0130785Y0215993D01*
X0130775Y0215939D01*
X0130769Y0215884D01*
X0130767Y0215828D01*
X0130769Y0215772D01*
X0130775Y0215717D01*
X0130785Y0215663D01*
X0130799Y0215609D01*
X0130816Y0215556D01*
X0130837Y0215505D01*
X0130862Y0215455D01*
X0130891Y0215407D01*
X0130922Y0215362D01*
X0130957Y0215319D01*
X0130995Y0215278D01*
X0131036Y0215240D01*
X0131079Y0215205D01*
X0131124Y0215174D01*
X0131172Y0215145D01*
X0131222Y0215120D01*
X0131273Y0215099D01*
X0131326Y0215082D01*
X0131380Y0215068D01*
X0131434Y0215058D01*
X0131489Y0215052D01*
X0131545Y0215050D01*
X0132323Y0215050D01*
X0129749Y0215361D02*
X0129749Y0214583D01*
X0129750Y0214583D02*
X0129748Y0214527D01*
X0129742Y0214472D01*
X0129732Y0214418D01*
X0129718Y0214364D01*
X0129701Y0214311D01*
X0129680Y0214260D01*
X0129655Y0214210D01*
X0129626Y0214162D01*
X0129595Y0214117D01*
X0129560Y0214074D01*
X0129522Y0214033D01*
X0129481Y0213995D01*
X0129438Y0213960D01*
X0129393Y0213929D01*
X0129345Y0213900D01*
X0129295Y0213875D01*
X0129244Y0213854D01*
X0129191Y0213837D01*
X0129137Y0213823D01*
X0129083Y0213813D01*
X0129028Y0213807D01*
X0128972Y0213805D01*
X0128916Y0213807D01*
X0128861Y0213813D01*
X0128807Y0213823D01*
X0128753Y0213837D01*
X0128700Y0213854D01*
X0128649Y0213875D01*
X0128599Y0213900D01*
X0128551Y0213929D01*
X0128506Y0213960D01*
X0128463Y0213995D01*
X0128422Y0214033D01*
X0128384Y0214074D01*
X0128349Y0214117D01*
X0128318Y0214162D01*
X0128289Y0214210D01*
X0128264Y0214260D01*
X0128243Y0214311D01*
X0128226Y0214364D01*
X0128212Y0214418D01*
X0128202Y0214472D01*
X0128196Y0214527D01*
X0128194Y0214583D01*
X0128194Y0214739D01*
X0128196Y0214788D01*
X0128202Y0214836D01*
X0128211Y0214884D01*
X0128224Y0214931D01*
X0128241Y0214977D01*
X0128262Y0215021D01*
X0128286Y0215064D01*
X0128313Y0215105D01*
X0128343Y0215143D01*
X0128376Y0215179D01*
X0128412Y0215212D01*
X0128450Y0215242D01*
X0128491Y0215269D01*
X0128534Y0215293D01*
X0128578Y0215314D01*
X0128624Y0215331D01*
X0128671Y0215344D01*
X0128719Y0215353D01*
X0128767Y0215359D01*
X0128816Y0215361D01*
X0129749Y0215361D01*
X0129747Y0215431D01*
X0129741Y0215500D01*
X0129731Y0215569D01*
X0129718Y0215638D01*
X0129700Y0215705D01*
X0129679Y0215772D01*
X0129654Y0215837D01*
X0129626Y0215901D01*
X0129594Y0215963D01*
X0129558Y0216023D01*
X0129520Y0216081D01*
X0129478Y0216137D01*
X0129433Y0216190D01*
X0129385Y0216241D01*
X0129334Y0216289D01*
X0129281Y0216334D01*
X0129225Y0216376D01*
X0129167Y0216414D01*
X0129107Y0216450D01*
X0129045Y0216482D01*
X0128981Y0216510D01*
X0128916Y0216535D01*
X0128849Y0216556D01*
X0128782Y0216574D01*
X0128713Y0216587D01*
X0128644Y0216597D01*
X0128575Y0216603D01*
X0128505Y0216605D01*
X0064323Y0195472D02*
X0062344Y0197452D01*
X0061794Y0196902D01*
X0061756Y0196861D01*
X0061721Y0196818D01*
X0061690Y0196773D01*
X0061661Y0196725D01*
X0061636Y0196675D01*
X0061615Y0196624D01*
X0061598Y0196571D01*
X0061584Y0196517D01*
X0061574Y0196463D01*
X0061568Y0196408D01*
X0061566Y0196352D01*
X0061568Y0196296D01*
X0061574Y0196241D01*
X0061584Y0196187D01*
X0061598Y0196133D01*
X0061615Y0196080D01*
X0061636Y0196029D01*
X0061661Y0195979D01*
X0061690Y0195931D01*
X0061721Y0195886D01*
X0061756Y0195843D01*
X0061794Y0195802D01*
X0061835Y0195764D01*
X0061878Y0195729D01*
X0061923Y0195698D01*
X0061971Y0195669D01*
X0062021Y0195644D01*
X0062072Y0195623D01*
X0062125Y0195606D01*
X0062179Y0195592D01*
X0062233Y0195582D01*
X0062288Y0195576D01*
X0062344Y0195574D01*
X0062400Y0195576D01*
X0062455Y0195582D01*
X0062509Y0195592D01*
X0062563Y0195606D01*
X0062616Y0195623D01*
X0062667Y0195644D01*
X0062717Y0195669D01*
X0062765Y0195698D01*
X0062810Y0195729D01*
X0062853Y0195764D01*
X0062894Y0195802D01*
X0063443Y0196352D01*
X0062064Y0194092D02*
X0060084Y0195192D01*
X0060854Y0193762D02*
X0061734Y0192882D01*
X0060964Y0192992D02*
X0062064Y0194092D01*
X0027394Y0134375D02*
X0025839Y0133053D01*
X0025839Y0134608D01*
X0028017Y0133053D02*
X0028070Y0133072D01*
X0028122Y0133094D01*
X0028172Y0133120D01*
X0028221Y0133149D01*
X0028268Y0133180D01*
X0028313Y0133215D01*
X0028355Y0133252D01*
X0028395Y0133292D01*
X0028432Y0133335D01*
X0028467Y0133379D01*
X0028499Y0133426D01*
X0028528Y0133475D01*
X0028553Y0133525D01*
X0028576Y0133577D01*
X0028595Y0133630D01*
X0028611Y0133684D01*
X0028623Y0133739D01*
X0028632Y0133795D01*
X0028637Y0133852D01*
X0028639Y0133908D01*
X0028637Y0133958D01*
X0028632Y0134008D01*
X0028623Y0134057D01*
X0028611Y0134105D01*
X0028595Y0134153D01*
X0028576Y0134199D01*
X0028553Y0134243D01*
X0028528Y0134286D01*
X0028499Y0134327D01*
X0028468Y0134366D01*
X0028434Y0134403D01*
X0028397Y0134437D01*
X0028358Y0134468D01*
X0028317Y0134497D01*
X0028274Y0134522D01*
X0028230Y0134545D01*
X0028184Y0134564D01*
X0028136Y0134580D01*
X0028088Y0134592D01*
X0028039Y0134601D01*
X0027989Y0134606D01*
X0027939Y0134608D01*
X0027888Y0134606D01*
X0027838Y0134601D01*
X0027788Y0134593D01*
X0027738Y0134581D01*
X0027690Y0134566D01*
X0027643Y0134547D01*
X0027597Y0134526D01*
X0027552Y0134501D01*
X0027510Y0134474D01*
X0027469Y0134443D01*
X0027431Y0134410D01*
X0027394Y0134375D01*
X0027083Y0131257D02*
X0027083Y0130479D01*
X0027083Y0131257D02*
X0027085Y0131313D01*
X0027091Y0131368D01*
X0027101Y0131422D01*
X0027115Y0131476D01*
X0027132Y0131529D01*
X0027153Y0131580D01*
X0027178Y0131630D01*
X0027207Y0131678D01*
X0027238Y0131723D01*
X0027273Y0131766D01*
X0027311Y0131807D01*
X0027352Y0131845D01*
X0027395Y0131880D01*
X0027440Y0131911D01*
X0027488Y0131940D01*
X0027538Y0131965D01*
X0027589Y0131986D01*
X0027642Y0132003D01*
X0027696Y0132017D01*
X0027750Y0132027D01*
X0027805Y0132033D01*
X0027861Y0132035D01*
X0027917Y0132033D01*
X0027972Y0132027D01*
X0028026Y0132017D01*
X0028080Y0132003D01*
X0028133Y0131986D01*
X0028184Y0131965D01*
X0028234Y0131940D01*
X0028282Y0131911D01*
X0028327Y0131880D01*
X0028370Y0131845D01*
X0028411Y0131807D01*
X0028449Y0131766D01*
X0028484Y0131723D01*
X0028515Y0131678D01*
X0028544Y0131630D01*
X0028569Y0131580D01*
X0028590Y0131529D01*
X0028607Y0131476D01*
X0028621Y0131422D01*
X0028631Y0131368D01*
X0028637Y0131313D01*
X0028639Y0131257D01*
X0028639Y0130479D01*
X0025839Y0130479D01*
X0047869Y0063854D02*
X0045889Y0061874D01*
X0046439Y0061324D02*
X0045339Y0062424D01*
X0047979Y0062864D02*
X0047869Y0063854D01*
X0049688Y0062034D02*
X0050238Y0061484D01*
X0048258Y0059504D01*
X0049138Y0060384D02*
X0048588Y0060934D01*
X0048550Y0060975D01*
X0048515Y0061018D01*
X0048484Y0061063D01*
X0048455Y0061111D01*
X0048430Y0061161D01*
X0048409Y0061212D01*
X0048392Y0061265D01*
X0048378Y0061319D01*
X0048368Y0061373D01*
X0048362Y0061428D01*
X0048360Y0061484D01*
X0048362Y0061540D01*
X0048368Y0061595D01*
X0048378Y0061649D01*
X0048392Y0061703D01*
X0048409Y0061756D01*
X0048430Y0061807D01*
X0048455Y0061857D01*
X0048484Y0061905D01*
X0048515Y0061950D01*
X0048550Y0061993D01*
X0048588Y0062034D01*
X0048629Y0062072D01*
X0048672Y0062107D01*
X0048717Y0062138D01*
X0048765Y0062167D01*
X0048815Y0062192D01*
X0048866Y0062213D01*
X0048919Y0062230D01*
X0048973Y0062244D01*
X0049027Y0062254D01*
X0049082Y0062260D01*
X0049138Y0062262D01*
X0049194Y0062260D01*
X0049249Y0062254D01*
X0049303Y0062244D01*
X0049357Y0062230D01*
X0049410Y0062213D01*
X0049461Y0062192D01*
X0049511Y0062167D01*
X0049559Y0062138D01*
X0049604Y0062107D01*
X0049647Y0062072D01*
X0049688Y0062034D01*
X0110335Y0028771D02*
X0110333Y0028676D01*
X0110327Y0028581D01*
X0110317Y0028486D01*
X0110304Y0028392D01*
X0110286Y0028299D01*
X0110265Y0028206D01*
X0110240Y0028114D01*
X0110211Y0028024D01*
X0110178Y0027934D01*
X0110142Y0027846D01*
X0110102Y0027760D01*
X0110180Y0027993D02*
X0108936Y0029549D01*
X0109013Y0029783D02*
X0109029Y0029824D01*
X0109049Y0029865D01*
X0109071Y0029903D01*
X0109096Y0029940D01*
X0109124Y0029975D01*
X0109155Y0030007D01*
X0109188Y0030037D01*
X0109223Y0030065D01*
X0109261Y0030089D01*
X0109300Y0030111D01*
X0109340Y0030129D01*
X0109382Y0030145D01*
X0109425Y0030156D01*
X0109469Y0030165D01*
X0109513Y0030170D01*
X0109558Y0030172D01*
X0109603Y0030170D01*
X0109647Y0030165D01*
X0109691Y0030156D01*
X0109734Y0030145D01*
X0109776Y0030129D01*
X0109816Y0030111D01*
X0109855Y0030089D01*
X0109893Y0030065D01*
X0109928Y0030037D01*
X0109961Y0030007D01*
X0109992Y0029975D01*
X0110020Y0029940D01*
X0110045Y0029903D01*
X0110067Y0029865D01*
X0110087Y0029824D01*
X0110103Y0029783D01*
X0109014Y0029782D02*
X0108974Y0029696D01*
X0108938Y0029608D01*
X0108905Y0029518D01*
X0108876Y0029428D01*
X0108851Y0029336D01*
X0108830Y0029243D01*
X0108812Y0029150D01*
X0108799Y0029056D01*
X0108789Y0028961D01*
X0108783Y0028866D01*
X0108781Y0028771D01*
X0110335Y0028771D02*
X0110333Y0028866D01*
X0110327Y0028961D01*
X0110317Y0029056D01*
X0110304Y0029150D01*
X0110286Y0029243D01*
X0110265Y0029336D01*
X0110240Y0029428D01*
X0110211Y0029518D01*
X0110178Y0029608D01*
X0110142Y0029696D01*
X0110102Y0029782D01*
X0108781Y0028771D02*
X0108783Y0028676D01*
X0108789Y0028581D01*
X0108799Y0028486D01*
X0108812Y0028392D01*
X0108830Y0028299D01*
X0108851Y0028206D01*
X0108876Y0028114D01*
X0108905Y0028024D01*
X0108938Y0027934D01*
X0108974Y0027846D01*
X0109014Y0027760D01*
X0109558Y0027371D02*
X0109603Y0027373D01*
X0109647Y0027378D01*
X0109691Y0027387D01*
X0109734Y0027398D01*
X0109776Y0027414D01*
X0109816Y0027432D01*
X0109855Y0027454D01*
X0109893Y0027478D01*
X0109928Y0027506D01*
X0109961Y0027536D01*
X0109992Y0027568D01*
X0110020Y0027603D01*
X0110045Y0027640D01*
X0110067Y0027678D01*
X0110087Y0027719D01*
X0110103Y0027760D01*
X0109558Y0027371D02*
X0109513Y0027373D01*
X0109469Y0027378D01*
X0109425Y0027387D01*
X0109382Y0027398D01*
X0109340Y0027414D01*
X0109300Y0027432D01*
X0109261Y0027454D01*
X0109223Y0027478D01*
X0109188Y0027506D01*
X0109155Y0027536D01*
X0109124Y0027568D01*
X0109096Y0027603D01*
X0109071Y0027640D01*
X0109049Y0027678D01*
X0109029Y0027719D01*
X0109013Y0027760D01*
X0112131Y0028616D02*
X0112909Y0028616D01*
X0112131Y0028615D02*
X0112075Y0028617D01*
X0112020Y0028623D01*
X0111966Y0028633D01*
X0111912Y0028647D01*
X0111859Y0028664D01*
X0111808Y0028685D01*
X0111758Y0028710D01*
X0111710Y0028739D01*
X0111665Y0028770D01*
X0111622Y0028805D01*
X0111581Y0028843D01*
X0111543Y0028884D01*
X0111508Y0028927D01*
X0111477Y0028972D01*
X0111448Y0029020D01*
X0111423Y0029070D01*
X0111402Y0029121D01*
X0111385Y0029174D01*
X0111371Y0029228D01*
X0111361Y0029282D01*
X0111355Y0029337D01*
X0111353Y0029393D01*
X0111355Y0029449D01*
X0111361Y0029504D01*
X0111371Y0029558D01*
X0111385Y0029612D01*
X0111402Y0029665D01*
X0111423Y0029716D01*
X0111448Y0029766D01*
X0111477Y0029814D01*
X0111508Y0029859D01*
X0111543Y0029902D01*
X0111581Y0029943D01*
X0111622Y0029981D01*
X0111665Y0030016D01*
X0111710Y0030047D01*
X0111758Y0030076D01*
X0111808Y0030101D01*
X0111859Y0030122D01*
X0111912Y0030139D01*
X0111966Y0030153D01*
X0112020Y0030163D01*
X0112075Y0030169D01*
X0112131Y0030171D01*
X0112909Y0030171D01*
X0112909Y0027371D01*
X0177974Y0048239D02*
X0178634Y0048899D01*
X0177974Y0048239D02*
X0177941Y0048203D01*
X0177911Y0048165D01*
X0177884Y0048124D01*
X0177860Y0048081D01*
X0177839Y0048037D01*
X0177822Y0047991D01*
X0177809Y0047944D01*
X0177800Y0047896D01*
X0177794Y0047848D01*
X0177792Y0047799D01*
X0177794Y0047750D01*
X0177800Y0047702D01*
X0177809Y0047654D01*
X0177822Y0047607D01*
X0177839Y0047561D01*
X0177860Y0047517D01*
X0177884Y0047474D01*
X0177911Y0047433D01*
X0177941Y0047395D01*
X0177974Y0047359D01*
X0178010Y0047326D01*
X0178048Y0047296D01*
X0178089Y0047269D01*
X0178132Y0047245D01*
X0178176Y0047224D01*
X0178222Y0047207D01*
X0178269Y0047194D01*
X0178317Y0047185D01*
X0178365Y0047179D01*
X0178414Y0047177D01*
X0178463Y0047179D01*
X0178511Y0047185D01*
X0178559Y0047194D01*
X0178606Y0047207D01*
X0178652Y0047224D01*
X0178696Y0047245D01*
X0178739Y0047269D01*
X0178780Y0047296D01*
X0178818Y0047326D01*
X0178854Y0047359D01*
X0179294Y0047799D01*
X0178963Y0047469D02*
X0178926Y0047429D01*
X0178892Y0047387D01*
X0178861Y0047343D01*
X0178833Y0047296D01*
X0178808Y0047248D01*
X0178787Y0047198D01*
X0178769Y0047146D01*
X0178755Y0047094D01*
X0178745Y0047041D01*
X0178738Y0046987D01*
X0178735Y0046933D01*
X0178736Y0046878D01*
X0178741Y0046824D01*
X0178749Y0046771D01*
X0178762Y0046718D01*
X0178777Y0046666D01*
X0178797Y0046615D01*
X0178820Y0046566D01*
X0178846Y0046518D01*
X0178876Y0046473D01*
X0178908Y0046429D01*
X0178944Y0046388D01*
X0178982Y0046350D01*
X0179023Y0046314D01*
X0179067Y0046282D01*
X0179112Y0046252D01*
X0179160Y0046226D01*
X0179209Y0046203D01*
X0179260Y0046183D01*
X0179312Y0046168D01*
X0179365Y0046155D01*
X0179418Y0046147D01*
X0179472Y0046142D01*
X0179527Y0046141D01*
X0179581Y0046144D01*
X0179635Y0046151D01*
X0179688Y0046161D01*
X0179740Y0046175D01*
X0179792Y0046193D01*
X0179842Y0046214D01*
X0179890Y0046239D01*
X0179937Y0046267D01*
X0179981Y0046298D01*
X0180023Y0046332D01*
X0180063Y0046369D01*
X0180613Y0046919D01*
X0181003Y0049069D02*
X0181553Y0049619D01*
X0181003Y0049069D02*
X0180962Y0049031D01*
X0180919Y0048996D01*
X0180874Y0048965D01*
X0180826Y0048936D01*
X0180776Y0048911D01*
X0180725Y0048890D01*
X0180672Y0048873D01*
X0180618Y0048859D01*
X0180564Y0048849D01*
X0180509Y0048843D01*
X0180453Y0048841D01*
X0180397Y0048843D01*
X0180342Y0048849D01*
X0180288Y0048859D01*
X0180234Y0048873D01*
X0180181Y0048890D01*
X0180130Y0048911D01*
X0180080Y0048936D01*
X0180032Y0048965D01*
X0179987Y0048996D01*
X0179944Y0049031D01*
X0179903Y0049069D01*
X0179865Y0049110D01*
X0179830Y0049153D01*
X0179799Y0049198D01*
X0179770Y0049246D01*
X0179745Y0049296D01*
X0179724Y0049347D01*
X0179707Y0049400D01*
X0179693Y0049454D01*
X0179683Y0049508D01*
X0179677Y0049563D01*
X0179675Y0049619D01*
X0179677Y0049675D01*
X0179683Y0049730D01*
X0179693Y0049784D01*
X0179707Y0049838D01*
X0179724Y0049891D01*
X0179745Y0049942D01*
X0179770Y0049992D01*
X0179799Y0050040D01*
X0179830Y0050085D01*
X0179865Y0050128D01*
X0179903Y0050169D01*
X0180453Y0050719D01*
X0182433Y0048739D01*
X0213307Y0109939D02*
X0216107Y0109939D01*
X0216107Y0110716D01*
X0216108Y0110716D02*
X0216106Y0110772D01*
X0216100Y0110827D01*
X0216090Y0110881D01*
X0216076Y0110935D01*
X0216059Y0110988D01*
X0216038Y0111039D01*
X0216013Y0111089D01*
X0215984Y0111137D01*
X0215953Y0111182D01*
X0215918Y0111225D01*
X0215880Y0111266D01*
X0215839Y0111304D01*
X0215796Y0111339D01*
X0215751Y0111370D01*
X0215703Y0111399D01*
X0215653Y0111424D01*
X0215602Y0111445D01*
X0215549Y0111462D01*
X0215495Y0111476D01*
X0215441Y0111486D01*
X0215386Y0111492D01*
X0215330Y0111494D01*
X0215274Y0111492D01*
X0215219Y0111486D01*
X0215165Y0111476D01*
X0215111Y0111462D01*
X0215058Y0111445D01*
X0215007Y0111424D01*
X0214957Y0111399D01*
X0214909Y0111370D01*
X0214864Y0111339D01*
X0214821Y0111304D01*
X0214780Y0111266D01*
X0214742Y0111225D01*
X0214707Y0111182D01*
X0214676Y0111137D01*
X0214647Y0111089D01*
X0214622Y0111039D01*
X0214601Y0110988D01*
X0214584Y0110935D01*
X0214570Y0110881D01*
X0214560Y0110827D01*
X0214554Y0110772D01*
X0214552Y0110716D01*
X0214552Y0109939D01*
X0214863Y0112512D02*
X0216107Y0112512D01*
X0216107Y0114067D01*
X0214863Y0113445D02*
X0214863Y0112512D01*
X0214863Y0113445D02*
X0214861Y0113494D01*
X0214855Y0113542D01*
X0214846Y0113590D01*
X0214833Y0113637D01*
X0214816Y0113683D01*
X0214795Y0113727D01*
X0214771Y0113770D01*
X0214744Y0113811D01*
X0214714Y0113849D01*
X0214681Y0113885D01*
X0214645Y0113918D01*
X0214607Y0113948D01*
X0214566Y0113975D01*
X0214523Y0113999D01*
X0214479Y0114020D01*
X0214433Y0114037D01*
X0214386Y0114050D01*
X0214338Y0114059D01*
X0214290Y0114065D01*
X0214241Y0114067D01*
X0213930Y0114067D01*
X0213881Y0114065D01*
X0213833Y0114059D01*
X0213785Y0114050D01*
X0213738Y0114037D01*
X0213692Y0114020D01*
X0213648Y0113999D01*
X0213605Y0113975D01*
X0213564Y0113948D01*
X0213526Y0113918D01*
X0213490Y0113885D01*
X0213457Y0113849D01*
X0213427Y0113811D01*
X0213400Y0113770D01*
X0213376Y0113727D01*
X0213355Y0113683D01*
X0213338Y0113637D01*
X0213325Y0113590D01*
X0213316Y0113542D01*
X0213310Y0113494D01*
X0213308Y0113445D01*
X0213307Y0113445D02*
X0213307Y0112512D01*
D12*
X0041335Y0041495D02*
X0041289Y0041449D01*
X0032381Y0050358D01*
X0032381Y0056482D01*
X0041289Y0065391D01*
X0053260Y0053420D01*
X0065648Y0041032D01*
X0053677Y0029061D01*
X0041289Y0041449D01*
X0041335Y0041495D02*
X0053260Y0053420D01*
X0053285Y0053445D01*
X0071008Y0056435D02*
X0071008Y0046435D01*
X0081008Y0046435D01*
X0081008Y0056435D01*
X0071008Y0056435D01*
X0071008Y0066435D01*
X0081008Y0066435D01*
X0081008Y0186435D01*
X0071008Y0186435D01*
X0071008Y0196435D01*
X0081008Y0196435D01*
X0081008Y0186435D01*
X0071008Y0186435D02*
X0071008Y0066435D01*
X0081008Y0066435D02*
X0081008Y0056435D01*
X0111256Y0054591D02*
X0111256Y0034906D01*
X0130941Y0034906D01*
X0130941Y0051047D01*
X0127398Y0054591D01*
X0126217Y0055772D01*
X0127792Y0057347D01*
X0130941Y0054591D01*
X0127398Y0054591D01*
X0111256Y0054591D01*
X0114326Y0044748D02*
X0114328Y0044914D01*
X0114334Y0045080D01*
X0114344Y0045246D01*
X0114359Y0045412D01*
X0114377Y0045577D01*
X0114399Y0045742D01*
X0114426Y0045906D01*
X0114456Y0046069D01*
X0114491Y0046232D01*
X0114529Y0046394D01*
X0114571Y0046554D01*
X0114618Y0046714D01*
X0114668Y0046873D01*
X0114722Y0047030D01*
X0114780Y0047186D01*
X0114842Y0047340D01*
X0114907Y0047493D01*
X0114976Y0047644D01*
X0115049Y0047793D01*
X0115126Y0047941D01*
X0115206Y0048086D01*
X0115290Y0048230D01*
X0115377Y0048372D01*
X0115467Y0048511D01*
X0115561Y0048648D01*
X0115659Y0048783D01*
X0115760Y0048915D01*
X0115863Y0049045D01*
X0115970Y0049172D01*
X0116081Y0049296D01*
X0116194Y0049418D01*
X0116310Y0049537D01*
X0116429Y0049653D01*
X0116551Y0049766D01*
X0116675Y0049877D01*
X0116802Y0049984D01*
X0116932Y0050087D01*
X0117064Y0050188D01*
X0117199Y0050286D01*
X0117336Y0050380D01*
X0117475Y0050470D01*
X0117617Y0050557D01*
X0117761Y0050641D01*
X0117906Y0050721D01*
X0118054Y0050798D01*
X0118203Y0050871D01*
X0118354Y0050940D01*
X0118507Y0051005D01*
X0118661Y0051067D01*
X0118817Y0051125D01*
X0118974Y0051179D01*
X0119133Y0051229D01*
X0119293Y0051276D01*
X0119453Y0051318D01*
X0119615Y0051356D01*
X0119778Y0051391D01*
X0119941Y0051421D01*
X0120105Y0051448D01*
X0120270Y0051470D01*
X0120435Y0051488D01*
X0120601Y0051503D01*
X0120767Y0051513D01*
X0120933Y0051519D01*
X0121099Y0051521D01*
X0121265Y0051519D01*
X0121431Y0051513D01*
X0121597Y0051503D01*
X0121763Y0051488D01*
X0121928Y0051470D01*
X0122093Y0051448D01*
X0122257Y0051421D01*
X0122420Y0051391D01*
X0122583Y0051356D01*
X0122745Y0051318D01*
X0122905Y0051276D01*
X0123065Y0051229D01*
X0123224Y0051179D01*
X0123381Y0051125D01*
X0123537Y0051067D01*
X0123691Y0051005D01*
X0123844Y0050940D01*
X0123995Y0050871D01*
X0124144Y0050798D01*
X0124292Y0050721D01*
X0124437Y0050641D01*
X0124581Y0050557D01*
X0124723Y0050470D01*
X0124862Y0050380D01*
X0124999Y0050286D01*
X0125134Y0050188D01*
X0125266Y0050087D01*
X0125396Y0049984D01*
X0125523Y0049877D01*
X0125647Y0049766D01*
X0125769Y0049653D01*
X0125888Y0049537D01*
X0126004Y0049418D01*
X0126117Y0049296D01*
X0126228Y0049172D01*
X0126335Y0049045D01*
X0126438Y0048915D01*
X0126539Y0048783D01*
X0126637Y0048648D01*
X0126731Y0048511D01*
X0126821Y0048372D01*
X0126908Y0048230D01*
X0126992Y0048086D01*
X0127072Y0047941D01*
X0127149Y0047793D01*
X0127222Y0047644D01*
X0127291Y0047493D01*
X0127356Y0047340D01*
X0127418Y0047186D01*
X0127476Y0047030D01*
X0127530Y0046873D01*
X0127580Y0046714D01*
X0127627Y0046554D01*
X0127669Y0046394D01*
X0127707Y0046232D01*
X0127742Y0046069D01*
X0127772Y0045906D01*
X0127799Y0045742D01*
X0127821Y0045577D01*
X0127839Y0045412D01*
X0127854Y0045246D01*
X0127864Y0045080D01*
X0127870Y0044914D01*
X0127872Y0044748D01*
X0127870Y0044582D01*
X0127864Y0044416D01*
X0127854Y0044250D01*
X0127839Y0044084D01*
X0127821Y0043919D01*
X0127799Y0043754D01*
X0127772Y0043590D01*
X0127742Y0043427D01*
X0127707Y0043264D01*
X0127669Y0043102D01*
X0127627Y0042942D01*
X0127580Y0042782D01*
X0127530Y0042623D01*
X0127476Y0042466D01*
X0127418Y0042310D01*
X0127356Y0042156D01*
X0127291Y0042003D01*
X0127222Y0041852D01*
X0127149Y0041703D01*
X0127072Y0041555D01*
X0126992Y0041410D01*
X0126908Y0041266D01*
X0126821Y0041124D01*
X0126731Y0040985D01*
X0126637Y0040848D01*
X0126539Y0040713D01*
X0126438Y0040581D01*
X0126335Y0040451D01*
X0126228Y0040324D01*
X0126117Y0040200D01*
X0126004Y0040078D01*
X0125888Y0039959D01*
X0125769Y0039843D01*
X0125647Y0039730D01*
X0125523Y0039619D01*
X0125396Y0039512D01*
X0125266Y0039409D01*
X0125134Y0039308D01*
X0124999Y0039210D01*
X0124862Y0039116D01*
X0124723Y0039026D01*
X0124581Y0038939D01*
X0124437Y0038855D01*
X0124292Y0038775D01*
X0124144Y0038698D01*
X0123995Y0038625D01*
X0123844Y0038556D01*
X0123691Y0038491D01*
X0123537Y0038429D01*
X0123381Y0038371D01*
X0123224Y0038317D01*
X0123065Y0038267D01*
X0122905Y0038220D01*
X0122745Y0038178D01*
X0122583Y0038140D01*
X0122420Y0038105D01*
X0122257Y0038075D01*
X0122093Y0038048D01*
X0121928Y0038026D01*
X0121763Y0038008D01*
X0121597Y0037993D01*
X0121431Y0037983D01*
X0121265Y0037977D01*
X0121099Y0037975D01*
X0120933Y0037977D01*
X0120767Y0037983D01*
X0120601Y0037993D01*
X0120435Y0038008D01*
X0120270Y0038026D01*
X0120105Y0038048D01*
X0119941Y0038075D01*
X0119778Y0038105D01*
X0119615Y0038140D01*
X0119453Y0038178D01*
X0119293Y0038220D01*
X0119133Y0038267D01*
X0118974Y0038317D01*
X0118817Y0038371D01*
X0118661Y0038429D01*
X0118507Y0038491D01*
X0118354Y0038556D01*
X0118203Y0038625D01*
X0118054Y0038698D01*
X0117906Y0038775D01*
X0117761Y0038855D01*
X0117617Y0038939D01*
X0117475Y0039026D01*
X0117336Y0039116D01*
X0117199Y0039210D01*
X0117064Y0039308D01*
X0116932Y0039409D01*
X0116802Y0039512D01*
X0116675Y0039619D01*
X0116551Y0039730D01*
X0116429Y0039843D01*
X0116310Y0039959D01*
X0116194Y0040078D01*
X0116081Y0040200D01*
X0115970Y0040324D01*
X0115863Y0040451D01*
X0115760Y0040581D01*
X0115659Y0040713D01*
X0115561Y0040848D01*
X0115467Y0040985D01*
X0115377Y0041124D01*
X0115290Y0041266D01*
X0115206Y0041410D01*
X0115126Y0041555D01*
X0115049Y0041703D01*
X0114976Y0041852D01*
X0114907Y0042003D01*
X0114842Y0042156D01*
X0114780Y0042310D01*
X0114722Y0042466D01*
X0114668Y0042623D01*
X0114618Y0042782D01*
X0114571Y0042942D01*
X0114529Y0043102D01*
X0114491Y0043264D01*
X0114456Y0043427D01*
X0114426Y0043590D01*
X0114399Y0043754D01*
X0114377Y0043919D01*
X0114359Y0044084D01*
X0114344Y0044250D01*
X0114334Y0044416D01*
X0114328Y0044582D01*
X0114326Y0044748D01*
X0130941Y0051047D02*
X0130941Y0054591D01*
X0138567Y0025430D02*
X0121047Y0025430D01*
X0104118Y0025430D01*
X0104118Y0012831D01*
X0108448Y0008501D01*
X0121047Y0008501D01*
X0121047Y0008565D01*
X0121047Y0025430D01*
X0121047Y0025465D01*
X0121047Y0008501D02*
X0138567Y0008501D01*
X0138567Y0025430D01*
X0161008Y0046435D02*
X0161008Y0196435D01*
X0171008Y0196435D01*
X0171008Y0046435D01*
X0161008Y0046435D01*
X0176917Y0041462D02*
X0188887Y0053433D01*
X0201276Y0065821D01*
X0213246Y0053850D01*
X0200858Y0041462D01*
X0200813Y0041508D01*
X0188887Y0053433D01*
X0188862Y0053458D01*
X0176917Y0041462D02*
X0185825Y0032554D01*
X0191950Y0032554D01*
X0200858Y0041462D01*
X0216957Y0104329D02*
X0216957Y0121259D01*
X0216957Y0138778D01*
X0233886Y0138778D01*
X0233886Y0121259D01*
X0233822Y0121259D01*
X0216957Y0121259D01*
X0216922Y0121259D01*
X0216957Y0104329D02*
X0229556Y0104329D01*
X0233886Y0108660D01*
X0233886Y0121259D01*
X0200708Y0177554D02*
X0188737Y0189525D01*
X0176349Y0201913D01*
X0188319Y0213884D01*
X0200708Y0201496D01*
X0200662Y0201450D01*
X0188737Y0189525D01*
X0188712Y0189500D01*
X0200708Y0177554D02*
X0209616Y0186463D01*
X0209616Y0192587D01*
X0200708Y0201496D01*
X0138045Y0217157D02*
X0121116Y0217157D01*
X0103596Y0217157D01*
X0103596Y0234086D01*
X0121116Y0234086D01*
X0121116Y0234022D01*
X0121116Y0217157D01*
X0121116Y0217122D01*
X0127765Y0207639D02*
X0126190Y0206065D01*
X0127371Y0204884D01*
X0130915Y0201340D01*
X0130915Y0204884D01*
X0127765Y0207639D01*
X0127371Y0204884D02*
X0111230Y0204884D01*
X0111230Y0185199D01*
X0130915Y0185199D01*
X0130915Y0201340D01*
X0130915Y0204884D02*
X0127371Y0204884D01*
X0114299Y0195041D02*
X0114301Y0195207D01*
X0114307Y0195373D01*
X0114317Y0195539D01*
X0114332Y0195705D01*
X0114350Y0195870D01*
X0114372Y0196035D01*
X0114399Y0196199D01*
X0114429Y0196362D01*
X0114464Y0196525D01*
X0114502Y0196687D01*
X0114544Y0196847D01*
X0114591Y0197007D01*
X0114641Y0197166D01*
X0114695Y0197323D01*
X0114753Y0197479D01*
X0114815Y0197633D01*
X0114880Y0197786D01*
X0114949Y0197937D01*
X0115022Y0198086D01*
X0115099Y0198234D01*
X0115179Y0198379D01*
X0115263Y0198523D01*
X0115350Y0198665D01*
X0115440Y0198804D01*
X0115534Y0198941D01*
X0115632Y0199076D01*
X0115733Y0199208D01*
X0115836Y0199338D01*
X0115943Y0199465D01*
X0116054Y0199589D01*
X0116167Y0199711D01*
X0116283Y0199830D01*
X0116402Y0199946D01*
X0116524Y0200059D01*
X0116648Y0200170D01*
X0116775Y0200277D01*
X0116905Y0200380D01*
X0117037Y0200481D01*
X0117172Y0200579D01*
X0117309Y0200673D01*
X0117448Y0200763D01*
X0117590Y0200850D01*
X0117734Y0200934D01*
X0117879Y0201014D01*
X0118027Y0201091D01*
X0118176Y0201164D01*
X0118327Y0201233D01*
X0118480Y0201298D01*
X0118634Y0201360D01*
X0118790Y0201418D01*
X0118947Y0201472D01*
X0119106Y0201522D01*
X0119266Y0201569D01*
X0119426Y0201611D01*
X0119588Y0201649D01*
X0119751Y0201684D01*
X0119914Y0201714D01*
X0120078Y0201741D01*
X0120243Y0201763D01*
X0120408Y0201781D01*
X0120574Y0201796D01*
X0120740Y0201806D01*
X0120906Y0201812D01*
X0121072Y0201814D01*
X0121238Y0201812D01*
X0121404Y0201806D01*
X0121570Y0201796D01*
X0121736Y0201781D01*
X0121901Y0201763D01*
X0122066Y0201741D01*
X0122230Y0201714D01*
X0122393Y0201684D01*
X0122556Y0201649D01*
X0122718Y0201611D01*
X0122878Y0201569D01*
X0123038Y0201522D01*
X0123197Y0201472D01*
X0123354Y0201418D01*
X0123510Y0201360D01*
X0123664Y0201298D01*
X0123817Y0201233D01*
X0123968Y0201164D01*
X0124117Y0201091D01*
X0124265Y0201014D01*
X0124410Y0200934D01*
X0124554Y0200850D01*
X0124696Y0200763D01*
X0124835Y0200673D01*
X0124972Y0200579D01*
X0125107Y0200481D01*
X0125239Y0200380D01*
X0125369Y0200277D01*
X0125496Y0200170D01*
X0125620Y0200059D01*
X0125742Y0199946D01*
X0125861Y0199830D01*
X0125977Y0199711D01*
X0126090Y0199589D01*
X0126201Y0199465D01*
X0126308Y0199338D01*
X0126411Y0199208D01*
X0126512Y0199076D01*
X0126610Y0198941D01*
X0126704Y0198804D01*
X0126794Y0198665D01*
X0126881Y0198523D01*
X0126965Y0198379D01*
X0127045Y0198234D01*
X0127122Y0198086D01*
X0127195Y0197937D01*
X0127264Y0197786D01*
X0127329Y0197633D01*
X0127391Y0197479D01*
X0127449Y0197323D01*
X0127503Y0197166D01*
X0127553Y0197007D01*
X0127600Y0196847D01*
X0127642Y0196687D01*
X0127680Y0196525D01*
X0127715Y0196362D01*
X0127745Y0196199D01*
X0127772Y0196035D01*
X0127794Y0195870D01*
X0127812Y0195705D01*
X0127827Y0195539D01*
X0127837Y0195373D01*
X0127843Y0195207D01*
X0127845Y0195041D01*
X0127843Y0194875D01*
X0127837Y0194709D01*
X0127827Y0194543D01*
X0127812Y0194377D01*
X0127794Y0194212D01*
X0127772Y0194047D01*
X0127745Y0193883D01*
X0127715Y0193720D01*
X0127680Y0193557D01*
X0127642Y0193395D01*
X0127600Y0193235D01*
X0127553Y0193075D01*
X0127503Y0192916D01*
X0127449Y0192759D01*
X0127391Y0192603D01*
X0127329Y0192449D01*
X0127264Y0192296D01*
X0127195Y0192145D01*
X0127122Y0191996D01*
X0127045Y0191848D01*
X0126965Y0191703D01*
X0126881Y0191559D01*
X0126794Y0191417D01*
X0126704Y0191278D01*
X0126610Y0191141D01*
X0126512Y0191006D01*
X0126411Y0190874D01*
X0126308Y0190744D01*
X0126201Y0190617D01*
X0126090Y0190493D01*
X0125977Y0190371D01*
X0125861Y0190252D01*
X0125742Y0190136D01*
X0125620Y0190023D01*
X0125496Y0189912D01*
X0125369Y0189805D01*
X0125239Y0189702D01*
X0125107Y0189601D01*
X0124972Y0189503D01*
X0124835Y0189409D01*
X0124696Y0189319D01*
X0124554Y0189232D01*
X0124410Y0189148D01*
X0124265Y0189068D01*
X0124117Y0188991D01*
X0123968Y0188918D01*
X0123817Y0188849D01*
X0123664Y0188784D01*
X0123510Y0188722D01*
X0123354Y0188664D01*
X0123197Y0188610D01*
X0123038Y0188560D01*
X0122878Y0188513D01*
X0122718Y0188471D01*
X0122556Y0188433D01*
X0122393Y0188398D01*
X0122230Y0188368D01*
X0122066Y0188341D01*
X0121901Y0188319D01*
X0121736Y0188301D01*
X0121570Y0188286D01*
X0121404Y0188276D01*
X0121238Y0188270D01*
X0121072Y0188268D01*
X0120906Y0188270D01*
X0120740Y0188276D01*
X0120574Y0188286D01*
X0120408Y0188301D01*
X0120243Y0188319D01*
X0120078Y0188341D01*
X0119914Y0188368D01*
X0119751Y0188398D01*
X0119588Y0188433D01*
X0119426Y0188471D01*
X0119266Y0188513D01*
X0119106Y0188560D01*
X0118947Y0188610D01*
X0118790Y0188664D01*
X0118634Y0188722D01*
X0118480Y0188784D01*
X0118327Y0188849D01*
X0118176Y0188918D01*
X0118027Y0188991D01*
X0117879Y0189068D01*
X0117734Y0189148D01*
X0117590Y0189232D01*
X0117448Y0189319D01*
X0117309Y0189409D01*
X0117172Y0189503D01*
X0117037Y0189601D01*
X0116905Y0189702D01*
X0116775Y0189805D01*
X0116648Y0189912D01*
X0116524Y0190023D01*
X0116402Y0190136D01*
X0116283Y0190252D01*
X0116167Y0190371D01*
X0116054Y0190493D01*
X0115943Y0190617D01*
X0115836Y0190744D01*
X0115733Y0190874D01*
X0115632Y0191006D01*
X0115534Y0191141D01*
X0115440Y0191278D01*
X0115350Y0191417D01*
X0115263Y0191559D01*
X0115179Y0191703D01*
X0115099Y0191848D01*
X0115022Y0191996D01*
X0114949Y0192145D01*
X0114880Y0192296D01*
X0114815Y0192449D01*
X0114753Y0192603D01*
X0114695Y0192759D01*
X0114641Y0192916D01*
X0114591Y0193075D01*
X0114544Y0193235D01*
X0114502Y0193395D01*
X0114464Y0193557D01*
X0114429Y0193720D01*
X0114399Y0193883D01*
X0114372Y0194047D01*
X0114350Y0194212D01*
X0114332Y0194377D01*
X0114317Y0194543D01*
X0114307Y0194709D01*
X0114301Y0194875D01*
X0114299Y0195041D01*
X0138045Y0217157D02*
X0138045Y0229756D01*
X0133714Y0234086D01*
X0121116Y0234086D01*
X0065226Y0201095D02*
X0053255Y0189125D01*
X0040867Y0176736D01*
X0028896Y0188707D01*
X0041284Y0201095D01*
X0041330Y0201050D01*
X0053255Y0189125D01*
X0053280Y0189099D01*
X0065226Y0201095D02*
X0056317Y0210004D01*
X0050193Y0210004D01*
X0041284Y0201095D01*
X0025195Y0138237D02*
X0012597Y0138237D01*
X0008266Y0133906D01*
X0008266Y0121308D01*
X0008331Y0121308D01*
X0025195Y0121308D01*
X0025195Y0138237D01*
X0025195Y0121308D02*
X0025195Y0103788D01*
X0008266Y0103788D01*
X0008266Y0121308D01*
X0025195Y0121308D02*
X0025231Y0121308D01*
M02*
