G75*
%MOIN*%
%OFA0B0*%
%FSLAX25Y25*%
%IPPOS*%
%LPD*%
%AMOC8*
5,1,8,0,0,1.08239X$1,22.5*
%
%ADD10C,0.00500*%
%ADD11C,0.00600*%
%ADD12C,0.00050*%
%ADD13C,0.00800*%
%ADD14C,0.00400*%
%ADD15C,0.01761*%
%ADD16R,0.00591X0.01181*%
%ADD17R,0.01181X0.01181*%
D10*
X0032425Y0050263D02*
X0032425Y0056627D01*
X0041264Y0065466D01*
X0065659Y0041071D01*
X0053638Y0029050D01*
X0032425Y0050263D01*
X0071008Y0046435D02*
X0071008Y0056435D01*
X0081008Y0056435D01*
X0081008Y0046435D01*
X0071008Y0046435D01*
X0071008Y0056435D02*
X0071008Y0066435D01*
X0081008Y0066435D01*
X0081008Y0056435D01*
X0081008Y0066435D02*
X0081008Y0186435D01*
X0071008Y0186435D01*
X0071008Y0196435D01*
X0081008Y0196435D01*
X0081008Y0186435D01*
X0071008Y0186435D02*
X0071008Y0066435D01*
X0081748Y0045684D02*
X0160488Y0045684D01*
X0160488Y0124424D01*
X0081748Y0124424D01*
X0081748Y0045684D01*
X0104047Y0025465D02*
X0104047Y0012965D01*
X0108547Y0008465D01*
X0138547Y0008465D01*
X0138547Y0025465D01*
X0104047Y0025465D01*
X0161008Y0046435D02*
X0161008Y0196435D01*
X0171008Y0196435D01*
X0171008Y0046435D01*
X0161008Y0046435D01*
X0176842Y0041437D02*
X0185680Y0032598D01*
X0192044Y0032598D01*
X0213258Y0053812D01*
X0201237Y0065832D01*
X0176842Y0041437D01*
X0216922Y0104259D02*
X0229422Y0104259D01*
X0233922Y0108759D01*
X0233922Y0138759D01*
X0216922Y0138759D01*
X0216922Y0104259D01*
X0200733Y0177479D02*
X0209572Y0186318D01*
X0209572Y0192682D01*
X0188358Y0213895D01*
X0176338Y0201874D01*
X0200733Y0177479D01*
X0138116Y0217122D02*
X0138116Y0229622D01*
X0133616Y0234122D01*
X0103616Y0234122D01*
X0103616Y0217122D01*
X0138116Y0217122D01*
X0116008Y0211435D02*
X0116008Y0201435D01*
X0106008Y0211435D02*
X0101008Y0211435D01*
X0091008Y0216435D02*
X0071008Y0216435D01*
X0056462Y0209959D02*
X0065301Y0201120D01*
X0040906Y0176725D01*
X0028885Y0188746D01*
X0050098Y0209959D01*
X0056462Y0209959D01*
X0041947Y0174893D02*
X0041947Y0158396D01*
X0035947Y0161117D02*
X0035947Y0162172D01*
X0035947Y0171117D02*
X0035947Y0172172D01*
X0048369Y0168730D02*
X0048369Y0152234D01*
X0054369Y0154954D02*
X0054369Y0156009D01*
X0050491Y0150936D02*
X0050266Y0151043D01*
X0050043Y0151155D01*
X0049823Y0151272D01*
X0049606Y0151394D01*
X0049391Y0151522D01*
X0049180Y0151655D01*
X0048972Y0151792D01*
X0048768Y0151935D01*
X0048566Y0152082D01*
X0048369Y0152234D01*
X0059341Y0150982D02*
X0059571Y0151094D01*
X0059798Y0151211D01*
X0060022Y0151333D01*
X0060243Y0151461D01*
X0060460Y0151595D01*
X0060675Y0151733D01*
X0060886Y0151877D01*
X0061093Y0152026D01*
X0061297Y0152180D01*
X0061497Y0152338D01*
X0061693Y0152502D01*
X0061885Y0152670D01*
X0062073Y0152843D01*
X0062257Y0153021D01*
X0062436Y0153202D01*
X0062611Y0153389D01*
X0062781Y0153579D01*
X0062946Y0153773D01*
X0063107Y0153972D01*
X0063263Y0154174D01*
X0063414Y0154380D01*
X0063560Y0154590D01*
X0063700Y0154803D01*
X0063836Y0155019D01*
X0063966Y0155239D01*
X0064091Y0155462D01*
X0064210Y0155687D01*
X0064324Y0155916D01*
X0064432Y0156147D01*
X0064535Y0156381D01*
X0064632Y0156617D01*
X0064723Y0156856D01*
X0064808Y0157096D01*
X0064888Y0157339D01*
X0064961Y0157584D01*
X0065029Y0157830D01*
X0065090Y0158078D01*
X0065145Y0158327D01*
X0065195Y0158577D01*
X0065238Y0158829D01*
X0065275Y0159082D01*
X0065306Y0159335D01*
X0065331Y0159589D01*
X0065350Y0159844D01*
X0065362Y0160099D01*
X0065368Y0160354D01*
X0065368Y0160610D01*
X0065362Y0160865D01*
X0065350Y0161120D01*
X0065331Y0161375D01*
X0065306Y0161629D01*
X0065275Y0161882D01*
X0065238Y0162135D01*
X0065195Y0162387D01*
X0065145Y0162637D01*
X0065090Y0162886D01*
X0065029Y0163134D01*
X0064961Y0163380D01*
X0064888Y0163625D01*
X0064808Y0163868D01*
X0064723Y0164108D01*
X0064632Y0164347D01*
X0064535Y0164583D01*
X0064432Y0164817D01*
X0064324Y0165048D01*
X0064210Y0165277D01*
X0064091Y0165502D01*
X0063966Y0165725D01*
X0063836Y0165945D01*
X0063700Y0166161D01*
X0063560Y0166374D01*
X0063414Y0166584D01*
X0063263Y0166790D01*
X0063107Y0166992D01*
X0062946Y0167191D01*
X0062781Y0167385D01*
X0062611Y0167575D01*
X0062436Y0167762D01*
X0062257Y0167943D01*
X0062073Y0168121D01*
X0061885Y0168294D01*
X0061693Y0168462D01*
X0061497Y0168626D01*
X0061297Y0168784D01*
X0061093Y0168938D01*
X0060886Y0169087D01*
X0060675Y0169231D01*
X0060460Y0169369D01*
X0060243Y0169503D01*
X0060022Y0169631D01*
X0059798Y0169753D01*
X0059571Y0169870D01*
X0059341Y0169982D01*
X0054369Y0166009D02*
X0054369Y0164954D01*
X0050397Y0169984D02*
X0050182Y0169880D01*
X0049969Y0169771D01*
X0049759Y0169657D01*
X0049552Y0169538D01*
X0049347Y0169415D01*
X0049145Y0169287D01*
X0048946Y0169154D01*
X0048751Y0169017D01*
X0048558Y0168876D01*
X0048369Y0168730D01*
X0025231Y0138308D02*
X0012731Y0138308D01*
X0008231Y0133808D01*
X0008231Y0103808D01*
X0025231Y0103808D01*
X0025231Y0138308D01*
X0118919Y0155135D02*
X0136242Y0155135D01*
X0136242Y0171671D01*
X0118919Y0171671D01*
X0118919Y0155135D01*
D11*
X0055073Y0134677D02*
X0055073Y0129677D01*
X0052573Y0127177D01*
X0055073Y0124677D01*
X0055073Y0119677D01*
X0052573Y0117177D01*
X0055073Y0114677D01*
X0055073Y0109677D01*
X0052573Y0107177D01*
X0047573Y0107177D01*
X0045073Y0109677D01*
X0045073Y0114677D01*
X0047573Y0117177D01*
X0045073Y0119677D01*
X0045073Y0124677D01*
X0047573Y0127177D01*
X0045073Y0129677D01*
X0045073Y0134677D01*
X0047573Y0137177D01*
X0052573Y0137177D01*
X0055073Y0134677D01*
X0052573Y0127177D02*
X0047573Y0127177D01*
X0047573Y0117177D02*
X0052573Y0117177D01*
X0052603Y0107085D02*
X0047603Y0107085D01*
X0045103Y0104585D01*
X0045103Y0099585D01*
X0047603Y0097085D01*
X0052603Y0097085D01*
X0055103Y0099585D01*
X0055103Y0104585D01*
X0052603Y0107085D01*
X0052603Y0097085D02*
X0055103Y0094585D01*
X0055103Y0089585D01*
X0052603Y0087085D01*
X0055103Y0084585D01*
X0055103Y0079585D01*
X0052603Y0077085D01*
X0047603Y0077085D01*
X0045103Y0079585D01*
X0045103Y0084585D01*
X0047603Y0087085D01*
X0045103Y0089585D01*
X0045103Y0094585D01*
X0047603Y0097085D01*
X0047603Y0087085D02*
X0052603Y0087085D01*
X0187803Y0088735D02*
X0187803Y0093735D01*
X0190303Y0096235D01*
X0187803Y0098735D01*
X0187803Y0103735D01*
X0190303Y0106235D01*
X0195303Y0106235D01*
X0197803Y0103735D01*
X0197803Y0098735D01*
X0195303Y0096235D01*
X0197803Y0093735D01*
X0197803Y0088735D01*
X0195303Y0086235D01*
X0197803Y0083735D01*
X0197803Y0078735D01*
X0195303Y0076235D01*
X0190303Y0076235D01*
X0187803Y0078735D01*
X0187803Y0083735D01*
X0190303Y0086235D01*
X0187803Y0088735D01*
X0190303Y0086235D02*
X0195303Y0086235D01*
X0195303Y0096235D02*
X0190303Y0096235D01*
X0190253Y0106263D02*
X0187753Y0108763D01*
X0187753Y0113763D01*
X0190253Y0116263D01*
X0187753Y0118763D01*
X0187753Y0123763D01*
X0190253Y0126263D01*
X0187753Y0128763D01*
X0187753Y0133763D01*
X0190253Y0136263D01*
X0195253Y0136263D01*
X0197753Y0133763D01*
X0197753Y0128763D01*
X0195253Y0126263D01*
X0197753Y0123763D01*
X0197753Y0118763D01*
X0195253Y0116263D01*
X0197753Y0113763D01*
X0197753Y0108763D01*
X0195253Y0106263D01*
X0190253Y0106263D01*
X0190253Y0116263D02*
X0195253Y0116263D01*
X0195253Y0126263D02*
X0190253Y0126263D01*
X0194359Y0141889D02*
X0191859Y0144389D01*
X0191859Y0149389D01*
X0194359Y0151889D01*
X0199359Y0151889D01*
X0201859Y0149389D01*
X0204359Y0151889D01*
X0209359Y0151889D01*
X0211859Y0149389D01*
X0211859Y0144389D01*
X0209359Y0141889D01*
X0204359Y0141889D01*
X0201859Y0144389D01*
X0199359Y0141889D01*
X0194359Y0141889D01*
X0201859Y0144389D02*
X0201859Y0149389D01*
D12*
X0030857Y0176337D02*
X0031049Y0175930D01*
X0031048Y0175931D02*
X0030822Y0175820D01*
X0030598Y0175704D01*
X0030377Y0175582D01*
X0030160Y0175455D01*
X0029945Y0175323D01*
X0029734Y0175185D01*
X0029526Y0175043D01*
X0029322Y0174895D01*
X0029121Y0174742D01*
X0028925Y0174585D01*
X0028732Y0174422D01*
X0028543Y0174255D01*
X0028359Y0174084D01*
X0028178Y0173907D01*
X0028002Y0173727D01*
X0027831Y0173542D01*
X0027664Y0173353D01*
X0027502Y0173160D01*
X0027344Y0172964D01*
X0027192Y0172763D01*
X0027044Y0172559D01*
X0026902Y0172351D01*
X0026764Y0172139D01*
X0026632Y0171925D01*
X0026505Y0171707D01*
X0026384Y0171486D01*
X0026268Y0171262D01*
X0026157Y0171036D01*
X0026053Y0170807D01*
X0025953Y0170575D01*
X0025860Y0170341D01*
X0025772Y0170105D01*
X0025690Y0169866D01*
X0025614Y0169626D01*
X0025544Y0169384D01*
X0025480Y0169140D01*
X0025421Y0168895D01*
X0025369Y0168648D01*
X0025323Y0168401D01*
X0025283Y0168152D01*
X0025249Y0167902D01*
X0025221Y0167652D01*
X0025200Y0167400D01*
X0025184Y0167149D01*
X0025175Y0166897D01*
X0025172Y0166645D01*
X0025175Y0166393D01*
X0025184Y0166141D01*
X0025200Y0165890D01*
X0025221Y0165638D01*
X0025249Y0165388D01*
X0025283Y0165138D01*
X0025323Y0164889D01*
X0025369Y0164642D01*
X0025421Y0164395D01*
X0025480Y0164150D01*
X0025544Y0163906D01*
X0025614Y0163664D01*
X0025690Y0163424D01*
X0025772Y0163185D01*
X0025860Y0162949D01*
X0025953Y0162715D01*
X0026053Y0162483D01*
X0026157Y0162254D01*
X0026268Y0162028D01*
X0026384Y0161804D01*
X0026505Y0161583D01*
X0026632Y0161365D01*
X0026764Y0161151D01*
X0026902Y0160939D01*
X0027044Y0160731D01*
X0027192Y0160527D01*
X0027344Y0160326D01*
X0027502Y0160130D01*
X0027664Y0159937D01*
X0027831Y0159748D01*
X0028002Y0159563D01*
X0028178Y0159383D01*
X0028359Y0159206D01*
X0028543Y0159035D01*
X0028732Y0158868D01*
X0028925Y0158705D01*
X0029121Y0158548D01*
X0029322Y0158395D01*
X0029526Y0158247D01*
X0029734Y0158105D01*
X0029945Y0157967D01*
X0030160Y0157835D01*
X0030377Y0157708D01*
X0030598Y0157586D01*
X0030822Y0157470D01*
X0031048Y0157359D01*
X0030857Y0156953D01*
X0030857Y0156952D01*
X0030620Y0157068D01*
X0030387Y0157189D01*
X0030156Y0157316D01*
X0029929Y0157448D01*
X0029705Y0157587D01*
X0029485Y0157730D01*
X0029268Y0157879D01*
X0029054Y0158033D01*
X0028845Y0158193D01*
X0028640Y0158357D01*
X0028439Y0158527D01*
X0028242Y0158701D01*
X0028049Y0158880D01*
X0027861Y0159064D01*
X0027677Y0159252D01*
X0027498Y0159445D01*
X0027324Y0159642D01*
X0027154Y0159844D01*
X0026990Y0160049D01*
X0026831Y0160259D01*
X0026677Y0160472D01*
X0026528Y0160689D01*
X0026384Y0160909D01*
X0026247Y0161134D01*
X0026114Y0161361D01*
X0025987Y0161591D01*
X0025866Y0161825D01*
X0025751Y0162061D01*
X0025641Y0162301D01*
X0025538Y0162542D01*
X0025440Y0162787D01*
X0025348Y0163033D01*
X0025263Y0163282D01*
X0025183Y0163533D01*
X0025110Y0163786D01*
X0025043Y0164040D01*
X0024982Y0164296D01*
X0024928Y0164554D01*
X0024880Y0164812D01*
X0024838Y0165072D01*
X0024803Y0165333D01*
X0024774Y0165594D01*
X0024751Y0165856D01*
X0024735Y0166119D01*
X0024725Y0166382D01*
X0024722Y0166645D01*
X0024725Y0166908D01*
X0024735Y0167171D01*
X0024751Y0167434D01*
X0024774Y0167696D01*
X0024803Y0167957D01*
X0024838Y0168218D01*
X0024880Y0168478D01*
X0024928Y0168736D01*
X0024982Y0168994D01*
X0025043Y0169250D01*
X0025110Y0169504D01*
X0025183Y0169757D01*
X0025263Y0170008D01*
X0025348Y0170257D01*
X0025440Y0170503D01*
X0025538Y0170748D01*
X0025641Y0170989D01*
X0025751Y0171229D01*
X0025866Y0171465D01*
X0025987Y0171699D01*
X0026114Y0171929D01*
X0026247Y0172156D01*
X0026384Y0172381D01*
X0026528Y0172601D01*
X0026677Y0172818D01*
X0026831Y0173031D01*
X0026990Y0173241D01*
X0027154Y0173446D01*
X0027324Y0173648D01*
X0027498Y0173845D01*
X0027677Y0174038D01*
X0027861Y0174226D01*
X0028049Y0174410D01*
X0028242Y0174589D01*
X0028439Y0174763D01*
X0028640Y0174933D01*
X0028845Y0175097D01*
X0029054Y0175257D01*
X0029268Y0175411D01*
X0029485Y0175560D01*
X0029705Y0175703D01*
X0029929Y0175842D01*
X0030156Y0175974D01*
X0030387Y0176101D01*
X0030620Y0176222D01*
X0030857Y0176338D01*
X0030877Y0176295D01*
X0030641Y0176180D01*
X0030409Y0176060D01*
X0030179Y0175933D01*
X0029953Y0175801D01*
X0029730Y0175664D01*
X0029511Y0175521D01*
X0029295Y0175372D01*
X0029082Y0175219D01*
X0028874Y0175060D01*
X0028670Y0174896D01*
X0028469Y0174728D01*
X0028273Y0174554D01*
X0028081Y0174376D01*
X0027894Y0174193D01*
X0027711Y0174005D01*
X0027533Y0173813D01*
X0027359Y0173617D01*
X0027191Y0173416D01*
X0027027Y0173212D01*
X0026868Y0173003D01*
X0026715Y0172791D01*
X0026567Y0172575D01*
X0026424Y0172355D01*
X0026287Y0172132D01*
X0026155Y0171906D01*
X0026029Y0171676D01*
X0025908Y0171444D01*
X0025793Y0171208D01*
X0025684Y0170970D01*
X0025581Y0170729D01*
X0025484Y0170486D01*
X0025393Y0170241D01*
X0025307Y0169993D01*
X0025228Y0169743D01*
X0025155Y0169492D01*
X0025089Y0169238D01*
X0025028Y0168983D01*
X0024974Y0168727D01*
X0024926Y0168470D01*
X0024884Y0168211D01*
X0024849Y0167951D01*
X0024820Y0167691D01*
X0024798Y0167430D01*
X0024782Y0167169D01*
X0024772Y0166907D01*
X0024769Y0166645D01*
X0024772Y0166383D01*
X0024782Y0166121D01*
X0024798Y0165860D01*
X0024820Y0165599D01*
X0024849Y0165339D01*
X0024884Y0165079D01*
X0024926Y0164820D01*
X0024974Y0164563D01*
X0025028Y0164307D01*
X0025089Y0164052D01*
X0025155Y0163798D01*
X0025228Y0163547D01*
X0025307Y0163297D01*
X0025393Y0163049D01*
X0025484Y0162804D01*
X0025581Y0162561D01*
X0025684Y0162320D01*
X0025793Y0162082D01*
X0025908Y0161846D01*
X0026029Y0161614D01*
X0026155Y0161384D01*
X0026287Y0161158D01*
X0026424Y0160935D01*
X0026567Y0160715D01*
X0026715Y0160499D01*
X0026868Y0160287D01*
X0027027Y0160078D01*
X0027191Y0159874D01*
X0027359Y0159673D01*
X0027533Y0159477D01*
X0027711Y0159285D01*
X0027894Y0159097D01*
X0028081Y0158914D01*
X0028273Y0158736D01*
X0028469Y0158562D01*
X0028670Y0158394D01*
X0028874Y0158230D01*
X0029082Y0158071D01*
X0029295Y0157918D01*
X0029511Y0157769D01*
X0029730Y0157626D01*
X0029953Y0157489D01*
X0030179Y0157357D01*
X0030409Y0157230D01*
X0030641Y0157110D01*
X0030877Y0156995D01*
X0030897Y0157037D01*
X0030662Y0157152D01*
X0030431Y0157272D01*
X0030202Y0157398D01*
X0029977Y0157529D01*
X0029755Y0157666D01*
X0029537Y0157808D01*
X0029322Y0157956D01*
X0029110Y0158109D01*
X0028903Y0158267D01*
X0028699Y0158430D01*
X0028500Y0158598D01*
X0028305Y0158771D01*
X0028114Y0158948D01*
X0027927Y0159131D01*
X0027745Y0159317D01*
X0027567Y0159508D01*
X0027395Y0159704D01*
X0027227Y0159903D01*
X0027064Y0160107D01*
X0026906Y0160315D01*
X0026753Y0160526D01*
X0026606Y0160741D01*
X0026464Y0160960D01*
X0026327Y0161182D01*
X0026196Y0161407D01*
X0026070Y0161636D01*
X0025950Y0161867D01*
X0025836Y0162102D01*
X0025727Y0162339D01*
X0025624Y0162579D01*
X0025528Y0162821D01*
X0025437Y0163065D01*
X0025352Y0163312D01*
X0025273Y0163560D01*
X0025201Y0163811D01*
X0025134Y0164063D01*
X0025074Y0164317D01*
X0025020Y0164572D01*
X0024972Y0164828D01*
X0024931Y0165086D01*
X0024896Y0165344D01*
X0024867Y0165603D01*
X0024845Y0165863D01*
X0024829Y0166124D01*
X0024819Y0166384D01*
X0024816Y0166645D01*
X0024819Y0166906D01*
X0024829Y0167166D01*
X0024845Y0167427D01*
X0024867Y0167687D01*
X0024896Y0167946D01*
X0024931Y0168204D01*
X0024972Y0168462D01*
X0025020Y0168718D01*
X0025074Y0168973D01*
X0025134Y0169227D01*
X0025201Y0169479D01*
X0025273Y0169730D01*
X0025352Y0169978D01*
X0025437Y0170225D01*
X0025528Y0170469D01*
X0025624Y0170711D01*
X0025727Y0170951D01*
X0025836Y0171188D01*
X0025950Y0171423D01*
X0026070Y0171654D01*
X0026196Y0171883D01*
X0026327Y0172108D01*
X0026464Y0172330D01*
X0026606Y0172549D01*
X0026753Y0172764D01*
X0026906Y0172975D01*
X0027064Y0173183D01*
X0027227Y0173387D01*
X0027395Y0173586D01*
X0027567Y0173782D01*
X0027745Y0173973D01*
X0027927Y0174159D01*
X0028114Y0174342D01*
X0028305Y0174519D01*
X0028500Y0174692D01*
X0028699Y0174860D01*
X0028903Y0175023D01*
X0029110Y0175181D01*
X0029322Y0175334D01*
X0029537Y0175482D01*
X0029755Y0175624D01*
X0029977Y0175761D01*
X0030202Y0175892D01*
X0030431Y0176018D01*
X0030662Y0176138D01*
X0030897Y0176253D01*
X0030917Y0176210D01*
X0030683Y0176096D01*
X0030453Y0175977D01*
X0030225Y0175851D01*
X0030001Y0175720D01*
X0029780Y0175584D01*
X0029563Y0175442D01*
X0029349Y0175296D01*
X0029138Y0175143D01*
X0028932Y0174986D01*
X0028729Y0174824D01*
X0028531Y0174656D01*
X0028336Y0174484D01*
X0028146Y0174308D01*
X0027960Y0174126D01*
X0027779Y0173940D01*
X0027602Y0173750D01*
X0027430Y0173555D01*
X0027263Y0173357D01*
X0027101Y0173154D01*
X0026944Y0172947D01*
X0026792Y0172737D01*
X0026645Y0172523D01*
X0026504Y0172305D01*
X0026367Y0172084D01*
X0026237Y0171860D01*
X0026112Y0171632D01*
X0025992Y0171402D01*
X0025878Y0171168D01*
X0025770Y0170932D01*
X0025668Y0170693D01*
X0025572Y0170452D01*
X0025481Y0170209D01*
X0025397Y0169963D01*
X0025318Y0169716D01*
X0025246Y0169467D01*
X0025180Y0169215D01*
X0025120Y0168963D01*
X0025066Y0168709D01*
X0025019Y0168454D01*
X0024977Y0168197D01*
X0024943Y0167940D01*
X0024914Y0167682D01*
X0024892Y0167423D01*
X0024876Y0167164D01*
X0024866Y0166905D01*
X0024863Y0166645D01*
X0024866Y0166385D01*
X0024876Y0166126D01*
X0024892Y0165867D01*
X0024914Y0165608D01*
X0024943Y0165350D01*
X0024977Y0165093D01*
X0025019Y0164836D01*
X0025066Y0164581D01*
X0025120Y0164327D01*
X0025180Y0164075D01*
X0025246Y0163823D01*
X0025318Y0163574D01*
X0025397Y0163327D01*
X0025481Y0163081D01*
X0025572Y0162838D01*
X0025668Y0162597D01*
X0025770Y0162358D01*
X0025878Y0162122D01*
X0025992Y0161888D01*
X0026112Y0161658D01*
X0026237Y0161430D01*
X0026367Y0161206D01*
X0026504Y0160985D01*
X0026645Y0160767D01*
X0026792Y0160553D01*
X0026944Y0160343D01*
X0027101Y0160136D01*
X0027263Y0159933D01*
X0027430Y0159735D01*
X0027602Y0159540D01*
X0027779Y0159350D01*
X0027960Y0159164D01*
X0028146Y0158982D01*
X0028336Y0158806D01*
X0028531Y0158634D01*
X0028729Y0158466D01*
X0028932Y0158304D01*
X0029138Y0158147D01*
X0029349Y0157994D01*
X0029563Y0157848D01*
X0029780Y0157706D01*
X0030001Y0157570D01*
X0030225Y0157439D01*
X0030453Y0157313D01*
X0030683Y0157194D01*
X0030917Y0157080D01*
X0030937Y0157122D01*
X0030704Y0157236D01*
X0030475Y0157355D01*
X0030249Y0157480D01*
X0030025Y0157610D01*
X0029805Y0157746D01*
X0029589Y0157887D01*
X0029376Y0158033D01*
X0029166Y0158184D01*
X0028961Y0158341D01*
X0028759Y0158503D01*
X0028561Y0158669D01*
X0028368Y0158840D01*
X0028178Y0159016D01*
X0027993Y0159197D01*
X0027813Y0159382D01*
X0027637Y0159572D01*
X0027466Y0159765D01*
X0027300Y0159963D01*
X0027138Y0160165D01*
X0026982Y0160371D01*
X0026830Y0160580D01*
X0026684Y0160793D01*
X0026543Y0161010D01*
X0026408Y0161230D01*
X0026278Y0161454D01*
X0026153Y0161680D01*
X0026034Y0161910D01*
X0025921Y0162142D01*
X0025813Y0162377D01*
X0025711Y0162615D01*
X0025615Y0162855D01*
X0025525Y0163097D01*
X0025441Y0163341D01*
X0025363Y0163588D01*
X0025291Y0163836D01*
X0025225Y0164086D01*
X0025166Y0164337D01*
X0025112Y0164590D01*
X0025065Y0164844D01*
X0025024Y0165100D01*
X0024989Y0165356D01*
X0024961Y0165613D01*
X0024939Y0165870D01*
X0024923Y0166128D01*
X0024913Y0166387D01*
X0024910Y0166645D01*
X0024913Y0166903D01*
X0024923Y0167162D01*
X0024939Y0167420D01*
X0024961Y0167677D01*
X0024989Y0167934D01*
X0025024Y0168190D01*
X0025065Y0168446D01*
X0025112Y0168700D01*
X0025166Y0168953D01*
X0025225Y0169204D01*
X0025291Y0169454D01*
X0025363Y0169702D01*
X0025441Y0169949D01*
X0025525Y0170193D01*
X0025615Y0170435D01*
X0025711Y0170675D01*
X0025813Y0170913D01*
X0025921Y0171148D01*
X0026034Y0171380D01*
X0026153Y0171610D01*
X0026278Y0171836D01*
X0026408Y0172060D01*
X0026543Y0172280D01*
X0026684Y0172497D01*
X0026830Y0172710D01*
X0026982Y0172919D01*
X0027138Y0173125D01*
X0027300Y0173327D01*
X0027466Y0173525D01*
X0027637Y0173718D01*
X0027813Y0173908D01*
X0027993Y0174093D01*
X0028178Y0174274D01*
X0028368Y0174450D01*
X0028561Y0174621D01*
X0028759Y0174787D01*
X0028961Y0174949D01*
X0029166Y0175106D01*
X0029376Y0175257D01*
X0029589Y0175403D01*
X0029805Y0175544D01*
X0030025Y0175680D01*
X0030249Y0175810D01*
X0030475Y0175935D01*
X0030704Y0176054D01*
X0030937Y0176168D01*
X0030957Y0176125D01*
X0030725Y0176012D01*
X0030497Y0175894D01*
X0030272Y0175769D01*
X0030049Y0175640D01*
X0029830Y0175505D01*
X0029615Y0175364D01*
X0029403Y0175219D01*
X0029194Y0175068D01*
X0028989Y0174912D01*
X0028789Y0174751D01*
X0028592Y0174585D01*
X0028399Y0174415D01*
X0028211Y0174239D01*
X0028027Y0174060D01*
X0027847Y0173875D01*
X0027672Y0173687D01*
X0027501Y0173494D01*
X0027336Y0173297D01*
X0027175Y0173096D01*
X0027019Y0172891D01*
X0026869Y0172683D01*
X0026723Y0172470D01*
X0026583Y0172255D01*
X0026448Y0172036D01*
X0026318Y0171813D01*
X0026194Y0171588D01*
X0026076Y0171359D01*
X0025963Y0171128D01*
X0025856Y0170894D01*
X0025755Y0170657D01*
X0025659Y0170418D01*
X0025570Y0170177D01*
X0025486Y0169934D01*
X0025408Y0169689D01*
X0025337Y0169441D01*
X0025271Y0169193D01*
X0025212Y0168942D01*
X0025158Y0168690D01*
X0025111Y0168438D01*
X0025070Y0168183D01*
X0025036Y0167928D01*
X0025007Y0167673D01*
X0024985Y0167416D01*
X0024970Y0167159D01*
X0024960Y0166902D01*
X0024957Y0166645D01*
X0024960Y0166388D01*
X0024970Y0166131D01*
X0024985Y0165874D01*
X0025007Y0165617D01*
X0025036Y0165362D01*
X0025070Y0165107D01*
X0025111Y0164852D01*
X0025158Y0164600D01*
X0025212Y0164348D01*
X0025271Y0164097D01*
X0025337Y0163849D01*
X0025408Y0163601D01*
X0025486Y0163356D01*
X0025570Y0163113D01*
X0025659Y0162872D01*
X0025755Y0162633D01*
X0025856Y0162396D01*
X0025963Y0162162D01*
X0026076Y0161931D01*
X0026194Y0161702D01*
X0026318Y0161477D01*
X0026448Y0161254D01*
X0026583Y0161035D01*
X0026723Y0160820D01*
X0026869Y0160607D01*
X0027019Y0160399D01*
X0027175Y0160194D01*
X0027336Y0159993D01*
X0027501Y0159796D01*
X0027672Y0159603D01*
X0027847Y0159415D01*
X0028027Y0159230D01*
X0028211Y0159051D01*
X0028399Y0158875D01*
X0028592Y0158705D01*
X0028789Y0158539D01*
X0028989Y0158378D01*
X0029194Y0158222D01*
X0029403Y0158071D01*
X0029615Y0157926D01*
X0029830Y0157785D01*
X0030049Y0157650D01*
X0030272Y0157521D01*
X0030497Y0157396D01*
X0030725Y0157278D01*
X0030957Y0157165D01*
X0030977Y0157207D01*
X0030746Y0157320D01*
X0030519Y0157438D01*
X0030295Y0157561D01*
X0030074Y0157691D01*
X0029855Y0157825D01*
X0029641Y0157965D01*
X0029430Y0158110D01*
X0029222Y0158260D01*
X0029018Y0158415D01*
X0028818Y0158575D01*
X0028622Y0158740D01*
X0028431Y0158910D01*
X0028243Y0159085D01*
X0028060Y0159264D01*
X0027881Y0159447D01*
X0027707Y0159635D01*
X0027537Y0159827D01*
X0027372Y0160023D01*
X0027212Y0160223D01*
X0027057Y0160427D01*
X0026907Y0160635D01*
X0026762Y0160846D01*
X0026623Y0161061D01*
X0026488Y0161279D01*
X0026359Y0161500D01*
X0026236Y0161725D01*
X0026118Y0161952D01*
X0026006Y0162182D01*
X0025899Y0162415D01*
X0025798Y0162651D01*
X0025703Y0162888D01*
X0025614Y0163129D01*
X0025531Y0163371D01*
X0025453Y0163615D01*
X0025382Y0163861D01*
X0025317Y0164109D01*
X0025257Y0164358D01*
X0025204Y0164609D01*
X0025158Y0164861D01*
X0025117Y0165113D01*
X0025082Y0165367D01*
X0025054Y0165622D01*
X0025032Y0165877D01*
X0025017Y0166133D01*
X0025007Y0166389D01*
X0025004Y0166645D01*
X0025007Y0166901D01*
X0025017Y0167157D01*
X0025032Y0167413D01*
X0025054Y0167668D01*
X0025082Y0167923D01*
X0025117Y0168177D01*
X0025158Y0168429D01*
X0025204Y0168681D01*
X0025257Y0168932D01*
X0025317Y0169181D01*
X0025382Y0169429D01*
X0025453Y0169675D01*
X0025531Y0169919D01*
X0025614Y0170161D01*
X0025703Y0170402D01*
X0025798Y0170639D01*
X0025899Y0170875D01*
X0026006Y0171108D01*
X0026118Y0171338D01*
X0026236Y0171565D01*
X0026359Y0171790D01*
X0026488Y0172011D01*
X0026623Y0172229D01*
X0026762Y0172444D01*
X0026907Y0172655D01*
X0027057Y0172863D01*
X0027212Y0173067D01*
X0027372Y0173267D01*
X0027537Y0173463D01*
X0027707Y0173655D01*
X0027881Y0173843D01*
X0028060Y0174026D01*
X0028243Y0174205D01*
X0028431Y0174380D01*
X0028622Y0174550D01*
X0028818Y0174715D01*
X0029018Y0174875D01*
X0029222Y0175030D01*
X0029430Y0175180D01*
X0029641Y0175325D01*
X0029855Y0175465D01*
X0030074Y0175599D01*
X0030295Y0175729D01*
X0030519Y0175852D01*
X0030746Y0175970D01*
X0030977Y0176083D01*
X0030997Y0176040D01*
X0030768Y0175928D01*
X0030541Y0175811D01*
X0030318Y0175688D01*
X0030098Y0175559D01*
X0029881Y0175425D01*
X0029667Y0175286D01*
X0029457Y0175142D01*
X0029250Y0174992D01*
X0029047Y0174838D01*
X0028848Y0174678D01*
X0028653Y0174514D01*
X0028462Y0174345D01*
X0028275Y0174171D01*
X0028093Y0173993D01*
X0027915Y0173810D01*
X0027741Y0173624D01*
X0027573Y0173432D01*
X0027408Y0173237D01*
X0027249Y0173038D01*
X0027095Y0172835D01*
X0026945Y0172628D01*
X0026801Y0172418D01*
X0026662Y0172204D01*
X0026529Y0171987D01*
X0026400Y0171767D01*
X0026277Y0171543D01*
X0026160Y0171317D01*
X0026048Y0171088D01*
X0025942Y0170856D01*
X0025842Y0170621D01*
X0025747Y0170385D01*
X0025658Y0170146D01*
X0025575Y0169904D01*
X0025498Y0169661D01*
X0025427Y0169416D01*
X0025362Y0169170D01*
X0025303Y0168922D01*
X0025251Y0168672D01*
X0025204Y0168421D01*
X0025163Y0168170D01*
X0025129Y0167917D01*
X0025101Y0167663D01*
X0025079Y0167409D01*
X0025064Y0167155D01*
X0025054Y0166900D01*
X0025051Y0166645D01*
X0025054Y0166390D01*
X0025064Y0166135D01*
X0025079Y0165881D01*
X0025101Y0165627D01*
X0025129Y0165373D01*
X0025163Y0165120D01*
X0025204Y0164869D01*
X0025251Y0164618D01*
X0025303Y0164368D01*
X0025362Y0164120D01*
X0025427Y0163874D01*
X0025498Y0163629D01*
X0025575Y0163386D01*
X0025658Y0163144D01*
X0025747Y0162905D01*
X0025842Y0162669D01*
X0025942Y0162434D01*
X0026048Y0162202D01*
X0026160Y0161973D01*
X0026277Y0161747D01*
X0026400Y0161523D01*
X0026529Y0161303D01*
X0026662Y0161086D01*
X0026801Y0160872D01*
X0026945Y0160662D01*
X0027095Y0160455D01*
X0027249Y0160252D01*
X0027408Y0160053D01*
X0027573Y0159858D01*
X0027741Y0159666D01*
X0027915Y0159480D01*
X0028093Y0159297D01*
X0028275Y0159119D01*
X0028462Y0158945D01*
X0028653Y0158776D01*
X0028848Y0158612D01*
X0029047Y0158452D01*
X0029250Y0158298D01*
X0029457Y0158148D01*
X0029667Y0158004D01*
X0029881Y0157865D01*
X0030098Y0157731D01*
X0030318Y0157602D01*
X0030541Y0157479D01*
X0030768Y0157362D01*
X0030997Y0157250D01*
X0031017Y0157292D01*
X0030789Y0157404D01*
X0030563Y0157521D01*
X0030341Y0157643D01*
X0030122Y0157771D01*
X0029906Y0157905D01*
X0029693Y0158043D01*
X0029484Y0158187D01*
X0029278Y0158336D01*
X0029076Y0158489D01*
X0028878Y0158648D01*
X0028684Y0158812D01*
X0028494Y0158980D01*
X0028308Y0159153D01*
X0028126Y0159330D01*
X0027949Y0159512D01*
X0027776Y0159698D01*
X0027608Y0159888D01*
X0027445Y0160083D01*
X0027286Y0160281D01*
X0027133Y0160483D01*
X0026984Y0160689D01*
X0026840Y0160898D01*
X0026702Y0161111D01*
X0026569Y0161327D01*
X0026441Y0161546D01*
X0026319Y0161769D01*
X0026202Y0161994D01*
X0026091Y0162222D01*
X0025985Y0162453D01*
X0025885Y0162687D01*
X0025791Y0162922D01*
X0025702Y0163160D01*
X0025620Y0163400D01*
X0025543Y0163642D01*
X0025472Y0163886D01*
X0025408Y0164132D01*
X0025349Y0164379D01*
X0025297Y0164627D01*
X0025250Y0164877D01*
X0025210Y0165127D01*
X0025176Y0165379D01*
X0025148Y0165631D01*
X0025126Y0165884D01*
X0025110Y0166137D01*
X0025101Y0166391D01*
X0025098Y0166645D01*
X0025101Y0166899D01*
X0025110Y0167153D01*
X0025126Y0167406D01*
X0025148Y0167659D01*
X0025176Y0167911D01*
X0025210Y0168163D01*
X0025250Y0168413D01*
X0025297Y0168663D01*
X0025349Y0168911D01*
X0025408Y0169158D01*
X0025472Y0169404D01*
X0025543Y0169648D01*
X0025620Y0169890D01*
X0025702Y0170130D01*
X0025791Y0170368D01*
X0025885Y0170603D01*
X0025985Y0170837D01*
X0026091Y0171068D01*
X0026202Y0171296D01*
X0026319Y0171521D01*
X0026441Y0171744D01*
X0026569Y0171963D01*
X0026702Y0172179D01*
X0026840Y0172392D01*
X0026984Y0172601D01*
X0027133Y0172807D01*
X0027286Y0173009D01*
X0027445Y0173207D01*
X0027608Y0173402D01*
X0027776Y0173592D01*
X0027949Y0173778D01*
X0028126Y0173960D01*
X0028308Y0174137D01*
X0028494Y0174310D01*
X0028684Y0174478D01*
X0028878Y0174642D01*
X0029076Y0174801D01*
X0029278Y0174954D01*
X0029484Y0175103D01*
X0029693Y0175247D01*
X0029906Y0175385D01*
X0030122Y0175519D01*
X0030341Y0175647D01*
X0030563Y0175769D01*
X0030789Y0175886D01*
X0031017Y0175998D01*
X0031037Y0175955D01*
X0030810Y0175844D01*
X0030585Y0175728D01*
X0030364Y0175606D01*
X0030146Y0175478D01*
X0029931Y0175346D01*
X0029719Y0175208D01*
X0029511Y0175065D01*
X0029306Y0174917D01*
X0029105Y0174763D01*
X0028908Y0174605D01*
X0028714Y0174443D01*
X0028525Y0174275D01*
X0028340Y0174103D01*
X0028159Y0173927D01*
X0027983Y0173746D01*
X0027811Y0173560D01*
X0027644Y0173371D01*
X0027481Y0173178D01*
X0027323Y0172980D01*
X0027170Y0172779D01*
X0027022Y0172574D01*
X0026879Y0172366D01*
X0026742Y0172154D01*
X0026609Y0171939D01*
X0026482Y0171720D01*
X0026360Y0171499D01*
X0026244Y0171275D01*
X0026133Y0171047D01*
X0026028Y0170818D01*
X0025928Y0170585D01*
X0025835Y0170351D01*
X0025747Y0170114D01*
X0025664Y0169875D01*
X0025588Y0169634D01*
X0025518Y0169391D01*
X0025453Y0169147D01*
X0025395Y0168901D01*
X0025343Y0168654D01*
X0025297Y0168405D01*
X0025256Y0168156D01*
X0025222Y0167905D01*
X0025195Y0167654D01*
X0025173Y0167402D01*
X0025157Y0167150D01*
X0025148Y0166898D01*
X0025145Y0166645D01*
X0025148Y0166392D01*
X0025157Y0166140D01*
X0025173Y0165888D01*
X0025195Y0165636D01*
X0025222Y0165385D01*
X0025256Y0165134D01*
X0025297Y0164885D01*
X0025343Y0164636D01*
X0025395Y0164389D01*
X0025453Y0164143D01*
X0025518Y0163899D01*
X0025588Y0163656D01*
X0025664Y0163415D01*
X0025747Y0163176D01*
X0025835Y0162939D01*
X0025928Y0162705D01*
X0026028Y0162472D01*
X0026133Y0162243D01*
X0026244Y0162015D01*
X0026360Y0161791D01*
X0026482Y0161570D01*
X0026609Y0161351D01*
X0026742Y0161136D01*
X0026879Y0160924D01*
X0027022Y0160716D01*
X0027170Y0160511D01*
X0027323Y0160310D01*
X0027481Y0160112D01*
X0027644Y0159919D01*
X0027811Y0159730D01*
X0027983Y0159544D01*
X0028159Y0159363D01*
X0028340Y0159187D01*
X0028525Y0159015D01*
X0028714Y0158847D01*
X0028908Y0158685D01*
X0029105Y0158527D01*
X0029306Y0158373D01*
X0029511Y0158225D01*
X0029719Y0158082D01*
X0029931Y0157944D01*
X0030146Y0157812D01*
X0030364Y0157684D01*
X0030585Y0157562D01*
X0030810Y0157446D01*
X0031037Y0157335D01*
X0040036Y0156951D02*
X0039845Y0157358D01*
X0039845Y0157357D02*
X0040051Y0157458D01*
X0040254Y0157562D01*
X0040455Y0157672D01*
X0040654Y0157786D01*
X0040850Y0157904D01*
X0041043Y0158026D01*
X0041233Y0158153D01*
X0041421Y0158284D01*
X0041606Y0158419D01*
X0041787Y0158558D01*
X0042065Y0158205D01*
X0042066Y0158205D01*
X0041876Y0158059D01*
X0041683Y0157918D01*
X0041487Y0157781D01*
X0041288Y0157649D01*
X0041086Y0157521D01*
X0040882Y0157398D01*
X0040674Y0157279D01*
X0040464Y0157164D01*
X0040252Y0157055D01*
X0040037Y0156950D01*
X0040017Y0156993D01*
X0040231Y0157097D01*
X0040442Y0157206D01*
X0040651Y0157320D01*
X0040858Y0157438D01*
X0041062Y0157561D01*
X0041263Y0157688D01*
X0041461Y0157820D01*
X0041656Y0157956D01*
X0041848Y0158097D01*
X0042037Y0158242D01*
X0042008Y0158279D01*
X0041820Y0158135D01*
X0041629Y0157995D01*
X0041434Y0157859D01*
X0041237Y0157728D01*
X0041037Y0157601D01*
X0040834Y0157479D01*
X0040629Y0157361D01*
X0040420Y0157248D01*
X0040210Y0157139D01*
X0039997Y0157035D01*
X0039977Y0157078D01*
X0040189Y0157181D01*
X0040398Y0157289D01*
X0040606Y0157402D01*
X0040810Y0157519D01*
X0041012Y0157641D01*
X0041211Y0157767D01*
X0041408Y0157898D01*
X0041601Y0158033D01*
X0041791Y0158172D01*
X0041979Y0158316D01*
X0041950Y0158353D01*
X0041763Y0158210D01*
X0041574Y0158071D01*
X0041381Y0157937D01*
X0041186Y0157807D01*
X0040988Y0157681D01*
X0040786Y0157560D01*
X0040583Y0157443D01*
X0040377Y0157331D01*
X0040168Y0157223D01*
X0039957Y0157120D01*
X0039937Y0157163D01*
X0040147Y0157265D01*
X0040355Y0157372D01*
X0040560Y0157484D01*
X0040763Y0157600D01*
X0040963Y0157721D01*
X0041160Y0157846D01*
X0041355Y0157975D01*
X0041546Y0158109D01*
X0041735Y0158247D01*
X0041920Y0158389D01*
X0041891Y0158426D01*
X0041707Y0158285D01*
X0041519Y0158147D01*
X0041328Y0158014D01*
X0041135Y0157885D01*
X0040938Y0157761D01*
X0040739Y0157641D01*
X0040537Y0157525D01*
X0040333Y0157414D01*
X0040126Y0157307D01*
X0039917Y0157205D01*
X0039897Y0157248D01*
X0040105Y0157349D01*
X0040311Y0157455D01*
X0040514Y0157566D01*
X0040715Y0157681D01*
X0040913Y0157801D01*
X0041109Y0157925D01*
X0041302Y0158053D01*
X0041492Y0158186D01*
X0041679Y0158322D01*
X0041862Y0158463D01*
X0041833Y0158500D01*
X0041650Y0158360D01*
X0041464Y0158224D01*
X0041275Y0158092D01*
X0041083Y0157964D01*
X0040889Y0157841D01*
X0040691Y0157722D01*
X0040491Y0157607D01*
X0040289Y0157497D01*
X0040084Y0157391D01*
X0039877Y0157290D01*
X0039857Y0157333D01*
X0040063Y0157433D01*
X0040267Y0157539D01*
X0040468Y0157648D01*
X0040667Y0157762D01*
X0040864Y0157881D01*
X0041058Y0158004D01*
X0041249Y0158131D01*
X0041437Y0158262D01*
X0041622Y0158398D01*
X0041804Y0158537D01*
X0042065Y0175084D02*
X0041787Y0174730D01*
X0041787Y0174731D02*
X0041598Y0174876D01*
X0041404Y0175017D01*
X0041208Y0175153D01*
X0041009Y0175285D01*
X0040806Y0175412D01*
X0040601Y0175534D01*
X0040393Y0175652D01*
X0040182Y0175765D01*
X0039968Y0175872D01*
X0039752Y0175975D01*
X0039940Y0176384D01*
X0040166Y0176277D01*
X0040389Y0176164D01*
X0040609Y0176047D01*
X0040826Y0175924D01*
X0041041Y0175796D01*
X0041252Y0175663D01*
X0041461Y0175526D01*
X0041666Y0175383D01*
X0041868Y0175236D01*
X0042066Y0175084D01*
X0042037Y0175047D01*
X0041839Y0175198D01*
X0041639Y0175345D01*
X0041434Y0175487D01*
X0041227Y0175624D01*
X0041016Y0175756D01*
X0040803Y0175883D01*
X0040586Y0176005D01*
X0040367Y0176123D01*
X0040145Y0176235D01*
X0039920Y0176341D01*
X0039901Y0176299D01*
X0040124Y0176192D01*
X0040345Y0176081D01*
X0040564Y0175964D01*
X0040779Y0175842D01*
X0040992Y0175716D01*
X0041201Y0175584D01*
X0041408Y0175448D01*
X0041611Y0175307D01*
X0041811Y0175161D01*
X0042008Y0175010D01*
X0041979Y0174973D01*
X0041783Y0175123D01*
X0041584Y0175268D01*
X0041382Y0175409D01*
X0041176Y0175545D01*
X0040967Y0175676D01*
X0040756Y0175802D01*
X0040541Y0175923D01*
X0040324Y0176039D01*
X0040104Y0176150D01*
X0039881Y0176256D01*
X0039862Y0176213D01*
X0040083Y0176108D01*
X0040302Y0175997D01*
X0040518Y0175882D01*
X0040732Y0175761D01*
X0040943Y0175636D01*
X0041151Y0175505D01*
X0041355Y0175370D01*
X0041557Y0175230D01*
X0041755Y0175086D01*
X0041950Y0174936D01*
X0041920Y0174900D01*
X0041727Y0175048D01*
X0041529Y0175192D01*
X0041329Y0175331D01*
X0041125Y0175466D01*
X0040918Y0175596D01*
X0040709Y0175720D01*
X0040496Y0175840D01*
X0040281Y0175956D01*
X0040063Y0176066D01*
X0039842Y0176170D01*
X0039822Y0176128D01*
X0040042Y0176023D01*
X0040259Y0175914D01*
X0040473Y0175799D01*
X0040685Y0175680D01*
X0040894Y0175555D01*
X0041100Y0175426D01*
X0041302Y0175292D01*
X0041502Y0175154D01*
X0041698Y0175010D01*
X0041891Y0174863D01*
X0041862Y0174826D01*
X0041670Y0174973D01*
X0041475Y0175115D01*
X0041276Y0175253D01*
X0041074Y0175387D01*
X0040869Y0175515D01*
X0040661Y0175639D01*
X0040451Y0175758D01*
X0040237Y0175872D01*
X0040021Y0175981D01*
X0039803Y0176085D01*
X0039783Y0176042D01*
X0040001Y0175939D01*
X0040216Y0175830D01*
X0040428Y0175717D01*
X0040638Y0175598D01*
X0040845Y0175475D01*
X0041049Y0175347D01*
X0041250Y0175215D01*
X0041447Y0175077D01*
X0041642Y0174935D01*
X0041833Y0174789D01*
X0041804Y0174752D01*
X0041614Y0174898D01*
X0041420Y0175039D01*
X0041223Y0175176D01*
X0041023Y0175308D01*
X0040820Y0175435D01*
X0040614Y0175558D01*
X0040406Y0175676D01*
X0040194Y0175789D01*
X0039980Y0175897D01*
X0039764Y0176000D01*
D13*
X0071008Y0216435D02*
X0071008Y0026435D01*
X0106008Y0026435D01*
X0106008Y0041435D01*
X0136008Y0041435D01*
X0136008Y0026435D01*
X0141008Y0031435D02*
X0151008Y0031435D01*
X0151008Y0041435D01*
X0141008Y0041435D01*
X0141008Y0031435D01*
X0171008Y0026435D02*
X0171008Y0216435D01*
X0091008Y0216435D01*
X0101008Y0211435D02*
X0101008Y0196435D01*
X0106008Y0201435D02*
X0111008Y0201435D01*
X0111008Y0211435D01*
X0116008Y0211435D01*
X0121008Y0211435D02*
X0126008Y0211435D01*
X0126008Y0201435D01*
X0131008Y0201435D01*
X0131008Y0211435D01*
X0141008Y0211435D01*
X0121008Y0211435D02*
X0121008Y0201435D01*
X0116008Y0201435D01*
X0106008Y0201435D02*
X0106008Y0211435D01*
X0200449Y0176003D02*
X0205017Y0178037D01*
X0200449Y0176003D02*
X0216719Y0139461D01*
X0221287Y0141495D01*
X0230422Y0145562D02*
X0234990Y0147596D01*
X0218720Y0184138D01*
X0214153Y0182104D01*
X0101008Y0041435D02*
X0091008Y0041435D01*
X0091008Y0031435D01*
X0101008Y0031435D01*
X0101008Y0041435D01*
X0106008Y0026435D02*
X0171008Y0026435D01*
D14*
X0087418Y0073887D02*
X0082818Y0075420D01*
X0082818Y0077326D02*
X0082818Y0078604D01*
X0082817Y0078604D02*
X0082819Y0078674D01*
X0082825Y0078745D01*
X0082834Y0078814D01*
X0082848Y0078883D01*
X0082865Y0078952D01*
X0082886Y0079019D01*
X0082911Y0079085D01*
X0082939Y0079149D01*
X0082971Y0079212D01*
X0083006Y0079273D01*
X0083045Y0079332D01*
X0083086Y0079389D01*
X0083131Y0079443D01*
X0083179Y0079495D01*
X0083229Y0079544D01*
X0083283Y0079591D01*
X0083338Y0079634D01*
X0083396Y0079674D01*
X0083456Y0079711D01*
X0083518Y0079744D01*
X0083582Y0079774D01*
X0083647Y0079801D01*
X0083713Y0079824D01*
X0083781Y0079843D01*
X0083850Y0079858D01*
X0083919Y0079870D01*
X0083989Y0079878D01*
X0084060Y0079882D01*
X0084130Y0079882D01*
X0084201Y0079878D01*
X0084271Y0079870D01*
X0084340Y0079858D01*
X0084409Y0079843D01*
X0084477Y0079824D01*
X0084543Y0079801D01*
X0084608Y0079774D01*
X0084672Y0079744D01*
X0084734Y0079711D01*
X0084794Y0079674D01*
X0084852Y0079634D01*
X0084907Y0079591D01*
X0084961Y0079544D01*
X0085011Y0079495D01*
X0085059Y0079443D01*
X0085104Y0079389D01*
X0085145Y0079332D01*
X0085184Y0079273D01*
X0085219Y0079212D01*
X0085251Y0079149D01*
X0085279Y0079085D01*
X0085304Y0079019D01*
X0085325Y0078952D01*
X0085342Y0078883D01*
X0085356Y0078814D01*
X0085365Y0078745D01*
X0085371Y0078674D01*
X0085373Y0078604D01*
X0085373Y0077326D01*
X0087418Y0077326D02*
X0082818Y0077326D01*
X0082818Y0072354D02*
X0087418Y0073887D01*
X0087418Y0081354D02*
X0082818Y0082887D01*
X0087418Y0084420D01*
X0086268Y0084037D02*
X0086268Y0081737D01*
X0086395Y0086096D02*
X0083840Y0086096D01*
X0083778Y0086098D01*
X0083717Y0086103D01*
X0083656Y0086113D01*
X0083595Y0086126D01*
X0083536Y0086142D01*
X0083478Y0086162D01*
X0083421Y0086186D01*
X0083365Y0086213D01*
X0083311Y0086243D01*
X0083259Y0086277D01*
X0083210Y0086313D01*
X0083162Y0086353D01*
X0083117Y0086395D01*
X0083075Y0086440D01*
X0083036Y0086488D01*
X0082999Y0086537D01*
X0082965Y0086589D01*
X0082935Y0086643D01*
X0082908Y0086699D01*
X0082884Y0086756D01*
X0082864Y0086814D01*
X0082848Y0086873D01*
X0082835Y0086934D01*
X0082825Y0086995D01*
X0082820Y0087056D01*
X0082818Y0087118D01*
X0082818Y0088141D01*
X0082818Y0090076D02*
X0087418Y0090076D01*
X0085629Y0090076D02*
X0082818Y0092631D01*
X0084607Y0091098D02*
X0087418Y0092631D01*
X0087418Y0088141D02*
X0087418Y0087118D01*
X0087417Y0087118D02*
X0087415Y0087056D01*
X0087410Y0086995D01*
X0087400Y0086934D01*
X0087387Y0086873D01*
X0087371Y0086814D01*
X0087351Y0086756D01*
X0087327Y0086699D01*
X0087300Y0086643D01*
X0087270Y0086589D01*
X0087236Y0086537D01*
X0087200Y0086488D01*
X0087160Y0086440D01*
X0087118Y0086395D01*
X0087073Y0086353D01*
X0087025Y0086313D01*
X0086976Y0086277D01*
X0086924Y0086243D01*
X0086870Y0086213D01*
X0086814Y0086186D01*
X0086757Y0086162D01*
X0086699Y0086142D01*
X0086640Y0086126D01*
X0086579Y0086113D01*
X0086518Y0086103D01*
X0086457Y0086098D01*
X0086395Y0086096D01*
D15*
X0134274Y0169702D03*
D16*
X0150605Y0023683D03*
X0153558Y0023683D03*
X0159175Y0023639D03*
X0162128Y0023639D03*
D17*
X0160652Y0023639D03*
X0152082Y0023683D03*
M02*
